<svg width="25" height="30" viewBox="0 0 25 30" fill="none" xmlns="http://www.w3.org/2000/svg">
<path d="M8.20568 30.0003C3.71479 29.9745 0 20.8602 0 16.2184C0 8.63616 5.72111 6.9762 7.92598 6.9762C8.91962 6.9762 9.98063 7.36415 10.9165 7.70745C11.5709 7.94692 12.2477 8.19413 12.6241 8.19413C12.8494 8.19413 13.3803 7.98384 13.8491 7.79933C14.8488 7.40364 16.0928 6.91187 17.5414 6.91187C17.544 6.91187 17.5475 6.91187 17.5501 6.91187C18.6317 6.91187 21.9115 7.14788 23.8833 10.0919L24.3451 10.7819L23.6804 11.2806C22.7308 11.993 20.9981 13.2925 20.9981 15.8666C20.9981 18.9153 22.9604 20.0877 23.9031 20.6516C24.3193 20.9005 24.75 21.1572 24.75 21.7185C24.75 22.085 21.8079 29.9548 17.5354 29.9548C16.4899 29.9548 15.7509 29.6424 15.0991 29.3669C14.4396 29.0879 13.8706 28.8476 12.9305 28.8476C12.4539 28.8476 11.8513 29.0716 11.2134 29.3094C10.3415 29.6329 9.35474 30.0003 8.23503 30.0003H8.20568Z" fill="white"/>
<path d="M17.9892 0C18.1005 3.98883 15.2312 6.7561 12.3653 6.58254C11.8931 3.39932 15.2309 0 17.9892 0Z" fill="white"/>
</svg>
