<svg width="94" height="29" viewBox="0 0 94 29" fill="none" xmlns="http://www.w3.org/2000/svg">
<path fill-rule="evenodd" clip-rule="evenodd" d="M0.856542 0.923609C1.00564 1.00597 1.12579 1.00465 1.2074 0.919873C1.29723 0.826677 1.34301 0.885693 1.37263 1.13284C1.39517 1.32082 1.34596 1.50997 1.26319 1.55314C1.02411 1.67767 1.13023 1.99525 1.48121 2.20541C1.65868 2.31161 1.81285 2.47319 1.8238 2.56456C1.84831 2.76905 1.65874 2.80581 1.53948 2.61952C1.49128 2.54429 1.48668 2.59389 1.52921 2.72983C1.58386 2.90488 1.55642 2.96477 1.43529 2.93483C1.34109 2.91157 1.27098 2.95052 1.27947 3.02132C1.28796 3.09211 1.36137 3.14286 1.44275 3.13405C1.54119 3.12355 1.53608 3.16189 1.42721 3.24923C1.28685 3.36169 1.30021 3.40219 1.52138 3.53499C1.663 3.62001 1.90783 3.72533 2.06523 3.76896C2.22796 3.81407 2.32323 3.90819 2.28606 3.98694C2.24038 4.08369 2.1843 4.08156 2.10011 3.97998C2.00847 3.86916 1.98165 3.89041 1.98776 4.06928C1.99223 4.19845 1.9974 4.36658 1.99923 4.44277C2.00107 4.51908 1.96809 4.6248 1.92578 4.67763C1.73262 4.91941 1.90927 4.98467 2.39752 4.85174C2.96723 4.69665 3.01603 4.71993 2.76933 5.02874C2.62431 5.21039 2.62684 5.23945 2.79191 5.28015C2.89451 5.30547 2.95841 5.4037 2.93397 5.49861C2.90908 5.59487 2.96042 5.66336 3.04995 5.65357C3.17378 5.64014 3.17303 5.66676 3.04679 5.7701C2.9069 5.88451 2.91315 5.90074 3.09004 5.88107C3.21998 5.86655 3.30771 5.94766 3.32582 6.09879C3.34171 6.23131 3.44383 6.40857 3.55278 6.4928C3.66172 6.57702 3.77236 6.82531 3.79863 7.04444C3.82491 7.26369 3.89567 7.43716 3.95591 7.42994C4.10203 7.41242 4.53418 8.06885 4.46833 8.20823C4.43976 8.26873 4.46652 8.3121 4.52771 8.30476C4.66118 8.28876 5.39706 9.38389 5.42837 9.6451C5.44051 9.74635 5.56378 9.85021 5.70225 9.87582C5.84073 9.90156 5.93859 9.98628 5.91953 10.0642C5.8803 10.2246 6.38191 10.9068 6.65521 11.0647C6.80865 11.1533 6.81061 11.2006 6.66796 11.379C6.45658 11.6436 6.47805 11.8917 6.70212 11.7749C6.9791 11.6306 7.23942 11.7592 7.27525 12.0581C7.29619 12.2328 7.53371 12.517 7.90698 12.8143C8.32621 13.148 8.49224 13.3566 8.46206 13.5116C8.42976 13.6769 8.4635 13.7096 8.59546 13.6409C8.77216 13.5487 8.83368 13.6561 8.84028 14.0679C8.84216 14.1816 8.93053 14.2961 9.03671 14.3223C9.1503 14.3503 9.24641 14.5084 9.27013 14.7062C9.29509 14.9144 9.37245 15.0351 9.47321 15.023C9.56263 15.0123 9.7048 15.0678 9.78898 15.1464C9.87789 15.2293 10.0931 15.2534 10.3023 15.2037C10.6026 15.1323 10.6535 15.1526 10.6087 15.3264C10.5792 15.441 10.5888 15.4923 10.6301 15.4406C10.7137 15.3361 11.1768 15.6187 11.1969 15.7864C11.2119 15.912 11.55 16.1891 11.6704 16.1747C11.7588 16.1641 12.073 16.4271 12.708 17.0434C12.9208 17.25 13.1408 17.4135 13.1967 17.4068C13.3426 17.3893 14.0287 17.9251 14.1495 18.1509C14.2055 18.2557 14.3271 18.3326 14.4197 18.3215C14.5122 18.3104 14.6279 18.3761 14.6769 18.4675C14.7257 18.5589 14.8737 18.6208 15.0057 18.605C15.1376 18.5892 15.2535 18.6421 15.2632 18.7226C15.2728 18.8031 15.4016 18.9247 15.5493 18.9929C15.7473 19.084 15.7873 19.1549 15.7015 19.2623C15.6374 19.3426 15.5932 19.4628 15.6032 19.5298C15.6132 19.5966 15.6646 19.5534 15.7174 19.4335C15.8587 19.1128 15.9831 19.1409 16.6257 19.6376C16.9455 19.8848 17.2319 20.0562 17.2621 20.0184C17.2923 19.9806 17.412 19.9731 17.5281 20.0017C17.6891 20.0414 17.7104 20.09 17.6177 20.2061C17.4177 20.4565 17.5022 20.5642 17.7597 20.3867C17.9553 20.2517 18.0302 20.2528 18.163 20.3931C18.2527 20.4878 18.3867 20.5581 18.4608 20.5492C18.5348 20.5403 18.6017 20.5854 18.6094 20.6493C18.617 20.7133 18.703 20.756 18.8005 20.7443C18.8989 20.7325 18.99 20.8264 19.0055 20.9556C19.0213 21.0871 19.1122 21.1787 19.2147 21.1664C19.3145 21.1544 19.5268 21.2083 19.6867 21.2862C19.8465 21.3641 20.1212 21.4223 20.2973 21.4156C20.4843 21.4085 20.6557 21.4869 20.7097 21.6042C20.7604 21.7147 20.8477 21.769 20.9034 21.7253C20.9593 21.6815 21.1328 21.7129 21.2894 21.7952C21.4458 21.8775 21.6683 21.9335 21.7838 21.9197C21.8992 21.9058 22.0024 21.9674 22.0131 22.0565C22.0387 22.2699 22.3544 22.3403 22.6999 22.2097C22.8597 22.1493 22.9835 22.1559 22.9918 22.2251C23.0084 22.3628 23.7085 22.6323 23.9686 22.6011C24.1166 22.5834 24.1217 22.6116 24.0031 22.7929C23.8758 22.9875 23.8851 22.9889 24.114 22.8091C24.3196 22.6474 24.384 22.6378 24.4792 22.7548C24.5429 22.8329 24.7386 22.8951 24.9141 22.8931C25.0897 22.891 25.335 22.9593 25.4591 23.0447C25.5832 23.1302 25.8729 23.1955 26.1029 23.1898C26.3329 23.1842 26.6304 23.2554 26.7641 23.3482C26.8978 23.4409 27.0726 23.4826 27.1525 23.4409C27.2325 23.3992 27.3374 23.414 27.3857 23.4738C27.434 23.5336 27.7291 23.5878 28.0413 23.5946C28.3536 23.6013 28.7067 23.6721 28.8259 23.7523C28.9453 23.8323 29.1392 23.8761 29.2569 23.8495C29.6319 23.7648 29.7692 23.7885 29.7874 23.941C29.7996 24.0428 29.9626 24.062 30.3027 24.0021C30.5762 23.954 30.9195 23.9728 31.0653 24.0439C31.2111 24.1149 31.4616 24.1756 31.6219 24.1785C31.7822 24.1816 31.9875 24.2548 32.0781 24.3412C32.1789 24.4372 32.2382 24.4456 32.2305 24.3627C32.2184 24.2305 32.4397 24.247 33.262 24.4398C33.3976 24.4716 33.7447 24.4726 34.0333 24.4423C34.3855 24.4051 34.6001 24.4439 34.6861 24.5604C34.7882 24.6985 34.8458 24.701 34.9692 24.573C35.0839 24.4537 35.1956 24.4369 35.401 24.5078C35.5533 24.5604 35.8682 24.6165 36.1008 24.6324C36.3334 24.6484 36.5806 24.6867 36.6502 24.7175C36.8162 24.7911 36.9502 24.7937 38.1512 24.7454C38.7087 24.7232 39.203 24.75 39.2498 24.8051C39.2965 24.8603 39.648 24.8683 40.0307 24.8228C40.4135 24.7773 41.2432 24.7763 41.8745 24.8203C42.5058 24.8644 43.4739 24.8439 44.0257 24.7746C44.5776 24.7054 45.3549 24.6676 45.753 24.6907C46.4325 24.7302 47.5916 24.5759 47.7908 24.4195C47.84 24.3808 47.9545 24.3831 48.0454 24.4244C48.1363 24.4658 48.3966 24.4343 48.6238 24.3545C48.8511 24.2747 49.0891 24.2332 49.1528 24.2622C49.2167 24.2912 49.487 24.2994 49.7537 24.2801C50.0204 24.261 50.266 24.3026 50.2994 24.3725C50.3412 24.4598 50.4272 24.456 50.5745 24.3602C50.6924 24.2835 50.8823 24.1605 50.9964 24.0868C51.1128 24.0117 51.3933 23.9717 51.6353 23.9957C51.9028 24.0224 52.1074 23.9875 52.1743 23.9038C52.2487 23.8107 52.3407 23.806 52.4707 23.8884C52.6063 23.9746 52.6774 23.9694 52.7245 23.8698C52.763 23.7883 53.1131 23.699 53.5778 23.6525C54.0111 23.609 54.5631 23.5134 54.8044 23.4398C55.1413 23.337 55.3022 23.3473 55.4986 23.484C55.6392 23.582 55.7475 23.6061 55.7393 23.5375C55.7311 23.469 55.6541 23.3899 55.5684 23.3618C55.4826 23.3336 55.6082 23.3098 55.8475 23.3088C56.0868 23.3079 56.3286 23.2493 56.385 23.1787C56.4413 23.1082 56.6593 23.0022 56.8692 22.9434C57.0791 22.8846 57.3821 22.7659 57.5426 22.6797C57.9616 22.4546 58.6018 22.3382 58.8657 22.4393C59 22.4906 59.0875 22.4824 59.0799 22.419C59.0694 22.3315 59.7847 22.0615 60.2835 21.9648C60.3479 21.9523 60.4499 21.9028 60.5102 21.8548C60.5705 21.8066 60.8996 21.7488 61.2416 21.726C61.6468 21.6992 61.832 21.6462 61.7734 21.5737C61.7173 21.5043 61.7821 21.4758 61.946 21.4976C62.0903 21.5169 62.233 21.4807 62.2629 21.4173C62.2929 21.3538 62.3665 21.3243 62.4266 21.3517C62.4867 21.379 62.5606 21.3489 62.5909 21.2849C62.6211 21.2209 63.0531 21.0823 63.5507 20.977C64.0484 20.8715 64.5167 20.7239 64.5914 20.6488C64.7302 20.5093 65.0622 20.4054 65.7487 20.2868C65.9613 20.25 66.1574 20.1729 66.1845 20.1154C66.2117 20.0579 66.4062 19.9902 66.6168 19.965C66.8274 19.9397 67.0578 19.8462 67.129 19.7571C67.2319 19.6283 67.2852 19.6278 67.3905 19.7552C67.4632 19.8433 67.5166 19.8583 67.5093 19.7885C67.4875 19.5809 67.9702 19.3523 68.2496 19.4379C68.5234 19.5217 69.3498 19.1348 69.3258 18.9341C69.3183 18.8719 69.4732 18.8344 69.6749 18.8496C69.8812 18.865 70.1017 18.8099 70.1869 18.7213C70.3021 18.6017 70.3533 18.599 70.4086 18.7095C70.4574 18.8071 70.5683 18.7366 70.7534 18.4903C70.9566 18.2198 71.0784 18.1486 71.2317 18.2105C71.419 18.2861 71.5778 18.239 72.3157 17.8886C72.4092 17.8441 72.6169 17.7773 72.7772 17.7401C72.9374 17.7029 73.2456 17.6142 73.462 17.5431C73.7644 17.4438 73.8951 17.4557 74.0267 17.5947C74.1837 17.7605 74.2022 17.7527 74.2513 17.501C74.3106 17.1968 74.4289 17.038 74.795 16.7709C75.0018 16.6201 75.0557 16.6184 75.1315 16.76C75.2486 16.9791 75.4388 16.9552 75.4113 16.725C75.3941 16.5818 75.4401 16.5658 75.6443 16.6439C75.8467 16.7214 75.9625 16.6842 76.2102 16.4623C76.3815 16.3089 76.7065 16.1612 76.9325 16.1341C77.2441 16.0967 77.3516 16.0269 77.3774 15.8449C77.4129 15.5936 77.6584 15.4802 77.685 15.7027C77.6935 15.7735 77.7733 15.7934 77.8623 15.747C77.9514 15.7006 78.0575 15.7221 78.0982 15.7946C78.139 15.8672 78.1648 15.8285 78.1556 15.7088C78.1424 15.5363 78.2115 15.4928 78.4869 15.4994C78.7401 15.5055 78.8136 15.4679 78.7566 15.3612C78.7041 15.263 78.7438 15.2308 78.8772 15.2637C79.0124 15.297 79.0684 15.2489 79.0522 15.1135C79.0367 14.9841 79.0933 14.9303 79.2135 14.96C79.3154 14.985 79.3929 14.9573 79.3858 14.8983C79.3788 14.8392 79.5555 14.7341 79.7785 14.6647C80.0016 14.5952 80.2053 14.4933 80.2313 14.4384C80.2573 14.3834 80.4953 14.2752 80.7603 14.1978C81.0251 14.1204 81.3377 13.9457 81.4546 13.8095C81.5715 13.6733 81.79 13.5471 81.9402 13.5291C82.0904 13.5111 82.2069 13.4441 82.1993 13.3801C82.1916 13.3162 82.2651 13.2543 82.3625 13.2427C82.46 13.231 82.5454 13.2692 82.5524 13.3276C82.5594 13.386 82.7171 13.3556 82.903 13.2599C83.0889 13.1644 83.2284 13.0328 83.2133 12.9677C83.143 12.667 83.1922 12.5656 83.3851 12.6131C83.5232 12.6473 83.5572 12.6227 83.4888 12.5381C83.4244 12.4584 83.4717 12.4022 83.6177 12.3847C83.7445 12.3695 83.8683 12.2795 83.8926 12.1847C83.9171 12.0899 84.2232 11.9174 84.5726 11.8012C85.0309 11.649 85.2211 11.5243 85.2542 11.3546C85.3027 11.1056 85.8866 10.6479 86.0568 10.7253C86.1713 10.7775 86.5062 10.3278 86.4849 10.1503C86.4772 10.0858 86.5926 9.95983 86.7415 9.8704C86.9022 9.77389 86.9786 9.6454 86.9298 9.55409C86.8124 9.33467 87.0506 9.02511 87.3658 8.98733C87.5133 8.96964 87.6551 8.8734 87.6809 8.77338C87.7297 8.58416 88.2086 8.51425 88.3599 8.67441C88.4071 8.7243 88.4751 8.70282 88.511 8.62682C88.5469 8.5507 88.52 8.4952 88.4513 8.50344C88.3825 8.51168 88.3161 8.43438 88.3038 8.33162C88.2892 8.20955 88.2199 8.17682 88.1041 8.23716C88.0066 8.288 87.8289 8.2922 87.7094 8.24639C87.5858 8.19918 87.4261 8.21491 87.3394 8.28296C87.2527 8.35102 87.0928 8.36665 86.9686 8.31915C86.836 8.26842 86.6442 8.29059 86.4797 8.37564C86.1554 8.54341 85.7545 8.42095 85.9921 8.22668C86.0776 8.15675 85.8854 8.15244 85.5146 8.21587C85.1733 8.27435 84.8817 8.38077 84.8666 8.45239C84.8516 8.524 84.764 8.5917 84.672 8.60273C84.5798 8.61377 84.514 8.70126 84.5255 8.79717C84.5415 8.93109 84.3954 8.98964 83.8967 9.04942C83.3574 9.11408 83.2426 9.09282 83.2209 8.92407C83.2061 8.80935 83.163 8.77595 83.1219 8.84751C83.0818 8.91716 82.9513 9.07691 82.8319 9.20242C82.636 9.40833 82.5798 9.41778 82.2562 9.29867C81.936 9.18082 81.8779 9.18908 81.7123 9.3765C81.5597 9.54914 81.4435 9.57405 81.0581 9.51682C80.3763 9.41554 80.1581 9.46764 80.1194 9.74138C80.0931 9.92778 80.0241 9.97261 79.8242 9.93348C79.6808 9.90528 79.4711 9.89905 79.3582 9.91966C79.2454 9.94037 79.144 9.88201 79.1329 9.79006C79.1071 9.5743 78.9989 9.59151 78.7728 9.84726C78.673 9.96017 78.4654 10.0812 78.3113 10.1163C78.1573 10.1513 77.9718 10.2268 77.8991 10.2839C77.8124 10.352 77.7571 10.3066 77.7385 10.152C77.7192 9.99066 77.6572 9.94409 77.5418 10.0041C77.4491 10.0525 77.4082 10.1352 77.4511 10.1882C77.4939 10.2411 77.2884 10.3133 76.9945 10.3485C76.5811 10.3981 76.4253 10.3635 76.3059 10.1952C76.1238 9.93876 75.8504 9.94064 75.7837 10.1989C75.7535 10.3159 75.8098 10.3759 75.9407 10.3662C76.0531 10.3578 76.0882 10.3823 76.019 10.4205C75.9498 10.4587 75.6547 10.4397 75.363 10.3783C75.0714 10.3169 74.7926 10.2982 74.7434 10.3369C74.6942 10.3756 74.6449 10.3321 74.6339 10.2401C74.6229 10.1483 74.521 10.0143 74.4076 9.94225C74.2374 9.83413 74.2264 9.78674 74.3451 9.67004C74.424 9.5923 74.5652 9.32362 74.6588 9.07302C74.8333 8.60565 75.0604 8.40024 75.288 8.50385C75.3689 8.54062 75.3616 8.60682 75.2686 8.68165C75.148 8.77854 75.1535 8.79709 75.2988 8.78121C75.397 8.77038 75.5312 8.64899 75.597 8.51139C75.6628 8.37379 75.8024 8.25092 75.9073 8.23835C76.0574 8.22035 76.0729 8.25364 75.98 8.39508C75.9022 8.51337 75.9054 8.58338 75.9892 8.60034C76.2342 8.64985 77.2892 8.40264 77.2767 8.29859C77.2698 8.24093 77.1806 8.20363 77.0786 8.21586C76.9118 8.23586 76.9091 8.21778 77.0526 8.0382C77.1833 7.87454 77.2579 7.85936 77.4637 7.95425C77.6728 8.05053 77.7502 8.03052 77.9226 7.83556C78.1212 7.61082 78.1359 7.60905 78.2721 7.79332C78.3904 7.95342 78.4418 7.95692 78.5796 7.81388C78.6707 7.71935 78.803 7.66835 78.8737 7.70056C78.9444 7.73276 79.1475 7.66172 79.3251 7.54291C79.5691 7.37947 79.7481 7.34244 80.0585 7.3912C80.5673 7.47113 80.5333 7.47873 80.5106 7.28901C80.4891 7.11022 81.4894 6.808 81.8269 6.89125C81.9717 6.92695 82.0041 6.89418 81.9409 6.77617C81.8777 6.65803 81.9502 6.58485 82.1958 6.51885C82.4451 6.4517 82.5278 6.47021 82.4978 6.58606C82.4703 6.69266 82.5591 6.73343 82.7646 6.70879C82.934 6.68849 83.0659 6.61643 83.0578 6.54877C83.0497 6.48111 83.1083 6.45533 83.1881 6.49175C83.2888 6.53747 83.3027 6.46292 83.2338 6.24856L83.1344 5.93925L83.8033 5.89738C84.401 5.85993 84.4822 5.88474 84.5651 6.12952C84.7185 6.58234 84.9718 6.52344 84.9148 6.04809C84.8592 5.58437 84.9224 5.55062 85.531 5.71964C85.8975 5.82134 85.9421 5.81576 85.8683 5.67779C85.8088 5.56676 85.8432 5.53363 85.9822 5.56791C86.0991 5.5967 86.174 5.55765 86.1639 5.47291C86.1388 5.26412 87.062 5.29661 87.3765 5.51562C87.5224 5.61723 87.621 5.63442 87.6117 5.55641C87.6028 5.4826 87.5318 5.42979 87.4538 5.43914C87.3508 5.45148 87.3434 5.41687 87.4265 5.31294C87.7181 4.94792 90.9478 5.18455 91.3432 5.59977C91.3884 5.64741 91.5066 5.68818 91.606 5.69054C91.8595 5.69672 92.5165 6.13787 92.8293 6.51203C92.9741 6.68512 93.1702 6.8728 93.2652 6.92898C93.3981 7.00751 93.4344 7.19431 93.4222 7.73561C93.408 8.37032 93.3786 8.44341 93.1261 8.47369C92.8486 8.50695 92.7689 8.78136 92.8509 9.42033C92.8652 9.53205 92.7791 9.69096 92.6594 9.77346C92.5398 9.85607 92.4747 9.96412 92.5146 10.0136C92.5546 10.063 92.5159 10.1776 92.4287 10.2682C92.3414 10.3589 92.2787 10.505 92.2892 10.5931C92.2998 10.6812 92.2407 10.7614 92.158 10.7713C92.0661 10.7823 92.0214 10.9596 92.0427 11.2273C92.0996 11.9401 92.0662 12.0937 91.772 12.4678C91.5787 12.7139 91.5218 12.8981 91.5878 13.064C91.6406 13.1963 91.6132 13.443 91.527 13.6137C91.4409 13.784 91.3851 14.0459 91.4031 14.1959C91.4211 14.3457 91.3699 14.5792 91.2894 14.7148C91.2089 14.8503 91.1586 15.1054 91.1776 15.2814C91.1997 15.4867 91.1486 15.6091 91.035 15.6227C90.9375 15.6344 90.8666 15.7169 90.8772 15.8059C90.8879 15.895 90.817 16.0094 90.7197 16.0601C90.6028 16.121 90.5774 16.2276 90.645 16.3744C90.7161 16.5291 90.662 16.7034 90.4668 16.9478C90.3099 17.1442 90.1924 17.4534 90.2002 17.6496C90.2078 17.8427 90.1347 18.0735 90.0377 18.1626C89.9406 18.2519 89.8772 18.4582 89.8967 18.6213C89.9191 18.8081 89.8142 19.0422 89.6131 19.2538C89.4376 19.4385 89.3037 19.6716 89.3157 19.7715C89.3277 19.8716 89.2578 19.963 89.1604 19.9747C89.062 19.9865 88.9956 20.0993 89.0111 20.2285C89.0264 20.3563 88.9927 20.4665 88.9364 20.4732C88.7356 20.4973 88.8046 21.4764 89.0199 21.6608C89.2011 21.816 89.2052 21.868 89.0583 22.1585C88.8732 22.5247 88.9385 22.5729 89.1914 22.2564C89.4754 21.9009 89.507 22.1204 89.2438 22.6205C89.107 22.8807 89.0007 23.1402 89.0075 23.1975C89.0144 23.2547 88.9108 23.2598 88.7771 23.2086C88.6435 23.1576 88.4165 23.1432 88.2726 23.1766C88.0545 23.2272 87.9852 23.1635 87.8567 22.7926C87.7556 22.5013 87.7413 22.2996 87.8151 22.208C87.8956 22.1081 87.9114 22.1324 87.8703 22.2933C87.8249 22.4709 87.859 22.5028 88.031 22.444C88.1511 22.4029 88.2294 22.3105 88.2051 22.2386C88.1807 22.1666 88.2316 22.1251 88.3182 22.1465C88.414 22.1701 88.4642 22.0922 88.4467 21.9468C88.4263 21.7759 88.3531 21.7253 88.1885 21.7684C88.0089 21.8155 87.9002 21.7133 87.69 21.2995C87.4283 20.7843 87.427 20.7655 87.6395 20.578C87.7596 20.4722 87.8154 20.3333 87.7638 20.2695C87.7121 20.2056 87.7466 20.1442 87.8403 20.133C87.934 20.1217 88.0267 19.9992 88.0463 19.8605C88.066 19.7218 88.1427 19.6362 88.2172 19.6701C88.2916 19.704 88.3458 19.6763 88.3377 19.6086C88.3296 19.5409 88.2759 19.4911 88.2186 19.498C88.1612 19.5049 88.0739 19.4092 88.0245 19.2854C87.9753 19.1616 87.9831 19.0545 88.042 19.0475C88.1009 19.0404 88.1365 18.93 88.1212 18.8022C88.1058 18.6743 88.1496 18.5629 88.2184 18.5547C88.2871 18.5464 88.3044 18.4913 88.2565 18.4322C88.2087 18.373 88.226 18.3179 88.2947 18.3097C88.3634 18.3014 88.4055 18.1755 88.3881 18.03C88.3706 17.8843 88.416 17.6533 88.489 17.5167C88.562 17.38 88.6804 16.9825 88.7521 16.6334C88.824 16.2844 88.9316 15.9928 88.9913 15.9857C89.0511 15.9785 89.0813 15.8172 89.0586 15.6274C89.0104 15.2255 89.5057 13.8146 89.7374 13.6938C89.9461 13.5851 89.9076 13.3245 89.6742 13.2668C89.3907 13.1969 89.4084 12.8464 89.7232 12.2951C89.88 12.0203 90.0252 11.6209 90.0457 11.4077C90.0661 11.1944 90.1354 11.0137 90.1996 11.006C90.2638 10.9983 90.271 10.8937 90.2157 10.7735C90.0559 10.4261 90.1533 9.72696 90.4164 9.33234C90.6719 8.949 90.6053 8.59898 90.2841 8.63749C90.1824 8.64968 90.0068 8.5982 89.8938 8.52307C89.7807 8.44796 89.445 8.38136 89.1477 8.37502C88.7646 8.36682 88.6629 8.39163 88.7985 8.46017C88.9685 8.54603 88.9717 8.57266 88.8271 8.69918C88.6826 8.8257 88.6839 8.83709 88.8394 8.8016C89.1835 8.7232 89.3133 8.75646 89.3339 8.92828C89.3454 9.02419 89.4046 9.09668 89.4654 9.08939C89.6211 9.07073 89.5676 9.93584 89.4031 10.0992C89.3287 10.173 89.2371 10.4523 89.1994 10.7201C89.135 11.1775 88.7403 11.7706 88.4792 11.8019C88.4148 11.8096 88.3682 11.8816 88.3758 11.9617C88.392 12.1334 88.0166 12.4958 87.6542 12.6582C87.5093 12.7231 87.4097 12.8667 87.4244 12.9896C87.4391 13.1125 87.3395 13.2562 87.1945 13.3211C86.8389 13.4804 86.4568 13.8446 86.472 14.0098C86.4868 14.1687 86.0718 14.399 85.6072 14.4898C85.5 14.5108 85.4516 14.5585 85.4998 14.5958C85.548 14.633 85.4363 14.8321 85.2517 15.0382C84.8857 15.4466 84.5486 15.5706 84.6267 15.268C84.667 15.1119 84.6356 15.109 84.4277 15.2506C84.292 15.3429 84.1581 15.453 84.1303 15.4953C83.9397 15.7843 83.3257 16.1931 83.0289 16.2287C82.6908 16.2693 82.2879 16.4631 81.4474 16.9893C81.2154 17.1344 80.8022 17.2515 80.3755 17.2929C79.6697 17.3613 79.5267 17.4781 79.9265 17.6593C80.1191 17.7467 80.1091 17.761 79.8498 17.769C79.5074 17.7794 79.0515 18.1062 79.0775 18.3228C79.0871 18.4032 79.04 18.4757 78.9728 18.4838C78.8884 18.4939 78.88 18.424 78.9458 18.259C79.0746 17.9351 79.0429 17.7678 78.8569 17.7901C78.7714 17.8004 78.6792 18.035 78.6503 18.3158C78.5884 18.9189 78.3201 19.0611 77.8653 18.7316C77.5581 18.509 77.5576 18.5091 77.6521 18.7466C77.7244 18.928 77.6929 18.991 77.5195 19.0117C77.3944 19.0267 77.1981 19.1282 77.0832 19.2372C76.8145 19.4922 76.7032 19.5065 76.6772 19.2896C76.6657 19.1937 76.6032 19.1216 76.5382 19.1294C76.4732 19.1372 76.4295 19.222 76.441 19.3179C76.4525 19.4138 76.3822 19.5019 76.2847 19.5135C76.1873 19.5252 76.1138 19.5871 76.1215 19.651C76.1291 19.715 76.0557 19.7768 75.9582 19.7885C75.8608 19.8002 75.7747 19.757 75.767 19.6926C75.7587 19.6231 75.6607 19.6468 75.527 19.7508C75.3365 19.8988 75.2733 19.8973 75.1233 19.7412C75.0254 19.6395 74.9115 19.5602 74.8699 19.5652C74.8283 19.5702 74.8051 19.6659 74.8184 19.7778C74.8357 19.9232 74.7367 20.0015 74.4709 20.0521C74.2666 20.0911 74.0668 20.192 74.0269 20.2764C73.987 20.3607 73.7641 20.4472 73.5316 20.4684C73.2793 20.4916 73.1155 20.5624 73.1253 20.6443C73.1567 20.9059 72.7259 21.2438 72.4106 21.2048C72.2261 21.182 72.1157 21.2175 72.1251 21.2966C72.1336 21.3674 72.0213 21.4416 71.8753 21.4613C71.7294 21.4812 71.4861 21.588 71.3347 21.6989C70.9603 21.9727 70.4744 22.0207 70.2025 21.8107C69.9907 21.6468 69.984 21.6506 70.0881 21.8768C70.1838 22.0848 70.143 22.1343 69.7831 22.2463C69.5546 22.3174 69.3304 22.3468 69.2847 22.3115C69.239 22.2761 69.0991 22.3676 68.974 22.5145C68.8178 22.6981 68.5657 22.8104 68.1694 22.8729C67.8519 22.9231 67.5663 23.0114 67.5345 23.0694C67.4832 23.1627 66.5507 23.4104 66.0139 23.4733C65.9045 23.4861 65.7607 23.5792 65.6944 23.68C65.6282 23.7809 65.4009 23.8842 65.1895 23.9095C64.9779 23.9349 64.6231 24.0573 64.4008 24.1813C64.1786 24.3055 63.616 24.5022 63.1506 24.6182C62.6851 24.7344 62.0715 24.9115 61.787 25.0119C61.5025 25.1121 61.0932 25.1854 60.8775 25.1744C60.6206 25.1615 60.3925 25.2313 60.217 25.3768C60.0695 25.4991 59.7211 25.6272 59.4428 25.6615C59.1645 25.6958 58.7275 25.825 58.4714 25.9485C58.006 26.1731 57.623 26.2215 57.2162 26.1067C57.0972 26.0732 57.0233 25.9961 57.0521 25.9353C57.0808 25.8746 57.0256 25.8659 56.9293 25.916C56.833 25.9662 56.7592 26.0489 56.7653 26.0997C56.7816 26.2358 56.1116 26.5494 55.5741 26.6573C55.3167 26.7089 54.5651 26.849 53.904 26.9686C52.7088 27.1849 52.7018 27.1845 52.6625 26.9201C52.6237 26.6588 52.6217 26.6587 52.5516 26.9116C52.4596 27.244 52.1736 27.3892 51.853 27.2666C51.7135 27.2133 51.4623 27.2217 51.2949 27.2855C50.927 27.4256 49.1729 27.6477 49.0689 27.5672C49.0283 27.5358 48.9019 27.5743 48.7883 27.6527C48.6497 27.7484 48.5768 27.7567 48.5674 27.678C48.5591 27.6094 48.4087 27.6076 48.2052 27.6736C47.8997 27.7726 47.8642 27.7584 47.9151 27.558C47.9702 27.3403 47.9643 27.3403 47.7889 27.5579C47.6876 27.6835 47.4722 27.8023 47.3101 27.8217C47.148 27.8411 46.9191 27.9235 46.8014 28.0047C46.6414 28.1152 46.5827 28.1148 46.5692 28.0031C46.5553 27.8888 46.1209 27.8998 44.722 28.05C43.7141 28.1581 42.7819 28.2037 42.6455 28.1515C42.5094 28.0994 42.2617 28.0731 42.095 28.0931C41.8858 28.1182 41.7838 28.0665 41.7658 27.9262C41.7434 27.7529 41.726 27.7507 41.6482 27.9108C41.5768 28.0578 41.3263 28.1219 40.4972 28.2056C39.9143 28.2644 39.3174 28.2666 39.1706 28.2104C39.0238 28.1543 38.6363 28.1383 38.3095 28.175C37.913 28.2194 37.6877 28.1901 37.6324 28.0867C37.5868 28.0014 37.5022 27.969 37.4444 28.0144C37.3866 28.0598 37.1551 28.0853 36.9301 28.071C36.6144 28.051 36.5302 27.9978 36.5618 27.8381C36.5942 27.6741 36.5823 27.6679 36.5046 27.808C36.3892 28.0159 35.5273 28.0493 34.4541 27.8875C34.085 27.8318 33.5806 27.7784 33.3334 27.7689C33.086 27.7594 32.8147 27.6872 32.7303 27.6084C32.646 27.5297 32.4572 27.4796 32.3109 27.4972C32.1647 27.5147 31.8155 27.4789 31.5351 27.4177C31.2547 27.3565 30.9507 27.3455 30.8592 27.3931C30.667 27.4933 29.4652 27.2497 29.4481 27.1072C29.4418 27.0548 29.307 27.0608 29.1486 27.1207C28.9871 27.1817 28.7793 27.178 28.6755 27.1121C28.5737 27.0474 28.3954 27.016 28.2793 27.042C27.9144 27.1241 27.8549 27.0934 27.9875 26.8914C28.1006 26.7192 28.0792 26.7146 27.8121 26.8528C27.5614 26.9825 27.4578 26.9742 27.2241 26.8065C27.0681 26.6944 26.7353 26.5952 26.4846 26.586C26.2338 26.5768 26.024 26.5294 26.0181 26.4807C26.0123 26.4321 25.9415 26.4041 25.8609 26.4186C25.7802 26.433 25.4825 26.4294 25.1993 26.4105C24.8396 26.3865 24.7125 26.3328 24.7783 26.2327C24.8451 26.131 24.7231 26.1041 24.357 26.1401C24.0735 26.1679 23.6968 26.1202 23.52 26.0341C23.3431 25.9478 23.1142 25.8874 23.0113 25.8998C22.7025 25.9368 22.086 25.6634 22.064 25.4796C22.0527 25.3853 21.9682 25.3173 21.8761 25.3283C21.7841 25.3394 21.6742 25.2863 21.6318 25.2102C21.5702 25.0997 21.5564 25.1013 21.5629 25.2185C21.5724 25.3896 21.2232 25.4623 21.2029 25.2933C21.1954 25.2307 21.0565 25.1629 20.894 25.1429C20.7316 25.1228 20.565 25.0432 20.5236 24.9658C20.4823 24.8886 20.2402 24.8176 19.9857 24.8083C19.731 24.7989 19.4365 24.6989 19.3311 24.5859C19.2255 24.4731 19.071 24.4163 18.9877 24.4598C18.8955 24.5077 18.8221 24.4544 18.8008 24.324C18.7815 24.2059 18.7473 24.1748 18.7248 24.255C18.6745 24.435 18.336 24.3661 18.3126 24.1709C18.3032 24.0926 18.1553 23.9834 17.984 23.9281C17.8126 23.8728 17.52 23.7796 17.3337 23.7208C17.1475 23.6621 16.8964 23.5462 16.7757 23.4634C15.9481 22.8949 15.7401 22.7752 15.504 22.7314C15.2961 22.6929 15.2465 22.6193 15.276 22.3939C15.3142 22.1028 15.1201 22.0033 15.0606 22.2834C15.0355 22.4015 14.9552 22.4068 14.6941 22.3074C14.4526 22.2155 14.3487 22.0887 14.3202 21.8511C14.2905 21.6036 14.2243 21.5288 14.0529 21.5493C13.9277 21.5643 13.736 21.5077 13.6271 21.4235C13.5181 21.3392 13.3946 21.2744 13.3526 21.2795C13.3105 21.2845 12.8609 20.967 12.3533 20.5738C11.8458 20.1807 11.3807 19.865 11.3198 19.8723C11.2588 19.8796 11.2038 19.8421 11.1974 19.789C11.191 19.7358 11.0446 19.6383 10.8719 19.5722C10.6992 19.5061 10.55 19.3859 10.5403 19.3051C10.5306 19.2243 10.4078 19.1369 10.2672 19.1109C10.0664 19.0736 10.0202 18.9994 10.051 18.7638C10.0966 18.4166 9.86321 18.1445 9.62595 18.2682C9.5354 18.3154 9.30868 18.2343 9.11721 18.0863C8.92731 17.9394 8.72215 17.8252 8.6612 17.8326C8.60037 17.8398 8.55917 17.752 8.56973 17.6372C8.58017 17.5223 8.49719 17.3599 8.38541 17.276C8.14171 17.0932 8.04677 16.7299 8.23406 16.6971C8.30752 16.6842 8.24238 16.6406 8.08934 16.6003C7.93629 16.5599 7.80136 16.4469 7.78961 16.3489C7.77703 16.2439 7.87692 16.1547 8.03315 16.1316C8.29144 16.0933 8.29033 16.09 7.98751 16.0007C7.81674 15.9505 7.60705 15.9294 7.52157 15.9539C7.29325 16.0194 6.9857 15.6527 7.03605 15.3751C7.07393 15.1663 7.05736 15.158 6.90904 15.312C6.65447 15.5762 6.44342 15.4149 6.46304 14.9709C6.47404 14.7198 6.43223 14.5929 6.34264 14.6062C5.87877 14.6747 5.78602 14.6276 5.74712 14.3031C5.72414 14.1114 5.62717 13.9471 5.5216 13.9211C5.41975 13.896 5.32053 13.7431 5.30112 13.5811C5.27906 13.3971 5.19947 13.2948 5.08868 13.3081C4.9754 13.3217 4.89807 13.2174 4.87427 13.0189C4.8538 12.8481 4.73999 12.6253 4.62141 12.5237C4.50285 12.4222 4.3799 12.1882 4.34808 12.0037C4.31637 11.8191 4.20522 11.5886 4.10107 11.4914C3.93688 11.3381 3.93631 11.2854 4.0973 11.0921C4.27316 10.881 4.28059 10.885 4.23826 11.1696C4.20408 11.3992 4.21787 11.4253 4.29673 11.2805C4.37343 11.1397 4.40503 11.1305 4.42013 11.2445C4.44553 11.4373 4.93241 11.32 4.9756 11.1105C4.99615 11.011 4.94087 10.9937 4.81389 11.0599C4.68781 11.1256 4.54403 11.0826 4.39957 10.936C4.26671 10.8012 4.02104 10.7189 3.78464 10.7299C3.43721 10.7462 3.39534 10.7157 3.42756 10.4697C3.46687 10.17 3.24172 9.93294 2.95091 9.9678C2.75967 9.99072 2.7224 9.57586 2.90291 9.43347C3.03154 9.33209 2.85358 8.98999 2.53354 8.72306C2.16081 8.41232 2.05948 8.03686 2.26944 7.74531C2.44622 7.49983 2.44198 7.4935 2.12542 7.53145C1.86544 7.56261 1.81014 7.52809 1.85316 7.36126C1.88288 7.24626 1.87517 7.192 1.83621 7.24077C1.69483 7.41774 1.23446 6.53687 1.1204 5.87132C1.05628 5.49635 0.976408 5.19284 0.942978 5.19685C0.909543 5.20074 0.829075 4.88139 0.764178 4.48694C0.699416 4.09259 0.596499 3.7468 0.535591 3.71849C0.371268 3.64208 0.176631 2.79103 0.270022 2.55661C0.317703 2.43663 0.280582 2.18389 0.179257 1.93932C0.0204369 1.55602 0.030754 1.49818 0.318734 1.1619C0.5859 0.849805 0.661905 0.816167 0.856542 0.923609ZM2.84024 7.04565C2.84325 7.07076 2.92545 7.08178 3.0229 7.0701C3.12034 7.05842 3.194 6.99817 3.18658 6.93621C3.17916 6.87437 3.09696 6.86335 3.00392 6.91177C2.91089 6.9603 2.83723 7.02054 2.84024 7.04565ZM4.2699 8.96171C4.27516 9.01356 4.32868 9.01728 4.3889 8.96997C4.44914 8.92265 4.48698 8.7956 4.47307 8.6876C4.45112 8.51842 4.43467 8.51721 4.35406 8.67934C4.3026 8.78279 4.26476 8.90985 4.2699 8.96171ZM4.02095 9.89849C4.02862 9.96242 4.08803 10.0084 4.153 10.0006C4.21797 9.99279 4.26485 9.9341 4.25718 9.87017C4.24952 9.80623 4.1901 9.76029 4.12513 9.76808C4.06016 9.77586 4.01329 9.83455 4.02095 9.89849ZM8.31307 14.2187C8.28057 14.2875 8.33999 14.3334 8.44512 14.3208C8.55024 14.3082 8.59713 14.2495 8.54931 14.1904C8.50148 14.1313 8.44205 14.0853 8.41725 14.0883C8.39244 14.0913 8.34556 14.15 8.31307 14.2187ZM7.10766 14.658C7.11915 14.7539 7.21479 14.8221 7.32015 14.8094C7.47713 14.7906 7.4815 14.7581 7.34389 14.6297C7.25148 14.5435 7.15584 14.4754 7.1314 14.4783C7.10683 14.4813 7.09616 14.5621 7.10766 14.658ZM7.86514 14.98C7.8728 15.0439 7.93543 15.0894 8.00417 15.0812C8.07292 15.073 8.09015 15.0178 8.04232 14.9587C7.99449 14.8996 7.932 14.854 7.9033 14.8575C7.8746 14.8609 7.85747 14.916 7.86514 14.98ZM8.55168 15.0738C8.60047 15.1649 8.68958 15.2007 8.75003 15.1532C8.81748 15.1002 8.79337 15.036 8.68749 14.9863C8.45633 14.8781 8.44942 14.8824 8.55168 15.0738ZM8.29697 15.5837C8.30891 15.6833 8.36797 15.7263 8.4282 15.6789C8.48843 15.6316 8.53181 15.5438 8.52459 15.4835C8.51737 15.4233 8.45832 15.3805 8.39336 15.3883C8.3284 15.3961 8.28502 15.4841 8.29697 15.5837ZM84.0984 6.98391C84.2157 6.99957 84.3184 7.06957 84.3268 7.13943C84.3351 7.2093 84.3701 7.23128 84.4045 7.18825C84.5086 7.05797 84.2948 6.87817 84.0835 6.91813C83.9048 6.95193 83.9063 6.95836 84.0984 6.98391ZM86.011 7.5578C86.0599 7.64922 86.1151 7.72219 86.1337 7.71997C86.1522 7.71775 86.1887 7.63379 86.2146 7.53339C86.243 7.42327 86.1943 7.35894 86.0919 7.37122C85.9895 7.3835 85.9574 7.45751 86.011 7.5578ZM77.9035 8.5297C77.7984 8.68958 77.8172 8.71693 78.0155 8.69315C78.1464 8.67747 78.2747 8.58249 78.3006 8.48209C78.3281 8.3755 78.2815 8.3075 78.1886 8.31863C78.1012 8.32911 77.9729 8.42409 77.9035 8.5297ZM8.41128 17.0371C8.37831 17.1068 8.47272 17.1468 8.62475 17.1276C8.84403 17.0998 8.86002 17.0752 8.70658 17.0017C8.47001 16.8883 8.48229 16.8868 8.41128 17.0371ZM77.5092 9.37458C77.6212 9.46115 77.6532 9.44045 77.6355 9.29293C77.6225 9.18423 77.6682 9.08855 77.7369 9.08031C77.8057 9.07207 77.8226 9.01662 77.7744 8.95695C77.7205 8.8903 77.6239 8.92748 77.5231 9.0537C77.4008 9.20669 77.3974 9.28811 77.5092 9.37458ZM88.283 7.88731C88.3269 7.9212 88.4293 7.91317 88.5104 7.86936C88.6002 7.82098 88.5689 7.79678 88.4307 7.8077C88.3056 7.81762 88.2392 7.85341 88.283 7.88731ZM93.1133 7.47288C93.121 7.53682 93.1804 7.58276 93.2454 7.57497C93.3104 7.56718 93.3572 7.5085 93.3496 7.44456C93.3419 7.38062 93.2825 7.33468 93.2175 7.34247C93.1526 7.35026 93.1057 7.40894 93.1133 7.47288ZM78.5519 9.52069C78.8021 9.71415 78.8102 9.62675 78.5691 9.3316C78.4729 9.21366 78.3826 9.17166 78.3686 9.23819C78.3546 9.30485 78.437 9.43187 78.5519 9.52069ZM78.3401 9.85562C78.3889 9.94376 78.4135 9.91285 78.403 9.77674C78.3934 9.6536 78.3573 9.58836 78.3227 9.63165C78.2881 9.67495 78.2959 9.77578 78.3401 9.85562ZM82.079 9.37829C82.0862 9.43851 82.0428 9.52637 81.9826 9.57368C81.9224 9.621 81.8633 9.57808 81.8514 9.47845C81.8394 9.37882 81.8828 9.29085 81.9478 9.28306C82.0127 9.27527 82.0718 9.31807 82.079 9.37829ZM87.7696 8.873C87.773 8.90125 87.8328 8.95021 87.9025 8.98195C87.9722 9.01369 88.0226 8.98418 88.0145 8.91652C88.0064 8.84886 87.9466 8.79978 87.8816 8.80757C87.8166 8.81536 87.7662 8.84475 87.7696 8.873ZM80.4873 9.82652C80.4166 9.91565 80.3256 9.96277 80.285 9.93131C80.2443 9.89986 80.3021 9.82702 80.4133 9.76935C80.5741 9.68616 80.5893 9.69779 80.4873 9.82652ZM74.5746 17.2422C74.5421 17.3109 74.5687 17.3608 74.6337 17.353C74.6986 17.3452 74.7784 17.2826 74.8109 17.2139C74.8434 17.1451 74.8168 17.0952 74.7518 17.103C74.6868 17.1108 74.6071 17.1734 74.5746 17.2422ZM25.3842 25.8733C25.433 25.9615 25.4577 25.9306 25.4471 25.7944C25.4375 25.6713 25.4014 25.6061 25.3668 25.6494C25.3322 25.6926 25.34 25.7935 25.3842 25.8733ZM28.97 25.8463C29.0138 25.8802 29.1162 25.8722 29.1974 25.8284C29.2872 25.78 29.2559 25.7558 29.1176 25.7667C28.9925 25.7766 28.9261 25.8124 28.97 25.8463ZM27.8726 25.9586C27.8873 26.0813 28.1202 26.1057 28.1747 25.9902C28.2077 25.9203 28.1518 25.8731 28.0506 25.8853C27.9494 25.8974 27.8692 25.9304 27.8726 25.9586ZM40.7806 25.1834C40.7472 25.2542 40.7969 25.268 40.8972 25.2158C41.0926 25.1139 41.12 25.0261 40.9502 25.0465C40.889 25.0538 40.8127 25.1154 40.7806 25.1834ZM88.3589 20.7853C88.3747 20.9169 88.4347 20.9876 88.4923 20.9424C88.5499 20.8972 88.5579 20.7869 88.51 20.6975C88.3875 20.4684 88.3252 20.5045 88.3589 20.7853ZM39.8562 26.4747C39.8237 26.5435 39.8801 26.5898 39.9813 26.5776C40.0825 26.5655 40.1592 26.5033 40.1515 26.4393C40.1439 26.3754 40.0876 26.3291 40.0264 26.3364C39.9653 26.3437 39.8887 26.406 39.8562 26.4747ZM87.8742 21.2815C87.9596 21.3521 88.2687 21.1063 88.2005 21.0219C88.1581 20.9696 88.0597 21.0003 87.9818 21.09C87.9039 21.1798 87.8554 21.2659 87.8742 21.2815ZM87.7609 21.7934C87.7685 21.8573 87.7184 21.9164 87.6497 21.9246C87.581 21.9329 87.5512 21.8834 87.5837 21.8146C87.6162 21.7459 87.6661 21.6868 87.6948 21.6834C87.7235 21.6799 87.7532 21.7294 87.7609 21.7934ZM49.3222 26.9783C49.329 27.0353 49.4151 27.1019 49.5135 27.1262C49.6332 27.1557 49.664 27.1171 49.6066 27.0097C49.5128 26.8344 49.3022 26.8111 49.3222 26.9783ZM51.7279 27.0562C51.7355 27.1202 51.795 27.1661 51.8599 27.1583C51.9249 27.1506 51.9718 27.0919 51.9641 27.0279C51.9564 26.964 51.897 26.9181 51.8321 26.9258C51.7671 26.9336 51.7202 26.9923 51.7279 27.0562ZM88.6244 22.9996C88.6444 23.1668 88.8436 23.0943 88.8932 22.9018C88.9237 22.7839 88.8846 22.7537 88.7753 22.8106C88.6854 22.8575 88.6175 22.9425 88.6244 22.9996ZM88.5921 23.5431C88.511 23.5869 88.4085 23.5949 88.3647 23.561C88.3208 23.5271 88.3872 23.4913 88.5123 23.4814C88.6506 23.4705 88.6819 23.4947 88.5921 23.5431Z" fill="#FF8038"/>
</svg>
