<svg width="22" height="22" viewBox="0 0 22 22" fill="none" xmlns="http://www.w3.org/2000/svg">
<path d="M10.8542 20.7087C5.4275 20.7087 1 16.2904 1 10.8545C1 5.4187 5.4275 1.00037 10.8542 1.00037C16.2808 1.00037 20.7083 5.4187 20.7083 10.8545C20.7083 16.2904 16.29 20.7087 10.8542 20.7087ZM10.8542 2.37537C6.17917 2.37537 2.375 6.17953 2.375 10.8545C2.375 15.5295 6.17917 19.3337 10.8542 19.3337C15.5292 19.3337 19.3333 15.5295 19.3333 10.8545C19.3333 6.17953 15.5292 2.37537 10.8542 2.37537Z" fill="#A4ABB6"/>
<path d="M10.184 12.012C10.184 11.572 10.264 11.2 10.424 10.896C10.584 10.592 10.816 10.26 11.12 9.9C11.352 9.62 11.524 9.384 11.636 9.192C11.748 9 11.804 8.784 11.804 8.544C11.804 8.272 11.708 8.06 11.516 7.908C11.324 7.748 11.056 7.668 10.712 7.668C10.368 7.668 10.004 7.744 9.62 7.896C9.244 8.048 8.872 8.264 8.504 8.544L8 7.416C8.328 7.12 8.752 6.884 9.272 6.708C9.792 6.532 10.312 6.444 10.832 6.444C11.32 6.444 11.752 6.528 12.128 6.696C12.504 6.856 12.796 7.088 13.004 7.392C13.22 7.688 13.328 8.028 13.328 8.412C13.328 8.828 13.228 9.192 13.028 9.504C12.828 9.816 12.54 10.16 12.164 10.536C11.836 10.888 11.588 11.176 11.42 11.4C11.26 11.624 11.16 11.88 11.12 12.168L11.072 12.492H10.184V12.012ZM9.812 15V13.344H11.492V15H9.812Z" fill="#A4ABB6"/>
</svg>
