<svg width="28" height="30" viewBox="0 0 28 30" fill="none" xmlns="http://www.w3.org/2000/svg">
<path d="M5.53964 0.479782C4.38154 -0.168932 3.02179 -0.153933 1.87109 0.489156L15.3576 13.0978L19.8882 8.50621L5.53964 0.479782Z" fill="white"/>
<path d="M0.518 1.77856C0.1887 2.32416 0 2.9485 0 3.61034V26.3828C0 27.024 0.17205 27.6352 0.48285 28.1696L14.0452 14.4247L0.518 1.77856Z" fill="white"/>
<path d="M25.8888 11.8652L21.5672 9.44849L16.7109 14.3682L22.6624 19.931L25.8906 18.1255C27.0524 17.473 27.748 16.3031 27.748 14.9944C27.7462 13.6857 27.0524 12.5158 25.8888 11.8652Z" fill="white"/>
<path d="M15.404 15.697L1.80469 29.4794C2.39484 29.8206 3.04234 30.0006 3.69354 30.0006C4.32254 30.0006 4.95524 29.8394 5.53429 29.515L20.9577 20.8886L15.404 15.697Z" fill="white"/>
</svg>
