<svg width="354" height="508" viewBox="0 0 354 508" fill="none" xmlns="http://www.w3.org/2000/svg">
<path opacity="0.8" d="M117.533 352.943C119.682 349.847 123.212 348 126.98 348H229.023C233.121 348 236.909 350.181 238.967 353.725C243.42 361.391 237.888 371 229.023 371H126.981C117.698 371 112.24 360.569 117.533 352.943Z" fill="url(#paint0_radial_7_5892)"/>
<path d="M31.7928 429V417.44H27.3728V414.9H39.3328V417.44H34.9128V429H31.7928ZM47.7727 424.66H41.3727C41.466 425.447 41.7193 426.02 42.1327 426.38C42.5593 426.727 43.1593 426.9 43.9327 426.9C44.4393 426.9 44.9393 426.82 45.4327 426.66C45.9393 426.487 46.3993 426.247 46.8127 425.94L47.6127 427.96C47.1327 428.333 46.546 428.627 45.8527 428.84C45.1727 429.053 44.486 429.16 43.7927 429.16C42.1393 429.16 40.8327 428.707 39.8727 427.8C38.926 426.88 38.4527 425.633 38.4527 424.06C38.4527 423.06 38.6593 422.173 39.0727 421.4C39.486 420.627 40.0593 420.027 40.7927 419.6C41.526 419.16 42.3593 418.94 43.2927 418.94C44.666 418.94 45.7527 419.387 46.5527 420.28C47.366 421.173 47.7727 422.387 47.7727 423.92V424.66ZM43.3727 421.02C42.7993 421.02 42.3393 421.207 41.9927 421.58C41.6593 421.94 41.4527 422.467 41.3727 423.16H45.2327C45.1927 422.453 45.0127 421.92 44.6927 421.56C44.386 421.2 43.946 421.02 43.3727 421.02ZM53.1767 429.16C52.2701 429.16 51.4367 429.06 50.6767 428.86C49.9301 428.647 49.2834 428.347 48.7367 427.96L49.5367 425.88C50.0701 426.24 50.6567 426.52 51.2967 426.72C51.9367 426.92 52.5834 427.02 53.2367 427.02C53.7034 427.02 54.0634 426.947 54.3167 426.8C54.5834 426.64 54.7167 426.427 54.7167 426.16C54.7167 425.92 54.6234 425.733 54.4367 425.6C54.2634 425.467 53.9301 425.347 53.4367 425.24L51.8367 424.88C50.8901 424.667 50.1901 424.34 49.7367 423.9C49.2967 423.447 49.0767 422.833 49.0767 422.06C49.0767 421.447 49.2501 420.907 49.5967 420.44C49.9567 419.973 50.4567 419.607 51.0967 419.34C51.7501 419.073 52.4901 418.94 53.3167 418.94C54.0234 418.94 54.7101 419.047 55.3767 419.26C56.0434 419.473 56.6434 419.773 57.1767 420.16L56.3767 422.16C55.3367 421.44 54.3101 421.08 53.2967 421.08C52.8301 421.08 52.4634 421.16 52.1967 421.32C51.9301 421.48 51.7967 421.707 51.7967 422C51.7967 422.213 51.8767 422.38 52.0367 422.5C52.1967 422.62 52.4767 422.733 52.8767 422.84L54.5367 423.22C55.5367 423.447 56.2634 423.793 56.7167 424.26C57.1834 424.713 57.4167 425.333 57.4167 426.12C57.4167 427.067 57.0367 427.813 56.2767 428.36C55.5301 428.893 54.4967 429.16 53.1767 429.16ZM64.2852 426.94C64.5918 426.94 64.9118 426.92 65.2452 426.88L65.0852 429.08C64.6985 429.133 64.3118 429.16 63.9252 429.16C62.4318 429.16 61.3385 428.833 60.6452 428.18C59.9652 427.527 59.6252 426.533 59.6252 425.2V421.44H57.7652V419.18H59.6252V416.3H62.6452V419.18H65.1052V421.44H62.6452V425.18C62.6452 426.353 63.1918 426.94 64.2852 426.94ZM75.5455 429.16C74.6388 429.16 73.8055 429.06 73.0455 428.86C72.2988 428.647 71.6521 428.347 71.1055 427.96L71.9055 425.88C72.4388 426.24 73.0255 426.52 73.6655 426.72C74.3055 426.92 74.9521 427.02 75.6055 427.02C76.0721 427.02 76.4321 426.947 76.6855 426.8C76.9521 426.64 77.0855 426.427 77.0855 426.16C77.0855 425.92 76.9921 425.733 76.8055 425.6C76.6321 425.467 76.2988 425.347 75.8055 425.24L74.2055 424.88C73.2588 424.667 72.5588 424.34 72.1055 423.9C71.6655 423.447 71.4455 422.833 71.4455 422.06C71.4455 421.447 71.6188 420.907 71.9655 420.44C72.3255 419.973 72.8255 419.607 73.4655 419.34C74.1188 419.073 74.8588 418.94 75.6855 418.94C76.3921 418.94 77.0788 419.047 77.7455 419.26C78.4121 419.473 79.0121 419.773 79.5455 420.16L78.7455 422.16C77.7055 421.44 76.6788 421.08 75.6655 421.08C75.1988 421.08 74.8321 421.16 74.5655 421.32C74.2988 421.48 74.1655 421.707 74.1655 422C74.1655 422.213 74.2455 422.38 74.4055 422.5C74.5655 422.62 74.8455 422.733 75.2455 422.84L76.9055 423.22C77.9055 423.447 78.6321 423.793 79.0855 424.26C79.5521 424.713 79.7855 425.333 79.7855 426.12C79.7855 427.067 79.4055 427.813 78.6455 428.36C77.8988 428.893 76.8655 429.16 75.5455 429.16ZM86.0316 429.16C84.9916 429.16 84.0782 428.953 83.2916 428.54C82.5049 428.113 81.8982 427.52 81.4716 426.76C81.0449 425.987 80.8316 425.08 80.8316 424.04C80.8316 423 81.0449 422.1 81.4716 421.34C81.8982 420.567 82.5049 419.973 83.2916 419.56C84.0782 419.147 84.9916 418.94 86.0316 418.94C87.0716 418.94 87.9849 419.147 88.7716 419.56C89.5582 419.973 90.1649 420.567 90.5916 421.34C91.0182 422.1 91.2316 423 91.2316 424.04C91.2316 425.08 91.0182 425.987 90.5916 426.76C90.1649 427.52 89.5582 428.113 88.7716 428.54C87.9849 428.953 87.0716 429.16 86.0316 429.16ZM86.0316 426.86C87.4982 426.86 88.2316 425.92 88.2316 424.04C88.2316 423.093 88.0382 422.387 87.6516 421.92C87.2782 421.453 86.7382 421.22 86.0316 421.22C84.5649 421.22 83.8316 422.16 83.8316 424.04C83.8316 425.92 84.5649 426.86 86.0316 426.86ZM99.0294 418.94C100.203 418.94 101.076 419.287 101.649 419.98C102.223 420.66 102.509 421.693 102.509 423.08V429H99.4894V423.22C99.4894 422.553 99.3627 422.067 99.1094 421.76C98.8694 421.453 98.4894 421.3 97.9694 421.3C97.3427 421.3 96.836 421.5 96.4494 421.9C96.076 422.3 95.8894 422.833 95.8894 423.5V429H92.8694V419.18H95.8094V420.58C96.156 420.047 96.6027 419.64 97.1494 419.36C97.7094 419.08 98.336 418.94 99.0294 418.94ZM114.024 419.18V429H111.084V427.6C110.777 428.107 110.371 428.493 109.864 428.76C109.371 429.027 108.811 429.16 108.184 429.16C106.944 429.16 106.017 428.82 105.404 428.14C104.804 427.447 104.504 426.407 104.504 425.02V419.18H107.524V425.08C107.524 425.667 107.644 426.1 107.884 426.38C108.137 426.66 108.517 426.8 109.024 426.8C109.611 426.8 110.084 426.6 110.444 426.2C110.817 425.8 111.004 425.273 111.004 424.62V419.18H114.024ZM124.661 427.96C124.261 428.293 123.761 428.567 123.161 428.78C122.575 428.98 121.941 429.1 121.261 429.14L121.181 429.82C121.235 429.807 121.315 429.8 121.421 429.8C121.928 429.8 122.335 429.92 122.641 430.16C122.948 430.413 123.101 430.753 123.101 431.18C123.101 431.7 122.868 432.12 122.401 432.44C121.935 432.773 121.268 432.94 120.401 432.94C120.108 432.94 119.788 432.907 119.441 432.84C119.095 432.787 118.788 432.7 118.521 432.58L118.761 431.42C119.361 431.607 119.881 431.7 120.321 431.7C120.935 431.7 121.241 431.527 121.241 431.18C121.241 430.927 121.028 430.8 120.601 430.8C120.361 430.8 120.121 430.84 119.881 430.92L119.481 430.5L119.661 429.06C118.408 428.847 117.428 428.307 116.721 427.44C116.015 426.56 115.661 425.447 115.661 424.1C115.661 423.073 115.881 422.173 116.321 421.4C116.761 420.613 117.381 420.007 118.181 419.58C118.981 419.153 119.908 418.94 120.961 418.94C121.681 418.94 122.375 419.053 123.041 419.28C123.708 419.493 124.248 419.787 124.661 420.16L123.861 422.22C123.475 421.913 123.048 421.68 122.581 421.52C122.128 421.347 121.681 421.26 121.241 421.26C120.455 421.26 119.841 421.493 119.401 421.96C118.975 422.427 118.761 423.12 118.761 424.04C118.761 424.96 118.975 425.66 119.401 426.14C119.841 426.607 120.455 426.84 121.241 426.84C121.681 426.84 122.128 426.76 122.581 426.6C123.048 426.427 123.475 426.187 123.861 425.88L124.661 427.96ZM125.824 429V414.9H128.844V429H125.824ZM135.316 418.94C136.783 418.94 137.863 419.287 138.556 419.98C139.263 420.673 139.616 421.747 139.616 423.2V429H136.756V427.54C136.556 428.047 136.223 428.447 135.756 428.74C135.289 429.02 134.743 429.16 134.116 429.16C133.449 429.16 132.843 429.027 132.296 428.76C131.763 428.493 131.336 428.12 131.016 427.64C130.709 427.16 130.556 426.627 130.556 426.04C130.556 425.32 130.736 424.753 131.096 424.34C131.469 423.927 132.063 423.627 132.876 423.44C133.689 423.253 134.803 423.16 136.216 423.16H136.736V422.8C136.736 422.213 136.609 421.8 136.356 421.56C136.103 421.32 135.663 421.2 135.036 421.2C134.556 421.2 134.023 421.287 133.436 421.46C132.849 421.633 132.289 421.873 131.756 422.18L130.956 420.16C131.516 419.813 132.203 419.527 133.016 419.3C133.843 419.06 134.609 418.94 135.316 418.94ZM134.776 427.08C135.363 427.08 135.836 426.887 136.196 426.5C136.556 426.1 136.736 425.587 136.736 424.96V424.62H136.396C135.316 424.62 134.556 424.707 134.116 424.88C133.689 425.053 133.476 425.367 133.476 425.82C133.476 426.18 133.596 426.48 133.836 426.72C134.089 426.96 134.403 427.08 134.776 427.08ZM148.694 421.42L146.994 421.6C146.154 421.68 145.561 421.92 145.214 422.32C144.867 422.707 144.694 423.227 144.694 423.88V429H141.674V419.18H144.574V420.84C145.067 419.707 146.087 419.087 147.634 418.98L148.514 418.92L148.694 421.42ZM149.501 429V419.18H152.521V429H149.501ZM160.793 418.94C161.967 418.94 162.84 419.287 163.413 419.98C163.987 420.66 164.273 421.693 164.273 423.08V429H161.253V423.22C161.253 422.553 161.127 422.067 160.873 421.76C160.633 421.453 160.253 421.3 159.733 421.3C159.107 421.3 158.6 421.5 158.213 421.9C157.84 422.3 157.653 422.833 157.653 423.5V429H154.633V419.18H157.573V420.58C157.92 420.047 158.367 419.64 158.913 419.36C159.473 419.08 160.1 418.94 160.793 418.94ZM166.328 429V419.18H169.348V429H166.328ZM174.76 426.74H179.92V429H171.22V426.9L176.1 421.44H171.28V419.18H179.72V421.2L174.76 426.74ZM181.533 429V419.18H184.553V429H181.533ZM198.851 419.2H201.811L197.491 429H194.931L190.671 419.2H193.811L196.291 425.44L198.851 419.2ZM211.18 424.66H204.78C204.873 425.447 205.126 426.02 205.54 426.38C205.966 426.727 206.566 426.9 207.34 426.9C207.846 426.9 208.346 426.82 208.84 426.66C209.346 426.487 209.806 426.247 210.22 425.94L211.02 427.96C210.54 428.333 209.953 428.627 209.26 428.84C208.58 429.053 207.893 429.16 207.2 429.16C205.546 429.16 204.24 428.707 203.28 427.8C202.333 426.88 201.86 425.633 201.86 424.06C201.86 423.06 202.066 422.173 202.48 421.4C202.893 420.627 203.466 420.027 204.2 419.6C204.933 419.16 205.766 418.94 206.7 418.94C208.073 418.94 209.16 419.387 209.96 420.28C210.773 421.173 211.18 422.387 211.18 423.92V424.66ZM206.78 421.02C206.206 421.02 205.746 421.207 205.4 421.58C205.066 421.94 204.86 422.467 204.78 423.16H208.64C208.6 422.453 208.42 421.92 208.1 421.56C207.793 421.2 207.353 421.02 206.78 421.02ZM225.21 421.42L223.51 421.6C222.67 421.68 222.076 421.92 221.73 422.32C221.383 422.707 221.21 423.227 221.21 423.88V429H218.19V419.18H221.09V420.84C221.583 419.707 222.603 419.087 224.15 418.98L225.03 418.92L225.21 421.42ZM230.377 418.94C231.844 418.94 232.924 419.287 233.617 419.98C234.324 420.673 234.677 421.747 234.677 423.2V429H231.817V427.54C231.617 428.047 231.284 428.447 230.817 428.74C230.35 429.02 229.804 429.16 229.177 429.16C228.51 429.16 227.904 429.027 227.357 428.76C226.824 428.493 226.397 428.12 226.077 427.64C225.77 427.16 225.617 426.627 225.617 426.04C225.617 425.32 225.797 424.753 226.157 424.34C226.53 423.927 227.124 423.627 227.937 423.44C228.75 423.253 229.864 423.16 231.277 423.16H231.797V422.8C231.797 422.213 231.67 421.8 231.417 421.56C231.164 421.32 230.724 421.2 230.097 421.2C229.617 421.2 229.084 421.287 228.497 421.46C227.91 421.633 227.35 421.873 226.817 422.18L226.017 420.16C226.577 419.813 227.264 419.527 228.077 419.3C228.904 419.06 229.67 418.94 230.377 418.94ZM229.837 427.08C230.424 427.08 230.897 426.887 231.257 426.5C231.617 426.1 231.797 425.587 231.797 424.96V424.62H231.457C230.377 424.62 229.617 424.707 229.177 424.88C228.75 425.053 228.537 425.367 228.537 425.82C228.537 426.18 228.657 426.48 228.897 426.72C229.15 426.96 229.464 427.08 229.837 427.08ZM242.815 418.94C243.655 418.94 244.402 419.16 245.055 419.6C245.722 420.027 246.235 420.633 246.595 421.42C246.968 422.193 247.155 423.087 247.155 424.1C247.155 425.113 246.968 426.007 246.595 426.78C246.235 427.54 245.728 428.127 245.075 428.54C244.422 428.953 243.668 429.16 242.815 429.16C242.148 429.16 241.542 429.027 240.995 428.76C240.462 428.48 240.048 428.093 239.755 427.6V432.6H236.735V419.18H239.715V420.56C240.008 420.053 240.428 419.66 240.975 419.38C241.522 419.087 242.135 418.94 242.815 418.94ZM241.935 426.86C242.642 426.86 243.188 426.627 243.575 426.16C243.962 425.68 244.155 424.993 244.155 424.1C244.155 423.193 243.962 422.493 243.575 422C243.188 421.493 242.642 421.24 241.935 421.24C241.228 421.24 240.682 421.487 240.295 421.98C239.908 422.46 239.715 423.153 239.715 424.06C239.715 424.953 239.908 425.647 240.295 426.14C240.682 426.62 241.228 426.86 241.935 426.86ZM253.521 429.16C252.481 429.16 251.567 428.953 250.781 428.54C249.994 428.113 249.387 427.52 248.961 426.76C248.534 425.987 248.321 425.08 248.321 424.04C248.321 423 248.534 422.1 248.961 421.34C249.387 420.567 249.994 419.973 250.781 419.56C251.567 419.147 252.481 418.94 253.521 418.94C254.561 418.94 255.474 419.147 256.261 419.56C257.047 419.973 257.654 420.567 258.081 421.34C258.507 422.1 258.721 423 258.721 424.04C258.721 425.08 258.507 425.987 258.081 426.76C257.654 427.52 257.047 428.113 256.261 428.54C255.474 428.953 254.561 429.16 253.521 429.16ZM253.521 426.86C254.987 426.86 255.721 425.92 255.721 424.04C255.721 423.093 255.527 422.387 255.141 421.92C254.767 421.453 254.227 421.22 253.521 421.22C252.054 421.22 251.321 422.16 251.321 424.04C251.321 425.92 252.054 426.86 253.521 426.86ZM267.378 421.42L265.678 421.6C264.838 421.68 264.245 421.92 263.898 422.32C263.552 422.707 263.378 423.227 263.378 423.88V429H260.358V419.18H263.258V420.84C263.752 419.707 264.772 419.087 266.318 418.98L267.198 418.92L267.378 421.42ZM268.186 429V414.9H271.206V429H268.186ZM277.678 418.94C279.144 418.94 280.224 419.287 280.918 419.98C281.624 420.673 281.978 421.747 281.978 423.2V429H279.118V427.54C278.918 428.047 278.584 428.447 278.118 428.74C277.651 429.02 277.104 429.16 276.478 429.16C275.811 429.16 275.204 429.027 274.658 428.76C274.124 428.493 273.698 428.12 273.378 427.64C273.071 427.16 272.918 426.627 272.918 426.04C272.918 425.32 273.098 424.753 273.458 424.34C273.831 423.927 274.424 423.627 275.238 423.44C276.051 423.253 277.164 423.16 278.578 423.16H279.098V422.8C279.098 422.213 278.971 421.8 278.718 421.56C278.464 421.32 278.024 421.2 277.398 421.2C276.918 421.2 276.384 421.287 275.798 421.46C275.211 421.633 274.651 421.873 274.118 422.18L273.318 420.16C273.878 419.813 274.564 419.527 275.378 419.3C276.204 419.06 276.971 418.94 277.678 418.94ZM277.138 427.08C277.724 427.08 278.198 426.887 278.558 426.5C278.918 426.1 279.098 425.587 279.098 424.96V424.62H278.758C277.678 424.62 276.918 424.707 276.478 424.88C276.051 425.053 275.838 425.367 275.838 425.82C275.838 426.18 275.958 426.48 276.198 426.72C276.451 426.96 276.764 427.08 277.138 427.08ZM291.056 421.42L289.356 421.6C288.516 421.68 287.922 421.92 287.576 422.32C287.229 422.707 287.056 423.227 287.056 423.88V429H284.036V419.18H286.936V420.84C287.429 419.707 288.449 419.087 289.996 418.98L290.876 418.92L291.056 421.42ZM291.863 429V419.18H294.883V429H291.863ZM303.155 418.94C304.328 418.94 305.202 419.287 305.775 419.98C306.348 420.66 306.635 421.693 306.635 423.08V429H303.615V423.22C303.615 422.553 303.488 422.067 303.235 421.76C302.995 421.453 302.615 421.3 302.095 421.3C301.468 421.3 300.962 421.5 300.575 421.9C300.202 422.3 300.015 422.833 300.015 423.5V429H296.995V419.18H299.935V420.58C300.282 420.047 300.728 419.64 301.275 419.36C301.835 419.08 302.462 418.94 303.155 418.94ZM308.69 429V419.18H311.71V429H308.69ZM317.122 426.74H322.282V429H313.582V426.9L318.462 421.44H313.642V419.18H322.082V421.2L317.122 426.74ZM323.895 429V419.18H326.915V429H323.895ZM90.904 444.94C92.3707 444.94 93.4507 445.287 94.144 445.98C94.8507 446.673 95.204 447.747 95.204 449.2V455H92.344V453.54C92.144 454.047 91.8107 454.447 91.344 454.74C90.8773 455.02 90.3307 455.16 89.704 455.16C89.0373 455.16 88.4307 455.027 87.884 454.76C87.3507 454.493 86.924 454.12 86.604 453.64C86.2973 453.16 86.144 452.627 86.144 452.04C86.144 451.32 86.324 450.753 86.684 450.34C87.0573 449.927 87.6507 449.627 88.464 449.44C89.2773 449.253 90.3907 449.16 91.804 449.16H92.324V448.8C92.324 448.213 92.1973 447.8 91.944 447.56C91.6907 447.32 91.2507 447.2 90.624 447.2C90.144 447.2 89.6107 447.287 89.024 447.46C88.4373 447.633 87.8773 447.873 87.344 448.18L86.544 446.16C87.104 445.813 87.7907 445.527 88.604 445.3C89.4307 445.06 90.1973 444.94 90.904 444.94ZM90.364 453.08C90.9507 453.08 91.424 452.887 91.784 452.5C92.144 452.1 92.324 451.587 92.324 450.96V450.62H91.984C90.904 450.62 90.144 450.707 89.704 450.88C89.2773 451.053 89.064 451.367 89.064 451.82C89.064 452.18 89.184 452.48 89.424 452.72C89.6773 452.96 89.9907 453.08 90.364 453.08ZM103.422 444.94C104.595 444.94 105.469 445.287 106.042 445.98C106.615 446.66 106.902 447.693 106.902 449.08V455H103.882V449.22C103.882 448.553 103.755 448.067 103.502 447.76C103.262 447.453 102.882 447.3 102.362 447.3C101.735 447.3 101.229 447.5 100.842 447.9C100.469 448.3 100.282 448.833 100.282 449.5V455H97.262V445.18H100.202V446.58C100.549 446.047 100.995 445.64 101.542 445.36C102.102 445.08 102.729 444.94 103.422 444.94ZM108.956 455V445.18H111.976V455H108.956ZM120.249 444.94C121.422 444.94 122.295 445.287 122.869 445.98C123.442 446.66 123.729 447.693 123.729 449.08V455H120.709V449.22C120.709 448.553 120.582 448.067 120.329 447.76C120.089 447.453 119.709 447.3 119.189 447.3C118.562 447.3 118.055 447.5 117.669 447.9C117.295 448.3 117.109 448.833 117.109 449.5V455H114.089V445.18H117.029V446.58C117.375 446.047 117.822 445.64 118.369 445.36C118.929 445.08 119.555 444.94 120.249 444.94ZM135.723 440.9V455H132.723V453.54C132.43 454.047 132.01 454.447 131.463 454.74C130.93 455.02 130.323 455.16 129.643 455.16C128.803 455.16 128.05 454.947 127.383 454.52C126.73 454.08 126.216 453.473 125.843 452.7C125.483 451.913 125.303 451.013 125.303 450C125.303 448.987 125.483 448.1 125.843 447.34C126.216 446.567 126.73 445.973 127.383 445.56C128.036 445.147 128.79 444.94 129.643 444.94C130.31 444.94 130.91 445.08 131.443 445.36C131.99 445.64 132.41 446.033 132.703 446.54V440.9H135.723ZM130.523 452.86C131.23 452.86 131.77 452.62 132.143 452.14C132.53 451.647 132.723 450.947 132.723 450.04C132.723 449.133 132.53 448.44 132.143 447.96C131.77 447.48 131.23 447.24 130.523 447.24C129.816 447.24 129.27 447.48 128.883 447.96C128.496 448.427 128.303 449.107 128.303 450C128.303 450.907 128.496 451.613 128.883 452.12C129.27 452.613 129.816 452.86 130.523 452.86ZM142.209 444.94C143.675 444.94 144.755 445.287 145.449 445.98C146.155 446.673 146.509 447.747 146.509 449.2V455H143.649V453.54C143.449 454.047 143.115 454.447 142.649 454.74C142.182 455.02 141.635 455.16 141.009 455.16C140.342 455.16 139.735 455.027 139.189 454.76C138.655 454.493 138.229 454.12 137.909 453.64C137.602 453.16 137.449 452.627 137.449 452.04C137.449 451.32 137.629 450.753 137.989 450.34C138.362 449.927 138.955 449.627 139.769 449.44C140.582 449.253 141.695 449.16 143.109 449.16H143.629V448.8C143.629 448.213 143.502 447.8 143.249 447.56C142.995 447.32 142.555 447.2 141.929 447.2C141.449 447.2 140.915 447.287 140.329 447.46C139.742 447.633 139.182 447.873 138.649 448.18L137.849 446.16C138.409 445.813 139.095 445.527 139.909 445.3C140.735 445.06 141.502 444.94 142.209 444.94ZM141.669 453.08C142.255 453.08 142.729 452.887 143.089 452.5C143.449 452.1 143.629 451.587 143.629 450.96V450.62H143.289C142.209 450.62 141.449 450.707 141.009 450.88C140.582 451.053 140.369 451.367 140.369 451.82C140.369 452.18 140.489 452.48 140.729 452.72C140.982 452.96 141.295 453.08 141.669 453.08ZM163.973 445.18V453.94C163.973 455.527 163.519 456.727 162.613 457.54C161.706 458.353 160.366 458.76 158.593 458.76C157.713 458.76 156.866 458.653 156.053 458.44C155.253 458.227 154.546 457.927 153.933 457.54L154.733 455.46C155.999 456.153 157.259 456.5 158.513 456.5C160.166 456.5 160.993 455.72 160.993 454.16V453.08C160.713 453.587 160.293 453.987 159.733 454.28C159.173 454.573 158.546 454.72 157.853 454.72C156.999 454.72 156.239 454.52 155.573 454.12C154.919 453.72 154.406 453.153 154.033 452.42C153.659 451.673 153.473 450.813 153.473 449.84C153.473 448.867 153.659 448.013 154.033 447.28C154.406 446.533 154.919 445.96 155.573 445.56C156.239 445.147 156.999 444.94 157.853 444.94C158.533 444.94 159.146 445.087 159.693 445.38C160.253 445.66 160.679 446.053 160.973 446.56V445.18H163.973ZM158.733 452.42C159.439 452.42 159.986 452.193 160.373 451.74C160.773 451.287 160.973 450.653 160.973 449.84C160.973 449.027 160.773 448.393 160.373 447.94C159.986 447.473 159.439 447.24 158.733 447.24C158.026 447.24 157.473 447.473 157.073 447.94C156.673 448.393 156.473 449.027 156.473 449.84C156.473 450.64 156.673 451.273 157.073 451.74C157.473 452.193 158.026 452.42 158.733 452.42ZM170.816 455.16C169.776 455.16 168.863 454.953 168.076 454.54C167.29 454.113 166.683 453.52 166.256 452.76C165.83 451.987 165.616 451.08 165.616 450.04C165.616 449 165.83 448.1 166.256 447.34C166.683 446.567 167.29 445.973 168.076 445.56C168.863 445.147 169.776 444.94 170.816 444.94C171.856 444.94 172.77 445.147 173.556 445.56C174.343 445.973 174.95 446.567 175.376 447.34C175.803 448.1 176.016 449 176.016 450.04C176.016 451.08 175.803 451.987 175.376 452.76C174.95 453.52 174.343 454.113 173.556 454.54C172.77 454.953 171.856 455.16 170.816 455.16ZM170.816 452.86C172.283 452.86 173.016 451.92 173.016 450.04C173.016 449.093 172.823 448.387 172.436 447.92C172.063 447.453 171.523 447.22 170.816 447.22C169.35 447.22 168.616 448.16 168.616 450.04C168.616 451.92 169.35 452.86 170.816 452.86ZM167.516 440.56H170.296V443.2H167.516V440.56ZM171.336 440.56H174.116V443.2H171.336V440.56ZM184.674 447.42L182.974 447.6C182.134 447.68 181.541 447.92 181.194 448.32C180.847 448.707 180.674 449.227 180.674 449.88V455H177.654V445.18H180.554V446.84C181.047 445.707 182.067 445.087 183.614 444.98L184.494 444.92L184.674 447.42ZM194.941 445.18V455H192.001V453.6C191.695 454.107 191.288 454.493 190.781 454.76C190.288 455.027 189.728 455.16 189.101 455.16C187.861 455.16 186.935 454.82 186.321 454.14C185.721 453.447 185.421 452.407 185.421 451.02V445.18H188.441V451.08C188.441 451.667 188.561 452.1 188.801 452.38C189.055 452.66 189.435 452.8 189.941 452.8C190.528 452.8 191.001 452.6 191.361 452.2C191.735 451.8 191.921 451.273 191.921 450.62V445.18H194.941ZM186.901 440.56H189.681V443.2H186.901V440.56ZM190.721 440.56H193.501V443.2H190.721V440.56ZM203.219 444.94C204.392 444.94 205.266 445.287 205.839 445.98C206.412 446.66 206.699 447.693 206.699 449.08V455H203.679V449.22C203.679 448.553 203.552 448.067 203.299 447.76C203.059 447.453 202.679 447.3 202.159 447.3C201.532 447.3 201.026 447.5 200.639 447.9C200.266 448.3 200.079 448.833 200.079 449.5V455H197.059V445.18H199.999V446.58C200.346 446.047 200.792 445.64 201.339 445.36C201.899 445.08 202.526 444.94 203.219 444.94ZM214.193 452.94C214.5 452.94 214.82 452.92 215.153 452.88L214.993 455.08C214.607 455.133 214.22 455.16 213.833 455.16C212.34 455.16 211.247 454.833 210.553 454.18C209.873 453.527 209.533 452.533 209.533 451.2V447.44H207.673V445.18H209.533V442.3H212.553V445.18H215.013V447.44H212.553V451.18C212.553 452.353 213.1 452.94 214.193 452.94ZM225.748 445.18V455H222.808V453.6C222.501 454.107 222.094 454.493 221.588 454.76C221.094 455.027 220.534 455.16 219.908 455.16C218.668 455.16 217.741 454.82 217.128 454.14C216.528 453.447 216.228 452.407 216.228 451.02V445.18H219.248V451.08C219.248 451.667 219.368 452.1 219.608 452.38C219.861 452.66 220.241 452.8 220.748 452.8C221.334 452.8 221.808 452.6 222.168 452.2C222.541 451.8 222.728 451.273 222.728 450.62V445.18H225.748ZM217.708 440.56H220.488V443.2H217.708V440.56ZM221.528 440.56H224.308V443.2H221.528V440.56ZM227.865 455V440.9H230.885V455H227.865ZM241.837 450.66H235.437C235.53 451.447 235.784 452.02 236.197 452.38C236.624 452.727 237.224 452.9 237.997 452.9C238.504 452.9 239.004 452.82 239.497 452.66C240.004 452.487 240.464 452.247 240.877 451.94L241.677 453.96C241.197 454.333 240.61 454.627 239.917 454.84C239.237 455.053 238.55 455.16 237.857 455.16C236.204 455.16 234.897 454.707 233.937 453.8C232.99 452.88 232.517 451.633 232.517 450.06C232.517 449.06 232.724 448.173 233.137 447.4C233.55 446.627 234.124 446.027 234.857 445.6C235.59 445.16 236.424 444.94 237.357 444.94C238.73 444.94 239.817 445.387 240.617 446.28C241.43 447.173 241.837 448.387 241.837 449.92V450.66ZM237.437 447.02C236.864 447.02 236.404 447.207 236.057 447.58C235.724 447.94 235.517 448.467 235.437 449.16H239.297C239.257 448.453 239.077 447.92 238.757 447.56C238.45 447.2 238.01 447.02 237.437 447.02ZM250.066 445.2H253.026L247.106 458.6H244.046L245.926 454.46L241.886 445.2H245.026L247.506 451.44L250.066 445.2ZM253.749 455V445.18H256.769V455H253.749ZM253.649 440.46H256.889V443.28H253.649V440.46ZM265.041 444.94C266.215 444.94 267.088 445.287 267.661 445.98C268.235 446.66 268.521 447.693 268.521 449.08V455H265.501V449.22C265.501 448.553 265.375 448.067 265.121 447.76C264.881 447.453 264.501 447.3 263.981 447.3C263.355 447.3 262.848 447.5 262.461 447.9C262.088 448.3 261.901 448.833 261.901 449.5V455H258.881V445.18H261.821V446.58C262.168 446.047 262.615 445.64 263.161 445.36C263.721 445.08 264.348 444.94 265.041 444.94Z" fill="#3C4E69"/>
<rect x="181" y="504" width="10" height="4" rx="2" fill="#3C4E69"/>
<rect x="163" y="504" width="4" height="4" rx="2" fill="#A4ABB6"/>
<rect x="172" y="504" width="4" height="4" rx="2" fill="#A4ABB6"/>
<path d="M221.629 93.6035C221.629 93.6035 221.823 98.7133 220.657 101.734C219.491 104.756 220.094 111.196 220.473 112.323C220.851 113.45 219.336 117.248 219.336 117.248L222.93 122.164C222.93 122.164 227.088 115.917 229.167 112.517C231.246 109.117 234.306 106.086 233.325 104.192C232.343 102.298 229.361 98.519 229.167 97.5767C228.973 96.6344 227.224 95.6921 227.224 95.6921L224.203 102.492C224.203 102.492 223.639 97.5767 223.639 95.3132C223.639 93.0498 222.202 91.9035 221.629 93.6035Z" fill="white"/>
<path opacity="0.15" d="M221.629 93.6035C221.629 93.6035 221.823 98.7133 220.657 101.734C219.491 104.756 220.094 111.196 220.473 112.323C220.851 113.45 219.336 117.248 219.336 117.248L222.93 122.164C222.93 122.164 227.088 115.917 229.167 112.517C231.246 109.117 234.306 106.086 233.325 104.192C232.343 102.298 229.361 98.519 229.167 97.5767C228.973 96.6344 227.224 95.6921 227.224 95.6921L224.203 102.492C224.203 102.492 223.639 97.5767 223.639 95.3132C223.639 93.0498 222.202 91.9035 221.629 93.6035Z" fill="black" stroke="#263238" stroke-linecap="round" stroke-linejoin="round"/>
<path d="M221.629 93.6035C221.629 93.6035 221.823 98.7133 220.657 101.734C219.491 104.756 220.094 111.196 220.473 112.323C220.851 113.45 219.336 117.248 219.336 117.248L222.93 122.164C222.93 122.164 227.088 115.917 229.167 112.517C231.246 109.117 234.306 106.086 233.325 104.192C232.343 102.298 229.361 98.519 229.167 97.5767C228.973 96.6344 227.224 95.6921 227.224 95.6921L224.203 102.492C224.203 102.492 223.639 97.5767 223.639 95.3132C223.639 93.0498 222.202 91.9035 221.629 93.6035Z" stroke="#263238" stroke-linecap="round" stroke-linejoin="round"/>
<path d="M218.605 116.141L226.173 123.699C226.173 123.699 202.343 163.227 199.886 164.353C197.428 165.48 188.16 157.913 188.16 157.913L181.914 123.485C181.914 123.485 190.249 127.963 193.086 132.685C195.922 137.406 197.807 137.862 197.807 137.862L218.605 116.141Z" fill="white"/>
<path d="M196.371 148.538C195.623 148.538 194.865 145.265 194.865 143.506C194.865 141.748 190.843 145.022 190.843 145.022L186.326 138.989L184.859 139.698L188.162 157.903C188.162 157.903 197.43 165.461 199.887 164.324C202.345 163.188 223.6 127.925 225.961 124.029C220.152 128.954 197.031 148.538 196.371 148.538Z" fill="#33A5DF"/>
<path opacity="0.5" d="M196.371 148.538C195.623 148.538 194.865 145.265 194.865 143.506C194.865 141.748 190.843 145.022 190.843 145.022L186.326 138.989L184.859 139.698L188.162 157.903C188.162 157.903 197.43 165.461 199.887 164.324C202.345 163.188 223.6 127.925 225.961 124.029C220.152 128.954 197.031 148.538 196.371 148.538Z" fill="white"/>
<path d="M218.605 116.141L226.173 123.699C226.173 123.699 202.343 163.227 199.886 164.353C197.428 165.48 188.16 157.913 188.16 157.913L181.914 123.485C181.914 123.485 190.249 127.963 193.086 132.685C195.922 137.406 197.807 137.862 197.807 137.862L218.605 116.141Z" stroke="#263238" stroke-linecap="round" stroke-linejoin="round"/>
<path d="M194.29 150.267C194.776 145.896 197.806 137.853 197.806 137.853C197.806 137.853 193.804 143.467 192.59 146.382" stroke="#263238" stroke-linecap="round" stroke-linejoin="round"/>
<path d="M174.864 343.457C177.949 346.096 181.487 348.153 185.307 349.529C191.864 351.957 194.778 353.414 195.749 355.6C196.721 357.786 195.749 359 195.749 359H154.221C154.221 359 152.035 355.6 155.678 348.8C159.321 342 174.864 343.457 174.864 343.457Z" fill="white" stroke="#263238" stroke-linecap="round" stroke-linejoin="round"/>
<path d="M176.349 344.895C176.349 344.895 172.959 346.381 174.017 347.012C175.076 347.644 177.825 346.167 177.825 346.167C177.825 346.167 174.445 348.713 176.135 348.926C177.825 349.14 180.371 347.654 180.371 347.654C180.371 347.654 178.039 350.617 179.098 350.83C180.157 351.044 182.906 348.887 182.906 348.887" stroke="#263238" stroke-linecap="round" stroke-linejoin="round"/>
<path d="M153.84 355.94L195.748 355.6" stroke="#263238" stroke-linecap="round" stroke-linejoin="round"/>
<path d="M190.893 239.756C190.893 239.756 186.035 279.342 185.307 288.814C184.578 298.285 178.021 314.8 176.807 318.928C175.565 324.114 174.752 329.394 174.378 334.714C174.607 337.009 175.013 339.282 175.592 341.514C175.592 341.514 176.078 343.7 171.464 344.671C166.85 345.643 158.35 347.1 158.35 347.1C158.35 347.1 155.192 346.128 155.435 336.9C155.678 327.671 156.164 310.671 158.35 302.657C160.535 294.642 163.45 281.528 164.178 278.857C164.907 276.185 163.207 232.228 163.207 232.228L190.407 231.985L190.893 239.756Z" fill="#263238" stroke="#263238" stroke-linecap="round" stroke-linejoin="round"/>
<path d="M155.676 343.457C158.761 346.096 162.299 348.153 166.119 349.529C172.676 351.957 175.591 353.414 176.562 355.6C177.533 357.786 176.562 359 176.562 359H135.033C135.033 359 132.847 355.6 136.49 348.8C140.133 342 155.676 343.457 155.676 343.457Z" fill="white" stroke="#263238" stroke-linecap="round" stroke-linejoin="round"/>
<path d="M160.681 346.808C160.681 346.808 155.387 349.771 156.232 350.189C157.077 350.607 162.372 348.071 162.372 348.071C162.372 348.071 159.409 351.462 161.099 351.248C162.789 351.034 164.703 348.926 164.703 348.926C164.703 348.926 163.003 352.52 164.276 352.103C165.329 351.591 166.268 350.87 167.034 349.985" stroke="#263238" stroke-linecap="round" stroke-linejoin="round"/>
<path d="M134.508 354.959L176.561 355.6" stroke="#263238" stroke-linecap="round" stroke-linejoin="round"/>
<path d="M141.832 229.556C141.832 229.556 143.289 267.442 143.047 274.728C142.804 282.014 138.918 290.028 138.432 298.771C137.946 307.514 134.469 341.893 134.469 345.779C134.469 349.665 134.634 350.403 134.877 351.132C135.12 351.86 141.104 350.257 144.504 349.043C147.904 347.829 159.58 346.605 159.58 346.605C159.58 346.605 157.638 342.972 157.638 340.3C157.638 337.629 157.152 333.257 157.638 331.8C158.123 330.343 161.038 299.986 162.98 294.4C164.923 288.814 168.323 270.357 168.566 263.314C168.809 256.271 171.723 232.471 171.723 232.471C171.723 232.471 152.275 233.199 141.832 229.556Z" fill="#263238" stroke="#263238" stroke-linecap="round" stroke-linejoin="round"/>
<path d="M172.57 258.456C172.687 256.999 172.755 255.639 172.755 254.396" stroke="white" stroke-linecap="round" stroke-linejoin="round"/>
<path d="M159.582 344.127V336.725C159.582 333.014 162.875 314.489 165.751 298.023C167.888 285.822 170.705 273.164 172.016 263.401" stroke="white" stroke-linecap="round" stroke-linejoin="round"/>
<path d="M146.944 110.759C146.944 110.759 138.055 118.89 137.298 119.502C136.54 120.114 129.73 131.218 127.845 135.57C125.961 139.922 127.651 148.053 128.817 154.999C129.983 161.944 137.327 184.307 137.327 184.307L135.432 240.844C135.432 240.844 148.479 246.333 155.833 247.644C163.186 248.956 174.931 248.402 174.931 248.402L177.389 236.113L180.41 247.829C180.41 247.829 191.941 246.508 197.235 240.65L190.814 168.599L187.22 136.26C187.22 136.26 186.248 128.488 184.383 125.107C182.518 121.727 172.279 115.082 165.09 112.479C157.902 109.875 146.944 110.759 146.944 110.759Z" fill="white"/>
<path d="M154.414 159.856L135.568 149.811L136.365 142.554C136.365 142.554 129.798 141.525 131.304 137.25C132.81 132.976 138.871 124.884 140.105 122.154C141.339 119.425 148.139 114.383 148.139 114.383L150.849 110.614C148.508 110.614 146.963 110.769 146.963 110.769C146.963 110.769 138.075 118.9 137.317 119.512C136.559 120.124 129.75 131.228 127.865 135.58C125.98 139.932 127.671 148.063 128.836 155.008C130.002 161.954 137.346 184.317 137.346 184.317L135.452 240.854C135.452 240.854 138.551 242.156 142.582 243.642C142.028 222.989 141.038 183.753 141.407 183.199C141.912 182.451 150.703 170.386 153.21 167.656C155.716 164.927 142.164 168.404 142.913 167.909C143.661 167.414 154.414 159.856 154.414 159.856Z" fill="#33A5DF"/>
<path opacity="0.5" d="M154.414 159.856L135.568 149.811L136.365 142.554C136.365 142.554 129.798 141.525 131.304 137.25C132.81 132.976 138.871 124.884 140.105 122.154C141.339 119.425 148.139 114.383 148.139 114.383L150.849 110.614C148.508 110.614 146.963 110.769 146.963 110.769C146.963 110.769 138.075 118.9 137.317 119.512C136.559 120.124 129.75 131.228 127.865 135.58C125.98 139.932 127.671 148.063 128.836 155.008C130.002 161.954 137.346 184.317 137.346 184.317L135.452 240.854C135.452 240.854 138.551 242.156 142.582 243.642C142.028 222.989 141.038 183.753 141.407 183.199C141.912 182.451 150.703 170.386 153.21 167.656C155.716 164.927 142.164 168.404 142.913 167.909C143.661 167.414 154.414 159.856 154.414 159.856Z" fill="white"/>
<path d="M172.434 150.87C172.434 150.87 178.932 213.314 177.388 236.133L172.434 150.87Z" fill="white"/>
<path d="M172.434 150.87C172.434 150.87 178.932 213.314 177.388 236.133" stroke="#263238" stroke-linecap="round" stroke-linejoin="round"/>
<path d="M143.777 203.813L163.449 206.485V211.585L144.02 208.427L143.777 203.813Z" stroke="#263238" stroke-linecap="round" stroke-linejoin="round"/>
<path d="M193.077 207.213L187.006 209.399L186.277 204.542L191.135 202.842" stroke="#263238" stroke-linecap="round" stroke-linejoin="round"/>
<path d="M146.944 110.759C146.944 110.759 138.055 118.89 137.298 119.502C136.54 120.114 129.73 131.218 127.845 135.57C125.961 139.922 127.651 148.053 128.817 154.999C129.983 161.944 137.327 184.307 137.327 184.307L135.432 240.844C135.432 240.844 148.479 246.333 155.833 247.644C163.186 248.956 174.931 248.402 174.931 248.402L177.389 236.113L180.41 247.829C180.41 247.829 191.941 246.508 197.235 240.65L190.814 168.599L187.22 136.26C187.22 136.26 186.248 128.488 184.383 125.107C182.518 121.727 172.279 115.082 165.09 112.479C157.902 109.875 146.944 110.759 146.944 110.759Z" stroke="#263238" stroke-linecap="round" stroke-linejoin="round"/>
<path d="M145.809 112.255C145.809 112.255 162.634 132.49 165.47 137.785C168.307 143.079 172.475 149.51 172.475 149.51C172.475 149.51 172.659 131.538 170.201 123.223C167.744 114.907 165.101 113.411 165.101 113.411C163.701 111.975 161.965 110.912 160.05 110.316C158.135 109.721 156.101 109.613 154.134 110.001C146.945 111.138 145.809 112.255 145.809 112.255Z" fill="white" stroke="#263238" stroke-linecap="round" stroke-linejoin="round"/>
<path d="M172.027 135.657L167.928 127.215V119.842L162.255 114.014L161.691 123.466L165.849 128.197L167.792 141.903C170.153 145.945 172.503 149.568 172.503 149.568C172.503 149.568 172.542 142.787 172.027 135.657Z" fill="#263238" stroke="#263238" stroke-linecap="round" stroke-linejoin="round"/>
<path d="M164.713 118.327L170.201 123.242L165.471 111.896C165.471 111.896 163.392 117.19 164.713 118.327Z" fill="white" stroke="#263238" stroke-linecap="round" stroke-linejoin="round"/>
<path d="M152.801 68.9678C152.801 68.9678 145.243 72.3776 142.028 78.4296C138.812 84.4817 143.533 91.8549 145.049 93.7395C146.136 95.0434 147.339 96.2464 148.643 97.3338L150.159 99.0338L150.343 107.544L164.128 119.269L167.907 107.165C167.907 107.165 174.338 105.844 175.29 103.386C176.242 100.928 173.395 85.8028 172.638 82.7719C171.88 79.7411 169.617 73.893 169.617 73.893C169.617 73.893 170.365 71.0564 166.022 68.4044C161.68 65.7524 152.801 68.9678 152.801 68.9678Z" fill="white"/>
<g opacity="0.15">
<path opacity="0.15" d="M152.801 68.9678C152.801 68.9678 145.243 72.3776 142.028 78.4296C138.812 84.4817 143.533 91.8549 145.049 93.7395C146.136 95.0434 147.339 96.2464 148.643 97.3338L150.159 99.0338L150.343 107.544L164.128 119.269L167.907 107.165C167.907 107.165 174.338 105.844 175.29 103.386C176.242 100.928 173.395 85.8028 172.638 82.7719C171.88 79.7411 169.617 73.893 169.617 73.893C169.617 73.893 170.365 71.0564 166.022 68.4044C161.68 65.7524 152.801 68.9678 152.801 68.9678Z" fill="black"/>
<g opacity="0.15">
<path opacity="0.15" d="M157.94 100.307C157.182 96.5374 160.204 86.7065 156.969 80.2076C154.375 75.0104 146.866 75.3504 143.893 75.7487C143.189 76.5738 142.577 77.4727 142.067 78.4299C138.851 84.4819 143.573 91.8551 145.088 93.7397C146.175 95.0437 147.378 96.2467 148.682 97.334L150.198 99.034L150.382 107.544L154.19 110.779C154.19 109.691 154.19 108.836 154.19 108.34C154.19 106.679 161.729 106.582 163.74 105.834C165.75 105.086 158.688 104.076 157.94 100.307Z" fill="black"/>
<path opacity="0.5" d="M157.94 100.307C157.182 96.5374 160.204 86.7065 156.969 80.2076C154.375 75.0104 146.866 75.3504 143.893 75.7487C143.189 76.5738 142.577 77.4727 142.067 78.4299C138.851 84.4819 143.573 91.8551 145.088 93.7397C146.175 95.0437 147.378 96.2467 148.682 97.334L150.198 99.034L150.382 107.544L154.19 110.779C154.19 109.691 154.19 108.836 154.19 108.34C154.19 106.679 161.729 106.582 163.74 105.834C165.75 105.086 158.688 104.076 157.94 100.307Z" fill="black"/>
</g>
</g>
<g style="mix-blend-mode:multiply" opacity="0.22">
<path d="M157.94 100.307C157.182 96.5374 160.204 86.7065 156.969 80.2076C154.375 75.0104 146.866 75.3504 143.893 75.7487C143.189 76.5738 142.577 77.4727 142.067 78.4299C138.851 84.4819 143.573 91.8551 145.088 93.7397C146.175 95.0437 147.378 96.2467 148.682 97.334L150.198 99.034L150.382 107.544L154.19 110.779C154.19 109.691 154.19 108.836 154.19 108.34C154.19 106.679 161.729 106.582 163.74 105.834C165.75 105.086 158.688 104.076 157.94 100.307Z" fill="black"/>
</g>
<path d="M152.801 68.9678C152.801 68.9678 145.243 72.3776 142.028 78.4296C138.812 84.4817 143.533 91.8549 145.049 93.7395C146.136 95.0434 147.339 96.2464 148.643 97.3338L150.159 99.0338L150.343 107.544L164.128 119.269L167.907 107.165C167.907 107.165 174.338 105.844 175.29 103.386C176.242 100.928 173.395 85.8028 172.638 82.7719C171.88 79.7411 169.617 73.893 169.617 73.893C169.617 73.893 170.365 71.0564 166.022 68.4044C161.68 65.7524 152.801 68.9678 152.801 68.9678Z" stroke="#263238" stroke-linecap="round" stroke-linejoin="round"/>
<path d="M154.879 99.4127C154.879 99.4127 155.637 102.444 156.958 103.201C160.014 104.936 163.469 105.847 166.983 105.844" stroke="#263238" stroke-linecap="round" stroke-linejoin="round"/>
<path d="M172.656 82.7721L171.52 84.851C171.52 84.851 176.056 89.0184 175.872 90.1453C175.687 91.2722 172.093 92.6127 172.093 92.6127" fill="white"/>
<path opacity="0.15" d="M172.656 82.7721L171.52 84.851C171.52 84.851 176.056 89.0184 175.872 90.1453C175.687 91.2722 172.093 92.6127 172.093 92.6127" fill="black"/>
<path d="M172.656 82.7721L171.52 84.851C171.52 84.851 176.056 89.0184 175.872 90.1453C175.687 91.2722 172.093 92.6127 172.093 92.6127" stroke="#263238" stroke-linecap="round" stroke-linejoin="round"/>
<path d="M166.867 86.8909L167.168 87.6486L164.672 88.6395L167.295 88.5812" stroke="#263238" stroke-linecap="round" stroke-linejoin="round"/>
<path d="M167.236 84.1614C167.236 84.1614 164.05 83.2871 162.719 85.9585" stroke="#263238" stroke-linecap="round" stroke-linejoin="round"/>
<path d="M173.842 95.2646C172.391 95.6798 170.892 95.9019 169.383 95.9252" stroke="#263238" stroke-linecap="round" stroke-linejoin="round"/>
<path d="M158.301 75.0199C163.401 71.9987 169.648 73.8833 169.648 73.8833C169.648 73.8833 170.396 71.0564 166.053 68.4044C161.711 65.7524 152.813 68.9678 152.813 68.9678C152.813 68.9678 145.255 72.3776 142.039 78.4296C138.824 84.4817 143.545 91.8549 145.061 93.7395C146.148 95.0434 147.351 96.2464 148.655 97.3338L150.17 99.0338V99.7235C153.24 99.3544 153.745 98.8492 153.745 98.8492C153.32 98.8591 152.898 98.7775 152.508 98.6099C152.117 98.4422 151.767 98.1926 151.482 97.8778C150.161 96.7412 147.703 94.8469 148.266 92.2046C148.83 89.5623 151.103 89.5526 152.24 90.4949C153.376 91.4372 153.376 91.6314 154.697 91.068C156.018 90.5046 154.124 87.0948 154.124 87.0948L156.067 85.7737C157.961 84.4525 158.525 82.9371 157.038 81.6159C155.552 80.2948 153.182 78.0508 158.301 75.0199Z" fill="#263238" stroke="#263238" stroke-linecap="round" stroke-linejoin="round"/>
<path d="M148.461 105.659L145.809 112.275L160.934 126.836L164.907 119.084L148.461 105.659Z" fill="white" stroke="#263238" stroke-linecap="round" stroke-linejoin="round"/>
<path d="M188.16 59.1954C188.16 59.1954 197.991 76.5938 199.507 84.9093C201.022 93.2248 203.859 104.192 203.859 104.192L228.63 101.356C228.63 101.356 225.036 78.2938 222.802 70.5417C220.567 62.7897 219.965 61.08 219.965 61.08C219.965 61.08 192.298 58.2434 188.16 59.1954Z" fill="#263238" stroke="#263238" stroke-linecap="round" stroke-linejoin="round"/>
<path d="M191.57 117.248C191.57 117.248 192.542 110.448 192.542 109.866C192.542 109.283 192.299 99.6266 192.299 99.6266C192.299 99.6266 195.893 91.8551 196.466 91.4957C197.04 91.1363 203.082 88.0957 203.461 89.4168C203.84 90.738 202.14 91.3111 201.566 91.8746C200.993 92.438 198.545 93.5746 198.351 94.1477C198.157 94.7209 197.03 99.0632 197.03 99.0632C197.03 99.0632 201.945 95.2843 203.266 95.2843C204.588 95.2843 205.724 98.3055 205.724 98.3055C205.724 98.3055 207.434 100.763 207.434 102.084C207.434 103.405 207.813 104.921 206.861 105.873C205.909 106.825 205.54 107.573 204.218 107.573C202.897 107.573 201.188 109.088 201.188 110.215C201.188 111.342 201.188 115.131 200.051 116.267C198.296 117.744 196.467 119.132 194.572 120.425L191.57 117.248Z" fill="white"/>
<path opacity="0.15" d="M191.57 117.248C191.57 117.248 192.542 110.448 192.542 109.866C192.542 109.283 192.299 99.6266 192.299 99.6266C192.299 99.6266 195.893 91.8551 196.466 91.4957C197.04 91.1363 203.082 88.0957 203.461 89.4168C203.84 90.738 202.14 91.3111 201.566 91.8746C200.993 92.438 198.545 93.5746 198.351 94.1477C198.157 94.7209 197.03 99.0632 197.03 99.0632C197.03 99.0632 201.945 95.2843 203.266 95.2843C204.588 95.2843 205.724 98.3055 205.724 98.3055C205.724 98.3055 207.434 100.763 207.434 102.084C207.434 103.405 207.813 104.921 206.861 105.873C205.909 106.825 205.54 107.573 204.218 107.573C202.897 107.573 201.188 109.088 201.188 110.215C201.188 111.342 201.188 115.131 200.051 116.267C198.296 117.744 196.467 119.132 194.572 120.425L191.57 117.248Z" fill="black" stroke="#263238" stroke-linecap="round" stroke-linejoin="round"/>
<path d="M191.57 117.248C191.57 117.248 192.542 110.448 192.542 109.866C192.542 109.283 192.299 99.6266 192.299 99.6266C192.299 99.6266 195.893 91.8551 196.466 91.4957C197.04 91.1363 203.082 88.0957 203.461 89.4168C203.84 90.738 202.14 91.3111 201.566 91.8746C200.993 92.438 198.545 93.5746 198.351 94.1477C198.157 94.7209 197.03 99.0632 197.03 99.0632C197.03 99.0632 201.945 95.2843 203.266 95.2843C204.588 95.2843 205.724 98.3055 205.724 98.3055C205.724 98.3055 207.434 100.763 207.434 102.084C207.434 103.405 207.813 104.921 206.861 105.873C205.909 106.825 205.54 107.573 204.218 107.573C202.897 107.573 201.188 109.088 201.188 110.215C201.188 111.342 201.188 115.131 200.051 116.267C198.296 117.744 196.467 119.132 194.572 120.425L191.57 117.248Z" stroke="#263238" stroke-linecap="round" stroke-linejoin="round"/>
<path d="M207.454 102.114L201.023 105.145" stroke="#263238" stroke-linecap="round" stroke-linejoin="round"/>
<path d="M205.745 98.3346L199.703 101.929" stroke="#263238" stroke-linecap="round" stroke-linejoin="round"/>
<path d="M229.576 96.6345C229.576 96.6345 225.418 99.0922 225.418 100.229C225.418 101.365 226.389 101.55 227.681 100.986C228.973 100.423 231.47 99.6556 231.47 98.3345C231.47 97.0133 230.897 96.4402 229.576 96.6345Z" fill="white"/>
<path opacity="0.15" d="M229.576 96.6345C229.576 96.6345 225.418 99.0922 225.418 100.229C225.418 101.365 226.389 101.55 227.681 100.986C228.973 100.423 231.47 99.6556 231.47 98.3345C231.47 97.0133 230.897 96.4402 229.576 96.6345Z" fill="black" stroke="#263238" stroke-linecap="round" stroke-linejoin="round"/>
<path d="M229.576 96.6345C229.576 96.6345 225.418 99.0922 225.418 100.229C225.418 101.365 226.389 101.55 227.681 100.986C228.973 100.423 231.47 99.6556 231.47 98.3345C231.47 97.0133 230.897 96.4402 229.576 96.6345Z" stroke="#263238" stroke-linecap="round" stroke-linejoin="round"/>
<path d="M228.815 93.9824C228.815 93.9824 224.842 94.9538 224.657 96.4401C224.473 97.9264 229.573 96.819 230.709 96.4401C231.846 96.0613 231.846 93.419 228.815 93.9824Z" fill="white"/>
<path opacity="0.15" d="M228.815 93.9824C228.815 93.9824 224.842 94.9538 224.657 96.4401C224.473 97.9264 229.573 96.819 230.709 96.4401C231.846 96.0613 231.846 93.419 228.815 93.9824Z" fill="black" stroke="#263238" stroke-linecap="round" stroke-linejoin="round"/>
<path d="M228.815 93.9824C228.815 93.9824 224.842 94.9538 224.657 96.4401C224.473 97.9264 229.573 96.819 230.709 96.4401C231.846 96.0613 231.846 93.419 228.815 93.9824Z" stroke="#263238" stroke-linecap="round" stroke-linejoin="round"/>
<path d="M230.896 99.6265C230.896 99.6265 226.175 101.9 225.981 102.657C225.787 103.415 225.418 104.542 227.302 104.542C229.187 104.542 232.791 102.657 232.975 101.326C233.16 99.9956 232.412 99.6265 230.896 99.6265Z" fill="white"/>
<path opacity="0.15" d="M230.896 99.6265C230.896 99.6265 226.175 101.9 225.981 102.657C225.787 103.415 225.418 104.542 227.302 104.542C229.187 104.542 232.791 102.657 232.975 101.326C233.16 99.9956 232.412 99.6265 230.896 99.6265Z" fill="black" stroke="#263238" stroke-linecap="round" stroke-linejoin="round"/>
<path d="M230.896 99.6265C230.896 99.6265 226.175 101.9 225.981 102.657C225.787 103.415 225.418 104.542 227.302 104.542C229.187 104.542 232.791 102.657 232.975 101.326C233.16 99.9956 232.412 99.6265 230.896 99.6265Z" stroke="#263238" stroke-linecap="round" stroke-linejoin="round"/>
<path d="M232.381 102.308C232.381 102.308 228.009 104.309 227.834 104.979C227.66 105.649 227.31 106.65 229.058 106.65C230.807 106.65 234.129 104.979 234.304 103.813C234.479 102.648 233.78 102.308 232.381 102.308Z" fill="white"/>
<path opacity="0.15" d="M232.381 102.308C232.381 102.308 228.009 104.309 227.834 104.979C227.66 105.649 227.31 106.65 229.058 106.65C230.807 106.65 234.129 104.979 234.304 103.813C234.479 102.648 233.78 102.308 232.381 102.308Z" fill="black" stroke="#263238" stroke-linecap="round" stroke-linejoin="round"/>
<path d="M232.381 102.308C232.381 102.308 228.009 104.309 227.834 104.979C227.66 105.649 227.31 106.65 229.058 106.65C230.807 106.65 234.129 104.979 234.304 103.813C234.479 102.648 233.78 102.308 232.381 102.308Z" stroke="#263238" stroke-linecap="round" stroke-linejoin="round"/>
<path d="M195.391 61.6724C195.391 61.6724 203.279 75.4182 204.736 81.0039C206.193 86.5897 207.407 102.133 207.407 102.133L223.193 100.19C223.193 100.19 222.707 86.104 220.522 79.3039C218.336 72.5039 216.636 63.761 216.636 63.761L195.391 61.6724Z" fill="#7D7D7D"/>
<path d="M208.473 82.4028C208.473 82.4028 206.666 85.7639 207.696 87.1919C208.726 88.6199 211.184 89.2611 211.446 89.6497C211.708 90.0382 213.515 101.025 213.515 101.025L219.072 100.51C219.072 100.51 216.361 90.2908 217.002 88.3577C217.644 86.4245 219.208 84.6079 217.653 82.9273C216.099 81.2467 213.641 80.081 212.097 80.3336C210.757 80.7621 209.523 81.467 208.473 82.4028Z" fill="white"/>
<path d="M203.434 62.877C203.434 62.877 207.96 74.5342 207.572 76.5839C207.183 78.6336 206.144 82.0142 208.475 82.4125C210.807 82.8108 211.837 80.6057 212.614 80.732C213.391 80.8582 214.683 83.316 215.849 81.8977C217.014 80.4794 218.17 78.1479 216.237 75.8165C214.304 73.485 212.876 72.2027 211.837 69.745C211.043 67.712 210.352 65.6402 209.767 63.5375L203.434 62.877Z" fill="white"/>
<path d="M145.993 123.291C145.993 123.291 148.829 123.291 152.239 126.322C155.649 129.352 167.782 141.641 167.782 141.641L191.417 115.917L199.189 123.291L171.143 164.324C169.807 164.779 168.395 164.974 166.985 164.897C164.907 164.703 133.141 149.014 133.141 149.014" fill="white"/>
<path d="M163.216 158.583C158.942 158.583 144.623 150.54 140.106 147.023C138.58 145.786 137.312 144.261 136.375 142.535L133.141 149.014C133.141 149.014 164.907 164.703 166.985 164.897C168.395 164.974 169.807 164.779 171.143 164.324L191.407 134.598C184.102 141.767 166.577 158.583 163.216 158.583Z" fill="#33A5DF"/>
<path opacity="0.5" d="M163.216 158.583C158.942 158.583 144.623 150.54 140.106 147.023C138.58 145.786 137.312 144.261 136.375 142.535L133.141 149.014C133.141 149.014 164.907 164.703 166.985 164.897C168.395 164.974 169.807 164.779 171.143 164.324L191.407 134.598C184.102 141.767 166.577 158.583 163.216 158.583Z" fill="white"/>
<path d="M145.993 123.291C145.993 123.291 148.829 123.291 152.239 126.322C155.649 129.352 167.782 141.641 167.782 141.641L191.417 115.917L199.189 123.291L171.143 164.324C169.807 164.779 168.395 164.974 166.985 164.897C164.907 164.703 133.141 149.014 133.141 149.014" stroke="#263238" stroke-linecap="round" stroke-linejoin="round"/>
<path d="M145.992 155.63L135.598 155.436" stroke="#263238" stroke-linecap="round" stroke-linejoin="round"/>
<path d="M167.742 141.272C167.742 141.272 161.748 148.441 161.02 152.327" stroke="#263238" stroke-linecap="round" stroke-linejoin="round"/>
<path d="M165.877 142.01C165.877 142.01 160.777 146.625 159.562 149.053" stroke="#263238" stroke-linecap="round" stroke-linejoin="round"/>
<g filter="url(#filter0_d_7_5892)">
<rect x="244" y="132" width="80" height="80" rx="20" fill="white"/>
</g>
<path d="M274.628 178.771C274.232 178.771 273.836 178.625 273.523 178.312C272.919 177.708 272.919 176.708 273.523 176.104L280.19 169.437C280.523 169.104 280.961 168.937 281.44 168.979C281.898 169.021 282.315 169.271 282.586 169.666L284.857 173.083L292.253 165.687C292.857 165.083 293.857 165.083 294.461 165.687C295.065 166.292 295.065 167.292 294.461 167.896L285.711 176.646C285.378 176.979 284.94 177.146 284.461 177.104C284.003 177.062 283.586 176.812 283.315 176.416L281.044 173L275.732 178.312C275.419 178.625 275.023 178.771 274.628 178.771Z" fill="#32A5DF"/>
<path d="M293.374 172.521C292.52 172.521 291.811 171.812 291.811 170.958V168.354H289.207C288.353 168.354 287.645 167.646 287.645 166.792C287.645 165.937 288.353 165.229 289.207 165.229H293.374C294.228 165.229 294.936 165.937 294.936 166.792V170.958C294.936 171.812 294.228 172.521 293.374 172.521Z" fill="#32A5DF"/>
<path d="M290.251 194.396H277.751C266.439 194.396 261.605 189.562 261.605 178.25V165.75C261.605 154.437 266.439 149.604 277.751 149.604H290.251C301.564 149.604 306.397 154.437 306.397 165.75V178.25C306.397 189.562 301.564 194.396 290.251 194.396ZM277.751 152.729C268.147 152.729 264.73 156.146 264.73 165.75V178.25C264.73 187.854 268.147 191.271 277.751 191.271H290.251C299.855 191.271 303.272 187.854 303.272 178.25V165.75C303.272 156.146 299.855 152.729 290.251 152.729H277.751Z" fill="#32A5DF"/>
<g filter="url(#filter1_d_7_5892)">
<rect x="96" y="24" width="40" height="40" rx="10" fill="white"/>
</g>
<path d="M116 53.6501C115.69 53.6501 115.39 53.6101 115.14 53.5201C111.32 52.2101 105.25 47.5601 105.25 40.6901C105.25 37.1901 108.08 34.3501 111.56 34.3501C113.25 34.3501 114.83 35.0101 116 36.1901C117.17 35.0101 118.75 34.3501 120.44 34.3501C123.92 34.3501 126.75 37.2001 126.75 40.6901C126.75 47.5701 120.68 52.2101 116.86 53.5201C116.61 53.6101 116.31 53.6501 116 53.6501ZM111.56 35.8501C108.91 35.8501 106.75 38.0201 106.75 40.6901C106.75 47.5201 113.32 51.3201 115.63 52.1101C115.81 52.1701 116.2 52.1701 116.38 52.1101C118.68 51.3201 125.26 47.5301 125.26 40.6901C125.26 38.0201 123.1 35.8501 120.45 35.8501C118.93 35.8501 117.52 36.5601 116.61 37.7901C116.33 38.1701 115.69 38.1701 115.41 37.7901C114.48 36.5501 113.08 35.8501 111.56 35.8501Z" fill="#7367F0"/>
<g filter="url(#filter2_d_7_5892)">
<rect x="30" y="109" width="70" height="70" rx="20" fill="white"/>
</g>
<path d="M69.9479 161.917H59.9479C50.8979 161.917 47.0312 158.05 47.0312 149V139C47.0312 129.95 50.8979 126.083 59.9479 126.083H69.9479C78.9979 126.083 82.8645 129.95 82.8645 139V149C82.8645 158.05 79.0145 161.917 69.9479 161.917ZM59.9479 128.583C52.2646 128.583 49.5312 131.317 49.5312 139V149C49.5312 156.683 52.2646 159.417 59.9479 159.417H69.9479C77.6312 159.417 80.3645 156.683 80.3645 149V139C80.3645 131.317 77.6312 128.583 69.9479 128.583H59.9479Z" fill="#FF8038"/>
<path d="M64.083 154.1C63.683 154.1 62.7164 153.95 62.1497 152.5L60.2497 147.7C59.9831 147.016 59.0331 146.383 58.3164 146.383L48.3164 146.416C47.6331 146.416 47.0664 145.866 47.0664 145.166C47.0664 144.483 47.6164 143.916 48.3164 143.916L58.3164 143.883H58.3331C60.0831 143.883 61.9497 145.15 62.5997 146.783L64.1164 150.616L67.5497 141.916C68.0664 140.616 68.983 140.433 69.3664 140.4C69.7497 140.383 70.683 140.466 71.333 141.7L73.0664 144.983C73.3664 145.55 74.2664 146.1 74.9164 146.1H81.683C82.3664 146.1 82.933 146.666 82.933 147.35C82.933 148.033 82.3664 148.6 81.683 148.6H74.9164C73.333 148.6 71.5997 147.55 70.8664 146.15L69.5664 143.683L66.0664 152.5C65.4497 153.933 64.4664 154.1 64.083 154.1Z" fill="#FF8038"/>
<defs>
<filter id="filter0_d_7_5892" x="214" y="108" width="140" height="140" filterUnits="userSpaceOnUse" color-interpolation-filters="sRGB">
<feFlood flood-opacity="0" result="BackgroundImageFix"/>
<feColorMatrix in="SourceAlpha" type="matrix" values="0 0 0 0 0 0 0 0 0 0 0 0 0 0 0 0 0 0 127 0" result="hardAlpha"/>
<feOffset dy="6"/>
<feGaussianBlur stdDeviation="15"/>
<feComposite in2="hardAlpha" operator="out"/>
<feColorMatrix type="matrix" values="0 0 0 0 0.2 0 0 0 0 0.647059 0 0 0 0 0.87451 0 0 0 0.22 0"/>
<feBlend mode="normal" in2="BackgroundImageFix" result="effect1_dropShadow_7_5892"/>
<feBlend mode="normal" in="SourceGraphic" in2="effect1_dropShadow_7_5892" result="shape"/>
</filter>
<filter id="filter1_d_7_5892" x="66" y="0" width="100" height="100" filterUnits="userSpaceOnUse" color-interpolation-filters="sRGB">
<feFlood flood-opacity="0" result="BackgroundImageFix"/>
<feColorMatrix in="SourceAlpha" type="matrix" values="0 0 0 0 0 0 0 0 0 0 0 0 0 0 0 0 0 0 127 0" result="hardAlpha"/>
<feOffset dy="6"/>
<feGaussianBlur stdDeviation="15"/>
<feComposite in2="hardAlpha" operator="out"/>
<feColorMatrix type="matrix" values="0 0 0 0 0.2 0 0 0 0 0.647059 0 0 0 0 0.87451 0 0 0 0.22 0"/>
<feBlend mode="normal" in2="BackgroundImageFix" result="effect1_dropShadow_7_5892"/>
<feBlend mode="normal" in="SourceGraphic" in2="effect1_dropShadow_7_5892" result="shape"/>
</filter>
<filter id="filter2_d_7_5892" x="0" y="85" width="130" height="130" filterUnits="userSpaceOnUse" color-interpolation-filters="sRGB">
<feFlood flood-opacity="0" result="BackgroundImageFix"/>
<feColorMatrix in="SourceAlpha" type="matrix" values="0 0 0 0 0 0 0 0 0 0 0 0 0 0 0 0 0 0 127 0" result="hardAlpha"/>
<feOffset dy="6"/>
<feGaussianBlur stdDeviation="15"/>
<feComposite in2="hardAlpha" operator="out"/>
<feColorMatrix type="matrix" values="0 0 0 0 0.2 0 0 0 0 0.647059 0 0 0 0 0.87451 0 0 0 0.22 0"/>
<feBlend mode="normal" in2="BackgroundImageFix" result="effect1_dropShadow_7_5892"/>
<feBlend mode="normal" in="SourceGraphic" in2="effect1_dropShadow_7_5892" result="shape"/>
</filter>
<radialGradient id="paint0_radial_7_5892" cx="0" cy="0" r="1" gradientUnits="userSpaceOnUse" gradientTransform="translate(177 359.5) rotate(90) scale(11.5 72)">
<stop stop-color="#7CC6EA"/>
<stop offset="1" stop-color="#7CC6EA" stop-opacity="0"/>
</radialGradient>
</defs>
</svg>
