<svg width="330" height="481" viewBox="0 0 330 481" fill="none" xmlns="http://www.w3.org/2000/svg">
<path opacity="0.8" d="M68.8003 324.511C72.4331 319.186 78.4627 316 84.9088 316H254.415C261.416 316 267.88 319.753 271.351 325.833C278.771 338.833 269.384 355 254.415 355H84.9088C69.2397 355 59.9698 337.454 68.8003 324.511Z" fill="url(#paint0_radial_7_6338)"/>
<path d="M230.399 45.6921H179.887L177.771 49.5848C176.637 51.6301 174.976 53.3347 172.961 54.5216C170.946 55.7085 168.65 56.3344 166.312 56.3344C163.973 56.3344 161.677 55.7085 159.662 54.5216C157.647 53.3347 155.986 51.6301 154.852 49.5848L152.737 45.6921H102.26C100.995 45.6754 99.7388 45.9079 98.5636 46.3766C97.3885 46.8452 96.3172 47.5408 95.4109 48.4235C94.5046 49.3062 93.7811 50.3589 93.2816 51.5212C92.7821 52.6836 92.5166 53.933 92.5 55.198V315.313C92.5166 316.577 92.7822 317.827 93.2817 318.988C93.7813 320.151 94.5049 321.203 95.4113 322.085C96.3177 322.967 97.3891 323.662 98.5642 324.13C99.7393 324.598 100.995 324.829 102.26 324.812H230.399C231.663 324.828 232.918 324.596 234.092 324.128C235.267 323.659 236.337 322.964 237.243 322.082C238.149 321.2 238.872 320.148 239.371 318.987C239.87 317.825 240.135 316.577 240.152 315.313V55.198C240.136 53.9333 239.871 52.6841 239.373 51.5218C238.874 50.3594 238.151 49.3068 237.245 48.4239C236.34 47.5411 235.269 46.8455 234.094 46.3767C232.919 45.908 231.664 45.6754 230.399 45.6921Z" fill="#E9F3F9"/>
<mask id="mask0_7_6338" style="mask-type:alpha" maskUnits="userSpaceOnUse" x="92" y="45" width="149" height="280">
<path d="M230.399 45.6921H179.887L177.771 49.5848C176.637 51.6301 174.976 53.3347 172.961 54.5216C170.946 55.7085 168.65 56.3344 166.312 56.3344C163.973 56.3344 161.677 55.7085 159.662 54.5216C157.647 53.3347 155.986 51.6301 154.852 49.5848L152.737 45.6921H102.26C100.995 45.6754 99.7388 45.9079 98.5636 46.3766C97.3885 46.8452 96.3172 47.5408 95.4109 48.4235C94.5046 49.3062 93.7811 50.3589 93.2816 51.5212C92.7821 52.6836 92.5166 53.933 92.5 55.198V315.313C92.5166 316.577 92.7822 317.827 93.2817 318.988C93.7813 320.151 94.5049 321.203 95.4113 322.085C96.3177 322.967 97.3891 323.662 98.5642 324.13C99.7393 324.598 100.995 324.829 102.26 324.812H230.399C231.663 324.828 232.918 324.596 234.092 324.128C235.267 323.659 236.337 322.964 237.243 322.082C238.149 321.2 238.872 320.148 239.371 318.987C239.87 317.825 240.135 316.577 240.152 315.313V55.198C240.136 53.9333 239.871 52.6841 239.373 51.5218C238.874 50.3594 238.151 49.3068 237.245 48.4239C236.34 47.5411 235.269 46.8455 234.094 46.3767C232.919 45.908 231.664 45.6754 230.399 45.6921Z" fill="#E9F3F9"/>
</mask>
<g mask="url(#mask0_7_6338)">
<g filter="url(#filter0_d_7_6338)">
<path d="M252.359 85.6595C259.096 84.995 262.865 93.9757 257.688 98.5316H218.874C213.881 90.0349 220.041 78.7269 229.047 80.9214C236.268 69.1507 249.644 75.4572 252.359 85.6595H252.359Z" fill="white"/>
</g>
<g filter="url(#filter1_d_7_6338)">
<path d="M229.263 165.183C230.585 164.044 232.27 163.414 234.015 163.409C237.572 163.409 240.525 166.053 240.846 169.463C242.951 169.761 244.593 171.523 244.593 173.686C244.593 176.061 242.612 177.953 240.213 177.953H228.437C225.696 177.953 223.438 175.793 223.438 173.085C223.438 170.754 225.111 168.823 227.327 168.334C227.517 167.193 228.25 166.056 229.263 165.183Z" fill="white"/>
</g>
<g filter="url(#filter2_d_7_6338)">
<path d="M119.773 74.3219C119.773 73.6533 120.011 73.0064 120.443 72.4966C120.876 71.9869 121.476 71.6474 122.135 71.5387C122.504 70.882 123.061 70.3511 123.735 70.0148C124.409 69.6785 125.169 69.5522 125.915 69.6525C126.661 69.7527 127.361 70.0748 127.922 70.5769C128.483 71.0791 128.881 71.7382 129.063 72.469C129.649 72.5589 130.179 72.8668 130.547 73.3309C130.915 73.795 131.095 74.381 131.05 74.9718C131.004 75.5626 130.737 76.1144 130.303 76.5168C129.868 76.9193 129.297 77.1426 128.704 77.1422H122.594C121.846 77.1422 121.128 76.8451 120.599 76.3162C120.071 75.7873 119.773 75.0699 119.773 74.3219Z" fill="white"/>
</g>
<g filter="url(#filter3_d_7_6338)">
<path d="M112.738 145.264C114.98 143.33 117.841 142.262 120.802 142.253C126.837 142.253 131.848 146.741 132.393 152.527C135.965 153.032 138.752 156.023 138.752 159.694C138.752 163.724 135.391 166.935 131.318 166.935H111.335C106.684 166.935 102.852 163.268 102.852 158.673C102.852 154.717 105.692 151.441 109.453 150.611C109.774 148.675 111.019 146.745 112.738 145.264Z" fill="white"/>
</g>
<g filter="url(#filter4_d_7_6338)">
<path d="M183.24 95.5698C183.24 98.3732 180.896 100.647 178.007 100.647H165.332C163.149 100.647 161.379 98.9287 161.379 96.8099C161.379 94.6932 163.149 92.9747 165.332 92.9747C165.492 92.9747 165.647 92.9878 165.801 93.004C165.76 92.7326 165.739 92.4584 165.739 92.1839C165.739 89.0691 168.342 86.5435 171.554 86.5435C174.185 86.5435 176.406 88.2381 177.124 90.5652C177.416 90.5176 177.712 90.4936 178.008 90.4936C180.896 90.4936 183.24 92.7643 183.24 95.5698Z" fill="white"/>
</g>
<g filter="url(#filter5_d_7_6338)">
<path d="M104.74 102.686C105.088 101.759 105.283 100.746 105.283 99.6901C105.283 95.1017 101.635 91.379 97.1384 91.379C95.467 91.379 93.9059 91.8984 92.6163 92.7815C90.2661 88.6259 85.8798 85.8383 80.8486 85.8383C73.3485 85.8383 67.2738 92.037 67.2738 99.6901C67.2738 99.9239 67.2823 100.158 67.2908 100.391C62.5396 102.097 59.1289 106.72 59.1289 112.157C59.1289 119.039 64.6013 124.623 71.3462 124.623H102.568C108.567 124.623 113.428 119.663 113.428 113.542C113.428 108.183 109.695 103.707 104.74 102.686Z" fill="white"/>
</g>
</g>
<path d="M229.995 49.4297H219.812V55.0148H229.995V49.4297Z" stroke="#263238" stroke-width="0.821067" stroke-linecap="round" stroke-linejoin="round"/>
<path d="M227.753 49.4297H219.812V55.0148H227.753V49.4297Z" fill="#263238" stroke="#263238" stroke-width="0.725073" stroke-linecap="round" stroke-linejoin="round"/>
<path d="M231.408 50.9952H229.977V53.4563H231.408V50.9952Z" fill="#263238" stroke="#263238" stroke-width="0.725073" stroke-linecap="round" stroke-linejoin="round"/>
<path d="M102.775 51.1644H100.906V54.366H102.775V51.1644Z" fill="#263238" stroke="#263238" stroke-width="0.883086" stroke-linecap="round" stroke-linejoin="round"/>
<path d="M105.709 50.0361H103.84V54.3589H105.709V50.0361Z" fill="#263238" stroke="#263238" stroke-width="0.883086" stroke-linecap="round" stroke-linejoin="round"/>
<path d="M108.642 48.7104H106.773V54.366H108.642V48.7104Z" fill="#263238" stroke="#263238" stroke-width="0.883086" stroke-linecap="round" stroke-linejoin="round"/>
<path d="M247.344 135.089C247.48 135.089 247.614 135.064 247.74 135.012C247.866 134.961 247.98 134.885 248.076 134.79C248.173 134.694 248.249 134.58 248.301 134.455C248.353 134.329 248.38 134.195 248.38 134.059V106.324C248.38 106.188 248.353 106.054 248.301 105.928C248.249 105.803 248.173 105.689 248.076 105.594C247.98 105.498 247.866 105.422 247.74 105.371C247.614 105.319 247.48 105.294 247.344 105.294H244.65V52.321C244.651 50.572 244.307 48.8399 243.638 47.2238C242.97 45.6076 241.989 44.1391 240.753 42.902C239.516 41.665 238.048 40.6837 236.433 40.0141C234.817 39.3446 233.085 39 231.336 39H101.314C99.5649 39 97.833 39.3446 96.2173 40.0141C94.6015 40.6837 93.1335 41.665 91.8971 42.902C90.6607 44.1391 89.6801 45.6076 89.0114 47.2238C88.3428 48.8399 87.9991 50.572 88 52.321V325.686C88 329.217 89.4027 332.604 91.8995 335.1C94.3964 337.597 97.7828 339 101.314 339H231.336C234.867 339 238.254 337.597 240.75 335.1C243.247 332.604 244.65 329.217 244.65 325.686V158.931H247.344C247.617 158.931 247.88 158.823 248.074 158.63C248.268 158.437 248.378 158.175 248.38 157.901V145.561C248.38 145.425 248.353 145.29 248.301 145.165C248.249 145.04 248.173 144.926 248.076 144.83C247.98 144.734 247.866 144.659 247.74 144.607C247.614 144.556 247.48 144.53 247.344 144.531H244.65V135.089H247.344ZM240.151 315.313C240.134 316.577 239.869 317.825 239.37 318.987C238.871 320.148 238.148 321.2 237.242 322.082C236.336 322.964 235.266 323.659 234.092 324.128C232.917 324.596 231.662 324.828 230.398 324.812H102.259C100.994 324.829 99.7384 324.598 98.5633 324.13C97.3882 323.662 96.3168 322.967 95.4104 322.085C94.504 321.203 93.7804 320.151 93.2808 318.989C92.7813 317.827 92.5156 316.578 92.4991 315.313V55.1981C92.5156 53.9331 92.7812 52.6837 93.2807 51.5213C93.7802 50.3589 94.5037 49.3063 95.41 48.4236C96.3163 47.5409 97.3876 46.8453 98.5627 46.3767C99.7379 45.908 100.994 45.6754 102.259 45.6922H152.764L154.88 49.5848C156.014 51.6302 157.674 53.3348 159.689 54.5217C161.704 55.7085 164 56.3345 166.339 56.3345C168.678 56.3345 170.974 55.7085 172.989 54.5217C175.004 53.3348 176.664 51.6302 177.798 49.5848L179.914 45.6922H230.426C232.976 45.6659 235.431 46.652 237.254 48.4341C239.078 50.2162 240.119 52.6488 240.151 55.1981V315.313Z" fill="#263238" stroke="#263238" stroke-linecap="round" stroke-linejoin="round"/>
<path d="M169.801 47.1802C169.801 46.4929 169.597 45.821 169.215 45.2494C168.834 44.6779 168.291 44.2323 167.656 43.9689C167.021 43.7056 166.323 43.6363 165.649 43.7699C164.974 43.9035 164.355 44.2339 163.868 44.7194C163.382 45.2049 163.05 45.8237 162.915 46.4976C162.78 47.1715 162.848 47.8703 163.11 48.5057C163.372 49.1411 163.817 49.6845 164.388 50.0674C164.958 50.4503 165.63 50.6553 166.317 50.6567C166.774 50.6577 167.227 50.5684 167.65 50.3941C168.072 50.2198 168.456 49.9639 168.78 49.641C169.104 49.3181 169.36 48.9345 169.535 48.5122C169.711 48.09 169.801 47.6373 169.801 47.1802Z" fill="white" stroke="#263238" stroke-linecap="round" stroke-linejoin="round"/>
<path d="M186.261 167.616C186.529 168.018 194.618 169.633 198.814 175.733C201.255 179.237 203.303 183 204.921 186.952C204.921 186.952 211.937 191.127 215.534 194.568C219.13 198.01 223.418 202.579 226.725 204.977C230.032 207.374 236.837 211.923 238.551 217.247C238.551 217.247 228.347 245.194 225.463 251.371C222.578 257.548 215.463 270.658 215.463 270.658L202.77 324.583H129.141L126.631 306.086C126.631 306.086 104.065 301.658 94.6366 293.393C94.6366 293.393 93.748 272.943 97.69 254.699C101.632 236.456 115.038 198.524 124.12 186.938C124.12 186.938 138.626 179.999 151.425 177.771C151.425 177.771 159.732 171.205 165.169 170.507C170.606 169.809 186.261 167.616 186.261 167.616Z" fill="white"/>
<path d="M127.627 314.422C134.164 315.67 139.862 316.749 146.519 316.671C153.176 316.594 159.974 315.099 165.418 311.283C166.47 310.408 167.662 309.717 168.944 309.238C171.835 308.427 174.698 310.339 177.568 311.227C181.207 312.355 185.198 311.819 188.767 310.465C192.335 309.112 195.544 307.003 198.724 304.902C198.254 311.389 198.101 317.889 198.266 324.4L202.8 324.583L214.414 273.479C214.414 273.479 194.549 296.552 184.867 303.442L166.292 298.661C166.292 298.661 164.544 300.113 160.863 300.847C160.863 300.847 159.177 307.327 149.699 307.342C140.222 307.356 126.633 306.086 126.633 306.086L127.627 314.422Z" fill="#33A5DF"/>
<path opacity="0.5" d="M127.627 314.422C134.164 315.67 139.862 316.749 146.519 316.671C153.176 316.594 159.974 315.099 165.418 311.283C166.47 310.408 167.662 309.717 168.944 309.238C171.835 308.427 174.698 310.339 177.568 311.227C181.207 312.355 185.198 311.819 188.767 310.465C192.335 309.112 195.544 307.003 198.724 304.902C198.254 311.389 198.101 317.889 198.266 324.4L202.8 324.583L214.414 273.479C214.414 273.479 194.549 296.552 184.867 303.442L166.292 298.661C166.292 298.661 164.544 300.113 160.863 300.847C160.863 300.847 159.177 307.327 149.699 307.342C140.222 307.356 126.633 306.086 126.633 306.086L127.627 314.422Z" fill="white"/>
<path d="M108.592 219.066C108.592 219.066 99.9674 260.933 100.405 275.312C100.405 275.312 112.125 272.026 120.305 275.312C120.305 275.312 106.385 273.761 100.391 280.143C94.3965 286.524 112.844 303.294 149.754 299.888C149.754 299.888 157.116 302.194 160.853 300.84C160.853 300.84 159.852 307.511 149.69 307.334C139.571 306.933 109.967 306.686 94.6292 293.4C94.6362 293.407 92.704 254.918 108.592 219.066Z" fill="#33A5DF"/>
<path opacity="0.6" d="M108.592 219.066C108.592 219.066 99.9674 260.933 100.405 275.312C100.405 275.312 112.125 272.026 120.305 275.312C120.305 275.312 106.385 273.761 100.391 280.143C94.3965 286.524 112.844 303.294 149.754 299.888C149.754 299.888 157.116 302.194 160.853 300.84C160.853 300.84 159.852 307.511 149.69 307.334C139.571 306.933 109.967 306.686 94.6292 293.4C94.6362 293.407 92.704 254.918 108.592 219.066Z" fill="white"/>
<path d="M126.23 227.091C126.23 227.091 128.776 245.631 132.887 249.509C136.999 253.388 156.159 252.118 163.746 256.3C163.746 256.3 170.89 243.924 183.809 236.181L166.292 263.761L151.152 260.186L132.669 257.365L131.117 260.933H128.339C128.339 260.933 128.029 241.146 126.23 227.091Z" fill="#33A5DF"/>
<path opacity="0.5" d="M126.23 227.091C126.23 227.091 128.776 245.631 132.887 249.509C136.999 253.388 156.159 252.118 163.746 256.3C163.746 256.3 170.89 243.924 183.809 236.181L166.292 263.761L151.152 260.186L132.669 257.365L131.117 260.933H128.339C128.339 260.933 128.029 241.146 126.23 227.091Z" fill="white"/>
<path d="M198.646 189.329C206.565 193.99 207.454 199.244 209.083 202.995C204.964 203.813 200.705 204.688 197.306 207.149C193.075 210.223 190.783 215.315 189.006 220.258C187.325 224.936 185.912 229.706 184.775 234.545C188.602 227.631 194.043 221.742 200.634 217.381C204.435 214.871 209.132 212.847 213.469 214.264C209.83 215.808 205.712 217.896 204.943 221.774C204.792 222.418 204.819 223.091 205.021 223.721C205.669 225.547 207.94 226.041 209.661 226.929C213.017 228.657 214.766 232.571 214.914 236.365C215.063 240.159 213.899 243.825 212.749 247.415C211.739 250.56 210.728 253.705 209.717 256.85C208.427 260.87 207.115 264.946 204.781 268.472C202.447 271.998 198.942 274.952 194.774 275.643C193.032 275.98 191.228 275.775 189.605 275.058C188.375 274.389 187.231 273.572 186.199 272.625C181.199 268.587 175.191 265.993 168.824 265.122C177.018 270.538 180.896 280.375 184.295 289.592C182.735 286.86 180.486 284.584 177.772 282.991C177.077 282.507 176.25 282.246 175.403 282.244C173.174 282.42 172.469 285.262 171.129 287.039C169.522 289.155 166.581 289.909 163.944 289.571C161.306 289.232 158.88 287.998 156.511 286.75L126.534 271.292L124.418 277.639C124.418 277.639 148.296 296.679 184.881 303.414C184.881 303.414 208.645 284.635 217.065 267.985C225.485 251.336 238.566 217.212 238.566 217.212C238.566 217.212 233.778 208.143 225.57 203.411C225.57 203.411 219.442 200.513 218.151 196.931C216.861 193.348 205.345 187.164 205.345 187.164C205.345 187.164 206.84 190.986 198.646 189.329Z" fill="#33A5DF"/>
<path opacity="0.6" d="M198.646 189.329C206.565 193.99 207.454 199.244 209.083 202.995C204.964 203.813 200.705 204.688 197.306 207.149C193.075 210.223 190.783 215.315 189.006 220.258C187.325 224.936 185.912 229.706 184.775 234.545C188.602 227.631 194.043 221.742 200.634 217.381C204.435 214.871 209.132 212.847 213.469 214.264C209.83 215.808 205.712 217.896 204.943 221.774C204.792 222.418 204.819 223.091 205.021 223.721C205.669 225.547 207.94 226.041 209.661 226.929C213.017 228.657 214.766 232.571 214.914 236.365C215.063 240.159 213.899 243.825 212.749 247.415C211.739 250.56 210.728 253.705 209.717 256.85C208.427 260.87 207.115 264.946 204.781 268.472C202.447 271.998 198.942 274.952 194.774 275.643C193.032 275.98 191.228 275.775 189.605 275.058C188.375 274.389 187.231 273.572 186.199 272.625C181.199 268.587 175.191 265.993 168.824 265.122C177.018 270.538 180.896 280.375 184.295 289.592C182.735 286.86 180.486 284.584 177.772 282.991C177.077 282.507 176.25 282.246 175.403 282.244C173.174 282.42 172.469 285.262 171.129 287.039C169.522 289.155 166.581 289.909 163.944 289.571C161.306 289.232 158.88 287.998 156.511 286.75L126.534 271.292L124.418 277.639C124.418 277.639 148.296 296.679 184.881 303.414C184.881 303.414 208.645 284.635 217.065 267.985C225.485 251.336 238.566 217.212 238.566 217.212C238.566 217.212 233.778 208.143 225.57 203.411C225.57 203.411 219.442 200.513 218.151 196.931C216.861 193.348 205.345 187.164 205.345 187.164C205.345 187.164 206.84 190.986 198.646 189.329Z" fill="white"/>
<path d="M196.127 124.416C196.127 124.416 197.728 105.75 189.681 103.966C181.635 102.182 177.115 94.7987 177.115 94.7987L148.569 102.767L144.141 119.932L146.961 128.619C146.961 128.619 147.554 136.68 147.667 140.664C147.779 144.648 147.667 147.716 150.685 152.553C153.703 157.391 156.51 162.193 163.033 166.375V177.369C163.033 177.369 158.999 189.138 161.227 196.36C161.227 196.36 162.56 197.77 166.241 195.654C169.922 193.539 185.669 183.017 191.162 172.031L192.869 144.098C192.869 144.098 197.403 144.803 199.357 140.671C202.227 136.63 202.114 131.92 201 128.083C199.886 124.247 195.09 126.729 195.09 126.729L196.127 124.416Z" fill="#999999"/>
<path d="M160.627 150.563C161.744 150.144 162.942 149.983 164.13 150.09C165.319 150.197 166.468 150.571 167.492 151.183C167.492 151.183 173.008 147.9 175.784 150.423C175.784 150.423 174.178 156.053 169.286 156.11C162.925 156.18 160.627 150.563 160.627 150.563Z" fill="#737373"/>
<path d="M152.736 100.391C152.736 100.391 145.903 109.368 146.298 118.726C146.693 128.083 148.054 134.719 147.659 141.94C147.264 149.162 154.88 161.255 162.686 166.128C168.518 169.774 175.831 169.154 181.508 165.423C187.854 161.192 191.345 153.59 192.621 146.291C192.748 145.586 192.847 144.881 192.918 144.119" stroke="#263238" stroke-linecap="round" stroke-linejoin="round"/>
<path d="M162.688 166.135C162.688 166.135 163.795 176.248 162.688 179.71C161.468 183.511 159.994 192.361 161.277 196.359C162.561 200.358 186.572 183.553 191.212 172.024C191.212 172.024 191.854 149.62 193.455 144.021" stroke="#263238" stroke-linecap="round" stroke-linejoin="round"/>
<path d="M159.562 149.746C159.562 149.746 167.907 157.442 176.995 149.409" stroke="#263238" stroke-linecap="round" stroke-linejoin="round"/>
<path d="M162.906 168.568C162.906 168.568 165.233 175.782 170.254 176.212C175.275 176.643 187.835 166.58 192.115 154.725V148.795C192.115 148.795 188.589 164.309 178.265 167.13C167.941 169.95 163.111 166.361 163.111 166.361L162.906 168.568Z" fill="#263238"/>
<path d="M175.777 150.42C171.603 147.924 167.485 151.18 167.485 151.18C166.484 150.509 165.331 150.1 164.131 149.992C162.931 149.884 161.724 150.079 160.619 150.56C161.2 152.057 162.185 153.363 163.465 154.333C164.745 155.303 166.268 155.899 167.866 156.054C173.652 156.838 175.777 150.42 175.777 150.42Z" stroke="#263238" stroke-linecap="round" stroke-linejoin="round"/>
<path d="M164.628 123.535C164.688 125.772 164.589 128.011 164.331 130.234C164.07 132.23 163.147 134.141 162.378 136.017C161.673 137.723 160.495 140.347 161.475 142.145C162.59 144.183 166.292 142.145 166.292 142.145" stroke="#263238" stroke-linecap="round" stroke-linejoin="round"/>
<path d="M168.57 141.722C169.818 141.891 171.589 141.722 171.941 139.557" stroke="#263238" stroke-linecap="round" stroke-linejoin="round"/>
<path d="M172.602 120.841C173.808 119.69 175.412 119.048 177.079 119.048C178.747 119.048 180.351 119.69 181.557 120.841" stroke="#263238" stroke-width="2" stroke-linecap="round" stroke-linejoin="round"/>
<path d="M158.372 122.604C158.372 122.604 155.064 118.373 150.734 122.604" stroke="#263238" stroke-width="2" stroke-linecap="round" stroke-linejoin="round"/>
<path d="M190.324 133.302C190.324 133.302 194.097 124.24 199.019 126.186C202.411 127.533 202.616 133.386 200.817 137.469C199.019 141.552 198.117 145.713 192.122 143.386" stroke="#263238" stroke-linecap="round" stroke-linejoin="round"/>
<path d="M190.995 131.913C190.995 131.913 187.37 130.629 186.7 124.741C186.03 118.853 189.641 112.957 188.301 108.726C186.961 104.495 176.405 106.611 174 99.2343C174 99.2343 166.074 105.144 150.729 103.874C150.729 103.874 147.492 109.389 146.928 112.76C146.172 118.03 146.191 123.383 146.984 128.648C146.984 128.831 147.048 129.007 147.083 129.191C148.183 134.931 142.704 121.377 142.852 115.588C143 109.798 139.509 102.443 144.058 96.9636C148.606 91.4843 165.284 88.2757 168.57 85.7018C171.856 83.1278 178.245 89.9823 185.628 92.5068C193.012 95.0314 199.133 98.0425 198.202 108.515C197.271 118.987 198.251 120.39 198.294 125.904C198.294 125.919 194.88 124.635 190.995 131.913Z" fill="#263238"/>
<path d="M177.093 128.471C177.093 129.882 176.55 131.052 175.873 131.052C175.196 131.052 174.66 129.896 174.66 128.471C174.66 127.047 175.203 125.897 175.873 125.897C176.543 125.897 177.093 127.061 177.093 128.471Z" fill="#263238"/>
<path d="M158.371 128.471C158.371 129.882 157.828 131.052 157.158 131.052C156.488 131.052 155.945 129.896 155.945 128.471C155.945 127.047 156.488 125.897 157.158 125.897C157.828 125.897 158.371 127.061 158.371 128.471Z" fill="#263238"/>
<path d="M172.602 131.913C172.602 131.913 175.119 134.585 178.307 134.966" stroke="#263238" stroke-linecap="round" stroke-linejoin="round"/>
<path d="M155.453 134.966C155.453 134.966 160.058 134.642 161.095 131.913" stroke="#263238" stroke-linecap="round" stroke-linejoin="round"/>
<path d="M166.156 198.073C169.583 195.894 174.118 196.712 177.869 198.256C179.929 199.11 181.889 200.182 183.941 201.077C184.956 201.526 186.002 201.898 187.072 202.191C189.646 202.861 188.722 199.667 188.574 198.235C188.363 196.183 188.214 194.124 187.968 192.086C187.866 191.664 187.916 191.22 188.109 190.831C188.362 190.517 188.716 190.3 189.11 190.217C193.63 188.807 198.503 189.428 203.214 189.512C203.642 189.563 204.075 189.482 204.455 189.279C205.16 188.821 205.082 187.784 204.892 186.966C203.263 179.999 197.516 173.067 191.268 169.584" stroke="#263238" stroke-linecap="round" stroke-linejoin="round"/>
<path d="M163.084 170.712C159.974 172.009 156.779 173.356 154.099 175.345C153.127 176.054 152.232 176.862 151.427 177.757C150.778 178.373 150.371 179.201 150.277 180.091C150.295 180.505 150.404 180.91 150.598 181.276C150.792 181.642 151.066 181.96 151.399 182.206C151.872 182.596 152.393 182.923 152.95 183.18C154.248 183.793 155.771 184.393 156.321 185.697C156.454 185.97 156.503 186.277 156.462 186.579C156.392 186.843 156.256 187.086 156.067 187.284C154.995 188.588 153.105 189.597 153.246 191.282C153.338 192.587 154.657 193.398 155.827 193.976C156.998 194.554 158.366 195.154 158.768 196.402" stroke="#263238" stroke-linecap="round" stroke-linejoin="round"/>
<path d="M144.672 104.587C145.13 101.766 148.078 99.9465 150.913 99.4881C153.748 99.0298 156.66 99.4881 159.516 99.2413C161.905 99.0053 164.215 98.2593 166.29 97.0536C168.366 95.848 170.158 94.2109 171.546 92.2529" stroke="white" stroke-linecap="round" stroke-linejoin="round"/>
<path d="M147.879 96.6603C152.999 93.635 160.191 96.7802 165.184 93.5504C166.597 92.5218 167.827 91.2631 168.823 89.827" stroke="white" stroke-linecap="round" stroke-linejoin="round"/>
<path d="M213.188 212.388C194.853 216.048 188.013 229.538 188.013 229.538L166.293 263.747" stroke="#263238" stroke-linecap="round" stroke-linejoin="round"/>
<path d="M197.688 208.693C199.209 207.284 200.932 206.11 202.8 205.21" stroke="#263238" stroke-linecap="round" stroke-linejoin="round"/>
<path d="M184.867 234.517C184.867 234.517 187.18 222.162 193.823 213.058" stroke="#263238" stroke-linecap="round" stroke-linejoin="round"/>
<path d="M128.337 260.877C128.337 260.877 127.385 223.03 124.105 217.247" stroke="#263238" stroke-linecap="round" stroke-linejoin="round"/>
<path d="M204.923 186.952C204.923 186.952 215.501 193.299 220.197 199.265C224.894 205.231 235.993 209.194 238.532 217.247C238.532 217.247 223.914 263.31 208.597 279.959C193.28 296.609 184.846 303.442 184.846 303.442C184.846 303.442 148 297.039 124.102 276.969L132.648 257.33C132.648 257.33 156.745 260.376 166.272 263.761C175.799 267.146 184.846 287.646 184.846 287.646" stroke="#263238" stroke-linecap="round" stroke-linejoin="round"/>
<path d="M166.293 263.761C166.293 263.761 183.161 267.04 188.64 274.72" stroke="#263238" stroke-linecap="round" stroke-linejoin="round"/>
<path d="M214.83 271.659L202.8 324.583H129.143L126.633 306.086" stroke="#263238" stroke-linecap="round" stroke-linejoin="round"/>
<path d="M160.861 300.847C156.792 309.182 151.426 307.342 151.426 307.342C109.926 308.914 94.6373 293.407 94.6373 293.407C94.6373 293.407 92.5218 271.596 100.681 242.161C108.84 212.727 124.121 186.952 124.121 186.952C130.898 182.446 146.017 178.927 150.284 177.996L151.426 177.757" stroke="#263238" stroke-linecap="round" stroke-linejoin="round"/>
<path d="M151.445 307.342C151.445 307.342 149.252 306.982 149.809 292.441" stroke="#263238" stroke-linecap="round" stroke-linejoin="round"/>
<path d="M125.243 277.9C125.243 277.9 114.877 274.247 102.035 283.133" stroke="#263238" stroke-linecap="round" stroke-linejoin="round"/>
<path d="M104.363 274.72C104.363 274.72 117.945 270.679 124.108 277.153" stroke="#263238" stroke-linecap="round" stroke-linejoin="round"/>
<path d="M122.64 276.786L124.403 277.667L131.117 260.898C131.117 260.898 124.163 259.763 113.148 273.479C116.588 273.519 119.921 274.68 122.64 276.786Z" fill="#999999" stroke="#263238" stroke-miterlimit="10"/>
<path d="M149.789 292.441V299.895C149.789 299.895 159.288 302.716 166.319 298.661L149.789 292.441Z" fill="#999999" stroke="#263238" stroke-miterlimit="10"/>
<path d="M201.275 189.435C201.282 189.572 201.267 189.71 201.232 189.844C200.936 191.007 193.694 218.347 170.515 230.512C170.313 230.62 170.087 230.675 169.859 230.674C169.544 230.674 169.238 230.568 168.99 230.374C168.742 230.179 168.566 229.907 168.49 229.601C168.415 229.295 168.444 228.973 168.573 228.685C168.702 228.398 168.924 228.162 169.203 228.015C190.358 216.923 197.812 191.642 198.461 189.315L201.275 189.435Z" fill="#263238"/>
<path d="M151.396 182.185C147.732 190.555 145.755 199.565 145.579 208.7C145.579 209.441 145.579 210.195 145.579 210.964C145.579 211.154 145.579 211.345 145.579 211.535C145.368 211.542 145.159 211.563 144.951 211.599C144.188 211.719 143.448 211.957 142.758 212.304C142.758 211.267 142.758 210.259 142.758 209.264C143.061 193.44 147.786 182.672 150.303 178.018L151.446 177.778C150.797 178.395 150.39 179.222 150.296 180.112C150.317 180.517 150.427 180.912 150.617 181.27C150.807 181.629 151.073 181.941 151.396 182.185Z" fill="#263238"/>
<path d="M179.169 224.151C180.819 226.443 179.465 230.251 176.137 232.655C172.808 235.06 168.775 235.145 167.117 232.853C165.46 230.561 166.814 226.753 170.143 224.348C173.471 221.944 177.54 221.859 179.169 224.151Z" fill="white" stroke="#263238" stroke-linecap="round" stroke-linejoin="round"/>
<path d="M175.064 222.79C176.234 224.412 175.275 227.106 172.948 228.805C170.621 230.505 167.737 230.568 166.601 228.946C165.466 227.324 166.39 224.63 168.717 222.931C171.044 221.231 173.893 221.175 175.064 222.79Z" fill="white" stroke="#263238" stroke-linecap="round" stroke-linejoin="round"/>
<path d="M156.426 251.413C156.126 251.613 155.761 251.69 155.405 251.629C155.05 251.567 154.731 251.372 154.516 251.083C154.3 250.794 154.203 250.433 154.245 250.075C154.287 249.717 154.464 249.388 154.741 249.157C154.861 249.058 159.593 245.031 157.52 231.471C157.343 230.321 157.118 229.094 156.814 227.804C155.919 223.692 154.537 218.488 151.709 214.666C151.036 213.658 150.115 212.84 149.034 212.292C147.953 211.743 146.749 211.483 145.538 211.535C145.328 211.542 145.118 211.563 144.911 211.599C144.148 211.719 143.408 211.957 142.718 212.304C140.611 213.392 139.012 215.259 138.261 217.508L138.007 218.213C136.408 222.538 135.1 226.964 134.093 231.464C132.965 236.999 132.584 242.803 134.587 246.858C135.124 247.97 135.888 248.958 136.831 249.756C137.773 250.554 138.873 251.145 140.059 251.491C140.378 251.596 140.648 251.81 140.823 252.096C140.997 252.382 141.064 252.721 141.012 253.052C140.959 253.383 140.79 253.685 140.536 253.902C140.281 254.12 139.957 254.24 139.622 254.241C139.473 254.241 139.326 254.217 139.185 254.171C137.643 253.708 136.213 252.929 134.987 251.886C133.761 250.842 132.765 249.555 132.062 248.106C129.806 243.543 130.102 237.331 131.244 231.464C132.257 226.639 133.629 221.896 135.348 217.275L135.602 216.57C136.157 214.892 137.085 213.361 138.318 212.094C139.551 210.828 141.055 209.857 142.718 209.257C143.293 209.058 143.886 208.912 144.488 208.82C144.847 208.771 145.193 208.735 145.56 208.714C147.21 208.669 148.846 209.038 150.317 209.788C151.788 210.539 153.047 211.646 153.979 213.009C157.125 217.24 158.62 222.832 159.572 227.218C159.903 228.727 160.157 230.145 160.347 231.485C162.576 246.689 156.702 251.216 156.426 251.413Z" fill="#263238" stroke="#263238" stroke-miterlimit="10"/>
<path d="M138.636 253.994C138.636 253.994 143.748 256.11 145.046 253.994C146.343 251.879 145.293 250.884 143.523 250.715C141.758 250.625 139.991 250.625 138.227 250.715L138.636 253.994Z" fill="#263238" stroke="#263238" stroke-miterlimit="10"/>
<path d="M140.981 253.289C140.889 253.572 140.71 253.818 140.469 253.993C140.229 254.168 139.939 254.262 139.641 254.262C139.493 254.262 139.345 254.238 139.204 254.192C137.662 253.729 136.233 252.951 135.007 251.907C133.781 250.863 132.785 249.576 132.082 248.127C129.825 243.565 130.121 237.352 131.264 231.485H134.085C132.956 237.02 132.575 242.824 134.578 246.879C135.115 247.992 135.879 248.979 136.822 249.777C137.765 250.575 138.865 251.166 140.05 251.512C140.229 251.567 140.395 251.656 140.538 251.775C140.682 251.894 140.8 252.041 140.887 252.206C140.974 252.371 141.026 252.552 141.043 252.738C141.059 252.924 141.038 253.111 140.981 253.289Z" fill="white" stroke="#263238" stroke-linecap="round" stroke-linejoin="round"/>
<path d="M151.716 249.883C151.503 250.135 151.347 250.43 151.255 250.747C151.164 251.064 151.141 251.397 151.187 251.724C151.328 252.207 151.634 252.625 152.051 252.906C152.469 253.187 152.971 253.312 153.472 253.261C154.474 253.128 155.389 252.625 156.039 251.85C156.744 251.061 159.191 245.892 156.927 246.78C155.284 247.401 152.816 248.451 151.716 249.883Z" fill="#263238" stroke="#263238" stroke-miterlimit="10"/>
<path d="M156.426 251.413C156.125 251.613 155.76 251.69 155.404 251.629C155.049 251.567 154.731 251.372 154.515 251.083C154.299 250.794 154.202 250.433 154.244 250.075C154.286 249.717 154.463 249.388 154.74 249.157C154.86 249.058 159.592 245.031 157.519 231.471H160.339C162.575 246.689 156.701 251.216 156.426 251.413Z" fill="white" stroke="#263238" stroke-linecap="round" stroke-linejoin="round"/>
<path opacity="0.2" d="M169.077 126.772C169.077 126.772 177.955 122.16 186.114 126.772C186.114 126.772 186.248 133.577 183.167 136.376C182.074 137.371 177.067 137.54 175.17 137.371C167.469 136.673 169.077 126.772 169.077 126.772Z" fill="white"/>
<path opacity="0.2" d="M163.508 126.772C163.508 126.772 154.629 122.16 146.477 126.772C146.477 126.772 146.343 133.577 149.418 136.376C150.511 137.371 155.525 137.54 157.415 137.371C165.115 136.673 163.508 126.772 163.508 126.772Z" fill="white"/>
<path d="M169.077 126.772C169.077 126.772 177.955 122.16 186.114 126.772C186.114 126.772 186.248 133.577 183.167 136.376C182.074 137.371 177.067 137.54 175.17 137.371C167.469 136.673 169.077 126.772 169.077 126.772Z" stroke="#263238" stroke-miterlimit="10"/>
<path d="M163.508 126.772C163.508 126.772 154.629 122.16 146.477 126.772C146.477 126.772 146.343 133.577 149.418 136.376C150.511 137.371 155.525 137.54 157.415 137.371C165.115 136.673 163.508 126.772 163.508 126.772Z" stroke="#263238" stroke-miterlimit="10"/>
<path d="M163.504 126.772C163.504 126.772 165.493 125.312 169.075 126.772" stroke="#263238" stroke-miterlimit="10"/>
<path d="M186.113 126.772L189.823 128.492" stroke="#263238" stroke-miterlimit="10"/>
<path d="M166.676 315.046C172.079 313.762 175.419 308.341 174.134 302.938C172.85 297.534 167.429 294.195 162.026 295.48C156.622 296.764 153.283 302.185 154.568 307.588C155.852 312.992 161.273 316.331 166.676 315.046Z" fill="#263238" stroke="#263238" stroke-width="0.724166" stroke-linecap="round" stroke-linejoin="round"/>
<path d="M169.424 303.156H159.262C158.98 303.155 158.701 303.216 158.446 303.336C158.19 303.455 157.964 303.63 157.784 303.847C157.603 304.063 157.473 304.317 157.402 304.59C157.331 304.864 157.321 305.149 157.373 305.426L157.669 307.013C157.689 307.122 157.746 307.22 157.831 307.291C157.916 307.362 158.023 307.401 158.134 307.401H161.202C161.327 307.401 161.447 307.351 161.536 307.262C161.624 307.174 161.674 307.054 161.674 306.928V305.201H167.019V306.928C167.019 307.054 167.069 307.174 167.158 307.262C167.246 307.351 167.367 307.401 167.492 307.401H170.545C170.656 307.401 170.763 307.362 170.848 307.291C170.934 307.22 170.991 307.122 171.011 307.013L171.307 305.426C171.359 305.149 171.349 304.865 171.278 304.592C171.208 304.32 171.078 304.066 170.898 303.849C170.718 303.633 170.493 303.458 170.238 303.338C169.984 303.218 169.706 303.156 169.424 303.156Z" fill="#33A5DF"/>
<path d="M199.969 315.042C205.372 313.758 208.712 308.336 207.427 302.933C206.143 297.53 200.722 294.191 195.319 295.475C189.915 296.759 186.576 302.18 187.86 307.584C189.145 312.987 194.566 316.326 199.969 315.042Z" fill="white" stroke="#263238" stroke-width="0.724166" stroke-linecap="round" stroke-linejoin="round"/>
<path d="M203.824 302.33L200.869 304.03V302.619C200.869 302.301 200.743 301.996 200.518 301.772C200.293 301.547 199.988 301.421 199.671 301.421H193.035C192.717 301.421 192.412 301.547 192.187 301.772C191.962 301.996 191.836 302.301 191.836 302.619V307.972C191.836 308.29 191.962 308.595 192.187 308.819C192.412 309.044 192.717 309.171 193.035 309.171H199.671C199.988 309.171 200.293 309.044 200.518 308.819C200.743 308.595 200.869 308.29 200.869 307.972V306.561L203.803 308.261L203.824 302.33Z" fill="#263238"/>
<path d="M132.041 315.291C137.567 314.742 141.603 309.817 141.054 304.291C140.505 298.764 135.58 294.729 130.054 295.277C124.527 295.826 120.492 300.751 121.04 306.278C121.589 311.804 126.514 315.84 132.041 315.291Z" fill="white" stroke="#263238" stroke-width="0.724166" stroke-linecap="round" stroke-linejoin="round"/>
<path d="M131.058 307.767C130.52 307.767 130.003 307.553 129.622 307.173C129.241 306.792 129.027 306.275 129.027 305.737V299.305C129.027 298.767 129.241 298.25 129.622 297.869C130.003 297.488 130.52 297.274 131.058 297.274C131.596 297.276 132.11 297.491 132.49 297.872C132.869 298.252 133.082 298.768 133.082 299.305V305.737C133.082 306.274 132.869 306.789 132.49 307.17C132.11 307.551 131.596 307.766 131.058 307.767Z" fill="#263238"/>
<path d="M131.058 309.227C130.107 309.225 129.195 308.847 128.522 308.174C127.849 307.501 127.471 306.589 127.469 305.638V302.62C127.469 302.52 127.508 302.425 127.578 302.355C127.648 302.285 127.743 302.246 127.842 302.246C127.891 302.246 127.94 302.256 127.984 302.274C128.029 302.293 128.07 302.321 128.104 302.356C128.138 302.391 128.165 302.432 128.183 302.477C128.201 302.522 128.21 302.571 128.209 302.62V305.638C128.209 306.392 128.509 307.116 129.043 307.65C129.576 308.183 130.3 308.483 131.055 308.483C131.809 308.483 132.533 308.183 133.067 307.65C133.6 307.116 133.9 306.392 133.9 305.638V302.62C133.9 302.52 133.939 302.425 134.01 302.355C134.08 302.285 134.175 302.246 134.274 302.246C134.373 302.246 134.468 302.285 134.538 302.355C134.608 302.425 134.648 302.52 134.648 302.62V305.638C134.646 306.589 134.267 307.501 133.594 308.174C132.921 308.847 132.01 309.225 131.058 309.227Z" fill="#263238"/>
<path d="M131.057 313.085C130.958 313.085 130.863 313.045 130.793 312.975C130.723 312.905 130.684 312.81 130.684 312.711V308.853C130.684 308.754 130.723 308.659 130.793 308.589C130.863 308.519 130.958 308.48 131.057 308.48C131.156 308.48 131.252 308.519 131.322 308.589C131.392 308.659 131.431 308.754 131.431 308.853V312.711C131.431 312.81 131.392 312.905 131.322 312.975C131.252 313.045 131.156 313.085 131.057 313.085Z" fill="#263238"/>
<path d="M133.527 313.282H128.591C128.495 313.277 128.406 313.235 128.34 313.165C128.275 313.096 128.238 313.004 128.238 312.908C128.238 312.86 128.248 312.811 128.267 312.766C128.286 312.721 128.313 312.681 128.348 312.646C128.383 312.612 128.424 312.585 128.47 312.567C128.515 312.549 128.563 312.541 128.612 312.542H133.548C133.646 312.542 133.739 312.58 133.808 312.649C133.876 312.718 133.915 312.811 133.915 312.908C133.916 312.959 133.907 313.009 133.887 313.056C133.868 313.103 133.839 313.145 133.803 313.18C133.766 313.215 133.723 313.242 133.676 313.26C133.628 313.277 133.578 313.285 133.527 313.282Z" fill="#263238"/>
<g filter="url(#filter6_d_7_6338)">
<rect x="220" y="113" width="80" height="80" rx="20" fill="white"/>
</g>
<path d="M267.29 151.438H252.707C251.853 151.438 251.145 150.729 251.145 149.875C251.145 149.021 251.853 148.312 252.707 148.312H267.29C268.145 148.312 268.853 149.021 268.853 149.875C268.853 150.729 268.145 151.438 267.29 151.438Z" fill="#32A5DF"/>
<path d="M268.335 174.5C267.626 174.5 266.918 174.292 266.314 173.896L257.439 167.979H249.585C242.418 167.979 237.605 163.167 237.605 156V143.5C237.605 136.333 242.418 131.521 249.585 131.521H270.418C277.585 131.521 282.397 136.333 282.397 143.5V156C282.397 162.625 278.272 167.25 271.98 167.896V170.854C271.98 172.208 271.251 173.437 270.064 174.062C269.522 174.354 268.918 174.5 268.335 174.5ZM249.585 134.625C244.21 134.625 240.73 138.104 240.73 143.479V155.979C240.73 161.354 244.21 164.833 249.585 164.833H257.918C258.23 164.833 258.522 164.917 258.793 165.104L268.064 171.271C268.293 171.417 268.501 171.354 268.605 171.292C268.71 171.229 268.876 171.104 268.876 170.833V166.396C268.876 165.542 269.585 164.833 270.439 164.833C275.814 164.833 279.293 161.354 279.293 155.979V143.479C279.293 138.104 275.814 134.625 270.439 134.625H249.585Z" fill="#32A5DF"/>
<g filter="url(#filter7_d_7_6338)">
<rect x="78" y="24" width="40" height="40" rx="10" fill="white"/>
</g>
<path d="M97.9688 54.75C92.0487 54.75 87.2188 49.93 87.2188 44C87.2188 38.07 92.0487 33.25 97.9688 33.25C103.889 33.25 108.719 38.07 108.719 44C108.719 49.93 103.899 54.75 97.9688 54.75ZM97.9688 34.75C92.8688 34.75 88.7188 38.9 88.7188 44C88.7188 49.1 92.8688 53.25 97.9688 53.25C103.069 53.25 107.219 49.1 107.219 44C107.219 38.9 103.069 34.75 97.9688 34.75Z" fill="#7367F0"/>
<path d="M97.9999 51.2499C95.8499 51.2499 93.8299 50.1999 92.5999 48.4299C92.3599 48.0899 92.4499 47.6199 92.7899 47.3899C93.1299 47.1499 93.5999 47.2399 93.8299 47.5799C94.7799 48.9399 96.3399 49.7599 97.9999 49.7599C99.6599 49.7599 101.22 48.9499 102.17 47.5799C102.41 47.2399 102.87 47.1599 103.21 47.3899C103.55 47.6299 103.63 48.0899 103.4 48.4299C102.17 50.1999 100.15 51.2499 97.9999 51.2499Z" fill="#7367F0"/>
<circle cx="94.5" cy="41.5" r="1.5" fill="#7367F0"/>
<circle cx="101.5" cy="41.5" r="1.5" fill="#7367F0"/>
<g filter="url(#filter8_d_7_6338)">
<rect x="30" y="168" width="70" height="70" rx="20" fill="white"/>
</g>
<path d="M66.4654 217.767H56.3487C50.432 217.767 48.332 213.617 48.332 209.75V196.25C48.332 190.484 50.582 188.234 56.3487 188.234H66.4654C72.232 188.234 74.482 190.484 74.482 196.25V209.75C74.482 215.517 72.232 217.767 66.4654 217.767ZM56.3487 190.767C51.9987 190.767 50.8654 191.9 50.8654 196.25V209.75C50.8654 211.8 51.582 215.233 56.3487 215.233H66.4654C70.8154 215.233 71.9487 214.1 71.9487 209.75V196.25C71.9487 191.9 70.8154 190.767 66.4654 190.767H56.3487Z" fill="#FF8038"/>
<path d="M80.9987 213.37C80.282 213.37 79.3654 213.136 78.3154 212.403L73.8654 209.286C73.532 209.053 73.332 208.67 73.332 208.253V198.12C73.332 197.703 73.532 197.32 73.8654 197.086L78.3154 193.97C80.2987 192.586 81.7487 192.986 82.432 193.336C83.1154 193.703 84.282 194.653 84.282 197.07V209.286C84.282 211.703 83.1154 212.67 82.432 213.02C82.1154 213.203 81.6154 213.37 80.9987 213.37ZM75.8487 207.586L79.7654 210.32C80.5154 210.836 81.0487 210.886 81.2654 210.77C81.4987 210.653 81.7487 210.186 81.7487 209.286V197.086C81.7487 196.17 81.482 195.72 81.2654 195.603C81.0487 195.486 80.5154 195.536 79.7654 196.053L75.8487 198.786V207.586Z" fill="#FF8038"/>
<path d="M64.168 202.583C62.1013 202.583 60.418 200.9 60.418 198.833C60.418 196.767 62.1013 195.083 64.168 195.083C66.2346 195.083 67.918 196.767 67.918 198.833C67.918 200.9 66.2346 202.583 64.168 202.583ZM64.168 197.583C63.4846 197.583 62.918 198.15 62.918 198.833C62.918 199.517 63.4846 200.083 64.168 200.083C64.8513 200.083 65.418 199.517 65.418 198.833C65.418 198.15 64.8513 197.583 64.168 197.583Z" fill="#FF8038"/>
<path d="M12.7051 387.9H18.1851C19.7184 387.9 21.0384 388.18 22.1451 388.74C23.2518 389.3 24.0984 390.107 24.6851 391.16C25.2718 392.213 25.5651 393.473 25.5651 394.94C25.5651 396.407 25.2718 397.673 24.6851 398.74C24.1118 399.793 23.2718 400.6 22.1651 401.16C21.0584 401.72 19.7318 402 18.1851 402H12.7051V387.9ZM17.9651 399.48C20.9651 399.48 22.4651 397.967 22.4651 394.94C22.4651 391.927 20.9651 390.42 17.9651 390.42H15.8251V399.48H17.9651ZM27.519 402V392.18H30.539V402H27.519ZM27.419 387.46H30.659V390.28H27.419V387.46ZM32.651 402V387.9H35.671V402H32.651ZM46.6231 397.66H40.2231C40.3164 398.447 40.5697 399.02 40.9831 399.38C41.4097 399.727 42.0097 399.9 42.7831 399.9C43.2897 399.9 43.7897 399.82 44.2831 399.66C44.7897 399.487 45.2497 399.247 45.6631 398.94L46.4631 400.96C45.9831 401.333 45.3964 401.627 44.7031 401.84C44.0231 402.053 43.3364 402.16 42.6431 402.16C40.9897 402.16 39.6831 401.707 38.7231 400.8C37.7764 399.88 37.3031 398.633 37.3031 397.06C37.3031 396.06 37.5097 395.173 37.9231 394.4C38.3364 393.627 38.9097 393.027 39.6431 392.6C40.3764 392.16 41.2097 391.94 42.1431 391.94C43.5164 391.94 44.6031 392.387 45.4031 393.28C46.2164 394.173 46.6231 395.387 46.6231 396.92V397.66ZM42.2231 394.02C41.6497 394.02 41.1897 394.207 40.8431 394.58C40.5097 394.94 40.3031 395.467 40.2231 396.16H44.0831C44.0431 395.453 43.8631 394.92 43.5431 394.56C43.2364 394.2 42.7964 394.02 42.2231 394.02ZM58.1871 387.9V402H55.1871V400.54C54.8938 401.047 54.4738 401.447 53.9271 401.74C53.3938 402.02 52.7871 402.16 52.1071 402.16C51.2671 402.16 50.5138 401.947 49.8471 401.52C49.1938 401.08 48.6804 400.473 48.3071 399.7C47.9471 398.913 47.7671 398.013 47.7671 397C47.7671 395.987 47.9471 395.1 48.3071 394.34C48.6804 393.567 49.1938 392.973 49.8471 392.56C50.5004 392.147 51.2538 391.94 52.1071 391.94C52.7738 391.94 53.3738 392.08 53.9071 392.36C54.4538 392.64 54.8738 393.033 55.1671 393.54V387.9H58.1871ZM52.9871 399.86C53.6938 399.86 54.2338 399.62 54.6071 399.14C54.9938 398.647 55.1871 397.947 55.1871 397.04C55.1871 396.133 54.9938 395.44 54.6071 394.96C54.2338 394.48 53.6938 394.24 52.9871 394.24C52.2804 394.24 51.7338 394.48 51.3471 394.96C50.9604 395.427 50.7671 396.107 50.7671 397C50.7671 397.907 50.9604 398.613 51.3471 399.12C51.7338 399.613 52.2804 399.86 52.9871 399.86ZM60.3127 402V392.18H63.3327V402H60.3127ZM60.2127 387.46H63.4527V390.28H60.2127V387.46ZM75.4648 392.18V400.94C75.4648 402.527 75.0114 403.727 74.1048 404.54C73.1981 405.353 71.8581 405.76 70.0848 405.76C69.2048 405.76 68.3581 405.653 67.5448 405.44C66.7448 405.227 66.0381 404.927 65.4248 404.54L66.2248 402.46C67.4914 403.153 68.7514 403.5 70.0048 403.5C71.6581 403.5 72.4848 402.72 72.4848 401.16V400.08C72.2048 400.587 71.7848 400.987 71.2248 401.28C70.6648 401.573 70.0381 401.72 69.3448 401.72C68.4914 401.72 67.7314 401.52 67.0648 401.12C66.4114 400.72 65.8981 400.153 65.5248 399.42C65.1514 398.673 64.9648 397.813 64.9648 396.84C64.9648 395.867 65.1514 395.013 65.5248 394.28C65.8981 393.533 66.4114 392.96 67.0648 392.56C67.7314 392.147 68.4914 391.94 69.3448 391.94C70.0248 391.94 70.6381 392.087 71.1848 392.38C71.7448 392.66 72.1714 393.053 72.4648 393.56V392.18H75.4648ZM70.2248 399.42C70.9314 399.42 71.4781 399.193 71.8648 398.74C72.2648 398.287 72.4648 397.653 72.4648 396.84C72.4648 396.027 72.2648 395.393 71.8648 394.94C71.4781 394.473 70.9314 394.24 70.2248 394.24C69.5181 394.24 68.9648 394.473 68.5648 394.94C68.1648 395.393 67.9648 396.027 67.9648 396.84C67.9648 397.64 68.1648 398.273 68.5648 398.74C68.9648 399.193 69.5181 399.42 70.2248 399.42ZM70.4648 390.46C69.5981 390.46 68.8181 390.213 68.1248 389.72C67.4448 389.213 66.9848 388.493 66.7448 387.56L68.1448 386.98C68.7181 388.033 69.4914 388.56 70.4648 388.56C71.4381 388.56 72.2114 388.033 72.7848 386.98L74.1848 387.56C73.9448 388.493 73.4781 389.213 72.7848 389.72C72.1048 390.213 71.3314 390.46 70.4648 390.46ZM77.5885 402V392.18H80.6085V402H77.5885ZM77.4885 387.46H80.7285V390.28H77.4885V387.46ZM88.8806 391.94C90.0539 391.94 90.9272 392.287 91.5006 392.98C92.0739 393.66 92.3606 394.693 92.3606 396.08V402H89.3406V396.22C89.3406 395.553 89.2139 395.067 88.9606 394.76C88.7206 394.453 88.3406 394.3 87.8206 394.3C87.1939 394.3 86.6872 394.5 86.3006 394.9C85.9272 395.3 85.7406 395.833 85.7406 396.5V402H82.7206V392.18H85.6606V393.58C86.0072 393.047 86.4539 392.64 87.0006 392.36C87.5606 392.08 88.1872 391.94 88.8806 391.94ZM94.4151 402V392.18H97.4351V402H94.4151ZM94.3151 387.46H97.5551V390.28H94.3151V387.46ZM102.847 399.74H108.007V402H99.3071V399.9L104.187 394.44H99.3671V392.18H107.807V394.2L102.847 399.74ZM121.806 392.2H124.766L118.846 405.6H115.786L117.666 401.46L113.626 392.2H116.766L119.246 398.44L121.806 392.2ZM134.135 397.66H127.735C127.828 398.447 128.081 399.02 128.495 399.38C128.921 399.727 129.521 399.9 130.295 399.9C130.801 399.9 131.301 399.82 131.795 399.66C132.301 399.487 132.761 399.247 133.175 398.94L133.975 400.96C133.495 401.333 132.908 401.627 132.215 401.84C131.535 402.053 130.848 402.16 130.155 402.16C128.501 402.16 127.195 401.707 126.235 400.8C125.288 399.88 124.815 398.633 124.815 397.06C124.815 396.06 125.021 395.173 125.435 394.4C125.848 393.627 126.421 393.027 127.155 392.6C127.888 392.16 128.721 391.94 129.655 391.94C131.028 391.94 132.115 392.387 132.915 393.28C133.728 394.173 134.135 395.387 134.135 396.92V397.66ZM129.735 394.02C129.161 394.02 128.701 394.207 128.355 394.58C128.021 394.94 127.815 395.467 127.735 396.16H131.595C131.555 395.453 131.375 394.92 131.055 394.56C130.748 394.2 130.308 394.02 129.735 394.02ZM142.779 394.42L141.079 394.6C140.239 394.68 139.645 394.92 139.299 395.32C138.952 395.707 138.779 396.227 138.779 396.88V402H135.759V392.18H138.659V393.84C139.152 392.707 140.172 392.087 141.719 391.98L142.599 391.92L142.779 394.42ZM153.331 387.9V402H150.331V400.54C150.038 401.047 149.618 401.447 149.071 401.74C148.538 402.02 147.931 402.16 147.251 402.16C146.411 402.16 145.658 401.947 144.991 401.52C144.338 401.08 143.824 400.473 143.451 399.7C143.091 398.913 142.911 398.013 142.911 397C142.911 395.987 143.091 395.1 143.451 394.34C143.824 393.567 144.338 392.973 144.991 392.56C145.644 392.147 146.398 391.94 147.251 391.94C147.918 391.94 148.518 392.08 149.051 392.36C149.598 392.64 150.018 393.033 150.311 393.54V387.9H153.331ZM148.131 399.86C148.838 399.86 149.378 399.62 149.751 399.14C150.138 398.647 150.331 397.947 150.331 397.04C150.331 396.133 150.138 395.44 149.751 394.96C149.378 394.48 148.838 394.24 148.131 394.24C147.424 394.24 146.878 394.48 146.491 394.96C146.104 395.427 145.911 396.107 145.911 397C145.911 397.907 146.104 398.613 146.491 399.12C146.878 399.613 147.424 399.86 148.131 399.86ZM164.296 397.66H157.896C157.99 398.447 158.243 399.02 158.656 399.38C159.083 399.727 159.683 399.9 160.456 399.9C160.963 399.9 161.463 399.82 161.956 399.66C162.463 399.487 162.923 399.247 163.336 398.94L164.136 400.96C163.656 401.333 163.07 401.627 162.376 401.84C161.696 402.053 161.01 402.16 160.316 402.16C158.663 402.16 157.356 401.707 156.396 400.8C155.45 399.88 154.976 398.633 154.976 397.06C154.976 396.06 155.183 395.173 155.596 394.4C156.01 393.627 156.583 393.027 157.316 392.6C158.05 392.16 158.883 391.94 159.816 391.94C161.19 391.94 162.276 392.387 163.076 393.28C163.89 394.173 164.296 395.387 164.296 396.92V397.66ZM159.896 394.02C159.323 394.02 158.863 394.207 158.516 394.58C158.183 394.94 157.976 395.467 157.896 396.16H161.756C161.716 395.453 161.536 394.92 161.216 394.56C160.91 394.2 160.47 394.02 159.896 394.02ZM172.081 391.94C173.254 391.94 174.127 392.287 174.701 392.98C175.274 393.66 175.561 394.693 175.561 396.08V402H172.541V396.22C172.541 395.553 172.414 395.067 172.161 394.76C171.921 394.453 171.541 394.3 171.021 394.3C170.394 394.3 169.887 394.5 169.501 394.9C169.127 395.3 168.941 395.833 168.941 396.5V402H165.921V392.18H168.861V393.58C169.207 393.047 169.654 392.64 170.201 392.36C170.761 392.08 171.387 391.94 172.081 391.94ZM192.941 387.9V402H189.941V400.54C189.648 401.047 189.228 401.447 188.681 401.74C188.148 402.02 187.541 402.16 186.861 402.16C186.021 402.16 185.268 401.947 184.601 401.52C183.948 401.08 183.434 400.473 183.061 399.7C182.701 398.913 182.521 398.013 182.521 397C182.521 395.987 182.701 395.1 183.061 394.34C183.434 393.567 183.948 392.973 184.601 392.56C185.254 392.147 186.008 391.94 186.861 391.94C187.528 391.94 188.128 392.08 188.661 392.36C189.208 392.64 189.628 393.033 189.921 393.54V387.9H192.941ZM187.741 399.86C188.448 399.86 188.988 399.62 189.361 399.14C189.748 398.647 189.941 397.947 189.941 397.04C189.941 396.133 189.748 395.44 189.361 394.96C188.988 394.48 188.448 394.24 187.741 394.24C187.034 394.24 186.488 394.48 186.101 394.96C185.714 395.427 185.521 396.107 185.521 397C185.521 397.907 185.714 398.613 186.101 399.12C186.488 399.613 187.034 399.86 187.741 399.86ZM199.787 402.16C198.747 402.16 197.833 401.953 197.047 401.54C196.26 401.113 195.653 400.52 195.227 399.76C194.8 398.987 194.587 398.08 194.587 397.04C194.587 396 194.8 395.1 195.227 394.34C195.653 393.567 196.26 392.973 197.047 392.56C197.833 392.147 198.747 391.94 199.787 391.94C200.827 391.94 201.74 392.147 202.527 392.56C203.313 392.973 203.92 393.567 204.347 394.34C204.773 395.1 204.987 396 204.987 397.04C204.987 398.08 204.773 398.987 204.347 399.76C203.92 400.52 203.313 401.113 202.527 401.54C201.74 401.953 200.827 402.16 199.787 402.16ZM199.787 399.86C201.253 399.86 201.987 398.92 201.987 397.04C201.987 396.093 201.793 395.387 201.407 394.92C201.033 394.453 200.493 394.22 199.787 394.22C198.32 394.22 197.587 395.16 197.587 397.04C197.587 398.92 198.32 399.86 199.787 399.86ZM217.104 402H213.404L209.644 397.62V402H206.624V387.9H209.644V396.38L213.264 392.2H216.864L212.744 396.88L217.104 402ZM223.017 399.94C223.323 399.94 223.643 399.92 223.977 399.88L223.817 402.08C223.43 402.133 223.043 402.16 222.657 402.16C221.163 402.16 220.07 401.833 219.377 401.18C218.697 400.527 218.357 399.533 218.357 398.2V394.44H216.497V392.18H218.357V389.3H221.377V392.18H223.837V394.44H221.377V398.18C221.377 399.353 221.923 399.94 223.017 399.94ZM229.831 402.16C228.791 402.16 227.878 401.953 227.091 401.54C226.305 401.113 225.698 400.52 225.271 399.76C224.845 398.987 224.631 398.08 224.631 397.04C224.631 396 224.845 395.1 225.271 394.34C225.698 393.567 226.305 392.973 227.091 392.56C227.878 392.147 228.791 391.94 229.831 391.94C230.871 391.94 231.785 392.147 232.571 392.56C233.358 392.973 233.965 393.567 234.391 394.34C234.818 395.1 235.031 396 235.031 397.04C235.031 398.08 234.818 398.987 234.391 399.76C233.965 400.52 233.358 401.113 232.571 401.54C231.785 401.953 230.871 402.16 229.831 402.16ZM229.831 399.86C231.298 399.86 232.031 398.92 232.031 397.04C232.031 396.093 231.838 395.387 231.451 394.92C231.078 394.453 230.538 394.22 229.831 394.22C228.365 394.22 227.631 395.16 227.631 397.04C227.631 398.92 228.365 399.86 229.831 399.86ZM243.689 394.42L241.989 394.6C241.149 394.68 240.556 394.92 240.209 395.32C239.862 395.707 239.689 396.227 239.689 396.88V402H236.669V392.18H239.569V393.84C240.062 392.707 241.082 392.087 242.629 391.98L243.509 391.92L243.689 394.42ZM253.956 392.18V402H251.016V400.6C250.71 401.107 250.303 401.493 249.796 401.76C249.303 402.027 248.743 402.16 248.116 402.16C246.876 402.16 245.95 401.82 245.336 401.14C244.736 400.447 244.436 399.407 244.436 398.02V392.18H247.456V398.08C247.456 398.667 247.576 399.1 247.816 399.38C248.07 399.66 248.45 399.8 248.956 399.8C249.543 399.8 250.016 399.6 250.376 399.2C250.75 398.8 250.936 398.273 250.936 397.62V392.18H253.956ZM262.234 391.94C263.407 391.94 264.28 392.287 264.854 392.98C265.427 393.66 265.714 394.693 265.714 396.08V402H262.694V396.22C262.694 395.553 262.567 395.067 262.314 394.76C262.074 394.453 261.694 394.3 261.174 394.3C260.547 394.3 260.04 394.5 259.654 394.9C259.28 395.3 259.094 395.833 259.094 396.5V402H256.074V392.18H259.014V393.58C259.36 393.047 259.807 392.64 260.354 392.36C260.914 392.08 261.54 391.94 262.234 391.94ZM277.228 392.18V402H274.288V400.6C273.982 401.107 273.575 401.493 273.068 401.76C272.575 402.027 272.015 402.16 271.388 402.16C270.148 402.16 269.222 401.82 268.608 401.14C268.008 400.447 267.708 399.407 267.708 398.02V392.18H270.728V398.08C270.728 398.667 270.848 399.1 271.088 399.38C271.342 399.66 271.722 399.8 272.228 399.8C272.815 399.8 273.288 399.6 273.648 399.2C274.022 398.8 274.208 398.273 274.208 397.62V392.18H277.228ZM282.646 399.74H287.806V402H279.106V399.9L283.986 394.44H279.166V392.18H287.606V394.2L282.646 399.74ZM289.419 402V387.9H292.439V402H289.419ZM298.911 391.94C300.378 391.94 301.458 392.287 302.151 392.98C302.858 393.673 303.211 394.747 303.211 396.2V402H300.351V400.54C300.151 401.047 299.818 401.447 299.351 401.74C298.884 402.02 298.338 402.16 297.711 402.16C297.044 402.16 296.438 402.027 295.891 401.76C295.358 401.493 294.931 401.12 294.611 400.64C294.304 400.16 294.151 399.627 294.151 399.04C294.151 398.32 294.331 397.753 294.691 397.34C295.064 396.927 295.658 396.627 296.471 396.44C297.284 396.253 298.398 396.16 299.811 396.16H300.331V395.8C300.331 395.213 300.204 394.8 299.951 394.56C299.698 394.32 299.258 394.2 298.631 394.2C298.151 394.2 297.618 394.287 297.031 394.46C296.444 394.633 295.884 394.873 295.351 395.18L294.551 393.16C295.111 392.813 295.798 392.527 296.611 392.3C297.438 392.06 298.204 391.94 298.911 391.94ZM298.371 400.08C298.958 400.08 299.431 399.887 299.791 399.5C300.151 399.1 300.331 398.587 300.331 397.96V397.62H299.991C298.911 397.62 298.151 397.707 297.711 397.88C297.284 398.053 297.071 398.367 297.071 398.82C297.071 399.18 297.191 399.48 297.431 399.72C297.684 399.96 297.998 400.08 298.371 400.08ZM85.614 418.18V426.94C85.614 428.527 85.1606 429.727 84.254 430.54C83.3473 431.353 82.0073 431.76 80.234 431.76C79.354 431.76 78.5073 431.653 77.694 431.44C76.894 431.227 76.1873 430.927 75.574 430.54L76.374 428.46C77.6406 429.153 78.9006 429.5 80.154 429.5C81.8073 429.5 82.634 428.72 82.634 427.16V426.08C82.354 426.587 81.934 426.987 81.374 427.28C80.814 427.573 80.1873 427.72 79.494 427.72C78.6406 427.72 77.8806 427.52 77.214 427.12C76.5606 426.72 76.0473 426.153 75.674 425.42C75.3006 424.673 75.114 423.813 75.114 422.84C75.114 421.867 75.3006 421.013 75.674 420.28C76.0473 419.533 76.5606 418.96 77.214 418.56C77.8806 418.147 78.6406 417.94 79.494 417.94C80.174 417.94 80.7873 418.087 81.334 418.38C81.894 418.66 82.3206 419.053 82.614 419.56V418.18H85.614ZM80.374 425.42C81.0806 425.42 81.6273 425.193 82.014 424.74C82.414 424.287 82.614 423.653 82.614 422.84C82.614 422.027 82.414 421.393 82.014 420.94C81.6273 420.473 81.0806 420.24 80.374 420.24C79.6673 420.24 79.114 420.473 78.714 420.94C78.314 421.393 78.114 422.027 78.114 422.84C78.114 423.64 78.314 424.273 78.714 424.74C79.114 425.193 79.6673 425.42 80.374 425.42ZM92.4577 428.16C91.4177 428.16 90.5044 427.953 89.7177 427.54C88.9311 427.113 88.3244 426.52 87.8977 425.76C87.4711 424.987 87.2577 424.08 87.2577 423.04C87.2577 422 87.4711 421.1 87.8977 420.34C88.3244 419.567 88.9311 418.973 89.7177 418.56C90.5044 418.147 91.4177 417.94 92.4577 417.94C93.4977 417.94 94.4111 418.147 95.1977 418.56C95.9844 418.973 96.5911 419.567 97.0177 420.34C97.4444 421.1 97.6577 422 97.6577 423.04C97.6577 424.08 97.4444 424.987 97.0177 425.76C96.5911 426.52 95.9844 427.113 95.1977 427.54C94.4111 427.953 93.4977 428.16 92.4577 428.16ZM92.4577 425.86C93.9244 425.86 94.6577 424.92 94.6577 423.04C94.6577 422.093 94.4644 421.387 94.0777 420.92C93.7044 420.453 93.1644 420.22 92.4577 420.22C90.9911 420.22 90.2577 421.16 90.2577 423.04C90.2577 424.92 90.9911 425.86 92.4577 425.86ZM89.1577 413.56H91.9377V416.2H89.1577V413.56ZM92.9777 413.56H95.7577V416.2H92.9777V413.56ZM106.316 420.42L104.616 420.6C103.776 420.68 103.182 420.92 102.836 421.32C102.489 421.707 102.316 422.227 102.316 422.88V428H99.2955V418.18H102.196V419.84C102.689 418.707 103.709 418.087 105.256 417.98L106.136 417.92L106.316 420.42ZM116.583 418.18V428H113.643V426.6C113.336 427.107 112.93 427.493 112.423 427.76C111.93 428.027 111.37 428.16 110.743 428.16C109.503 428.16 108.576 427.82 107.963 427.14C107.363 426.447 107.063 425.407 107.063 424.02V418.18H110.083V424.08C110.083 424.667 110.203 425.1 110.443 425.38C110.696 425.66 111.076 425.8 111.583 425.8C112.17 425.8 112.643 425.6 113.003 425.2C113.376 424.8 113.563 424.273 113.563 423.62V418.18H116.583ZM108.543 413.56H111.323V416.2H108.543V413.56ZM112.363 413.56H115.143V416.2H112.363V413.56ZM124.86 417.94C126.034 417.94 126.907 418.287 127.48 418.98C128.054 419.66 128.34 420.693 128.34 422.08V428H125.32V422.22C125.32 421.553 125.194 421.067 124.94 420.76C124.7 420.453 124.32 420.3 123.8 420.3C123.174 420.3 122.667 420.5 122.28 420.9C121.907 421.3 121.72 421.833 121.72 422.5V428H118.7V418.18H121.64V419.58C121.987 419.047 122.434 418.64 122.98 418.36C123.54 418.08 124.167 417.94 124.86 417.94ZM135.835 425.94C136.141 425.94 136.461 425.92 136.795 425.88L136.635 428.08C136.248 428.133 135.861 428.16 135.475 428.16C133.981 428.16 132.888 427.833 132.195 427.18C131.515 426.527 131.175 425.533 131.175 424.2V420.44H129.315V418.18H131.175V415.3H134.195V418.18H136.655V420.44H134.195V424.18C134.195 425.353 134.741 425.94 135.835 425.94ZM147.389 418.18V428H144.449V426.6C144.142 427.107 143.736 427.493 143.229 427.76C142.736 428.027 142.176 428.16 141.549 428.16C140.309 428.16 139.382 427.82 138.769 427.14C138.169 426.447 137.869 425.407 137.869 424.02V418.18H140.889V424.08C140.889 424.667 141.009 425.1 141.249 425.38C141.502 425.66 141.882 425.8 142.389 425.8C142.976 425.8 143.449 425.6 143.809 425.2C144.182 424.8 144.369 424.273 144.369 423.62V418.18H147.389ZM139.349 413.56H142.129V416.2H139.349V413.56ZM143.169 413.56H145.949V416.2H143.169V413.56ZM149.506 428V413.9H152.526V428H149.506ZM164.099 418.18V428H161.159V426.6C160.852 427.107 160.445 427.493 159.939 427.76C159.445 428.027 158.885 428.16 158.259 428.16C157.019 428.16 156.092 427.82 155.479 427.14C154.879 426.447 154.579 425.407 154.579 424.02V418.18H157.599V424.08C157.599 424.667 157.719 425.1 157.959 425.38C158.212 425.66 158.592 425.8 159.099 425.8C159.685 425.8 160.159 425.6 160.519 425.2C160.892 424.8 161.079 424.273 161.079 423.62V418.18H164.099ZM156.059 413.56H158.839V416.2H156.059V413.56ZM159.879 413.56H162.659V416.2H159.879V413.56ZM181.622 418.18V426.94C181.622 428.527 181.168 429.727 180.262 430.54C179.355 431.353 178.015 431.76 176.242 431.76C175.362 431.76 174.515 431.653 173.702 431.44C172.902 431.227 172.195 430.927 171.582 430.54L172.382 428.46C173.648 429.153 174.908 429.5 176.162 429.5C177.815 429.5 178.642 428.72 178.642 427.16V426.08C178.362 426.587 177.942 426.987 177.382 427.28C176.822 427.573 176.195 427.72 175.502 427.72C174.648 427.72 173.888 427.52 173.222 427.12C172.568 426.72 172.055 426.153 171.682 425.42C171.308 424.673 171.122 423.813 171.122 422.84C171.122 421.867 171.308 421.013 171.682 420.28C172.055 419.533 172.568 418.96 173.222 418.56C173.888 418.147 174.648 417.94 175.502 417.94C176.182 417.94 176.795 418.087 177.342 418.38C177.902 418.66 178.328 419.053 178.622 419.56V418.18H181.622ZM176.382 425.42C177.088 425.42 177.635 425.193 178.022 424.74C178.422 424.287 178.622 423.653 178.622 422.84C178.622 422.027 178.422 421.393 178.022 420.94C177.635 420.473 177.088 420.24 176.382 420.24C175.675 420.24 175.122 420.473 174.722 420.94C174.322 421.393 174.122 422.027 174.122 422.84C174.122 423.64 174.322 424.273 174.722 424.74C175.122 425.193 175.675 425.42 176.382 425.42ZM188.466 428.16C187.426 428.16 186.512 427.953 185.726 427.54C184.939 427.113 184.332 426.52 183.906 425.76C183.479 424.987 183.266 424.08 183.266 423.04C183.266 422 183.479 421.1 183.906 420.34C184.332 419.567 184.939 418.973 185.726 418.56C186.512 418.147 187.426 417.94 188.466 417.94C189.506 417.94 190.419 418.147 191.206 418.56C191.992 418.973 192.599 419.567 193.026 420.34C193.452 421.1 193.666 422 193.666 423.04C193.666 424.08 193.452 424.987 193.026 425.76C192.599 426.52 191.992 427.113 191.206 427.54C190.419 427.953 189.506 428.16 188.466 428.16ZM188.466 425.86C189.932 425.86 190.666 424.92 190.666 423.04C190.666 422.093 190.472 421.387 190.086 420.92C189.712 420.453 189.172 420.22 188.466 420.22C186.999 420.22 186.266 421.16 186.266 423.04C186.266 424.92 186.999 425.86 188.466 425.86ZM185.166 413.56H187.946V416.2H185.166V413.56ZM188.986 413.56H191.766V416.2H188.986V413.56ZM202.323 420.42L200.623 420.6C199.783 420.68 199.19 420.92 198.843 421.32C198.497 421.707 198.323 422.227 198.323 422.88V428H195.303V418.18H198.203V419.84C198.697 418.707 199.717 418.087 201.263 417.98L202.143 417.92L202.323 420.42ZM212.591 418.18V428H209.651V426.6C209.344 427.107 208.937 427.493 208.431 427.76C207.937 428.027 207.377 428.16 206.751 428.16C205.511 428.16 204.584 427.82 203.971 427.14C203.371 426.447 203.071 425.407 203.071 424.02V418.18H206.091V424.08C206.091 424.667 206.211 425.1 206.451 425.38C206.704 425.66 207.084 425.8 207.591 425.8C208.177 425.8 208.651 425.6 209.011 425.2C209.384 424.8 209.571 424.273 209.571 423.62V418.18H212.591ZM204.551 413.56H207.331V416.2H204.551V413.56ZM208.371 413.56H211.151V416.2H208.371V413.56ZM222.728 425.12C222.728 426 222.401 426.707 221.748 427.24C221.095 427.773 220.181 428.073 219.008 428.14L218.928 428.82C218.981 428.807 219.061 428.8 219.168 428.8C219.675 428.8 220.081 428.92 220.388 429.16C220.695 429.413 220.848 429.753 220.848 430.18C220.848 430.7 220.615 431.12 220.148 431.44C219.681 431.773 219.015 431.94 218.148 431.94C217.855 431.94 217.535 431.907 217.188 431.84C216.841 431.787 216.535 431.7 216.268 431.58L216.508 430.42C217.108 430.607 217.628 430.7 218.068 430.7C218.681 430.7 218.988 430.527 218.988 430.18C218.988 429.927 218.775 429.8 218.348 429.8C218.108 429.8 217.868 429.84 217.628 429.92L217.228 429.5L217.408 428.1C216.061 427.98 214.941 427.6 214.048 426.96L214.848 424.88C215.381 425.24 215.968 425.52 216.608 425.72C217.248 425.92 217.895 426.02 218.548 426.02C219.015 426.02 219.375 425.947 219.628 425.8C219.895 425.64 220.028 425.427 220.028 425.16C220.028 424.92 219.935 424.733 219.748 424.6C219.575 424.467 219.241 424.347 218.748 424.24L217.148 423.88C216.201 423.667 215.501 423.34 215.048 422.9C214.608 422.447 214.388 421.833 214.388 421.06C214.388 420.447 214.561 419.907 214.908 419.44C215.268 418.973 215.768 418.607 216.408 418.34C217.061 418.073 217.801 417.94 218.628 417.94C219.335 417.94 220.021 418.047 220.688 418.26C221.355 418.473 221.955 418.773 222.488 419.16L221.688 421.16C220.648 420.44 219.621 420.08 218.608 420.08C218.141 420.08 217.775 420.16 217.508 420.32C217.241 420.48 217.108 420.707 217.108 421C217.108 421.213 217.188 421.38 217.348 421.5C217.508 421.62 217.788 421.733 218.188 421.84L219.848 422.22C220.848 422.447 221.575 422.793 222.028 423.26C222.495 423.713 222.728 424.333 222.728 425.12ZM233.714 418.18V428H230.774V426.6C230.467 427.107 230.061 427.493 229.554 427.76C229.061 428.027 228.501 428.16 227.874 428.16C226.634 428.16 225.707 427.82 225.094 427.14C224.494 426.447 224.194 425.407 224.194 424.02V418.18H227.214V424.08C227.214 424.667 227.334 425.1 227.574 425.38C227.827 425.66 228.207 425.8 228.714 425.8C229.301 425.8 229.774 425.6 230.134 425.2C230.507 424.8 230.694 424.273 230.694 423.62V418.18H233.714ZM225.674 413.56H228.454V416.2H225.674V413.56ZM229.494 413.56H232.274V416.2H229.494V413.56ZM241.991 417.94C243.165 417.94 244.038 418.287 244.611 418.98C245.185 419.66 245.471 420.693 245.471 422.08V428H242.451V422.22C242.451 421.553 242.325 421.067 242.071 420.76C241.831 420.453 241.451 420.3 240.931 420.3C240.305 420.3 239.798 420.5 239.411 420.9C239.038 421.3 238.851 421.833 238.851 422.5V428H235.831V418.18H238.771V419.58C239.118 419.047 239.565 418.64 240.111 418.36C240.671 418.08 241.298 417.94 241.991 417.94Z" fill="#3C4E69"/>
<rect x="155" y="477" width="10" height="4" rx="2" fill="#3C4E69"/>
<rect x="146" y="477" width="4" height="4" rx="2" fill="#A4ABB6"/>
<rect x="170" y="477" width="4" height="4" rx="2" fill="#A4ABB6"/>
<defs>
<filter id="filter0_d_7_6338" x="187.09" y="49.5553" width="103.016" height="83.9763" filterUnits="userSpaceOnUse" color-interpolation-filters="sRGB">
<feFlood flood-opacity="0" result="BackgroundImageFix"/>
<feColorMatrix in="SourceAlpha" type="matrix" values="0 0 0 0 0 0 0 0 0 0 0 0 0 0 0 0 0 0 127 0" result="hardAlpha"/>
<feOffset dy="5"/>
<feGaussianBlur stdDeviation="15"/>
<feComposite in2="hardAlpha" operator="out"/>
<feColorMatrix type="matrix" values="0 0 0 0 0.458824 0 0 0 0 0.752941 0 0 0 0 0.917647 0 0 0 0.2 0"/>
<feBlend mode="normal" in2="BackgroundImageFix" result="effect1_dropShadow_7_6338"/>
<feBlend mode="normal" in="SourceGraphic" in2="effect1_dropShadow_7_6338" result="shape"/>
</filter>
<filter id="filter1_d_7_6338" x="193.438" y="138.409" width="81.1562" height="74.5444" filterUnits="userSpaceOnUse" color-interpolation-filters="sRGB">
<feFlood flood-opacity="0" result="BackgroundImageFix"/>
<feColorMatrix in="SourceAlpha" type="matrix" values="0 0 0 0 0 0 0 0 0 0 0 0 0 0 0 0 0 0 127 0" result="hardAlpha"/>
<feOffset dy="5"/>
<feGaussianBlur stdDeviation="15"/>
<feComposite in2="hardAlpha" operator="out"/>
<feColorMatrix type="matrix" values="0 0 0 0 0.458824 0 0 0 0 0.752941 0 0 0 0 0.917647 0 0 0 0.2 0"/>
<feBlend mode="normal" in2="BackgroundImageFix" result="effect1_dropShadow_7_6338"/>
<feBlend mode="normal" in="SourceGraphic" in2="effect1_dropShadow_7_6338" result="shape"/>
</filter>
<filter id="filter2_d_7_6338" x="89.7734" y="44.619" width="71.2812" height="67.5232" filterUnits="userSpaceOnUse" color-interpolation-filters="sRGB">
<feFlood flood-opacity="0" result="BackgroundImageFix"/>
<feColorMatrix in="SourceAlpha" type="matrix" values="0 0 0 0 0 0 0 0 0 0 0 0 0 0 0 0 0 0 127 0" result="hardAlpha"/>
<feOffset dy="5"/>
<feGaussianBlur stdDeviation="15"/>
<feComposite in2="hardAlpha" operator="out"/>
<feColorMatrix type="matrix" values="0 0 0 0 0.458824 0 0 0 0 0.752941 0 0 0 0 0.917647 0 0 0 0.2 0"/>
<feBlend mode="normal" in2="BackgroundImageFix" result="effect1_dropShadow_7_6338"/>
<feBlend mode="normal" in="SourceGraphic" in2="effect1_dropShadow_7_6338" result="shape"/>
</filter>
<filter id="filter3_d_7_6338" x="72.8516" y="117.253" width="95.8984" height="84.6815" filterUnits="userSpaceOnUse" color-interpolation-filters="sRGB">
<feFlood flood-opacity="0" result="BackgroundImageFix"/>
<feColorMatrix in="SourceAlpha" type="matrix" values="0 0 0 0 0 0 0 0 0 0 0 0 0 0 0 0 0 0 127 0" result="hardAlpha"/>
<feOffset dy="5"/>
<feGaussianBlur stdDeviation="15"/>
<feComposite in2="hardAlpha" operator="out"/>
<feColorMatrix type="matrix" values="0 0 0 0 0.458824 0 0 0 0 0.752941 0 0 0 0 0.917647 0 0 0 0.2 0"/>
<feBlend mode="normal" in2="BackgroundImageFix" result="effect1_dropShadow_7_6338"/>
<feBlend mode="normal" in="SourceGraphic" in2="effect1_dropShadow_7_6338" result="shape"/>
</filter>
<filter id="filter4_d_7_6338" x="131.379" y="61.5435" width="81.8594" height="74.1038" filterUnits="userSpaceOnUse" color-interpolation-filters="sRGB">
<feFlood flood-opacity="0" result="BackgroundImageFix"/>
<feColorMatrix in="SourceAlpha" type="matrix" values="0 0 0 0 0 0 0 0 0 0 0 0 0 0 0 0 0 0 127 0" result="hardAlpha"/>
<feOffset dy="5"/>
<feGaussianBlur stdDeviation="15"/>
<feComposite in2="hardAlpha" operator="out"/>
<feColorMatrix type="matrix" values="0 0 0 0 0.458824 0 0 0 0 0.752941 0 0 0 0 0.917647 0 0 0 0.2 0"/>
<feBlend mode="normal" in2="BackgroundImageFix" result="effect1_dropShadow_7_6338"/>
<feBlend mode="normal" in="SourceGraphic" in2="effect1_dropShadow_7_6338" result="shape"/>
</filter>
<filter id="filter5_d_7_6338" x="29.1289" y="60.8383" width="114.301" height="98.7852" filterUnits="userSpaceOnUse" color-interpolation-filters="sRGB">
<feFlood flood-opacity="0" result="BackgroundImageFix"/>
<feColorMatrix in="SourceAlpha" type="matrix" values="0 0 0 0 0 0 0 0 0 0 0 0 0 0 0 0 0 0 127 0" result="hardAlpha"/>
<feOffset dy="5"/>
<feGaussianBlur stdDeviation="15"/>
<feComposite in2="hardAlpha" operator="out"/>
<feColorMatrix type="matrix" values="0 0 0 0 0.458824 0 0 0 0 0.752941 0 0 0 0 0.917647 0 0 0 0.2 0"/>
<feBlend mode="normal" in2="BackgroundImageFix" result="effect1_dropShadow_7_6338"/>
<feBlend mode="normal" in="SourceGraphic" in2="effect1_dropShadow_7_6338" result="shape"/>
</filter>
<filter id="filter6_d_7_6338" x="190" y="89" width="140" height="140" filterUnits="userSpaceOnUse" color-interpolation-filters="sRGB">
<feFlood flood-opacity="0" result="BackgroundImageFix"/>
<feColorMatrix in="SourceAlpha" type="matrix" values="0 0 0 0 0 0 0 0 0 0 0 0 0 0 0 0 0 0 127 0" result="hardAlpha"/>
<feOffset dy="6"/>
<feGaussianBlur stdDeviation="15"/>
<feComposite in2="hardAlpha" operator="out"/>
<feColorMatrix type="matrix" values="0 0 0 0 0.2 0 0 0 0 0.647059 0 0 0 0 0.87451 0 0 0 0.22 0"/>
<feBlend mode="normal" in2="BackgroundImageFix" result="effect1_dropShadow_7_6338"/>
<feBlend mode="normal" in="SourceGraphic" in2="effect1_dropShadow_7_6338" result="shape"/>
</filter>
<filter id="filter7_d_7_6338" x="48" y="0" width="100" height="100" filterUnits="userSpaceOnUse" color-interpolation-filters="sRGB">
<feFlood flood-opacity="0" result="BackgroundImageFix"/>
<feColorMatrix in="SourceAlpha" type="matrix" values="0 0 0 0 0 0 0 0 0 0 0 0 0 0 0 0 0 0 127 0" result="hardAlpha"/>
<feOffset dy="6"/>
<feGaussianBlur stdDeviation="15"/>
<feComposite in2="hardAlpha" operator="out"/>
<feColorMatrix type="matrix" values="0 0 0 0 0.2 0 0 0 0 0.647059 0 0 0 0 0.87451 0 0 0 0.22 0"/>
<feBlend mode="normal" in2="BackgroundImageFix" result="effect1_dropShadow_7_6338"/>
<feBlend mode="normal" in="SourceGraphic" in2="effect1_dropShadow_7_6338" result="shape"/>
</filter>
<filter id="filter8_d_7_6338" x="0" y="144" width="130" height="130" filterUnits="userSpaceOnUse" color-interpolation-filters="sRGB">
<feFlood flood-opacity="0" result="BackgroundImageFix"/>
<feColorMatrix in="SourceAlpha" type="matrix" values="0 0 0 0 0 0 0 0 0 0 0 0 0 0 0 0 0 0 127 0" result="hardAlpha"/>
<feOffset dy="6"/>
<feGaussianBlur stdDeviation="15"/>
<feComposite in2="hardAlpha" operator="out"/>
<feColorMatrix type="matrix" values="0 0 0 0 0.2 0 0 0 0 0.647059 0 0 0 0 0.87451 0 0 0 0.22 0"/>
<feBlend mode="normal" in2="BackgroundImageFix" result="effect1_dropShadow_7_6338"/>
<feBlend mode="normal" in="SourceGraphic" in2="effect1_dropShadow_7_6338" result="shape"/>
</filter>
<radialGradient id="paint0_radial_7_6338" cx="0" cy="0" r="1" gradientUnits="userSpaceOnUse" gradientTransform="translate(168 335.5) rotate(90) scale(19.5 120)">
<stop stop-color="#7CC6EA"/>
<stop offset="1" stop-color="#7CC6EA" stop-opacity="0"/>
</radialGradient>
</defs>
</svg>
