<svg width="360" height="468" viewBox="0 0 360 468" fill="none" xmlns="http://www.w3.org/2000/svg">
<path opacity="0.8" d="M81.085 308.027C84.6649 302.404 90.8685 299 97.5337 299H253.516C260.721 299 267.338 302.973 270.726 309.331C277.646 322.32 268.233 338 253.516 338H97.5337C82.1441 338 72.8193 321.008 81.085 308.027Z" fill="url(#paint0_radial_7_6125)"/>
<path d="M250.827 303.828H110.402L120.964 231.734C123.143 219.557 129.535 208.534 139.022 200.595C148.509 192.655 160.486 188.306 172.857 188.307H188.373C200.743 188.306 212.721 192.655 222.208 200.595C231.694 208.534 238.087 219.557 240.266 231.734L250.827 303.828Z" fill="white"/>
<path opacity="0.1" d="M236.832 300.54H124.402L132.859 242.798C134.603 233.048 139.72 224.222 147.316 217.865C154.911 211.507 164.5 208.023 174.405 208.023H186.829C196.734 208.023 206.323 211.507 213.918 217.865C221.514 224.222 226.631 233.048 228.375 242.798L236.832 300.54Z" fill="black"/>
<path d="M250.827 303.828H110.402L120.964 231.734C123.143 219.557 129.535 208.534 139.022 200.595C148.509 192.655 160.486 188.306 172.857 188.307H188.373C200.743 188.306 212.721 192.655 222.208 200.595C231.694 208.534 238.087 219.557 240.266 231.734L250.827 303.828Z" stroke="#263238" stroke-linecap="round" stroke-linejoin="round"/>
<path d="M106.81 252.689C106.81 252.689 116.551 249.895 132.458 259.581C149.678 270.124 150.582 252.056 156.272 243.674H211.146C211.146 243.674 218.224 263.791 223.067 262.114C227.91 260.438 250.503 254.999 257.088 269.08C263.672 283.162 244.673 293.593 244.673 293.593C244.673 293.593 227.351 307.563 223.253 307.376C219.155 307.19 169.609 306.501 169.609 306.501L111.876 270.124L105.543 259.581L106.81 252.689Z" fill="#858585" stroke="#263238" stroke-linecap="round" stroke-linejoin="round"/>
<path opacity="0.3" d="M244.671 293.593C244.671 293.593 263.67 283.162 257.085 269.08C257.001 268.894 256.899 268.727 256.806 268.559L234.175 292.606L197.946 284.922L200.517 283.358C200.517 283.358 219.348 268.456 214.366 265.411C210.445 263.055 196.289 275.348 179.86 275.525C163.431 275.702 150.84 262.682 148.744 265.16C148.167 265.839 148.577 267.469 149.471 269.49C149.549 269.655 149.572 269.841 149.537 270.019C149.502 270.198 149.411 270.361 149.277 270.485C149.143 270.609 148.973 270.686 148.792 270.707C148.611 270.727 148.428 270.689 148.269 270.599C138.546 265.16 126.272 259.581 126.272 259.581L121.289 263.669L133.657 281.15L154.547 286.45L152.852 288.228L176.461 297.067L180.577 306.631C195.422 306.846 220.4 307.218 223.26 307.349C227.357 307.563 244.671 293.593 244.671 293.593Z" fill="black"/>
<path d="M175.578 145.494V175.603H198.274V152.264L175.578 145.494Z" fill="white" stroke="#263238" stroke-linecap="round" stroke-linejoin="round"/>
<path d="M175.109 147.645C176.266 150.104 177.799 152.366 179.654 154.351C183.789 158.83 198.541 158.328 203.701 158.002C204.219 157.967 204.711 157.768 205.107 157.433C205.503 157.097 205.78 156.644 205.899 156.139C206.327 154.276 206.989 150.989 207.436 147.673L175.109 147.645Z" fill="#263238" stroke="#263238" stroke-linecap="round" stroke-linejoin="round"/>
<path d="M180.037 109.824C180.037 109.824 162.202 104.134 161.457 129.382C160.712 154.63 143.995 157.229 158.859 170.975C173.723 184.721 178.761 163.72 178.761 163.72C178.761 163.72 172.587 160.758 175.576 154.407C178.566 148.055 200.396 157.107 200.396 157.107C200.396 157.107 205.686 164.446 201.038 170.016C201.038 170.016 216.666 173.014 214.245 162.789C211.823 152.563 207.893 139.217 207.902 126.178C207.912 113.14 196.205 99.0488 180.037 109.824Z" fill="#263238" stroke="#263238" stroke-linecap="round" stroke-linejoin="round"/>
<path d="M145.699 171.962C145.699 171.962 155.301 209.438 152.74 240.349C152.642 241.463 152.895 242.58 153.465 243.542C154.035 244.504 154.892 245.264 155.916 245.713C160.349 247.641 169.262 249.96 184.191 247.706C184.191 247.706 213.155 252.223 214.496 244.726C217.718 226.603 212.754 195.552 224.675 173.201C224.675 173.201 211.264 164.018 187.422 163.766C173.1 163.614 158.899 166.403 145.699 171.962Z" fill="#33A5DF"/>
<path opacity="0.2" d="M160.882 247.353C160.882 247.353 156.746 245.341 158.423 241.504C160.099 237.667 165.743 225.923 165.743 225.923C165.743 225.923 171.657 227.786 175.932 226.482C178.608 225.65 181.185 224.525 183.615 223.129C183.615 223.129 189.892 226.668 200.798 223.129C200.798 223.129 203.816 239.893 211.108 247.818C218.4 255.744 218.661 246.04 218.661 246.04L207.904 220.335L202.94 212.698L188.346 217.541L168.854 212.698L158.982 218.286L150.991 232.684L147.266 239.893V246.226L156.29 250.882L160.882 247.353Z" fill="black"/>
<path opacity="0.2" d="M167.484 164.456C167.484 164.456 174.562 173.629 189.212 173.201C203.862 172.772 203.499 166.225 203.499 166.225L202.782 162.882H194.018L170.548 160.553L167.484 164.456Z" fill="black"/>
<path d="M198.973 242.193C199.336 241.97 199.699 241.746 200.044 241.504L198.973 242.193Z" fill="#33A5DF"/>
<path d="M198.973 242.193C199.336 241.97 199.699 241.746 200.044 241.504" stroke="#263238" stroke-width="0.75" stroke-linecap="round" stroke-linejoin="round"/>
<path d="M186.734 246.068C190.444 245.57 194.061 244.534 197.473 242.994L186.734 246.068Z" fill="#33A5DF"/>
<path d="M186.734 246.068C190.444 245.57 194.061 244.534 197.473 242.994" stroke="#263238" stroke-width="0.75" stroke-linecap="round" stroke-linejoin="round"/>
<path d="M145.699 171.962C145.699 171.962 155.301 209.438 152.74 240.349C152.642 241.463 152.895 242.58 153.465 243.542C154.035 244.504 154.892 245.264 155.916 245.713C160.349 247.641 169.262 249.96 184.191 247.706C184.191 247.706 213.155 252.223 214.496 244.726C217.718 226.603 212.754 195.552 224.675 173.201C224.675 173.201 211.264 164.018 187.422 163.766C173.1 163.614 158.899 166.403 145.699 171.962V171.962Z" stroke="#263238" stroke-linecap="round" stroke-linejoin="round"/>
<path d="M186.734 283.358L156.001 301.798C156.001 301.798 150.85 299.749 146.157 300.68C141.463 301.612 126.757 296.396 120.61 299.563C114.464 302.729 112.787 320.238 118.561 322.473C124.336 324.708 153.02 319.12 159.353 317.072C165.686 315.023 197.538 302.17 197.538 302.17L186.734 283.358Z" fill="white" stroke="#263238" stroke-linecap="round" stroke-linejoin="round"/>
<path d="M153.486 317.099C154.688 316.915 155.916 317.155 156.96 317.779C147.74 320.145 123.786 324.522 118.561 322.501C112.787 320.266 114.464 302.757 120.61 299.591C126.757 296.424 141.472 301.64 146.157 300.708C150.841 299.777 156.001 301.826 156.001 301.826C155.628 303.782 150.878 302.105 151.344 303.595C151.81 305.085 156.653 303.223 157.677 309.742C158.701 316.261 150.133 317.351 153.486 317.099Z" fill="#263238" stroke="#263238" stroke-linecap="round" stroke-linejoin="round"/>
<path d="M124.224 298.622C121.924 302.077 116.056 312.517 120.899 322.911C120.103 322.875 119.316 322.728 118.561 322.473C112.787 320.238 114.464 302.729 120.61 299.563C121.746 299.027 122.971 298.708 124.224 298.622Z" fill="white" stroke="#263238" stroke-linecap="round" stroke-linejoin="round"/>
<path d="M201.933 121.335L203.293 127.631C203.293 127.631 207.493 132.567 207.866 138.881C208.145 143.65 206.646 151.166 205.901 154.546C205.782 155.051 205.505 155.505 205.109 155.84C204.713 156.175 204.22 156.375 203.703 156.409C198.543 156.735 183.791 157.238 179.656 152.758C174.608 147.291 173.863 142.337 173.863 142.337C173.863 142.337 179.088 131.328 177.495 126.374C177.495 126.374 184.546 120.86 183.866 117.48C183.866 117.508 198.432 111.78 201.933 121.335Z" fill="white" stroke="#263238" stroke-linecap="round" stroke-linejoin="round"/>
<path d="M197.23 127.044C197.23 127.044 198.441 132.52 202.129 134.299C202.287 134.381 202.425 134.497 202.532 134.639C202.639 134.78 202.713 134.944 202.749 135.118C202.785 135.293 202.781 135.472 202.738 135.645C202.695 135.817 202.615 135.978 202.502 136.115L200.313 138.909" stroke="#263238" stroke-linecap="round" stroke-linejoin="round"/>
<path d="M191.504 144.432C193.739 145.265 196.183 145.35 198.47 144.674C202.195 143.529 201.488 141.536 201.488 141.536" stroke="#263238" stroke-linecap="round" stroke-linejoin="round"/>
<path d="M183.324 129.363C183.324 129.363 185.513 123.422 191.753 126.327" stroke="#263238" stroke-width="1.5" stroke-linecap="round" stroke-linejoin="round"/>
<path d="M198.273 124.418C198.273 124.418 199.922 121.27 202.138 122.276" stroke="#263238" stroke-width="1.5" stroke-linecap="round" stroke-linejoin="round"/>
<path d="M191.12 199.827V193.597C191.12 192.811 190.808 192.058 190.253 191.502C189.697 190.947 188.944 190.635 188.158 190.635H178.38C177.594 190.635 176.841 190.947 176.285 191.502C175.73 192.058 175.418 192.811 175.418 193.597V199.827H191.12Z" fill="#263238" stroke="#263238" stroke-linecap="round" stroke-linejoin="round"/>
<path d="M188.019 192.414H178.519C176.806 192.414 175.418 193.802 175.418 195.515V217.234C175.418 218.946 176.806 220.335 178.519 220.335H188.019C189.732 220.335 191.12 218.946 191.12 217.234V195.515C191.12 193.802 189.732 192.414 188.019 192.414Z" fill="#858585" stroke="#263238" stroke-linecap="round" stroke-linejoin="round"/>
<path d="M179.276 198.272C180.315 198.272 181.157 197.43 181.157 196.391C181.157 195.352 180.315 194.509 179.276 194.509C178.237 194.509 177.395 195.352 177.395 196.391C177.395 197.43 178.237 198.272 179.276 198.272Z" fill="#33A5DF" stroke="#263238" stroke-linecap="round" stroke-linejoin="round"/>
<path d="M179.274 196.977C179.598 196.977 179.861 196.715 179.861 196.391C179.861 196.067 179.598 195.804 179.274 195.804C178.95 195.804 178.688 196.067 178.688 196.391C178.688 196.715 178.95 196.977 179.274 196.977Z" fill="#263238"/>
<path d="M191.036 130.378C191.269 131.161 191.036 131.934 190.487 132.092C189.937 132.25 189.323 131.738 189.09 130.956C188.857 130.174 189.09 129.401 189.639 129.242C190.189 129.084 190.775 129.596 191.036 130.378Z" fill="#263238"/>
<path d="M202.521 127.51C202.753 128.292 202.521 129.065 201.971 129.224C201.422 129.382 200.807 128.87 200.574 128.087C200.341 127.305 200.574 126.532 201.124 126.374C201.673 126.216 202.288 126.728 202.521 127.51Z" fill="#263238"/>
<path d="M172.68 166.374L174.263 161.997V156.679C182.17 157.889 190.194 158.14 198.161 157.424C198.42 157.397 198.682 157.433 198.925 157.527C199.168 157.621 199.386 157.772 199.559 157.966C199.733 158.161 199.858 158.394 199.924 158.646C199.99 158.898 199.995 159.162 199.94 159.417C199.772 159.922 199.657 160.444 199.595 160.972C199.84 162.384 200.221 163.769 200.731 165.107C200.837 165.483 200.806 165.883 200.644 166.238C200.482 166.593 200.199 166.878 199.846 167.045C196.875 168.414 188.382 171.031 172.68 166.374Z" fill="#33A5DF" stroke="#263238" stroke-linecap="round" stroke-linejoin="round"/>
<path d="M193.542 133.629L189.081 134.849C188.648 134.996 188.177 134.983 187.753 134.812C187.33 134.641 186.981 134.324 186.771 133.918L185.384 130.611C185.251 130.257 185.242 129.868 185.359 129.507C185.476 129.147 185.711 128.837 186.026 128.628C186.301 128.419 186.619 128.275 186.958 128.209L192.396 127.277C192.631 127.216 192.876 127.204 193.116 127.24C193.356 127.276 193.587 127.36 193.793 127.486C194 127.613 194.18 127.781 194.32 127.978C194.461 128.176 194.561 128.4 194.613 128.637L195.023 131.701C195.037 132.144 194.897 132.578 194.627 132.929C194.357 133.281 193.973 133.528 193.542 133.629V133.629Z" stroke="#263238" stroke-linecap="round" stroke-linejoin="round"/>
<path d="M202.213 131.31L206.665 130.099C207.113 130.004 207.512 129.752 207.791 129.388C208.069 129.024 208.208 128.573 208.183 128.115L207.708 124.558C207.641 124.184 207.451 123.844 207.167 123.592C206.883 123.34 206.522 123.191 206.143 123.17C205.79 123.13 205.432 123.174 205.1 123.3L199.894 125.247C199.66 125.314 199.443 125.427 199.254 125.58C199.065 125.733 198.91 125.923 198.797 126.138C198.684 126.353 198.615 126.589 198.596 126.831C198.576 127.073 198.606 127.317 198.683 127.547L199.875 130.397C200.09 130.805 200.445 131.121 200.874 131.289C201.303 131.456 201.779 131.464 202.213 131.31Z" stroke="#263238" stroke-linecap="round" stroke-linejoin="round"/>
<path d="M194.949 128.441C194.901 128.02 195.005 127.595 195.242 127.243C195.48 126.891 195.836 126.636 196.245 126.523C196.654 126.411 197.091 126.449 197.475 126.63C197.859 126.81 198.165 127.123 198.339 127.51" stroke="#263238" stroke-linecap="round" stroke-linejoin="round"/>
<path d="M185.384 130.621L173.863 136.982" stroke="#263238" stroke-linecap="round" stroke-linejoin="round"/>
<path d="M157.992 212.493C160.479 208.47 170.751 201.83 174.998 207.399C176.392 207.713 177.804 207.937 179.226 208.069C181.592 208.069 187.021 206.533 187.916 208.815C188.381 210.016 186.109 210.482 183.725 211.124C181.807 211.602 179.832 211.812 177.857 211.748C176.217 211.766 174.578 211.641 172.958 211.376L178.109 213.359C178.109 213.359 183.138 212.167 184.814 211.99C186.677 211.795 192.134 211.124 192.265 213.359C192.321 214.402 190.914 214.225 189.219 214.728C187.301 215.287 185.056 215.716 185.056 215.716C185.056 215.716 180.344 217.578 178.109 217.392C176.836 217.3 175.582 217.031 174.383 216.591L171.897 215.716C173.676 217.105 175.853 217.888 178.109 217.951C182.141 218.202 183.445 216.153 186.612 215.846C189.778 215.539 191.157 216.153 191.203 217.243C191.268 218.696 188.288 218.761 185.932 219.255C183.576 219.748 182.579 221.061 180.586 221.182C180.586 221.182 176.861 223.166 173.825 223.297C170.788 223.427 163.636 221.862 163.021 222.673C162.667 223.129 159.771 230.049 155.478 237.62C152.171 243.46 146.937 250.361 138.611 250.361C138.611 250.361 133.023 247.381 132.474 233.783C132.334 230.384 133.107 227.264 133.238 224.47C133.638 216.088 134.169 210.714 134.169 210.714L153.168 210.621L151.119 221.238C153.667 218.535 155.967 215.608 157.992 212.493Z" fill="white" stroke="#263238" stroke-linecap="round" stroke-linejoin="round"/>
<path d="M180.588 221.173C180.588 221.173 176.993 222.412 172.02 220.307L180.588 221.173Z" fill="white"/>
<path d="M180.588 221.173C180.588 221.173 176.993 222.412 172.02 220.307" stroke="#263238" stroke-linecap="round" stroke-linejoin="round"/>
<path d="M175 207.399H170.008" stroke="#263238" stroke-linecap="round" stroke-linejoin="round"/>
<path d="M139.124 233.923C138.887 234.43 138.679 234.949 138.5 235.478" stroke="#263238" stroke-linecap="round" stroke-linejoin="round"/>
<path d="M148.745 223.744C146.445 226.789 142.766 228.074 140.168 232.042" stroke="#263238" stroke-linecap="round" stroke-linejoin="round"/>
<path d="M149.396 182.402C148.416 178.834 147.17 175.345 145.67 171.962C145.67 171.962 134.411 183.138 133.666 208.759C133.642 209.604 133.883 210.436 134.356 211.137C134.828 211.839 135.509 212.375 136.301 212.67C139.095 213.695 144.115 215.045 151.873 215.315C152.228 215.33 152.582 215.268 152.911 215.136C153.24 215.003 153.537 214.802 153.783 214.546C154.029 214.289 154.217 213.984 154.336 213.649C154.455 213.315 154.501 212.959 154.471 212.605C154.322 210.742 154.071 208.088 153.68 204.903" fill="#33A5DF"/>
<path d="M149.396 182.402C148.416 178.834 147.17 175.345 145.67 171.962C145.67 171.962 134.411 183.138 133.666 208.759C133.642 209.604 133.883 210.436 134.356 211.137C134.828 211.839 135.509 212.375 136.301 212.67C139.095 213.695 144.115 215.045 151.873 215.315C152.228 215.33 152.582 215.268 152.911 215.136C153.24 215.003 153.537 214.802 153.783 214.546C154.029 214.289 154.217 213.984 154.336 213.649C154.455 213.315 154.501 212.959 154.471 212.605C154.322 210.742 154.071 208.088 153.68 204.903" stroke="#263238" stroke-linecap="round" stroke-linejoin="round"/>
<path d="M175.082 155.701H153.782C151.854 160.628 151.976 164.605 158.839 170.956C173.741 184.703 178.742 163.701 178.742 163.701C178.742 163.701 173.433 161.14 175.082 155.701Z" fill="#263238" stroke="#263238" stroke-linecap="round" stroke-linejoin="round"/>
<path d="M212.729 156.633H199.188L200.398 157.117C200.398 157.117 205.688 164.456 201.041 170.025C201.041 170.025 216.668 173.024 214.247 162.798C213.781 160.851 213.26 158.775 212.729 156.633Z" fill="#263238" stroke="#263238" stroke-linecap="round" stroke-linejoin="round"/>
<path d="M209.282 209.522C206.115 206.412 198.599 201.578 191.521 204.437L188.047 205.108C188.047 205.108 179.498 202.817 178.604 205.108C178.138 206.309 180.411 206.775 182.795 207.418C185.179 208.06 187.172 208.777 188.662 208.777C190.306 208.795 191.948 208.67 193.57 208.405L188.42 210.398C188.42 210.398 183.382 209.951 181.714 209.774C179.852 209.578 174.385 208.908 174.264 211.143C174.199 212.186 175.605 212.009 177.3 212.503C179.219 213.071 181.463 213.499 181.463 213.499C181.463 213.499 186.185 214.617 188.42 214.43C189.694 214.339 190.948 214.066 192.145 213.62L193.878 213.499C193.878 213.499 192.453 214.738 188.42 214.989C184.387 215.241 183.074 213.937 179.908 213.62C176.741 213.303 175.363 213.937 175.316 215.017C175.251 216.479 178.231 216.544 180.597 217.038C182.962 217.532 183.95 218.09 185.933 218.221C185.933 218.221 189.659 220.205 192.704 220.326C195.75 220.447 202.138 218.901 202.762 219.711C203.386 220.521 211.144 251.497 224.928 253.36C224.928 253.36 233.496 249.634 234.055 236.037C234.614 222.44 233.124 214.43 233.124 214.43L215.615 212.847L216.173 220.484C216.173 220.484 212.923 213.117 209.282 209.522Z" fill="white" stroke="#263238" stroke-linecap="round" stroke-linejoin="round"/>
<path d="M219.18 225.83C219.965 226.967 220.831 228.047 221.769 229.061C224.609 232.125 227.683 235.711 228.288 240.554" stroke="#263238" stroke-width="0.75" stroke-linecap="round" stroke-linejoin="round"/>
<path d="M217.348 222.933C217.348 222.933 217.627 223.455 218.13 224.265" stroke="#263238" stroke-width="0.75" stroke-linecap="round" stroke-linejoin="round"/>
<path d="M185.934 218.221C185.934 218.221 188.793 219.46 193.757 217.345" stroke="#263238" stroke-linecap="round" stroke-linejoin="round"/>
<path d="M191.52 204.437H196.521" stroke="#263238" stroke-linecap="round" stroke-linejoin="round"/>
<path d="M256.09 267.097C252.858 261.509 242.679 254.99 227.275 264.117C209.338 274.696 179.843 284.727 179.098 287.456C179.098 287.456 189.528 295.409 191.764 305.588C191.764 305.588 197.165 308.317 207.503 304.35C217.841 300.382 269.268 289.868 256.09 267.097Z" fill="#858585" stroke="#263238" stroke-linecap="round" stroke-linejoin="round"/>
<path d="M163.647 286.366L194.381 304.806C194.381 304.806 199.531 302.757 204.216 303.688C208.9 304.62 223.624 299.404 229.771 302.571C235.918 305.737 237.594 323.246 231.82 325.481C226.046 327.717 197.361 322.129 191.028 320.08C184.695 318.031 152.844 305.179 152.844 305.179L163.647 286.366Z" fill="white" stroke="#263238" stroke-linecap="round" stroke-linejoin="round"/>
<path d="M196.894 320.042C195.69 319.861 194.461 320.097 193.411 320.713C202.631 323.088 226.594 327.465 231.818 325.444C237.593 323.209 235.916 305.7 229.77 302.533C223.623 299.367 208.908 304.582 204.214 303.651C199.52 302.72 194.379 304.769 194.379 304.769C194.752 306.724 199.502 305.048 199.036 306.538C198.57 308.028 193.727 306.166 192.703 312.685C191.678 319.204 200.247 320.322 196.894 320.042Z" fill="#263238" stroke="#263238" stroke-linecap="round" stroke-linejoin="round"/>
<path d="M226.148 301.593C228.449 305.048 234.325 315.479 229.473 325.882C230.272 325.846 231.062 325.699 231.82 325.444C237.594 323.209 235.918 305.7 229.771 302.534C228.634 301.994 227.405 301.674 226.148 301.593Z" fill="white" stroke="#263238" stroke-linecap="round" stroke-linejoin="round"/>
<path d="M98.016 258.137C101.592 252.764 108.447 249.057 123.842 258.137C141.779 268.726 170.529 287.697 171.274 290.426C171.274 290.426 160.852 298.37 158.617 308.559C158.617 308.559 153.216 309.053 142.878 305.076C132.54 301.099 82.3512 281.709 98.016 258.137Z" fill="#858585" stroke="#263238" stroke-linecap="round" stroke-linejoin="round"/>
<path opacity="0.3" d="M142.878 305.076C153.216 309.053 158.618 308.559 158.618 308.559C159.333 305.54 160.596 302.677 162.343 300.112C153.421 309.807 130.464 295.213 111.837 283.348C93.2108 271.483 97.9978 258.128 97.9978 258.128C82.3516 281.709 132.541 301.109 142.878 305.076Z" fill="black"/>
<path d="M215.821 196.959C216.967 191.085 218.786 185.364 221.241 179.906C222.27 177.607 223.417 175.362 224.678 173.182C229.497 176.559 232.85 181.644 234.056 187.403C235.686 195.72 234.317 209.476 235.071 215.641C235.155 216.297 234.998 216.961 234.63 217.511C234.262 218.06 233.708 218.458 233.069 218.631C230.275 219.376 225.153 220.195 217.628 219.171C216.776 219.054 215.99 218.646 215.404 218.017C214.819 217.387 214.469 216.574 214.415 215.716C214.299 213.417 214.299 211.113 214.415 208.814" fill="#33A5DF"/>
<path d="M215.821 196.959C216.967 191.085 218.786 185.364 221.241 179.906C222.27 177.607 223.417 175.362 224.678 173.182C229.497 176.559 232.85 181.644 234.056 187.403C235.686 195.72 234.317 209.476 235.071 215.641C235.155 216.297 234.998 216.961 234.63 217.511C234.262 218.06 233.708 218.458 233.069 218.631C230.275 219.376 225.153 220.195 217.628 219.171C216.776 219.054 215.99 218.646 215.404 218.017C214.819 217.387 214.469 216.574 214.415 215.716C214.299 213.417 214.299 211.113 214.415 208.814" stroke="#263238" stroke-linecap="round" stroke-linejoin="round"/>
<g filter="url(#filter0_d_7_6125)">
<rect x="250" y="54" width="80" height="80" rx="20" fill="white"/>
</g>
<path d="M281.668 80.9786C280.814 80.9786 280.105 80.2703 280.105 79.4161V73.1661C280.105 72.312 280.814 71.6036 281.668 71.6036C282.522 71.6036 283.23 72.312 283.23 73.1661V79.4161C283.23 80.2703 282.522 80.9786 281.668 80.9786Z" fill="#32A5DF"/>
<path d="M298.332 80.9786C297.478 80.9786 296.77 80.2703 296.77 79.4161V73.1661C296.77 72.312 297.478 71.6036 298.332 71.6036C299.186 71.6036 299.895 72.312 299.895 73.1661V79.4161C299.895 80.2703 299.186 80.9786 298.332 80.9786Z" fill="#32A5DF"/>
<path d="M282.708 99.2092C282.438 99.2092 282.167 99.1467 281.917 99.0425C281.646 98.9383 281.438 98.7925 281.229 98.605C280.854 98.2092 280.625 97.6883 280.625 97.1258C280.625 96.855 280.687 96.5842 280.792 96.3342C280.896 96.0842 281.042 95.855 281.229 95.6467C281.438 95.4592 281.646 95.3133 281.917 95.2092C282.667 94.8967 283.604 95.0633 284.188 95.6467C284.563 96.0425 284.792 96.5842 284.792 97.1258C284.792 97.2508 284.771 97.3967 284.75 97.5425C284.729 97.6675 284.688 97.7925 284.625 97.9175C284.583 98.0425 284.521 98.1675 284.438 98.2925C284.375 98.3967 284.271 98.5008 284.188 98.605C283.792 98.98 283.25 99.2092 282.708 99.2092Z" fill="#32A5DF"/>
<path d="M290.001 99.2077C289.73 99.2077 289.46 99.1452 289.21 99.041C288.939 98.9368 288.73 98.791 288.522 98.6035C288.147 98.2077 287.918 97.6868 287.918 97.1244C287.918 96.8535 287.98 96.5827 288.085 96.3327C288.189 96.0827 288.335 95.8535 288.522 95.6452C288.73 95.4577 288.939 95.3119 289.21 95.2077C289.96 94.8744 290.897 95.0619 291.48 95.6452C291.855 96.041 292.085 96.5827 292.085 97.1244C292.085 97.2493 292.064 97.3952 292.043 97.541C292.022 97.666 291.98 97.791 291.918 97.916C291.876 98.041 291.814 98.166 291.73 98.291C291.668 98.3952 291.564 98.4993 291.48 98.6035C291.085 98.9785 290.543 99.2077 290.001 99.2077Z" fill="#32A5DF"/>
<path d="M297.29 99.2077C297.02 99.2077 296.749 99.1452 296.499 99.041C296.228 98.9368 296.02 98.791 295.811 98.6035C295.728 98.4993 295.645 98.3952 295.561 98.291C295.478 98.166 295.415 98.041 295.374 97.916C295.311 97.791 295.27 97.666 295.249 97.541C295.228 97.3952 295.207 97.2493 295.207 97.1244C295.207 96.5827 295.436 96.041 295.811 95.6452C296.02 95.4577 296.228 95.3119 296.499 95.2077C297.27 94.8744 298.186 95.0619 298.77 95.6452C299.145 96.041 299.374 96.5827 299.374 97.1244C299.374 97.2493 299.353 97.3952 299.332 97.541C299.311 97.666 299.27 97.791 299.207 97.916C299.165 98.041 299.103 98.166 299.02 98.291C298.957 98.3952 298.853 98.4993 298.77 98.6035C298.374 98.9785 297.832 99.2077 297.29 99.2077Z" fill="#32A5DF"/>
<path d="M282.708 106.499C282.438 106.499 282.167 106.437 281.917 106.333C281.667 106.229 281.438 106.083 281.229 105.895C280.854 105.499 280.625 104.958 280.625 104.416C280.625 104.145 280.687 103.874 280.792 103.624C280.896 103.353 281.042 103.124 281.229 102.937C282 102.166 283.417 102.166 284.188 102.937C284.563 103.333 284.792 103.874 284.792 104.416C284.792 104.958 284.563 105.499 284.188 105.895C283.792 106.27 283.25 106.499 282.708 106.499Z" fill="#32A5DF"/>
<path d="M290.001 106.499C289.46 106.499 288.918 106.27 288.522 105.895C288.147 105.499 287.918 104.958 287.918 104.416C287.918 104.145 287.98 103.874 288.085 103.624C288.189 103.353 288.335 103.124 288.522 102.937C289.293 102.166 290.71 102.166 291.48 102.937C291.668 103.124 291.814 103.353 291.918 103.624C292.022 103.874 292.085 104.145 292.085 104.416C292.085 104.958 291.855 105.499 291.48 105.895C291.085 106.27 290.543 106.499 290.001 106.499Z" fill="#32A5DF"/>
<path d="M297.29 106.5C296.749 106.5 296.207 106.271 295.811 105.896C295.624 105.708 295.478 105.479 295.374 105.208C295.27 104.959 295.207 104.688 295.207 104.417C295.207 104.146 295.27 103.875 295.374 103.625C295.478 103.354 295.624 103.125 295.811 102.938C296.29 102.459 297.02 102.229 297.686 102.375C297.832 102.396 297.957 102.438 298.082 102.5C298.207 102.542 298.332 102.604 298.457 102.688C298.561 102.75 298.665 102.854 298.77 102.938C299.145 103.334 299.374 103.875 299.374 104.417C299.374 104.959 299.145 105.5 298.77 105.896C298.374 106.271 297.832 106.5 297.29 106.5Z" fill="#32A5DF"/>
<path d="M307.71 89.4991H272.293C271.439 89.4991 270.73 88.7908 270.73 87.9366C270.73 87.0825 271.439 86.3741 272.293 86.3741H307.71C308.564 86.3741 309.272 87.0825 309.272 87.9366C309.272 88.7908 308.564 89.4991 307.71 89.4991Z" fill="#32A5DF"/>
<path d="M298.333 116.395H281.667C274.062 116.395 269.688 112.02 269.688 104.416V86.7078C269.688 79.1036 274.062 74.7286 281.667 74.7286H298.333C305.938 74.7286 310.312 79.1036 310.312 86.7078V104.416C310.312 112.02 305.938 116.395 298.333 116.395ZM281.667 77.8536C275.708 77.8536 272.812 80.7495 272.812 86.7078V104.416C272.812 110.374 275.708 113.27 281.667 113.27H298.333C304.292 113.27 307.188 110.374 307.188 104.416V86.7078C307.188 80.7495 304.292 77.8536 298.333 77.8536H281.667Z" fill="#32A5DF"/>
<g filter="url(#filter1_d_7_6125)">
<rect x="137" y="24" width="40" height="40" rx="10" fill="white"/>
</g>
<path d="M157 54.75C151.07 54.75 146.25 49.93 146.25 44C146.25 38.07 151.07 33.25 157 33.25C162.93 33.25 167.75 38.07 167.75 44C167.75 49.93 162.93 54.75 157 54.75ZM157 34.75C151.9 34.75 147.75 38.9 147.75 44C147.75 49.1 151.9 53.25 157 53.25C162.1 53.25 166.25 49.1 166.25 44C166.25 38.9 162.1 34.75 157 34.75Z" fill="#7367F0"/>
<path d="M160.711 47.93C160.581 47.93 160.451 47.9 160.331 47.82L157.231 45.97C156.461 45.51 155.891 44.5 155.891 43.61V39.51C155.891 39.1 156.231 38.76 156.641 38.76C157.051 38.76 157.391 39.1 157.391 39.51V43.61C157.391 43.97 157.691 44.5 158.001 44.68L161.101 46.53C161.461 46.74 161.571 47.2 161.361 47.56C161.211 47.8 160.961 47.93 160.711 47.93Z" fill="#7367F0"/>
<g filter="url(#filter2_d_7_6125)">
<rect x="30" y="109" width="70" height="70" rx="20" fill="white"/>
</g>
<path d="M66.4654 158.767H56.3487C50.432 158.767 48.332 154.617 48.332 150.75V137.25C48.332 131.484 50.582 129.234 56.3487 129.234H66.4654C72.232 129.234 74.482 131.484 74.482 137.25V150.75C74.482 156.517 72.232 158.767 66.4654 158.767ZM56.3487 131.767C51.9987 131.767 50.8654 132.9 50.8654 137.25V150.75C50.8654 152.8 51.582 156.233 56.3487 156.233H66.4654C70.8154 156.233 71.9487 155.1 71.9487 150.75V137.25C71.9487 132.9 70.8154 131.767 66.4654 131.767H56.3487Z" fill="#FF8038"/>
<path d="M80.9987 154.37C80.282 154.37 79.3654 154.136 78.3154 153.403L73.8654 150.286C73.532 150.053 73.332 149.67 73.332 149.253V139.12C73.332 138.703 73.532 138.32 73.8654 138.086L78.3154 134.97C80.2987 133.586 81.7487 133.986 82.432 134.336C83.1154 134.703 84.282 135.653 84.282 138.07V150.286C84.282 152.703 83.1154 153.67 82.432 154.02C82.1154 154.203 81.6154 154.37 80.9987 154.37ZM75.8487 148.586L79.7654 151.32C80.5154 151.836 81.0487 151.886 81.2654 151.77C81.4987 151.653 81.7487 151.186 81.7487 150.286V138.086C81.7487 137.17 81.482 136.72 81.2654 136.603C81.0487 136.486 80.5154 136.536 79.7654 137.053L75.8487 139.786V148.586Z" fill="#FF8038"/>
<path d="M64.168 143.583C62.1013 143.583 60.418 141.9 60.418 139.833C60.418 137.767 62.1013 136.083 64.168 136.083C66.2346 136.083 67.918 137.767 67.918 139.833C67.918 141.9 66.2346 143.583 64.168 143.583ZM64.168 138.583C63.4846 138.583 62.918 139.15 62.918 139.833C62.918 140.517 63.4846 141.083 64.168 141.083C64.8513 141.083 65.418 140.517 65.418 139.833C65.418 139.15 64.8513 138.583 64.168 138.583Z" fill="#FF8038"/>
<path d="M77.7991 374.9H80.8591V389H77.7991V383.08H71.2991V389H68.2391V374.9H71.2991V380.6H77.7991V374.9ZM83.2288 389V379.18H86.2488V389H83.2288ZM91.6608 386.74H96.8208V389H88.1208V386.9L93.0008 381.44H88.1808V379.18H96.6208V381.2L91.6608 386.74ZM98.4342 389V374.9H101.454V389H98.4342ZM103.566 389V379.18H106.586V389H103.566ZM113.378 389.16C111.778 389.16 110.518 388.707 109.598 387.8C108.678 386.893 108.218 385.66 108.218 384.1C108.218 383.073 108.438 382.173 108.878 381.4C109.318 380.613 109.938 380.007 110.738 379.58C111.538 379.153 112.465 378.94 113.518 378.94C114.238 378.94 114.932 379.053 115.598 379.28C116.265 379.493 116.805 379.787 117.218 380.16L116.418 382.22C116.032 381.913 115.605 381.68 115.138 381.52C114.685 381.347 114.238 381.26 113.798 381.26C113.012 381.26 112.398 381.493 111.958 381.96C111.532 382.427 111.318 383.12 111.318 384.04C111.318 384.96 111.532 385.66 111.958 386.14C112.398 386.607 113.012 386.84 113.798 386.84C114.238 386.84 114.685 386.76 115.138 386.6C115.605 386.427 116.032 386.187 116.418 385.88L117.218 387.96C116.778 388.333 116.218 388.627 115.538 388.84C114.858 389.053 114.138 389.16 113.378 389.16ZM122.741 378.94C124.208 378.94 125.288 379.287 125.981 379.98C126.688 380.673 127.041 381.747 127.041 383.2V389H124.181V387.54C123.981 388.047 123.648 388.447 123.181 388.74C122.714 389.02 122.168 389.16 121.541 389.16C120.874 389.16 120.268 389.027 119.721 388.76C119.188 388.493 118.761 388.12 118.441 387.64C118.134 387.16 117.981 386.627 117.981 386.04C117.981 385.32 118.161 384.753 118.521 384.34C118.894 383.927 119.488 383.627 120.301 383.44C121.114 383.253 122.228 383.16 123.641 383.16H124.161V382.8C124.161 382.213 124.034 381.8 123.781 381.56C123.528 381.32 123.088 381.2 122.461 381.2C121.981 381.2 121.448 381.287 120.861 381.46C120.274 381.633 119.714 381.873 119.181 382.18L118.381 380.16C118.941 379.813 119.628 379.527 120.441 379.3C121.268 379.06 122.034 378.94 122.741 378.94ZM122.201 387.08C122.788 387.08 123.261 386.887 123.621 386.5C123.981 386.1 124.161 385.587 124.161 384.96V384.62H123.821C122.741 384.62 121.981 384.707 121.541 384.88C121.114 385.053 120.901 385.367 120.901 385.82C120.901 386.18 121.021 386.48 121.261 386.72C121.514 386.96 121.828 387.08 122.201 387.08ZM141.505 381.42L139.805 381.6C138.965 381.68 138.372 381.92 138.025 382.32C137.678 382.707 137.505 383.227 137.505 383.88V389H134.485V379.18H137.385V380.84C137.878 379.707 138.898 379.087 140.445 378.98L141.325 378.92L141.505 381.42ZM146.672 378.94C148.139 378.94 149.219 379.287 149.912 379.98C150.619 380.673 150.972 381.747 150.972 383.2V389H148.112V387.54C147.912 388.047 147.579 388.447 147.112 388.74C146.646 389.02 146.099 389.16 145.472 389.16C144.806 389.16 144.199 389.027 143.652 388.76C143.119 388.493 142.692 388.12 142.372 387.64C142.066 387.16 141.912 386.627 141.912 386.04C141.912 385.32 142.092 384.753 142.452 384.34C142.826 383.927 143.419 383.627 144.232 383.44C145.046 383.253 146.159 383.16 147.572 383.16H148.092V382.8C148.092 382.213 147.966 381.8 147.712 381.56C147.459 381.32 147.019 381.2 146.392 381.2C145.912 381.2 145.379 381.287 144.792 381.46C144.206 381.633 143.646 381.873 143.112 382.18L142.312 380.16C142.872 379.813 143.559 379.527 144.372 379.3C145.199 379.06 145.966 378.94 146.672 378.94ZM146.132 387.08C146.719 387.08 147.192 386.887 147.552 386.5C147.912 386.1 148.092 385.587 148.092 384.96V384.62H147.752C146.672 384.62 145.912 384.707 145.472 384.88C145.046 385.053 144.832 385.367 144.832 385.82C144.832 386.18 144.952 386.48 145.192 386.72C145.446 386.96 145.759 387.08 146.132 387.08ZM159.19 378.94C160.364 378.94 161.237 379.287 161.81 379.98C162.384 380.66 162.67 381.693 162.67 383.08V389H159.65V383.22C159.65 382.553 159.524 382.067 159.27 381.76C159.03 381.453 158.65 381.3 158.13 381.3C157.504 381.3 156.997 381.5 156.61 381.9C156.237 382.3 156.05 382.833 156.05 383.5V389H153.03V379.18H155.97V380.58C156.317 380.047 156.764 379.64 157.31 379.36C157.87 379.08 158.497 378.94 159.19 378.94ZM174.665 374.9V389H171.665V387.54C171.372 388.047 170.952 388.447 170.405 388.74C169.872 389.02 169.265 389.16 168.585 389.16C167.745 389.16 166.992 388.947 166.325 388.52C165.672 388.08 165.158 387.473 164.785 386.7C164.425 385.913 164.245 385.013 164.245 384C164.245 382.987 164.425 382.1 164.785 381.34C165.158 380.567 165.672 379.973 166.325 379.56C166.978 379.147 167.732 378.94 168.585 378.94C169.252 378.94 169.852 379.08 170.385 379.36C170.932 379.64 171.352 380.033 171.645 380.54V374.9H174.665ZM169.465 386.86C170.172 386.86 170.712 386.62 171.085 386.14C171.472 385.647 171.665 384.947 171.665 384.04C171.665 383.133 171.472 382.44 171.085 381.96C170.712 381.48 170.172 381.24 169.465 381.24C168.758 381.24 168.212 381.48 167.825 381.96C167.438 382.427 167.245 383.107 167.245 384C167.245 384.907 167.438 385.613 167.825 386.12C168.212 386.613 168.758 386.86 169.465 386.86ZM185.63 384.66H179.23C179.324 385.447 179.577 386.02 179.99 386.38C180.417 386.727 181.017 386.9 181.79 386.9C182.297 386.9 182.797 386.82 183.29 386.66C183.797 386.487 184.257 386.247 184.67 385.94L185.47 387.96C184.99 388.333 184.404 388.627 183.71 388.84C183.03 389.053 182.344 389.16 181.65 389.16C179.997 389.16 178.69 388.707 177.73 387.8C176.784 386.88 176.31 385.633 176.31 384.06C176.31 383.06 176.517 382.173 176.93 381.4C177.344 380.627 177.917 380.027 178.65 379.6C179.384 379.16 180.217 378.94 181.15 378.94C182.524 378.94 183.61 379.387 184.41 380.28C185.224 381.173 185.63 382.387 185.63 383.92V384.66ZM181.23 381.02C180.657 381.02 180.197 381.207 179.85 381.58C179.517 381.94 179.31 382.467 179.23 383.16H183.09C183.05 382.453 182.87 381.92 182.55 381.56C182.244 381.2 181.804 381.02 181.23 381.02ZM193.859 379.2H196.819L192.499 389H189.939L185.679 379.2H188.819L191.299 385.44L193.859 379.2ZM207.003 379.18V389H204.063V387.6C203.756 388.107 203.349 388.493 202.843 388.76C202.349 389.027 201.789 389.16 201.163 389.16C199.923 389.16 198.996 388.82 198.383 388.14C197.783 387.447 197.483 386.407 197.483 385.02V379.18H200.503V385.08C200.503 385.667 200.623 386.1 200.863 386.38C201.116 386.66 201.496 386.8 202.003 386.8C202.589 386.8 203.063 386.6 203.423 386.2C203.796 385.8 203.983 385.273 203.983 384.62V379.18H207.003ZM218.866 378.94C220.333 378.94 221.413 379.287 222.106 379.98C222.813 380.673 223.166 381.747 223.166 383.2V389H220.306V387.54C220.106 388.047 219.773 388.447 219.306 388.74C218.839 389.02 218.293 389.16 217.666 389.16C216.999 389.16 216.393 389.027 215.846 388.76C215.313 388.493 214.886 388.12 214.566 387.64C214.259 387.16 214.106 386.627 214.106 386.04C214.106 385.32 214.286 384.753 214.646 384.34C215.019 383.927 215.613 383.627 216.426 383.44C217.239 383.253 218.353 383.16 219.766 383.16H220.286V382.8C220.286 382.213 220.159 381.8 219.906 381.56C219.653 381.32 219.213 381.2 218.586 381.2C218.106 381.2 217.573 381.287 216.986 381.46C216.399 381.633 215.839 381.873 215.306 382.18L214.506 380.16C215.066 379.813 215.753 379.527 216.566 379.3C217.393 379.06 218.159 378.94 218.866 378.94ZM218.326 387.08C218.913 387.08 219.386 386.887 219.746 386.5C220.106 386.1 220.286 385.587 220.286 384.96V384.62H219.946C218.866 384.62 218.106 384.707 217.666 384.88C217.239 385.053 217.026 385.367 217.026 385.82C217.026 386.18 217.146 386.48 217.386 386.72C217.639 386.96 217.953 387.08 218.326 387.08ZM225.224 389V374.9H228.244V389H225.224ZM230.356 389V379.18H233.376V389H230.356ZM241.648 378.94C242.821 378.94 243.695 379.287 244.268 379.98C244.841 380.66 245.128 381.693 245.128 383.08V389H242.108V383.22C242.108 382.553 241.981 382.067 241.728 381.76C241.488 381.453 241.108 381.3 240.588 381.3C239.961 381.3 239.455 381.5 239.068 381.9C238.695 382.3 238.508 382.833 238.508 383.5V389H235.488V379.18H238.428V380.58C238.775 380.047 239.221 379.64 239.768 379.36C240.328 379.08 240.955 378.94 241.648 378.94ZM259.369 379.2H262.329L258.009 389H255.449L251.189 379.2H254.329L256.809 385.44L259.369 379.2ZM271.697 384.66H265.297C265.39 385.447 265.644 386.02 266.057 386.38C266.484 386.727 267.084 386.9 267.857 386.9C268.364 386.9 268.864 386.82 269.357 386.66C269.864 386.487 270.324 386.247 270.737 385.94L271.537 387.96C271.057 388.333 270.47 388.627 269.777 388.84C269.097 389.053 268.41 389.16 267.717 389.16C266.064 389.16 264.757 388.707 263.797 387.8C262.85 386.88 262.377 385.633 262.377 384.06C262.377 383.06 262.584 382.173 262.997 381.4C263.41 380.627 263.984 380.027 264.717 379.6C265.45 379.16 266.284 378.94 267.217 378.94C268.59 378.94 269.677 379.387 270.477 380.28C271.29 381.173 271.697 382.387 271.697 383.92V384.66ZM267.297 381.02C266.724 381.02 266.264 381.207 265.917 381.58C265.584 381.94 265.377 382.467 265.297 383.16H269.157C269.117 382.453 268.937 381.92 268.617 381.56C268.31 381.2 267.87 381.02 267.297 381.02ZM131.354 400.9V415H128.354V413.54C128.06 414.047 127.64 414.447 127.094 414.74C126.56 415.02 125.954 415.16 125.274 415.16C124.434 415.16 123.68 414.947 123.014 414.52C122.36 414.08 121.847 413.473 121.474 412.7C121.114 411.913 120.934 411.013 120.934 410C120.934 408.987 121.114 408.1 121.474 407.34C121.847 406.567 122.36 405.973 123.014 405.56C123.667 405.147 124.42 404.94 125.274 404.94C125.94 404.94 126.54 405.08 127.074 405.36C127.62 405.64 128.04 406.033 128.334 406.54V400.9H131.354ZM126.154 412.86C126.86 412.86 127.4 412.62 127.774 412.14C128.16 411.647 128.354 410.947 128.354 410.04C128.354 409.133 128.16 408.44 127.774 407.96C127.4 407.48 126.86 407.24 126.154 407.24C125.447 407.24 124.9 407.48 124.514 407.96C124.127 408.427 123.934 409.107 123.934 410C123.934 410.907 124.127 411.613 124.514 412.12C124.9 412.613 125.447 412.86 126.154 412.86ZM142.939 405.18V415H139.999V413.6C139.692 414.107 139.286 414.493 138.779 414.76C138.286 415.027 137.726 415.16 137.099 415.16C135.859 415.16 134.932 414.82 134.319 414.14C133.719 413.447 133.419 412.407 133.419 411.02V405.18H136.439V411.08C136.439 411.667 136.559 412.1 136.799 412.38C137.052 412.66 137.432 412.8 137.939 412.8C138.526 412.8 138.999 412.6 139.359 412.2C139.732 411.8 139.919 411.273 139.919 410.62V405.18H142.939ZM134.899 400.56H137.679V403.2H134.899V400.56ZM138.719 400.56H141.499V403.2H138.719V400.56ZM148.356 412.74H153.516V415H144.816V412.9L149.696 407.44H144.876V405.18H153.316V407.2L148.356 412.74ZM163.677 410.66H157.277C157.37 411.447 157.624 412.02 158.037 412.38C158.464 412.727 159.064 412.9 159.837 412.9C160.344 412.9 160.844 412.82 161.337 412.66C161.844 412.487 162.304 412.247 162.717 411.94L163.517 413.96C163.037 414.333 162.45 414.627 161.757 414.84C161.077 415.053 160.39 415.16 159.697 415.16C158.044 415.16 156.737 414.707 155.777 413.8C154.83 412.88 154.357 411.633 154.357 410.06C154.357 409.06 154.564 408.173 154.977 407.4C155.39 406.627 155.964 406.027 156.697 405.6C157.43 405.16 158.264 404.94 159.197 404.94C160.57 404.94 161.657 405.387 162.457 406.28C163.27 407.173 163.677 408.387 163.677 409.92V410.66ZM159.277 407.02C158.704 407.02 158.244 407.207 157.897 407.58C157.564 407.94 157.357 408.467 157.277 409.16H161.137C161.097 408.453 160.917 407.92 160.597 407.56C160.29 407.2 159.85 407.02 159.277 407.02ZM171.461 404.94C172.634 404.94 173.508 405.287 174.081 405.98C174.654 406.66 174.941 407.693 174.941 409.08V415H171.921V409.22C171.921 408.553 171.794 408.067 171.541 407.76C171.301 407.453 170.921 407.3 170.401 407.3C169.774 407.3 169.268 407.5 168.881 407.9C168.508 408.3 168.321 408.833 168.321 409.5V415H165.301V405.18H168.241V406.58C168.588 406.047 169.034 405.64 169.581 405.36C170.141 405.08 170.768 404.94 171.461 404.94ZM176.996 415V400.9H180.016V415H176.996ZM190.968 410.66H184.568C184.661 411.447 184.914 412.02 185.328 412.38C185.754 412.727 186.354 412.9 187.128 412.9C187.634 412.9 188.134 412.82 188.628 412.66C189.134 412.487 189.594 412.247 190.008 411.94L190.808 413.96C190.328 414.333 189.741 414.627 189.048 414.84C188.368 415.053 187.681 415.16 186.988 415.16C185.334 415.16 184.028 414.707 183.068 413.8C182.121 412.88 181.648 411.633 181.648 410.06C181.648 409.06 181.854 408.173 182.268 407.4C182.681 406.627 183.254 406.027 183.988 405.6C184.721 405.16 185.554 404.94 186.488 404.94C187.861 404.94 188.948 405.387 189.748 406.28C190.561 407.173 190.968 408.387 190.968 409.92V410.66ZM186.568 407.02C185.994 407.02 185.534 407.207 185.188 407.58C184.854 407.94 184.648 408.467 184.568 409.16H188.428C188.388 408.453 188.208 407.92 187.888 407.56C187.581 407.2 187.141 407.02 186.568 407.02ZM199.196 405.2H202.156L196.236 418.6H193.176L195.056 414.46L191.016 405.2H194.156L196.636 411.44L199.196 405.2ZM202.88 415V405.18H205.9V415H202.88ZM202.78 400.46H206.02V403.28H202.78V400.46ZM214.172 404.94C215.345 404.94 216.219 405.287 216.792 405.98C217.365 406.66 217.652 407.693 217.652 409.08V415H214.632V409.22C214.632 408.553 214.505 408.067 214.252 407.76C214.012 407.453 213.632 407.3 213.112 407.3C212.485 407.3 211.979 407.5 211.592 407.9C211.219 408.3 211.032 408.833 211.032 409.5V415H208.012V405.18H210.952V406.58C211.299 406.047 211.745 405.64 212.292 405.36C212.852 405.08 213.479 404.94 214.172 404.94Z" fill="#3C4E69"/>
<rect x="155" y="464" width="10" height="4" rx="2" fill="#3C4E69"/>
<rect x="170" y="464" width="4" height="4" rx="2" fill="#A4ABB6"/>
<rect x="179" y="464" width="4" height="4" rx="2" fill="#A4ABB6"/>
<defs>
<filter id="filter0_d_7_6125" x="220" y="30" width="140" height="140" filterUnits="userSpaceOnUse" color-interpolation-filters="sRGB">
<feFlood flood-opacity="0" result="BackgroundImageFix"/>
<feColorMatrix in="SourceAlpha" type="matrix" values="0 0 0 0 0 0 0 0 0 0 0 0 0 0 0 0 0 0 127 0" result="hardAlpha"/>
<feOffset dy="6"/>
<feGaussianBlur stdDeviation="15"/>
<feComposite in2="hardAlpha" operator="out"/>
<feColorMatrix type="matrix" values="0 0 0 0 0.2 0 0 0 0 0.647059 0 0 0 0 0.87451 0 0 0 0.22 0"/>
<feBlend mode="normal" in2="BackgroundImageFix" result="effect1_dropShadow_7_6125"/>
<feBlend mode="normal" in="SourceGraphic" in2="effect1_dropShadow_7_6125" result="shape"/>
</filter>
<filter id="filter1_d_7_6125" x="107" y="0" width="100" height="100" filterUnits="userSpaceOnUse" color-interpolation-filters="sRGB">
<feFlood flood-opacity="0" result="BackgroundImageFix"/>
<feColorMatrix in="SourceAlpha" type="matrix" values="0 0 0 0 0 0 0 0 0 0 0 0 0 0 0 0 0 0 127 0" result="hardAlpha"/>
<feOffset dy="6"/>
<feGaussianBlur stdDeviation="15"/>
<feComposite in2="hardAlpha" operator="out"/>
<feColorMatrix type="matrix" values="0 0 0 0 0.2 0 0 0 0 0.647059 0 0 0 0 0.87451 0 0 0 0.22 0"/>
<feBlend mode="normal" in2="BackgroundImageFix" result="effect1_dropShadow_7_6125"/>
<feBlend mode="normal" in="SourceGraphic" in2="effect1_dropShadow_7_6125" result="shape"/>
</filter>
<filter id="filter2_d_7_6125" x="0" y="85" width="130" height="130" filterUnits="userSpaceOnUse" color-interpolation-filters="sRGB">
<feFlood flood-opacity="0" result="BackgroundImageFix"/>
<feColorMatrix in="SourceAlpha" type="matrix" values="0 0 0 0 0 0 0 0 0 0 0 0 0 0 0 0 0 0 127 0" result="hardAlpha"/>
<feOffset dy="6"/>
<feGaussianBlur stdDeviation="15"/>
<feComposite in2="hardAlpha" operator="out"/>
<feColorMatrix type="matrix" values="0 0 0 0 0.2 0 0 0 0 0.647059 0 0 0 0 0.87451 0 0 0 0.22 0"/>
<feBlend mode="normal" in2="BackgroundImageFix" result="effect1_dropShadow_7_6125"/>
<feBlend mode="normal" in="SourceGraphic" in2="effect1_dropShadow_7_6125" result="shape"/>
</filter>
<radialGradient id="paint0_radial_7_6125" cx="0" cy="0" r="1" gradientUnits="userSpaceOnUse" gradientTransform="translate(174 318.5) rotate(90) scale(19.5 112)">
<stop stop-color="#7CC6EA"/>
<stop offset="1" stop-color="#7CC6EA" stop-opacity="0"/>
</radialGradient>
</defs>
</svg>
