<svg width="201" height="70" viewBox="0 0 201 70" fill="none" xmlns="http://www.w3.org/2000/svg">
<path d="M199.277 0.0349434C199.17 0.0113973 199.048 0 198.927 0H188.675C188.555 0 188.444 0.0113973 188.326 0.0349434C187.542 0.201285 186.941 0.900833 186.941 1.74318V2.17536V11.6174V12.0495C186.941 12.8866 187.542 13.5899 188.326 13.7547C188.444 13.7783 188.555 13.792 188.675 13.792H198.927C199.048 13.792 199.17 13.7783 199.277 13.7547C200.069 13.5899 200.667 12.8858 200.667 12.0495V11.6174V2.17536V1.74318C200.666 0.901593 200.068 0.201285 199.277 0.0349434Z" fill="#00528F"/>
<path d="M195.645 5.74617H191.966V2.34033H189.727V11.4534H191.966V7.71037H195.645V11.4534H197.878V2.34033H195.645V5.74617Z" fill="white"/>
<path d="M16.9698 7.73511L26.5451 33.4657H20.6981L18.7625 27.7349H9.18642L7.17969 33.4657H1.51953L11.1962 7.73511H16.9698ZM17.292 23.5201L14.0614 14.0766H13.9934L10.6644 23.5201H17.292Z" fill="white"/>
<path d="M47.8813 33.4657L37.1971 19.373C36.272 18.1258 35.4574 16.9561 34.5671 15.8183H34.4937C34.6042 16.751 34.6042 18.3544 34.6042 19.6024V33.4649H29.3086V7.73511H34.6042L44.864 21.2863C45.8685 22.576 46.6801 23.7055 47.4562 24.8395H47.5341C47.4562 23.4753 47.4562 21.7557 47.4562 20.5419V7.73587H52.7563V33.4665H47.8813V33.4657Z" fill="white"/>
<path d="M71.2431 7.73511L80.8161 33.4657H74.9692L73.0328 27.7349H63.4643L61.45 33.4657H55.7891L65.468 7.73511H71.2431ZM71.5623 23.5201L68.3408 14.0766H68.2697L64.9302 23.5201H71.5623Z" fill="white"/>
<path d="M83.5789 7.73511H92.2654C101.329 7.73511 106.496 12.6927 106.496 20.39C106.496 28.3577 100.591 33.4657 91.7556 33.4657H83.5781V7.73511H83.5789ZM91.8736 28.9403C98.2463 28.9403 100.784 25.0726 100.784 20.5412C100.784 15.3504 97.7009 12.2628 91.7556 12.2628H88.9357V28.9403H91.8736Z" fill="white"/>
<path d="M110.441 20.5196C110.441 12.6902 115.849 7.27686 123.587 7.27686C131.33 7.27686 136.731 12.7251 136.731 20.5196C136.731 28.4403 131.295 33.7655 123.587 33.7655C115.85 33.7662 110.441 28.3977 110.441 20.5196ZM131.019 20.5196C131.019 14.9248 128.043 11.7886 123.588 11.7886C119.169 11.7886 116.158 14.8822 116.158 20.5196C116.158 26.2003 119.169 29.3039 123.588 29.3039C128.007 29.3046 131.019 26.2011 131.019 20.5196Z" fill="white"/>
<path d="M140.957 7.73511H146.313V28.9403H155.31V33.4657H140.957V7.73511Z" fill="white"/>
<path d="M159.147 29.0701C158.402 27.6695 158.012 25.8739 158.012 23.7684V7.79126H163.365V23.457C163.365 24.7794 163.645 25.9529 164.111 26.8446C165.009 28.524 166.727 29.418 169.121 29.418C171.464 29.418 173.184 28.524 174.087 26.8446C174.594 25.9529 174.831 24.7794 174.831 23.4206V7.79126H180.186V23.7677C180.186 25.8732 179.792 27.6695 179.057 29.0694C177.375 32.343 173.848 33.8614 169.085 33.8614C164.308 33.8621 160.828 32.3438 159.147 29.0701Z" fill="white"/>
<path d="M200.674 40.1428H1.28906V41.421H200.674V40.1428Z" fill="white"/>
<path d="M2.35483 49.0556C2.32457 48.5034 2.32458 48.3234 1.65667 48.2033C1.39647 48.1555 1.32234 48.0719 1.32234 47.9892C1.32234 47.8919 1.45849 47.8418 1.61961 47.8418C1.93427 47.8418 2.53032 47.8836 2.92062 47.8836C3.50305 47.8836 3.77535 47.8418 4.18911 47.8418C4.38199 47.8418 4.49091 47.8919 4.49091 47.9892C4.49091 48.0811 4.3661 48.1555 4.17852 48.1935C3.48792 48.337 3.50229 48.6355 3.45313 48.9561C3.39035 49.3518 3.38656 50.1288 3.38656 52.4773C3.38656 53.1321 3.39034 53.8742 3.41682 54.2539C3.45312 54.8996 3.51515 55.1305 4.28441 55.2846C4.49999 55.3226 4.59529 55.4039 4.59529 55.4905C4.59529 55.5839 4.41905 55.6447 4.27156 55.6447C3.67022 55.6447 2.82531 55.574 2.50233 55.574C2.14304 55.574 2.04017 55.5953 1.59465 55.5953C1.37075 55.5953 1.28906 55.5102 1.28906 55.435C1.28906 55.3431 1.40706 55.2763 1.64457 55.2269C2.23834 55.0932 2.28978 54.9148 2.33441 54.3496C2.37298 53.9311 2.39643 52.6908 2.39643 51.6745C2.39643 50.9309 2.38357 49.4475 2.35483 49.0556Z" fill="white"/>
<path d="M5.30505 51.0762C5.50626 51.0025 5.93362 50.846 6.09625 50.7268C6.21576 50.6554 6.32468 50.5977 6.3799 50.5977C6.44268 50.5977 6.50016 50.7268 6.50016 50.7739C6.50016 50.9797 6.45327 51.2676 6.45327 51.3747C6.45327 51.4301 6.51681 51.4066 6.5274 51.4066C7.00696 51.0853 7.6204 50.7511 8.11886 50.7511C8.70129 50.7511 9.03563 51.0131 9.20582 51.2045C9.46224 51.519 9.61579 52.0613 9.61579 52.6644C9.61579 52.8953 9.63848 54.6719 9.65361 54.8428C9.6763 55.0205 9.79581 55.1762 10.0931 55.2598C10.3208 55.3213 10.3866 55.379 10.3866 55.4664C10.3866 55.5446 10.2254 55.5948 10.0363 55.5948C9.7648 55.5948 9.4872 55.5735 9.15136 55.5735C8.85939 55.5735 8.48875 55.5948 8.33293 55.5948C8.22552 55.5948 8.06138 55.5446 8.06138 55.4542C8.06138 55.3699 8.19602 55.2978 8.33293 55.2514C8.61961 55.1383 8.67785 55.0456 8.70205 54.6461C8.72096 54.2511 8.74063 52.8095 8.74063 52.4608C8.74063 52.0279 8.53035 51.6838 8.38134 51.5722C8.25199 51.481 7.8927 51.3489 7.62115 51.3489C7.09394 51.3489 6.78609 51.5289 6.55917 51.7324C6.52815 51.7643 6.44419 51.9124 6.44419 52.018C6.44419 52.173 6.44419 54.7456 6.45478 54.8922C6.46613 55.0532 6.51832 55.1481 6.89879 55.2583C7.01679 55.297 7.11285 55.3692 7.11285 55.4413C7.11285 55.5203 6.98048 55.5818 6.81483 55.5818C6.66809 55.5818 6.3383 55.572 6.08793 55.572C5.64543 55.572 5.30581 55.6084 5.09704 55.6084C4.91929 55.6084 4.79297 55.5575 4.79297 55.4535C4.79297 55.3692 4.90643 55.3114 5.03955 55.275C5.43288 55.1481 5.50777 55.0312 5.54181 54.6043C5.57357 54.2397 5.59929 53.2029 5.59929 51.9831C5.59929 51.8464 5.57358 51.7324 5.31489 51.5182C5.15756 51.4066 5.08721 51.3489 5.08721 51.3109C5.0857 51.2311 5.21429 51.1073 5.30505 51.0762Z" fill="white"/>
<path d="M17.4083 47.9754C17.5036 48.2959 17.704 48.8367 17.9332 49.458C18.5489 51.205 19.4445 53.574 19.6465 54.0632C20.0368 55.0476 20.2259 55.1395 20.7629 55.2769C20.9535 55.3316 21.0496 55.3924 21.0496 55.4782C21.0496 55.5595 20.9634 55.6332 20.6661 55.6332C20.2728 55.6332 19.6949 55.5747 19.1699 55.5747C18.7887 55.5747 18.6223 55.596 18.3197 55.596C18.0255 55.596 17.9521 55.5132 17.9521 55.4554C17.9521 55.3924 18.0255 55.299 18.2358 55.2602C18.8099 55.1395 18.7607 54.904 18.7153 54.6473C18.6208 54.1634 18.319 53.3712 18.0505 52.6018C18.0414 52.5577 17.9907 52.4864 17.6458 52.4864C16.9923 52.4864 15.9446 52.4993 15.6943 52.535C15.6466 52.535 15.5861 52.5881 15.5649 52.6299C15.251 53.4054 14.9469 54.4285 14.9469 54.7247C14.9469 54.863 14.9923 55.0703 15.5263 55.2374C15.7275 55.299 15.8501 55.3711 15.8501 55.4554C15.8501 55.5739 15.6738 55.6043 15.5158 55.6043C15.3115 55.6043 15.018 55.5739 14.5778 55.5739C14.1376 55.5739 13.5204 55.6324 13.3449 55.6324C13.1255 55.6324 13.0703 55.5838 13.0703 55.5124C13.0703 55.4433 13.1528 55.3316 13.3252 55.2762C13.9243 55.0704 14.0756 55.0324 14.425 54.2523C14.6988 53.6462 16.0536 50.0345 16.5793 48.7402C16.6254 48.6438 16.6451 48.5488 16.6451 48.4881C16.6451 48.4524 16.6451 48.4311 16.673 48.3954C16.7835 48.2503 16.9393 47.9381 17.0316 47.8052C17.114 47.7141 17.1579 47.667 17.2207 47.667C17.2638 47.667 17.3099 47.7141 17.4083 47.9754ZM17.7887 51.8476C17.5921 51.2384 16.9681 49.4474 16.8637 49.2765C16.8304 49.2074 16.8032 49.196 16.7684 49.2765C16.552 49.853 15.9371 51.5301 15.8418 51.8977C15.8266 51.9463 15.8524 51.9835 15.8985 51.9835C16.3773 51.9714 17.3614 51.9835 17.7517 51.9463C17.7608 51.9471 17.8001 51.8878 17.7887 51.8476Z" fill="white"/>
<path d="M23.0776 51.4466C22.9966 51.4466 22.9634 51.5735 22.9634 51.7223C22.9634 51.9137 22.9634 54.2714 23.005 54.5668C23.0466 54.9367 23.1646 55.1289 23.5768 55.252C23.7924 55.3127 23.9005 55.3697 23.9005 55.4662C23.9005 55.5581 23.7357 55.6196 23.5549 55.6196C23.4028 55.6196 22.6782 55.5725 22.4384 55.5725C22.0474 55.5725 21.6359 55.631 21.5504 55.631C21.4037 55.631 21.2773 55.5725 21.2773 55.4882C21.2773 55.4335 21.3916 55.3294 21.5239 55.2968C22.0481 55.1373 22.0572 55.0302 22.095 54.4787C22.0784 54.1104 22.1139 52.2191 22.095 51.6213C22.095 51.5613 22.036 51.5021 21.9649 51.4975L21.5391 51.4808C21.4483 51.4808 21.4037 51.3828 21.4037 51.2674C21.4203 51.2142 21.8038 51.0213 21.9649 50.9157C22.0685 50.845 22.1139 50.8116 22.1139 50.7114C22.1139 50.1159 22.2508 49.5546 22.4475 49.1095C22.679 48.6203 23.1131 48.1182 23.6169 47.8038C23.9005 47.6124 24.4504 47.3382 25.0087 47.3382C25.6032 47.3382 26.0397 47.5288 26.287 47.7962C26.3135 47.8304 26.3619 47.8182 26.3831 47.7962C26.8013 47.3602 27.4919 47.0291 28.1107 47.0291C28.9079 47.0291 29.2052 47.3534 29.3595 47.5653C29.4314 47.6785 29.4518 47.7332 29.4518 47.8395C29.4518 48.1281 29.0032 48.4297 28.8482 48.4297C28.7899 48.4297 28.6341 48.2709 28.3974 48.0567C28.1356 47.7825 27.8255 47.6359 27.4617 47.6253C27.1599 47.6253 26.9413 47.7332 26.7197 47.9876C26.4322 48.3218 26.1213 49.1102 26.1213 50.7584C26.1213 50.7979 26.1213 50.8785 26.2197 50.8785C26.5056 50.8785 26.9118 50.8952 27.3596 50.8952C28.4185 50.9058 28.6069 50.8116 28.8285 50.7379C28.9435 50.7022 29.041 50.6544 29.1417 50.6544C29.2105 50.6544 29.2105 51.0365 29.2105 51.7208C29.2105 54.061 29.2105 54.4575 29.2498 54.8517C29.2786 55.0826 29.4064 55.1479 29.7748 55.258C30.0047 55.3408 30.0236 55.3773 30.0236 55.4646C30.0236 55.5565 29.892 55.593 29.7536 55.593C29.451 55.593 29.1409 55.5565 28.8285 55.5565C28.4299 55.5565 28.0887 55.6021 27.8066 55.6021C27.6803 55.6021 27.591 55.5565 27.591 55.4646C27.591 55.3894 27.6485 55.3408 27.8414 55.274C28.1568 55.1471 28.2809 55.0522 28.2831 54.8509C28.3331 54.1088 28.3489 52.017 28.3489 51.6479C28.3489 51.5704 28.2809 51.4967 28.2287 51.4793C27.8951 51.4284 26.7197 51.4041 26.1864 51.4679C26.1645 51.4679 26.0994 51.5005 26.0994 51.5833C26.0994 51.859 26.1092 54.4051 26.1213 54.5638C26.1213 55.018 26.0903 55.1357 26.8278 55.2953C27.0396 55.3401 27.0835 55.4396 27.0835 55.4867C27.0835 55.5702 26.9314 55.6173 26.79 55.6173C26.6523 55.6173 25.9625 55.5702 25.6509 55.5702C25.2235 55.5702 24.9217 55.6173 24.6388 55.6173C24.5094 55.6173 24.3763 55.5702 24.3763 55.4867C24.3763 55.4001 24.5094 55.3279 24.61 55.3104C25.1342 55.1654 25.2076 55.0294 25.2076 54.4643C25.2076 54.0602 25.2356 52.2563 25.2356 51.5499C25.2356 51.5013 25.1622 51.4436 25.1252 51.4436H23.0776V51.4466ZM25.1252 50.9073C25.1743 50.9073 25.2356 50.8549 25.2356 50.8131C25.2356 49.8903 25.495 49.0859 25.7787 48.5611C25.7885 48.5368 25.7787 48.4646 25.753 48.4312C25.5434 48.1691 25.104 47.8668 24.3862 47.8668C24.0579 47.8668 23.7092 48.0719 23.449 48.4441C23.1873 48.7806 22.9724 49.5455 22.9724 50.76C22.9724 50.8131 23.0042 50.9073 23.0882 50.9073H25.1252Z" fill="white"/>
<path d="M30.8885 47.5137C31.4361 47.3185 31.7962 47.2472 32.1108 47.0383C32.1479 47.0178 32.2175 47.1119 32.2175 47.1651C32.1857 47.4651 32.1108 48.8156 32.1108 50.4175C32.1108 52.1652 32.0912 54.4469 32.1479 54.7713C32.1956 55.0113 32.2455 55.1495 32.7523 55.2984C32.9361 55.3432 33.0261 55.4032 33.0261 55.4769C33.0261 55.5582 32.8604 55.6037 32.719 55.6037C32.43 55.6037 31.9225 55.5734 31.7084 55.5734C31.4361 55.5734 30.9119 55.6037 30.6669 55.6037C30.4301 55.6037 30.3242 55.5734 30.3242 55.4769C30.3242 55.3918 30.4626 55.3311 30.5897 55.3128C31.1374 55.1822 31.1638 54.9763 31.2001 54.3771C31.2213 53.9228 31.2818 52.6293 31.2818 50.7396C31.2818 49.8532 31.2448 48.5961 31.2448 48.2361C31.2448 48.1457 31.2364 48.0713 30.9626 47.9019C30.7561 47.7583 30.7236 47.7264 30.7236 47.6801C30.7228 47.6277 30.7554 47.5449 30.8885 47.5137Z" fill="white"/>
<path d="M33.99 51.098C34.431 51.003 34.9922 50.7395 35.1692 50.6886C35.2116 50.6886 35.2751 50.8131 35.2751 50.8238C35.2751 50.959 35.1995 52.51 35.1995 53.1913C35.1995 53.865 35.2116 54.3633 35.229 54.781C35.2411 55.1684 35.502 55.1828 35.8008 55.2839C35.9884 55.3431 36.0595 55.4031 36.0595 55.4897C36.0595 55.5588 35.915 55.6036 35.7849 55.6036C35.704 55.6036 35.1102 55.5732 34.8591 55.5732C34.4703 55.5732 34.0482 55.6203 33.844 55.6203C33.6572 55.6203 33.543 55.5732 33.543 55.4897C33.543 55.4153 33.6209 55.3598 33.8259 55.2983C34.1004 55.2261 34.2744 55.0841 34.3016 54.958C34.3334 54.7977 34.344 54.08 34.344 53.7283C34.344 53.7078 34.3599 52.011 34.3334 51.8628C34.3228 51.78 34.1965 51.6851 33.844 51.4314C33.7782 51.3843 33.7517 51.3509 33.7517 51.3008C33.751 51.2149 33.8531 51.1268 33.99 51.098ZM35.3538 48.8998C35.3538 49.2219 35.021 49.4801 34.788 49.4801C34.7025 49.4801 34.5104 49.4361 34.4068 49.3366C34.313 49.2302 34.2283 49.1003 34.2283 48.9006C34.2283 48.7897 34.2744 48.5968 34.3659 48.4654C34.49 48.3628 34.6715 48.3074 34.8372 48.3074C35.1541 48.3066 35.3538 48.678 35.3538 48.8998Z" fill="white"/>
<path d="M39.764 51.3008C39.9433 51.5538 40.0053 51.7938 40.0053 52.2951C40.0053 52.7607 39.9562 54.273 39.9562 54.4036C39.9562 54.949 40.3351 54.9968 40.4282 54.9968C40.4766 54.9968 40.7504 54.9148 40.8812 54.8191C40.916 54.7986 40.9304 54.8191 40.9539 54.854C40.9917 54.8943 40.9917 54.9588 40.9917 54.9771C40.9917 55.1996 40.4569 55.7207 39.9183 55.7207C39.6476 55.7207 39.2996 55.5589 39.1612 55.1176C39.1612 55.1047 39.1128 55.0545 39.0878 55.0697C38.6438 55.3789 38.1355 55.5832 38.0175 55.6204C37.8791 55.6652 37.6022 55.6948 37.5402 55.6948C37.1234 55.6948 36.7165 55.1768 36.7165 54.5821C36.7165 54.3634 36.8141 54.1347 36.948 53.9661C37.0652 53.8134 37.243 53.7519 37.4184 53.6699C37.603 53.5939 38.55 53.3387 38.817 53.2514C39.0878 53.1701 39.1612 53.1078 39.1612 53.0349C39.1725 52.927 39.1786 52.1994 39.1786 52.0535C39.1786 51.7535 38.8367 51.256 38.249 51.256C38.0046 51.256 37.845 51.3213 37.7679 51.3836C37.6975 51.4201 37.659 51.6365 37.6794 51.8766C37.6794 51.913 37.634 51.9837 37.6136 52.0103C37.4933 52.0999 36.898 52.4014 36.8405 52.4014C36.7634 52.4014 36.6953 52.3057 36.6953 52.2434C36.6953 51.8978 37.0274 51.5629 37.5879 51.1922C37.9343 50.9476 38.4706 50.7388 38.693 50.7388C39.2883 50.7395 39.5855 51.038 39.764 51.3008ZM38.9744 54.8624C39.05 54.8183 39.1219 54.5912 39.1219 54.5669C39.143 54.2821 39.143 53.8727 39.143 53.6349C39.143 53.5939 39.0969 53.5392 39.05 53.5392C38.7187 53.5392 38.1438 53.7405 37.8246 53.9023C37.7081 53.9775 37.5856 54.0626 37.5856 54.3489C37.5856 54.8768 38.0879 55.0697 38.339 55.0697C38.5145 55.0697 38.7512 54.9869 38.9744 54.8624Z" fill="white"/>
<path d="M44.2508 50.8556C44.2659 50.8556 44.3869 50.9179 44.3869 50.9597C44.3869 50.9179 44.4172 51.2582 44.4172 51.4086C44.4172 51.5202 44.1948 51.543 44.1116 51.543H42.8129C42.7561 51.543 42.707 51.6015 42.707 51.6243C42.6987 51.8636 42.6865 53.6242 42.6865 54.1992C42.6865 54.4992 42.7561 54.6488 42.8862 54.7825C43.1071 54.9884 43.365 55.0134 43.6139 55.0134C43.7644 55.0134 44.0171 54.939 44.1948 54.8334C44.303 54.7734 44.3234 54.7635 44.3718 54.7635C44.3877 54.7635 44.4459 54.7825 44.4459 54.8957C44.4459 54.9891 44.3635 55.1069 44.2788 55.1851C43.955 55.5018 43.533 55.7228 43.005 55.7228C42.5186 55.7228 42.1003 55.4183 41.9604 55.1517C41.8258 54.9504 41.8053 54.6982 41.8053 54.3655C41.8053 53.9257 41.8553 52.1332 41.8553 51.7147C41.8553 51.6258 41.6412 51.5438 41.3954 51.4739C41.3016 51.4337 41.2305 51.3782 41.2305 51.3433C41.2305 51.2916 41.2683 51.2415 41.3023 51.2073C41.7199 50.8731 42.086 50.586 42.2554 50.3832C42.4014 50.2138 42.48 50.1196 42.53 50.1196C42.5844 50.1196 42.6987 50.2298 42.6987 50.2564V50.8154C42.6987 50.8488 42.741 50.9096 42.794 50.9096C43.0526 50.9081 44.2039 50.8556 44.2508 50.8556Z" fill="white"/>
<path d="M45.2946 51.098C45.731 51.003 46.2968 50.7395 46.473 50.6886C46.5184 50.6886 46.5774 50.8131 46.5774 50.8238C46.5774 50.959 46.5086 52.51 46.5086 53.1913C46.5086 53.865 46.5184 54.3633 46.529 54.781C46.5388 55.1684 46.8036 55.1828 47.1001 55.2839C47.2907 55.3431 47.3679 55.4031 47.3679 55.4897C47.3679 55.5588 47.2219 55.6036 47.091 55.6036C47.0048 55.6036 46.4095 55.5732 46.1599 55.5732C45.7718 55.5732 45.3581 55.6203 45.1478 55.6203C44.9587 55.6203 44.8438 55.5732 44.8438 55.4897C44.8438 55.4153 44.9239 55.3598 45.1274 55.2983C45.3989 55.2261 45.5805 55.0841 45.6002 54.958C45.6418 54.7977 45.6501 54.08 45.6501 53.7283C45.6501 53.7078 45.6607 52.011 45.641 51.8628C45.6228 51.78 45.4965 51.6851 45.1471 51.4314C45.082 51.3843 45.0563 51.3509 45.0563 51.3008C45.0563 51.2149 45.1645 51.1268 45.2946 51.098ZM46.6659 48.8998C46.6659 49.2219 46.3255 49.4801 46.0895 49.4801C46.0124 49.4801 45.8187 49.4361 45.7083 49.3366C45.6138 49.2302 45.5351 49.1003 45.5351 48.9006C45.5351 48.7897 45.5797 48.5968 45.672 48.4654C45.7923 48.3628 45.9731 48.3074 46.138 48.3074C46.4624 48.3066 46.6659 48.678 46.6659 48.8998Z" fill="white"/>
<path d="M52.882 53.1789C52.882 54.1724 52.2859 54.9479 51.8495 55.2365C51.3752 55.5829 50.9078 55.7204 50.37 55.7204C49.8269 55.7204 49.2271 55.4667 48.7929 55.093C48.2763 54.6714 47.9102 53.8648 47.9102 53.2617C47.9102 52.3556 48.2861 51.7798 48.7399 51.397C49.1106 51.0765 49.7051 50.74 50.5076 50.74C51.6786 50.7392 52.882 51.6735 52.882 53.1789ZM49.5024 51.4464C49.1953 51.7335 48.9184 52.3548 48.9184 52.9715C48.9184 53.3711 48.9676 53.741 49.0637 54.0395C49.3594 54.9373 50.0387 55.3702 50.6105 55.3702C50.7444 55.3702 51.0046 55.3133 51.3314 54.976C51.6339 54.6464 51.8714 53.9134 51.8714 53.3954C51.8714 52.771 51.7232 52.092 51.2754 51.5626C51.0129 51.2785 50.5825 51.0977 50.2739 51.0977C50.0273 51.0977 49.7535 51.2314 49.5024 51.4464Z" fill="white"/>
<path d="M54.0558 51.0762C54.254 51.0025 54.6844 50.846 54.847 50.7268C54.9703 50.6554 55.0732 50.5977 55.1405 50.5977C55.1972 50.5977 55.2562 50.7268 55.2562 50.7739C55.2562 50.9797 55.2086 51.2676 55.2086 51.3747C55.2086 51.4301 55.2661 51.4066 55.2774 51.4066C55.7539 51.0853 56.378 50.7511 56.8772 50.7511C57.4574 50.7511 57.7864 51.0131 57.9566 51.2045C58.2198 51.519 58.3749 52.0613 58.3749 52.6644C58.3749 52.8953 58.3961 54.6719 58.4134 54.8428C58.4354 55.0205 58.5519 55.1762 58.8491 55.2598C59.0768 55.3213 59.1464 55.379 59.1464 55.4664C59.1464 55.5446 58.9792 55.5948 58.7864 55.5948C58.5156 55.5948 58.241 55.5735 57.9097 55.5735C57.6132 55.5735 57.2456 55.5948 57.0905 55.5948C56.977 55.5948 56.8152 55.5446 56.8152 55.4542C56.8152 55.3699 56.943 55.2978 57.0905 55.2514C57.3741 55.1383 57.4286 55.0456 57.4574 54.6461C57.4785 54.2511 57.4937 52.8095 57.4937 52.4608C57.4937 52.0279 57.2788 51.6838 57.1336 51.5722C57.0043 51.481 56.6457 51.3489 56.3772 51.3489C55.8545 51.3489 55.5399 51.5289 55.3175 51.7324C55.2774 51.7643 55.198 51.9124 55.198 52.018C55.198 52.173 55.198 54.7456 55.2086 54.8922C55.2184 55.0532 55.2661 55.1481 55.6503 55.2583C55.7698 55.297 55.8659 55.3692 55.8659 55.4413C55.8659 55.5203 55.7335 55.5818 55.5618 55.5818C55.4219 55.5818 55.0875 55.572 54.8372 55.572C54.4 55.572 54.0558 55.6084 53.8546 55.6084C53.6716 55.6084 53.543 55.5575 53.543 55.4535C53.543 55.3692 53.6625 55.3114 53.7941 55.275C54.1844 55.1481 54.2547 55.0312 54.2903 54.6043C54.3281 54.2397 54.3516 53.2029 54.3516 51.9831C54.3516 51.8464 54.3289 51.7324 54.0679 51.5182C53.9106 51.4066 53.847 51.3489 53.847 51.3109C53.8455 51.2311 53.9726 51.1073 54.0558 51.0762Z" fill="white"/>
<path d="M63.6988 50.8697C63.9113 50.8697 64.0059 50.948 64.0059 51.0027C64.0059 51.0763 63.9113 51.1455 63.7063 51.1925C63.4522 51.2389 63.3886 51.384 63.4923 51.6597C63.639 52.1298 64.437 54.1723 64.5149 54.3151C64.5535 54.391 64.6004 54.3766 64.6216 54.3151C64.7487 54.0576 65.2206 53.0345 65.4513 52.4975C65.5179 52.3683 65.5179 52.3053 65.5179 52.2582C65.5043 52.1739 65.4143 51.8625 65.3235 51.684C65.1934 51.4462 65.1011 51.2563 64.8281 51.1827C64.67 51.1295 64.5663 51.0854 64.5663 50.9913C64.5663 50.907 64.645 50.8697 64.85 50.8697C65.0149 50.8697 65.3749 50.907 65.6427 50.907C65.8628 50.907 66.2191 50.8697 66.4838 50.8697C66.6525 50.8697 66.7667 50.9305 66.7667 51.0027C66.7667 51.0854 66.6767 51.1591 66.4838 51.1925C66.1684 51.2685 66.1321 51.4067 66.1321 51.4584C66.1321 51.5412 66.1911 51.6604 66.2781 51.8875C66.3447 52.0615 66.9445 53.6915 67.1911 54.2816C67.2191 54.3622 67.2622 54.3363 67.3015 54.271C67.4974 53.8373 67.8559 52.881 68.095 52.2681C68.2281 51.9194 68.2939 51.6589 68.2939 51.5526C68.2939 51.4303 68.275 51.2875 67.834 51.1827C67.7266 51.1447 67.5572 51.0976 67.5572 50.9913C67.5572 50.9161 67.7145 50.8697 67.834 50.8697C67.9664 50.8697 68.3945 50.907 68.5723 50.907C68.9663 50.907 69.2606 50.8462 69.4467 50.8462C69.5934 50.8462 69.7016 50.8963 69.7016 50.9677C69.7016 51.0763 69.5745 51.1075 69.4277 51.1447C69.0344 51.2677 68.9875 51.3961 68.7924 51.722C68.4051 52.4291 68.0125 53.4051 67.6532 54.2938C67.452 54.7974 67.2758 55.1825 67.1578 55.5828C67.1162 55.7043 67.0625 55.7286 67.0005 55.7286C66.9452 55.7286 66.8462 55.6435 66.7766 55.544C66.7289 55.4149 66.5829 54.9478 66.4642 54.6629C66.3083 54.2816 65.9286 53.3216 65.7237 52.8309C65.7168 52.8104 65.6548 52.8104 65.6435 52.8446C65.3553 53.4446 64.9241 54.3629 64.5671 55.2599C64.5157 55.3921 64.3765 55.7521 64.2706 55.7521C64.1655 55.7521 64.0974 55.7202 64.0497 55.5736C64.0308 55.5121 63.8758 55.0701 63.6995 54.5475C63.608 54.3037 62.9272 52.5666 62.6708 51.984C62.4862 51.5412 62.3403 51.2685 62.009 51.1827C61.8395 51.1447 61.7109 51.0756 61.7109 51.0027C61.7109 50.8963 61.8305 50.8545 62.0604 50.8545C62.2578 50.8545 62.605 50.907 62.8644 50.907C63.1587 50.907 63.4923 50.8697 63.6988 50.8697Z" fill="white"/>
<path d="M70.2692 51.098C70.7049 51.003 71.2639 50.7395 71.4402 50.6886C71.4931 50.6886 71.5453 50.8131 71.5453 50.8238C71.5453 50.959 71.4772 52.51 71.4772 53.1913C71.4772 53.865 71.4931 54.3633 71.4999 54.781C71.5113 55.1684 71.779 55.1828 72.0702 55.2839C72.2601 55.3431 72.3335 55.4031 72.3335 55.4897C72.3335 55.5588 72.1898 55.6036 72.0604 55.6036C71.981 55.6036 71.3834 55.5732 71.1315 55.5732C70.7375 55.5732 70.3252 55.6203 70.1217 55.6203C69.9296 55.6203 69.8086 55.5732 69.8086 55.4897C69.8086 55.4153 69.8963 55.3598 70.1006 55.2983C70.3721 55.2261 70.5521 55.0841 70.5733 54.958C70.6066 54.7977 70.6172 54.08 70.6172 53.7283C70.6172 53.7078 70.627 52.011 70.6066 51.8628C70.5968 51.78 70.4621 51.6851 70.121 51.4314C70.0484 51.3843 70.0264 51.3509 70.0264 51.3008C70.028 51.2149 70.1391 51.1268 70.2692 51.098ZM71.6315 48.8998C71.6315 49.2219 71.3002 49.4801 71.0619 49.4801C70.9772 49.4801 70.7851 49.4361 70.6807 49.3366C70.5839 49.2302 70.4999 49.1003 70.4999 48.9006C70.4999 48.7897 70.5529 48.5968 70.6399 48.4654C70.7647 48.3628 70.9424 48.3074 71.1073 48.3074C71.4311 48.3066 71.6315 48.678 71.6315 48.8998Z" fill="white"/>
<path d="M75.9194 50.8556C75.9277 50.8556 76.0465 50.9179 76.0465 50.9597C76.0465 50.9179 76.082 51.2582 76.082 51.4086C76.082 51.5202 75.8543 51.543 75.7681 51.543H74.4747C74.4126 51.543 74.368 51.6015 74.368 51.6243C74.3604 51.8636 74.343 53.6242 74.343 54.1992C74.343 54.4992 74.4119 54.6488 74.548 54.7825C74.7727 54.9884 75.0246 55.0134 75.2719 55.0134C75.4262 55.0134 75.6781 54.939 75.8543 54.8334C75.9625 54.7734 75.9822 54.7635 76.0336 54.7635C76.0465 54.7635 76.11 54.7825 76.11 54.8957C76.11 54.9891 76.0207 55.1069 75.9383 55.1851C75.6214 55.5018 75.2031 55.7228 74.6653 55.7228C74.1781 55.7228 73.7636 55.4183 73.623 55.1517C73.4936 54.9504 73.4649 54.6982 73.4649 54.3655C73.4649 53.9257 73.5163 52.1332 73.5163 51.7147C73.5163 51.6258 73.303 51.5438 73.0647 51.4739C72.9679 51.4337 72.8945 51.3782 72.8945 51.3433C72.8945 51.2916 72.9316 51.2415 72.9679 51.2073C73.3817 50.8731 73.7515 50.586 73.9172 50.3832C74.0632 50.2138 74.1403 50.1196 74.1857 50.1196C74.2538 50.1196 74.3597 50.2298 74.3597 50.2564V50.8154C74.3597 50.8488 74.402 50.9096 74.4527 50.9096C74.7144 50.9081 75.874 50.8556 75.9194 50.8556Z" fill="white"/>
<path d="M80.9003 51.2883C81.1409 51.6157 81.246 52.0615 81.246 52.578C81.2558 53.3391 81.2861 54.0797 81.2906 54.7974C81.2906 55.0929 81.4502 55.1825 81.7581 55.2592C81.9971 55.3124 82.0894 55.3785 82.0894 55.4544C82.0894 55.5585 81.9971 55.6033 81.7687 55.6033C81.3617 55.6033 81.2294 55.5729 80.8254 55.5729C80.5531 55.5729 80.3187 55.5942 79.9707 55.5942C79.796 55.5942 79.7332 55.5372 79.7332 55.4537C79.7332 55.3777 79.8406 55.32 79.9866 55.282C80.2816 55.181 80.3194 55.1476 80.3625 54.6949C80.3867 54.4655 80.3625 53.1545 80.3625 52.9608C80.3625 52.3053 80.302 51.9195 80.1772 51.7645C79.9866 51.5405 79.675 51.3741 79.209 51.3741C78.703 51.3741 78.3044 51.599 78.259 51.6491C78.2378 51.6719 78.0805 51.861 78.0706 52.2339C78.0351 52.7314 78.0351 54.2931 78.0479 54.723C78.0706 55.1164 78.2378 55.1818 78.5116 55.2585C78.6697 55.3116 78.7733 55.3906 78.7733 55.4537C78.7733 55.5577 78.6379 55.5942 78.4791 55.5942C78.3815 55.5942 77.7862 55.5729 77.4942 55.5729C77.2265 55.5729 76.7931 55.6033 76.5919 55.6033C76.4898 55.6033 76.3203 55.5729 76.3203 55.4544C76.3203 55.3914 76.4187 55.3208 76.6668 55.2516C76.9761 55.1385 77.0971 55.0109 77.1327 54.5665C77.1614 54.0622 77.2499 52.6806 77.2499 49.615C77.2499 49.2071 77.2598 48.74 77.2121 48.3952C77.1735 48.0799 77.1524 48.0579 76.8241 47.8407C76.7742 47.8194 76.7023 47.6994 76.7023 47.5991C76.7023 47.5566 76.7378 47.5445 76.7378 47.5445C77.107 47.4374 77.6425 47.3181 77.9246 47.1267C77.9731 47.1009 78.0812 47.0378 78.1485 47.0378C78.197 47.0378 78.2249 47.1404 78.2249 47.1776C78.11 48.0329 78.0578 51.0141 78.0578 51.3605C78.0578 51.4319 78.1304 51.447 78.1395 51.4319C78.6258 50.9928 79.1409 50.7407 79.6394 50.7407C80.2354 50.7391 80.65 50.948 80.9003 51.2883Z" fill="white"/>
<path d="M0.273817 69.0515C0.310124 69.0196 0.495443 68.8981 0.557468 68.8981C0.608903 68.8981 0.843393 68.9794 0.926597 69.0432C1.152 69.1875 1.37817 69.2923 1.54004 69.2923C1.74578 69.2923 1.8547 69.2589 2.02035 69.0622C2.21172 68.8609 2.31989 68.5791 2.35014 68.0725C2.40233 67.3349 2.42654 66.0346 2.42654 64.34C2.42654 62.6189 2.40233 61.3968 2.35014 60.8187C2.32972 60.5871 2.26316 60.2825 1.65199 60.1731C1.37817 60.126 1.28437 60.044 1.28437 59.9513C1.28437 59.8518 1.37892 59.8032 1.60433 59.8032C1.97345 59.8032 2.40234 59.8435 2.92501 59.8435C3.3433 59.8435 3.80849 59.8032 4.17383 59.8032C4.31376 59.8032 4.4953 59.826 4.4953 59.9278C4.4953 60.044 4.38562 60.1184 4.13752 60.1632C3.66477 60.259 3.45903 60.4298 3.45903 61.0337C3.45903 62.015 3.41137 65.4315 3.41137 66.4584C3.4023 67.9046 2.73818 68.9573 2.127 69.4267C1.57937 69.8407 1.08241 70.0002 0.773801 70.0002C0.380472 70.0002 0 69.7609 0 69.5346C0 69.4267 0.157331 69.1761 0.273817 69.0515Z" fill="white"/>
<path d="M13.6937 63.5866C13.6937 65.2599 12.8715 66.4319 12.0054 67.0547C11.2558 67.5773 10.2672 67.749 9.66585 67.749C8.45258 67.749 7.29528 67.2188 6.56762 66.3841C5.93981 65.6746 5.58203 64.7123 5.58203 63.6801C5.58203 62.2096 6.22573 61.1902 7.12963 60.4618C7.71508 59.9818 8.7385 59.6233 9.56978 59.6233C11.8488 59.6241 13.6937 61.3118 13.6937 63.5866ZM7.66819 60.7011C7.14779 61.2138 6.73932 62.1184 6.73932 63.5183C6.73932 65.2971 8.04942 67.3457 9.9495 67.3457C10.9328 67.3457 11.392 66.9112 11.5213 66.7631C11.9948 66.337 12.5326 65.3655 12.5326 63.9474C12.5326 62.6433 11.9706 61.387 11.0879 60.6699C10.6008 60.2712 9.85268 60.0213 9.30731 60.0213C8.80582 60.0213 8.07892 60.2826 7.66819 60.7011Z" fill="white"/>
<path d="M17.042 63.3798C17.7417 63.3798 19.3604 63.3479 21.4609 63.3479C21.5403 63.3479 21.5729 63.2773 21.5933 63.0403C21.6069 62.88 21.6069 61.3131 21.5736 60.8429C21.5411 60.4085 21.4503 60.3082 20.9186 60.1631C20.7491 60.1183 20.6236 60.0446 20.6236 59.9307C20.6236 59.8517 20.7401 59.8031 20.9859 59.8031C21.1425 59.8031 21.9019 59.8259 22.2007 59.8259C22.6091 59.8259 23.1537 59.7932 23.2838 59.7932C23.4722 59.7932 23.6189 59.8426 23.6189 59.9307C23.6189 59.9945 23.5229 60.0796 23.2748 60.1396C22.7763 60.2581 22.6802 60.473 22.6538 60.8186C22.5955 61.4323 22.5607 62.7334 22.5607 64.7706C22.5607 65.2962 22.6084 66.3626 22.6084 66.5388C22.6288 67.0036 22.7513 67.0553 23.2831 67.2087C23.451 67.2725 23.5561 67.3553 23.5561 67.4389C23.5561 67.5338 23.4502 67.5695 23.2264 67.5695C23.035 67.5695 22.6084 67.5338 22.24 67.5338C21.9775 67.5338 21.0812 67.6098 20.846 67.6098C20.6667 67.6098 20.5479 67.5786 20.5479 67.4715C20.5479 67.366 20.6788 67.2953 20.8081 67.2596C21.4496 67.0629 21.5108 66.933 21.5509 66.0876C21.5721 65.5848 21.5918 64.7569 21.5918 64.1591C21.5918 63.948 21.5509 63.9069 21.4488 63.9069C19.6108 63.9069 17.2636 63.8758 17.0314 63.8956C16.9936 63.8956 16.8983 64.0042 16.8983 64.0976C16.8733 64.4128 16.8983 65.9403 16.8983 66.2912C16.9089 66.851 17.0405 67.0636 17.5412 67.2201C17.8045 67.2961 17.8862 67.3462 17.896 67.4617C17.9104 67.5574 17.7046 67.5786 17.5526 67.5786C17.4656 67.5786 16.7455 67.5338 16.3166 67.5338C16.0428 67.5338 15.5375 67.5786 15.1374 67.5786C14.8772 67.5786 14.7773 67.5338 14.7773 67.4617C14.7773 67.3462 14.9248 67.2733 15.0519 67.233C15.6623 67.0811 15.7501 66.9573 15.8 66.4902C15.8416 66.0026 15.9097 64.6483 15.9097 62.7008C15.9097 62.4873 15.9369 61.3875 15.9097 60.8566C15.8908 60.4533 15.8166 60.2824 15.3136 60.1738C15.0678 60.1267 14.9801 60.0446 14.9801 59.952C14.9801 59.8639 15.1374 59.816 15.328 59.816C15.6623 59.816 16.1003 59.8434 16.4051 59.8434C16.9096 59.8434 17.2644 59.816 17.5412 59.816C17.7886 59.816 17.9157 59.8775 17.9157 59.952C17.9157 60.0697 17.8241 60.1267 17.5745 60.1738C17.0208 60.2831 16.977 60.4631 16.9391 60.9667C16.9089 61.3594 16.8983 62.9378 16.9089 63.1459C16.9217 63.3661 16.958 63.3798 17.042 63.3798Z" fill="white"/>
<path d="M24.7676 59.8043C25.0293 59.8043 25.6132 59.8446 26.2206 59.8446C26.2872 59.8446 26.3946 59.9289 26.471 59.9957C26.648 60.216 26.949 60.5677 27.4097 61.1829C27.9452 61.865 30.5601 64.7346 31.3558 65.6111C31.433 65.6772 31.4776 65.5625 31.4776 65.5275C31.5366 65.1462 31.498 63.8527 31.498 62.1301C31.498 61.7184 31.4776 61.3014 31.4413 60.9315C31.433 60.6808 31.3445 60.399 30.6932 60.2008C30.4557 60.1279 30.3672 60.0352 30.3672 59.9319C30.3672 59.8529 30.5359 59.8271 30.6826 59.8271C30.9912 59.8271 31.3157 59.8438 31.7038 59.8438C32.1319 59.8438 32.5109 59.7944 32.8225 59.7944C33.0214 59.7944 33.0887 59.8271 33.0887 59.9289C33.0887 59.9957 33.0214 60.1089 32.8059 60.1643C32.2975 60.2836 32.0774 60.399 32.0426 61.0348C32.023 61.4723 31.9186 63.8254 31.9186 65.8868C31.9186 66.3866 31.9957 67.2844 31.9957 67.4735C31.9957 67.5943 31.9405 67.7234 31.8316 67.7234C31.6644 67.7234 31.4027 67.4857 31.2938 67.3474C31.0964 67.0937 30.877 66.7838 30.5578 66.3866C29.4406 65.049 27.3787 62.7119 26.3114 61.4244C26.266 61.3606 26.1858 61.3887 26.1858 61.4465C26.1639 61.7708 26.1291 62.1057 26.1208 63.0415C26.1208 64.1132 26.0898 65.9536 26.1087 66.3281C26.1548 66.8757 26.2857 67.0573 26.8575 67.2213C27.1109 67.2844 27.1593 67.3679 27.1593 67.4408C27.1593 67.5586 27.0043 67.5943 26.7743 67.5943C26.4317 67.5943 25.9362 67.5358 25.5035 67.5358C25.2456 67.5358 24.9317 67.5586 24.732 67.5586C24.5626 67.5586 24.4219 67.5464 24.4219 67.4264C24.4219 67.3368 24.5429 67.2608 24.6571 67.2206C25.2222 67.0314 25.4453 66.9844 25.4937 66.0987C25.5542 65.1318 25.7214 62.2569 25.7214 61.2657C25.7214 60.832 25.6586 60.7317 25.6314 60.6922C25.3001 60.2965 25.173 60.2836 24.6375 60.1408C24.5081 60.1089 24.375 60.0451 24.375 59.9524C24.3773 59.8529 24.49 59.8043 24.7676 59.8043Z" fill="white"/>
<path d="M38.0399 59.844C38.1118 59.8637 38.1874 60.0453 38.1874 60.0703C38.2086 60.2959 38.3046 60.9909 38.3046 61.0342C38.3046 61.2438 38.3046 61.36 38.2161 61.36C38.1307 61.36 37.9869 61.2811 37.9355 61.1102C37.791 60.681 37.4673 60.3172 37.3523 60.2503C37.1367 60.081 36.8523 59.9754 36.5097 59.9754C35.7102 59.9754 35.1414 60.5678 35.1414 61.3737C35.1414 62.2237 35.7465 62.5958 36.7964 63.3022C37.7116 63.9197 38.434 64.5448 38.434 65.6227C38.434 66.2197 38.1027 66.8903 37.4582 67.3134C37.0808 67.5588 36.375 67.741 35.8395 67.741C35.4606 67.741 34.658 67.6112 34.2813 67.4266C34.1633 67.3575 34.0068 67.0939 34.0068 67.0468C33.9561 66.6397 33.832 66.1133 33.832 65.9234C33.832 65.8756 33.9561 65.6933 33.9969 65.6933C34.0968 65.6933 34.2707 66.0047 34.4371 66.3754C34.7503 67.0316 35.5317 67.337 35.9847 67.337C36.8054 67.337 37.4196 66.7415 37.4196 65.887C37.4196 65.3826 37.1844 64.8418 35.9356 64.0451C34.9296 63.3812 34.2125 62.6908 34.2125 61.6745C34.2125 61.1109 34.4659 60.5686 34.863 60.2169C35.2367 59.8797 35.7964 59.626 36.6269 59.626C37.2094 59.6245 37.8281 59.8037 38.0399 59.844Z" fill="white"/>
<path d="M44.0094 63.3798C44.7121 63.3798 46.324 63.3479 48.4298 63.3479C48.5032 63.3479 48.544 63.2773 48.5629 63.0403C48.5727 62.88 48.5728 61.3131 48.544 60.8429C48.5032 60.4085 48.4177 60.3082 47.8837 60.1631C47.715 60.1183 47.5856 60.0446 47.5856 59.9307C47.5856 59.8517 47.7067 59.8031 47.9555 59.8031C48.1098 59.8031 48.873 59.8259 49.1688 59.8259C49.575 59.8259 50.1188 59.7932 50.2474 59.7932C50.4418 59.7932 50.5802 59.8426 50.5802 59.9307C50.5802 59.9945 50.488 60.0796 50.2406 60.1396C49.7399 60.2581 49.6438 60.473 49.6181 60.8186C49.5576 61.4323 49.5273 62.7334 49.5273 64.7706C49.5273 65.2962 49.5742 66.3626 49.5742 66.5388C49.5931 67.0036 49.7134 67.0553 50.2467 67.2087C50.4116 67.2725 50.5235 67.3553 50.5235 67.4389C50.5235 67.5338 50.4123 67.5695 50.1899 67.5695C50.0039 67.5695 49.5742 67.5338 49.2036 67.5338C48.9373 67.5338 48.0463 67.6098 47.8095 67.6098C47.6378 67.6098 47.5108 67.5786 47.5108 67.4715C47.5108 67.366 47.6484 67.2953 47.7747 67.2596C48.4154 67.0629 48.4737 66.933 48.5137 66.0876C48.5425 65.5848 48.5614 64.7569 48.5614 64.1591C48.5614 63.948 48.5137 63.9069 48.4162 63.9069C46.5736 63.9069 44.228 63.8758 43.9927 63.8956C43.9617 63.8956 43.8649 64.0042 43.8649 64.0976C43.846 64.4128 43.8649 65.9403 43.8649 66.2912C43.874 66.851 44.0079 67.0636 44.5086 67.2201C44.7665 67.2961 44.8497 67.3462 44.8671 67.4617C44.8777 67.5574 44.6727 67.5786 44.5154 67.5786C44.433 67.5786 43.7083 67.5338 43.281 67.5338C43.0087 67.5338 42.5102 67.5786 42.1025 67.5786C41.8476 67.5786 41.75 67.5338 41.75 67.4617C41.75 67.3462 41.8869 67.2733 42.0238 67.233C42.6259 67.0811 42.7235 66.9573 42.7658 66.4902C42.8037 66.0026 42.8702 64.6483 42.8702 62.7008C42.8702 62.4873 42.899 61.3875 42.8702 60.8566C42.8506 60.4533 42.7855 60.2824 42.2795 60.1738C42.0337 60.1267 41.9482 60.0446 41.9482 59.952C41.9482 59.8639 42.1025 59.816 42.2969 59.816C42.6259 59.816 43.0669 59.8434 43.377 59.8434C43.874 59.8434 44.228 59.816 44.5078 59.816C44.7544 59.816 44.8868 59.8775 44.8868 59.952C44.8868 60.0697 44.793 60.1267 44.5374 60.1738C43.9837 60.2831 43.9436 60.4631 43.9073 60.9667C43.8732 61.3594 43.8641 62.9378 43.8732 63.1459C43.8853 63.3661 43.9247 63.3798 44.0094 63.3798Z" fill="white"/>
<path d="M59.8904 63.5866C59.8904 65.2599 59.0636 66.4319 58.1998 67.0547C57.451 67.5773 56.4624 67.749 55.8595 67.749C54.6417 67.749 53.492 67.2188 52.762 66.3841C52.1312 65.6746 51.7734 64.7123 51.7734 63.6801C51.7734 62.2096 52.4171 61.1902 53.318 60.4618C53.9057 59.9818 54.9299 59.6233 55.7597 59.6233C58.0516 59.6241 59.8904 61.3118 59.8904 63.5866ZM53.8596 60.7011C53.3354 61.2138 52.9307 62.1184 52.9307 63.5183C52.9307 65.2971 54.2401 67.3457 56.1439 67.3457C57.1265 67.3457 57.5803 66.9112 57.7082 66.7631C58.1877 66.337 58.7255 65.3655 58.7255 63.9474C58.7255 62.6433 58.1658 61.387 57.2838 60.6699C56.7929 60.2712 56.0426 60.0213 55.498 60.0213C54.9995 60.0213 54.2726 60.2826 53.8596 60.7011Z" fill="white"/>
<path d="M63.595 60.0968C63.4679 60.0968 63.3491 60.1416 63.2569 60.2008C63.2092 60.2381 63.1472 60.3816 63.129 60.671C63.1184 60.9224 63.1184 62.4036 63.1109 63.7791C63.1109 64.8691 63.129 65.8755 63.129 66.1702C63.1472 66.9472 63.2402 67.0459 63.8431 67.2206C64.0753 67.2837 64.1721 67.3467 64.1721 67.45C64.1721 67.5586 63.9512 67.5936 63.772 67.5936C63.48 67.5936 63.0519 67.5457 62.5284 67.5457C62.1843 67.5457 61.6987 67.5936 61.3243 67.5936C61.1215 67.5936 60.9922 67.5351 60.9922 67.4257C60.9922 67.3467 61.111 67.2738 61.2282 67.2335C61.8931 67.0816 62.0292 66.8515 62.061 66.3509C62.0988 65.7775 62.1207 64.784 62.1207 64.1847C62.1207 63.7913 62.0988 61.2513 62.086 60.8693C62.0776 60.4431 62.086 60.2715 61.4241 60.1743C61.1821 60.1408 61.0557 60.0702 61.0557 59.9958C61.0557 59.9001 61.173 59.8446 61.3243 59.8272C61.4052 59.8165 61.6071 59.8272 61.7168 59.8272C62.1941 59.8272 63.1101 59.7383 63.7047 59.7383C64.784 59.7383 65.4875 60.0224 65.927 60.4439C66.5018 60.9915 66.6176 61.6736 66.6176 62.0686C66.6176 63.1297 66.1304 63.6219 65.7885 63.9196C65.4769 64.1862 64.9255 64.4498 64.4179 64.4498C64.2878 64.4498 63.977 64.4376 63.7841 64.3708C63.6464 64.3039 63.5851 64.2462 63.5851 64.1703C63.5851 64.1217 63.6373 64.0662 63.7251 64.0662H64.0284C64.6524 64.0662 65.5397 63.5034 65.5397 62.1293C65.5389 61.0341 64.719 60.0968 63.595 60.0968Z" fill="white"/>
<path d="M67.9912 59.804C68.2657 59.804 68.7725 59.8443 69.1522 59.8443C69.5123 59.8443 69.9737 59.8169 70.2664 59.8169C70.4601 59.8169 70.5811 59.8534 70.5811 59.9628C70.5811 60.06 70.4306 60.1192 70.2415 60.164C69.8323 60.2499 69.6916 60.3547 69.6674 60.8241C69.631 61.2806 69.6311 63.2311 69.6568 63.3959C69.6674 63.4423 69.6916 63.478 69.743 63.478C69.7899 63.478 69.9056 63.3959 69.9147 63.3959C70.2959 63.1043 72.1975 61.2441 72.5719 60.8241C72.8798 60.4747 72.8291 60.2833 72.4388 60.1747C72.2913 60.1276 72.165 60.0964 72.165 59.9962C72.165 59.8883 72.2913 59.845 72.4766 59.845C72.699 59.845 72.7119 59.8541 72.9274 59.8541C73.2141 59.8541 74.3563 59.7957 74.6899 59.7957C74.8994 59.7957 74.9962 59.845 74.9962 59.9331C74.9962 60.0129 74.854 60.1101 74.6702 60.1542C73.9993 60.297 73.7081 60.4899 72.9479 61.0747C72.3942 61.5176 70.8466 62.9394 70.7044 63.1688C70.6802 63.2395 70.6643 63.2554 70.7044 63.2873C70.9676 63.6223 72.9865 65.6936 73.8805 66.6164C74.4274 67.1686 74.7012 67.1891 75.1316 67.2621C75.2609 67.2978 75.3646 67.379 75.3646 67.4276C75.3646 67.5476 75.1997 67.6122 75.0711 67.6122C74.7542 67.6122 73.6513 67.5157 73.3253 67.5157C72.9017 67.5157 72.7724 67.5211 72.4993 67.5211C72.3329 67.5211 72.2467 67.3919 72.2467 67.3145C72.2467 67.2514 72.2936 67.2005 72.7618 67.1056C72.811 67.0949 72.8427 67.0228 72.8223 66.9871C72.46 66.5283 70.87 64.8436 70.2513 64.2132C69.9298 63.8646 69.8096 63.7119 69.7142 63.7119C69.6598 63.7119 69.6704 63.8646 69.6598 63.958C69.6341 64.1881 69.6704 66.1258 69.681 66.5693C69.6946 66.8777 69.8595 67.06 70.395 67.2013C70.6083 67.2522 70.665 67.3395 70.665 67.4208C70.665 67.5173 70.5531 67.5735 70.3595 67.5735C70.1015 67.5735 69.2687 67.5378 68.8981 67.5378C68.5184 67.5378 68.1235 67.5735 67.7423 67.5735C67.6062 67.5735 67.4609 67.5036 67.4609 67.4208C67.4609 67.3152 67.5509 67.2772 67.8028 67.2134C68.3875 67.0965 68.6144 66.9286 68.6492 66.2222C68.6583 65.8143 68.6818 64.691 68.6818 63.399C68.6818 61.4857 68.6583 61.2684 68.6341 60.8347C68.6152 60.4223 68.4548 60.2863 67.9783 60.1671C67.7083 60.0995 67.675 60.025 67.675 59.9658C67.6712 59.8526 67.8081 59.804 67.9912 59.804Z" fill="white"/>
<path d="M77.1116 61.0141C77.0829 60.4642 77.0829 60.2842 76.4082 60.1649C76.148 60.1201 76.0784 60.0358 76.0784 59.9538C76.0784 59.8543 76.2108 59.8057 76.3757 59.8057C76.6843 59.8057 77.2765 59.8459 77.6736 59.8459C78.2538 59.8459 78.5276 59.8057 78.9452 59.8057C79.1358 59.8057 79.2454 59.8543 79.2454 59.9538C79.2454 60.0464 79.1237 60.1209 78.9346 60.1543C78.2417 60.2971 78.2538 60.5971 78.2024 60.9237C78.1494 61.3149 78.1335 62.0919 78.1335 64.4389C78.1335 65.0914 78.1494 65.8342 78.1698 66.2208C78.2024 66.8687 78.2636 67.0943 79.0382 67.2508C79.2545 67.285 79.346 67.3685 79.346 67.4513C79.346 67.5478 79.1683 67.6123 79.0276 67.6123C78.4195 67.6123 77.5783 67.5364 77.2538 67.5364C76.8968 67.5364 76.7871 67.5592 76.3492 67.5592C76.1268 67.5592 76.0391 67.4741 76.0391 67.3913C76.0391 67.3131 76.1654 67.2348 76.4006 67.1885C76.9929 67.0571 77.0436 66.8756 77.092 66.315C77.1275 65.8973 77.1472 64.6508 77.1472 63.633C77.1464 62.8917 77.1381 61.4121 77.1116 61.0141Z" fill="white"/>
<path d="M80.3432 59.8043C80.6049 59.8043 81.179 59.8446 81.797 59.8446C81.8605 59.8446 81.9672 59.9289 82.0451 59.9957C82.2213 60.216 82.5163 60.5677 82.9792 61.1829C83.517 61.865 86.1312 64.7346 86.9322 65.6111C86.9995 65.6772 87.0464 65.5625 87.0464 65.5275C87.1077 65.1462 87.0752 63.8527 87.0752 62.1301C87.0752 61.7184 87.0464 61.3014 87.0139 60.9315C86.9988 60.6808 86.9156 60.399 86.265 60.2008C86.0238 60.1279 85.9375 60.0352 85.9375 59.9319C85.9375 59.8529 86.1107 59.8271 86.2545 59.8271C86.5593 59.8271 86.8898 59.8438 87.2756 59.8438C87.6992 59.8438 88.0827 59.7944 88.3913 59.7944C88.5955 59.7944 88.6659 59.8271 88.6659 59.9289C88.6659 59.9957 88.5955 60.1089 88.3822 60.1643C87.8679 60.2836 87.6591 60.399 87.6235 61.0348C87.5933 61.4723 87.4874 63.8254 87.4874 65.8868C87.4874 66.3866 87.5721 67.2844 87.5721 67.4735C87.5721 67.5943 87.5139 67.7234 87.4065 67.7234C87.2363 67.7234 86.9806 67.4857 86.8709 67.3474C86.6659 67.0937 86.4541 66.7838 86.1312 66.3866C85.0185 65.049 82.9573 62.7119 81.8847 61.4244C81.8409 61.3606 81.7576 61.3887 81.7576 61.4465C81.7471 61.7708 81.7047 62.1057 81.6941 63.0415C81.6941 64.1132 81.6593 65.9536 81.685 66.3281C81.7319 66.8757 81.862 67.0573 82.4377 67.2213C82.6797 67.2844 82.7342 67.3679 82.7342 67.4408C82.7342 67.5586 82.5776 67.5943 82.3499 67.5943C82.0035 67.5943 81.5088 67.5358 81.0746 67.5358C80.8205 67.5358 80.5058 67.5586 80.3122 67.5586C80.139 67.5586 79.9998 67.5464 79.9998 67.4264C79.9998 67.3368 80.1185 67.2608 80.238 67.2206C80.7902 67.0314 81.0194 66.9844 81.0731 66.0987C81.123 65.1318 81.2925 62.2569 81.2925 61.2657C81.2925 60.832 81.2312 60.7317 81.2085 60.6922C80.8764 60.2965 80.7479 60.2836 80.2131 60.1408C80.0792 60.1089 79.9453 60.0451 79.9453 59.9524C79.9453 59.8529 80.0679 59.8043 80.3432 59.8043Z" fill="white"/>
<path d="M93.6132 59.844C93.6798 59.8637 93.7494 60.0453 93.7494 60.0703C93.7774 60.2959 93.8697 60.9909 93.8697 61.0342C93.8697 61.2438 93.8697 61.36 93.7925 61.36C93.6889 61.36 93.5497 61.2811 93.5066 61.1102C93.3613 60.681 93.0338 60.3172 92.9211 60.2503C92.7086 60.081 92.4227 59.9754 92.0755 59.9754C91.2797 59.9754 90.7117 60.5678 90.7117 61.3737C90.7117 62.2237 91.3138 62.5958 92.3629 63.3022C93.2781 63.9197 94.0066 64.5448 94.0066 65.6227C94.0066 66.2197 93.6707 66.8903 93.0255 67.3134C92.6488 67.5588 91.9423 67.741 91.4106 67.741C91.0309 67.741 90.2223 67.6112 89.8524 67.4266C89.7299 67.3575 89.5786 67.0939 89.5786 67.0468C89.5211 66.6397 89.4023 66.1133 89.4023 65.9234C89.4023 65.8756 89.5211 65.6933 89.5695 65.6933C89.6663 65.6933 89.8403 66.0047 90.009 66.3754C90.3183 67.0316 91.099 67.337 91.5551 67.337C92.375 67.337 92.9945 66.7415 92.9945 65.887C92.9945 65.3826 92.7555 64.8418 91.5089 64.0451C90.4953 63.3812 89.7798 62.6908 89.7798 61.6745C89.7798 61.1109 90.0256 60.5686 90.4318 60.2169C90.8055 59.8797 91.3614 59.626 92.2003 59.626C92.7774 59.6245 93.3961 59.8037 93.6132 59.844Z" fill="white"/>
<path d="M97.8294 59.8161C98.5994 59.8161 98.728 59.8435 99.4179 59.8435C99.4451 59.8435 99.5374 59.9308 99.5533 59.9946C99.6932 60.4428 99.7673 60.5666 100.006 61.0831C100.669 62.4913 102.049 65.3662 102.215 65.5948C102.239 65.632 102.31 65.6723 102.335 65.632C102.437 65.4307 104.66 61.2054 104.858 60.701C104.872 60.6532 105.061 60.2491 105.129 60.0113C105.145 59.9521 105.239 59.8435 105.262 59.8435C105.686 59.8435 106.653 59.8032 106.759 59.8032C106.911 59.8032 107.07 59.826 107.07 59.9308C107.07 60.0212 106.971 60.0956 106.759 60.1268C106.57 60.1632 106.403 60.2149 106.22 60.2825C106.047 60.3539 105.856 60.5871 105.856 61.2054C105.856 64.5314 105.984 66.0445 106.024 66.3847C106.093 66.924 106.221 67.0448 106.797 67.2089C107.013 67.259 107.115 67.3555 107.115 67.439C107.115 67.534 106.949 67.5924 106.768 67.5924C106.639 67.5924 105.725 67.534 105.282 67.534C105.061 67.534 104.661 67.5696 104.381 67.5696C104.251 67.5696 104.059 67.5188 104.059 67.3995C104.059 67.2947 104.206 67.2324 104.372 67.1868C104.859 67.0448 104.88 66.763 104.915 66.3263C104.963 65.7839 104.943 62.3211 104.906 61.7059C104.895 61.6611 104.859 61.5502 104.806 61.636C104.654 61.8996 103.321 64.5314 102.856 65.512C102.566 66.1326 102.297 66.7524 102.121 67.2195C101.993 67.5696 101.931 67.5567 101.847 67.5567C101.777 67.5567 101.708 67.461 101.667 67.3349C101.584 67.0304 101.456 66.6377 101.229 66.0597C100.587 64.4813 99.6108 62.5938 99.1705 61.5753C99.1357 61.4917 99.1017 61.4818 99.0866 61.6117C98.9928 62.1183 98.8649 65.1307 98.9005 66.2313C98.9171 66.8382 99.02 67.0045 99.6213 67.1952C99.8884 67.2734 99.9443 67.322 99.9443 67.4253C99.9443 67.5188 99.8112 67.5696 99.6213 67.5696C99.2416 67.5696 98.7447 67.534 98.4338 67.534C98.1517 67.534 97.7757 67.5696 97.48 67.5696C97.3068 67.5696 97.1797 67.5339 97.1797 67.3995C97.1797 67.3555 97.2568 67.2727 97.4111 67.2324C98.1517 67.019 98.222 66.8169 98.3181 66.1326C98.4338 65.3031 98.7 61.8639 98.719 60.9661C98.719 60.8681 98.7 60.4177 98.1842 60.2704C97.9837 60.2149 97.8309 60.1625 97.6759 60.1268C97.5844 60.1086 97.48 60.0212 97.48 59.9308C97.4792 59.8161 97.5639 59.8161 97.8294 59.8161Z" fill="white"/>
<path d="M112.018 59.8447C112.416 59.8447 112.931 59.828 113.117 59.8045C113.145 59.7946 113.207 59.8789 113.222 59.9321C113.222 60.4888 113.24 60.8321 113.24 61.0737C113.24 61.2446 113.174 61.3881 113.07 61.3881C112.959 61.3881 112.903 61.2142 112.874 61.0988C112.727 60.4638 112.462 60.343 112.08 60.2838C111.767 60.2374 110.914 60.2161 110.388 60.2374C110.367 60.2374 110.242 60.2959 110.213 60.5678C110.189 60.8694 110.151 63.1192 110.175 63.3022C110.189 63.3493 110.203 63.4207 110.261 63.4207H111.03C112.151 63.4207 112.199 63.3675 112.416 62.8282C112.484 62.6452 112.554 62.5692 112.627 62.5692C112.712 62.5692 112.735 62.7348 112.727 62.8298C112.7 63.1678 112.685 63.4078 112.685 63.6957C112.685 64.0185 112.712 64.1863 112.727 64.4263C112.735 64.6405 112.675 64.7727 112.586 64.7727C112.505 64.7727 112.426 64.6405 112.386 64.5107C112.22 63.9562 112.173 63.9197 111.447 63.8848C111.069 63.8628 110.594 63.8628 110.27 63.8628C110.223 63.8628 110.163 63.9493 110.163 63.9699C110.114 64.219 110.124 65.3333 110.124 65.8475C110.124 66.1976 110.173 66.6511 110.251 66.841C110.298 66.986 110.387 67.0833 110.472 67.1053C110.677 67.141 111.086 67.1896 111.554 67.1896C111.697 67.1896 112.425 67.1782 112.685 67.1053C113.07 67.0073 113.388 66.7848 113.67 66.2212C113.809 65.9546 113.875 65.8885 113.943 65.8885C114.029 65.8885 114.064 66.0776 114.042 66.2098C114.029 66.3047 113.692 67.3802 113.611 67.4873C113.577 67.5375 113.468 67.6332 113.409 67.6332C113.279 67.6332 111.484 67.5375 109.548 67.5375C108.913 67.5375 108.655 67.596 108.205 67.596C107.977 67.596 107.844 67.5732 107.844 67.4425C107.844 67.3597 107.984 67.299 108.175 67.2519C108.767 67.106 108.992 67.0225 109.048 66.3776C109.081 65.8779 109.136 64.4605 109.136 62.9802C109.136 61.5537 109.151 61.3038 109.13 60.9605C109.102 60.4334 108.984 60.286 108.462 60.1668C108.214 60.1121 108.117 60.0627 108.117 59.9655C108.117 59.8554 108.278 59.7969 108.446 59.7969C109.005 59.7969 109.47 59.8462 110.27 59.8462H112.018V59.8447Z" fill="white"/>
<path d="M121.674 60.8974C122.319 61.5156 122.756 62.595 122.756 63.5398C122.756 65.2754 121.689 66.5256 120.856 66.9958C120.153 67.4006 119.168 67.6672 118.023 67.6672C117.541 67.6672 116.476 67.6308 115.693 67.5708C115.467 67.5579 115.252 67.5579 115.063 67.5579C114.789 67.5579 114.684 67.4728 114.684 67.3779C114.684 67.2837 114.8 67.2206 114.947 67.21C115.768 67.1151 115.823 66.8895 115.861 65.9408C115.882 65.3818 115.898 65.0103 115.898 64.304C115.898 63.6219 115.873 62.2121 115.834 61.2308C115.809 60.4637 115.798 60.2965 115.074 60.1895C114.947 60.1644 114.801 60.0808 114.801 59.9958C114.801 59.9001 114.911 59.8446 115.084 59.8446H115.42C116.015 59.8446 117.36 59.7383 118.381 59.7383C120.048 59.7383 121.2 60.4538 121.674 60.8974ZM117.041 60.2001C116.955 60.2593 116.926 60.2829 116.92 60.3543C116.898 60.5032 116.875 61.568 116.875 62.6299V64.3609C116.875 65.1995 116.883 65.9096 116.92 66.433C116.955 66.8059 117.149 66.973 117.179 66.995C117.406 67.1667 117.895 67.3118 118.156 67.3118C118.705 67.3118 119.713 67.0923 120.382 66.5249C121.091 65.9218 121.606 64.8774 121.606 63.5391C121.606 62.5106 121.091 61.3873 120.326 60.8108C119.74 60.3657 118.74 60.1082 117.862 60.1082C117.433 60.1089 117.149 60.1408 117.041 60.2001Z" fill="white"/>
<path d="M124.93 61.0141C124.898 60.4642 124.898 60.2842 124.232 60.1649C123.97 60.1201 123.9 60.0358 123.9 59.9538C123.9 59.8543 124.027 59.8057 124.195 59.8057C124.507 59.8057 125.104 59.8459 125.49 59.8459C126.077 59.8459 126.35 59.8057 126.765 59.8057C126.956 59.8057 127.06 59.8543 127.06 59.9538C127.06 60.0464 126.942 60.1209 126.752 60.1543C126.063 60.2971 126.078 60.5971 126.026 60.9237C125.97 61.3149 125.953 62.0919 125.953 64.4389C125.953 65.0914 125.969 65.8342 125.987 66.2208C126.026 66.8687 126.089 67.0943 126.856 67.2508C127.07 67.285 127.165 67.3685 127.165 67.4513C127.165 67.5478 126.987 67.6123 126.847 67.6123C126.238 67.6123 125.396 67.5364 125.077 67.5364C124.717 67.5364 124.608 67.5592 124.17 67.5592C123.944 67.5592 123.859 67.4741 123.859 67.3913C123.859 67.3131 123.983 67.2348 124.219 67.1885C124.812 67.0571 124.859 66.8756 124.911 66.315C124.949 65.8973 124.968 64.6508 124.968 63.633C124.967 62.8917 124.956 61.4121 124.93 61.0141Z" fill="white"/>
<path d="M134.132 59.8162C134.44 59.864 134.856 60.022 135.031 60.0448C135.091 60.0448 135.215 60.1268 135.215 60.4086C135.215 60.6539 135.271 61.1826 135.297 61.4454C135.303 61.6938 135.215 61.8411 135.12 61.8411C135.057 61.8411 134.985 61.7059 134.923 61.5267C134.816 61.1089 134.591 60.755 134.44 60.6319C133.782 60.1405 133.177 60.0114 132.533 60.0114C130.625 60.0114 129.395 61.6011 129.395 63.4066C129.395 64.2102 129.549 64.8535 129.817 65.3814C130.475 66.7532 131.859 67.2962 132.818 67.2962C133.048 67.2962 133.633 67.2605 134.113 66.9734C134.64 66.6985 134.933 66.3141 135.225 65.8113C135.377 65.5622 135.424 65.4969 135.471 65.4969C135.595 65.4969 135.608 65.7665 135.583 65.8964C135.546 66.1964 135.272 66.8322 135.104 67.1033C135.057 67.2104 134.857 67.357 134.737 67.4178C134.545 67.4952 133.586 67.7504 132.57 67.7504C130.898 67.7504 129.669 66.9119 129.191 66.3506C128.741 65.8212 128.195 64.9629 128.195 63.5995C128.195 62.2323 129.002 61.1461 129.505 60.7314C130.529 59.8883 131.628 59.6248 132.728 59.6248C133.141 59.6248 133.675 59.7129 134.132 59.8162Z" fill="white"/>
<path d="M137.708 61.0141C137.675 60.4642 137.675 60.2842 137.01 60.1649C136.745 60.1201 136.677 60.0358 136.677 59.9538C136.677 59.8543 136.804 59.8057 136.971 59.8057C137.283 59.8057 137.876 59.8459 138.272 59.8459C138.85 59.8459 139.127 59.8057 139.54 59.8057C139.737 59.8057 139.836 59.8543 139.836 59.9538C139.836 60.0464 139.719 60.1209 139.527 60.1543C138.843 60.2971 138.85 60.5971 138.808 60.9237C138.749 61.3149 138.735 62.0919 138.735 64.4389C138.735 65.0914 138.749 65.8342 138.77 66.2208C138.808 66.8687 138.861 67.0943 139.641 67.2508C139.854 67.285 139.948 67.3685 139.948 67.4513C139.948 67.5478 139.769 67.6123 139.625 67.6123C139.025 67.6123 138.177 67.5364 137.855 67.5364C137.495 67.5364 137.389 67.5592 136.95 67.5592C136.725 67.5592 136.641 67.4741 136.641 67.3913C136.641 67.3131 136.76 67.2348 136.999 67.1885C137.593 67.0571 137.644 66.8756 137.681 66.315C137.725 65.8973 137.746 64.6508 137.746 63.633C137.746 62.8917 137.735 61.4121 137.708 61.0141Z" fill="white"/>
<path d="M140.939 59.8043C141.194 59.8043 141.78 59.8446 142.389 59.8446C142.461 59.8446 142.566 59.9289 142.638 59.9957C142.818 60.216 143.112 60.5677 143.577 61.1829C144.11 61.865 146.724 64.7346 147.525 65.6111C147.596 65.6772 147.645 65.5625 147.645 65.5275C147.702 65.1462 147.665 63.8527 147.665 62.1301C147.665 61.7184 147.645 61.3014 147.605 60.9315C147.595 60.6808 147.516 60.399 146.858 60.2008C146.619 60.1279 146.544 60.0352 146.544 59.9319C146.544 59.8529 146.701 59.8271 146.848 59.8271C147.156 59.8271 147.491 59.8438 147.871 59.8438C148.295 59.8438 148.676 59.7944 148.988 59.7944C149.193 59.7944 149.261 59.8271 149.261 59.9289C149.261 59.9957 149.193 60.1089 148.972 60.1643C148.465 60.2836 148.249 60.399 148.21 61.0348C148.192 61.4723 148.081 63.8254 148.081 65.8868C148.081 66.3866 148.17 67.2844 148.17 67.4735C148.17 67.5943 148.108 67.7234 148.001 67.7234C147.833 67.7234 147.572 67.4857 147.461 67.3474C147.262 67.0937 147.05 66.7838 146.724 66.3866C145.61 65.049 143.551 62.7119 142.477 61.4244C142.432 61.3606 142.352 61.3887 142.352 61.4465C142.334 61.7708 142.304 62.1057 142.293 63.0415C142.293 64.1132 142.253 65.9536 142.282 66.3281C142.324 66.8757 142.459 67.0573 143.026 67.2213C143.281 67.2844 143.33 67.3679 143.33 67.4408C143.33 67.5586 143.17 67.5943 142.941 67.5943C142.596 67.5943 142.097 67.5358 141.669 67.5358C141.411 67.5358 141.098 67.5586 140.899 67.5586C140.73 67.5586 140.59 67.5464 140.59 67.4264C140.59 67.3368 140.705 67.2608 140.821 67.2206C141.386 67.0314 141.614 66.9844 141.658 66.0987C141.716 65.1318 141.883 62.2569 141.883 61.2657C141.883 60.832 141.826 60.7317 141.804 60.6922C141.475 60.2965 141.339 60.2836 140.802 60.1408C140.674 60.1089 140.547 60.0451 140.547 59.9524C140.548 59.8529 140.665 59.8043 140.939 59.8043Z" fill="white"/>
<path d="M154.036 59.8447C154.425 59.8447 154.95 59.828 155.135 59.8045C155.167 59.7946 155.227 59.8789 155.244 59.9321C155.244 60.4888 155.264 60.8321 155.264 61.0737C155.264 61.2446 155.197 61.3881 155.088 61.3881C154.98 61.3881 154.918 61.2142 154.896 61.0988C154.738 60.4638 154.477 60.343 154.103 60.2838C153.789 60.2374 152.937 60.2161 152.411 60.2374C152.379 60.2374 152.25 60.2959 152.234 60.5678C152.21 60.8694 152.171 63.1192 152.198 63.3022C152.21 63.3493 152.224 63.4207 152.281 63.4207H153.054C154.17 63.4207 154.221 63.3675 154.425 62.8282C154.505 62.6452 154.574 62.5692 154.648 62.5692C154.727 62.5692 154.75 62.7348 154.738 62.8298C154.718 63.1678 154.707 63.4078 154.707 63.6957C154.707 64.0185 154.727 64.1863 154.738 64.4263C154.75 64.6405 154.691 64.7727 154.61 64.7727C154.527 64.7727 154.444 64.6405 154.405 64.5107C154.243 63.9562 154.194 63.9197 153.465 63.8848C153.089 63.8628 152.613 63.8628 152.291 63.8628C152.243 63.8628 152.186 63.9493 152.186 63.9699C152.135 64.219 152.145 65.3333 152.145 65.8475C152.145 66.1976 152.198 66.6511 152.271 66.841C152.314 66.986 152.411 67.0833 152.489 67.1053C152.692 67.141 153.1 67.1896 153.579 67.1896C153.716 67.1896 154.444 67.1782 154.706 67.1053C155.087 67.0073 155.408 66.7848 155.695 66.2212C155.822 65.9546 155.896 65.8885 155.964 65.8885C156.055 65.8885 156.082 66.0776 156.061 66.2098C156.055 66.3047 155.717 67.3802 155.63 67.4873C155.594 67.5375 155.488 67.6332 155.429 67.6332C155.301 67.6332 153.501 67.5375 151.568 67.5375C150.932 67.5375 150.672 67.596 150.223 67.596C149.996 67.596 149.863 67.5732 149.863 67.4425C149.863 67.3597 150.006 67.299 150.197 67.2519C150.793 67.106 151.018 67.0225 151.064 66.3776C151.102 65.8779 151.158 64.4605 151.158 62.9802C151.158 61.5537 151.17 61.3038 151.146 60.9605C151.126 60.4334 151.008 60.286 150.48 60.1668C150.23 60.1121 150.138 60.0627 150.138 59.9655C150.138 59.8554 150.308 59.7969 150.469 59.7969C151.033 59.7969 151.493 59.8462 152.289 59.8462H154.036V59.8447Z" fill="white"/>
</svg>
