<svg width="100" height="100" viewBox="0 0 100 100" fill="none" xmlns="http://www.w3.org/2000/svg">
<path d="M50 94.7916C47.0833 94.7916 44.125 93.6666 41.9167 91.4583L34.7916 84.4166C33.0416 82.6666 30.625 81.7083 28.1667 81.7083H25C16.375 81.7083 9.375 74.75 9.375 66.2083V20.7499C9.375 12.2082 16.375 5.25 25 5.25H75C83.625 5.25 90.625 12.2082 90.625 20.7499V66.2083C90.625 74.75 83.625 81.7083 75 81.7083H71.8333C69.375 81.7083 66.9583 82.7083 65.2083 84.4166L58.0833 91.4583C55.875 93.6666 52.9167 94.7916 50 94.7916ZM25 11.4583C19.8333 11.4583 15.625 15.6248 15.625 20.7082V66.1666C15.625 71.2916 19.8333 75.4166 25 75.4166H28.1667C32.2917 75.4166 36.2915 77.0833 39.2082 79.9583L46.3333 87C48.375 89 51.6667 89 53.7083 87L60.8333 79.9583C63.75 77.0833 67.75 75.4166 71.875 75.4166H75C80.1667 75.4166 84.375 71.25 84.375 66.1666V20.7082C84.375 15.5832 80.1667 11.4583 75 11.4583H25Z" fill="#3C4E69"/>
<path d="M50.0012 44.7922C42.9179 44.7922 37.168 39.0419 37.168 31.9586C37.168 24.8753 42.9179 19.1255 50.0012 19.1255C57.0846 19.1255 62.835 24.8753 62.835 31.9586C62.835 39.0419 57.0846 44.7922 50.0012 44.7922ZM50.0012 25.3755C46.3762 25.3755 43.4179 28.3336 43.4179 31.9586C43.4179 35.5836 46.3762 38.542 50.0012 38.542C53.6262 38.542 56.585 35.5836 56.585 31.9586C56.585 28.3336 53.6262 25.3755 50.0012 25.3755Z" fill="#3C4E69"/>
<path d="M66.6654 68.3753C64.957 68.3753 63.5404 66.9587 63.5404 65.2503C63.5404 59.5003 57.457 54.792 49.9987 54.792C42.5404 54.792 36.457 59.5003 36.457 65.2503C36.457 66.9587 35.0404 68.3753 33.332 68.3753C31.6237 68.3753 30.207 66.9587 30.207 65.2503C30.207 56.042 39.082 48.542 49.9987 48.542C60.9154 48.542 69.7904 56.042 69.7904 65.2503C69.7904 66.9587 68.3737 68.3753 66.6654 68.3753Z" fill="#3C4E69"/>
</svg>
