<svg width="22" height="22" viewBox="0 0 22 22" fill="none" xmlns="http://www.w3.org/2000/svg">
<path d="M7.33398 5.27057C6.95815 5.27057 6.64648 4.9589 6.64648 4.58307V1.83307C6.64648 1.45724 6.95815 1.14557 7.33398 1.14557C7.70982 1.14557 8.02149 1.45724 8.02149 1.83307V4.58307C8.02149 4.9589 7.70982 5.27057 7.33398 5.27057Z" fill="#EA5455"/>
<path d="M14.666 5.27057C14.2902 5.27057 13.9785 4.9589 13.9785 4.58307V1.83307C13.9785 1.45724 14.2902 1.14557 14.666 1.14557C15.0418 1.14557 15.3535 1.45724 15.3535 1.83307V4.58307C15.3535 4.9589 15.0418 5.27057 14.666 5.27057Z" fill="#EA5455"/>
<path d="M7.79167 13.292C7.6725 13.292 7.55333 13.2645 7.44333 13.2187C7.32417 13.1729 7.2325 13.1087 7.14083 13.0262C6.97583 12.852 6.875 12.6229 6.875 12.3754C6.875 12.2562 6.9025 12.137 6.94833 12.027C6.99417 11.917 7.05833 11.8162 7.14083 11.7245C7.2325 11.642 7.32417 11.5779 7.44333 11.532C7.77333 11.3945 8.18583 11.4679 8.4425 11.7245C8.6075 11.8987 8.70833 12.137 8.70833 12.3754C8.70833 12.4304 8.69917 12.4945 8.69 12.5587C8.68083 12.6137 8.6625 12.6687 8.635 12.7237C8.61667 12.7787 8.58917 12.8337 8.5525 12.8887C8.525 12.9345 8.47917 12.9804 8.4425 13.0262C8.26833 13.1912 8.03 13.292 7.79167 13.292Z" fill="#EA5455"/>
<path d="M11.0006 13.2914C10.8815 13.2914 10.7623 13.2639 10.6523 13.218C10.5332 13.1722 10.4415 13.108 10.3498 13.0255C10.1848 12.8514 10.084 12.6222 10.084 12.3747C10.084 12.2555 10.1115 12.1364 10.1573 12.0264C10.2032 11.9164 10.2673 11.8155 10.3498 11.7239C10.4415 11.6414 10.5332 11.5772 10.6523 11.5314C10.9823 11.3847 11.3948 11.4672 11.6515 11.7239C11.8165 11.898 11.9173 12.1364 11.9173 12.3747C11.9173 12.4297 11.9081 12.4939 11.899 12.558C11.8898 12.613 11.8715 12.668 11.844 12.723C11.8256 12.778 11.7981 12.833 11.7615 12.888C11.734 12.9339 11.6881 12.9797 11.6515 13.0255C11.4773 13.1905 11.239 13.2914 11.0006 13.2914Z" fill="#EA5455"/>
<path d="M14.2077 13.2914C14.0885 13.2914 13.9693 13.2639 13.8593 13.218C13.7402 13.1722 13.6485 13.108 13.5568 13.0255C13.5202 12.9797 13.4835 12.9339 13.4468 12.888C13.4102 12.833 13.3827 12.778 13.3643 12.723C13.3368 12.668 13.3185 12.613 13.3093 12.558C13.3002 12.4939 13.291 12.4297 13.291 12.3747C13.291 12.1364 13.3918 11.898 13.5568 11.7239C13.6485 11.6414 13.7402 11.5772 13.8593 11.5314C14.1985 11.3847 14.6018 11.4672 14.8585 11.7239C15.0235 11.898 15.1243 12.1364 15.1243 12.3747C15.1243 12.4297 15.1152 12.4939 15.106 12.558C15.0968 12.613 15.0785 12.668 15.051 12.723C15.0327 12.778 15.0052 12.833 14.9685 12.888C14.941 12.9339 14.8952 12.9797 14.8585 13.0255C14.6843 13.1905 14.446 13.2914 14.2077 13.2914Z" fill="#EA5455"/>
<path d="M7.79167 16.4997C7.6725 16.4997 7.55333 16.4723 7.44333 16.4265C7.33333 16.3806 7.2325 16.3164 7.14083 16.2339C6.97583 16.0597 6.875 15.8214 6.875 15.583C6.875 15.4639 6.9025 15.3447 6.94833 15.2347C6.99417 15.1155 7.05833 15.0148 7.14083 14.9323C7.48 14.5931 8.10333 14.5931 8.4425 14.9323C8.6075 15.1065 8.70833 15.3447 8.70833 15.583C8.70833 15.8214 8.6075 16.0597 8.4425 16.2339C8.26833 16.3989 8.03 16.4997 7.79167 16.4997Z" fill="#EA5455"/>
<path d="M11.0006 16.4997C10.7623 16.4997 10.524 16.3989 10.3498 16.2339C10.1848 16.0597 10.084 15.8214 10.084 15.583C10.084 15.4639 10.1115 15.3447 10.1573 15.2347C10.2032 15.1155 10.2673 15.0148 10.3498 14.9323C10.689 14.5931 11.3123 14.5931 11.6515 14.9323C11.734 15.0148 11.7981 15.1155 11.844 15.2347C11.8898 15.3447 11.9173 15.4639 11.9173 15.583C11.9173 15.8214 11.8165 16.0597 11.6515 16.2339C11.4773 16.3989 11.239 16.4997 11.0006 16.4997Z" fill="#EA5455"/>
<path d="M14.2077 16.5001C13.9693 16.5001 13.731 16.3993 13.5568 16.2343C13.4743 16.1518 13.4102 16.0509 13.3643 15.9318C13.3185 15.8218 13.291 15.7026 13.291 15.5834C13.291 15.4643 13.3185 15.3451 13.3643 15.2351C13.4102 15.1159 13.4743 15.0151 13.5568 14.9326C13.7677 14.7218 14.0885 14.6209 14.3818 14.6851C14.446 14.6943 14.501 14.7126 14.556 14.7401C14.611 14.7584 14.666 14.7859 14.721 14.8226C14.7668 14.8501 14.8127 14.8959 14.8585 14.9326C15.0235 15.1068 15.1243 15.3451 15.1243 15.5834C15.1243 15.8218 15.0235 16.0601 14.8585 16.2343C14.6843 16.3993 14.446 16.5001 14.2077 16.5001Z" fill="#EA5455"/>
<path d="M18.7923 9.01959H3.20898C2.83315 9.01959 2.52148 8.70793 2.52148 8.33209C2.52148 7.95626 2.83315 7.64459 3.20898 7.64459H18.7923C19.1681 7.64459 19.4798 7.95626 19.4798 8.33209C19.4798 8.70793 19.1681 9.01959 18.7923 9.01959Z" fill="#EA5455"/>
<path d="M14.6667 20.8539H7.33333C3.9875 20.8539 2.0625 18.9289 2.0625 15.5831V7.7914C2.0625 4.44557 3.9875 2.52057 7.33333 2.52057H14.6667C18.0125 2.52057 19.9375 4.44557 19.9375 7.7914V15.5831C19.9375 18.9289 18.0125 20.8539 14.6667 20.8539ZM7.33333 3.89557C4.71167 3.89557 3.4375 5.16974 3.4375 7.7914V15.5831C3.4375 18.2047 4.71167 19.4789 7.33333 19.4789H14.6667C17.2883 19.4789 18.5625 18.2047 18.5625 15.5831V7.7914C18.5625 5.16974 17.2883 3.89557 14.6667 3.89557H7.33333Z" fill="#EA5455"/>
</svg>
