<svg width="22" height="22" viewBox="0 0 22 22" fill="none" xmlns="http://www.w3.org/2000/svg">
<path d="M13.7506 20.8541H8.25058C7.04058 20.8541 6.03225 20.735 5.17975 20.4783C4.86808 20.3866 4.66641 20.0841 4.68475 19.7633C4.91391 17.0225 7.69141 14.8683 11.0006 14.8683C14.3097 14.8683 17.0781 17.0133 17.3164 19.7633C17.3439 20.0933 17.1422 20.3866 16.8214 20.4783C15.9689 20.735 14.9606 20.8541 13.7506 20.8541ZM6.16058 19.305C6.76558 19.4241 7.45308 19.4791 8.25058 19.4791H13.7506C14.5481 19.4791 15.2356 19.4241 15.8406 19.305C15.3547 17.545 13.3472 16.2433 11.0006 16.2433C8.65391 16.2433 6.64641 17.545 6.16058 19.305Z" fill="#A4ABB6"/>
<path d="M13.7507 1.83331H8.25065C3.66732 1.83331 1.83398 3.66665 1.83398 8.24998V13.75C1.83398 17.215 2.87898 19.1125 5.37232 19.8183C5.57398 17.435 8.02148 15.5558 11.0007 15.5558C13.9798 15.5558 16.4273 17.435 16.629 19.8183C19.1223 19.1125 20.1673 17.215 20.1673 13.75V8.24998C20.1673 3.66665 18.334 1.83331 13.7507 1.83331ZM11.0007 12.9891C9.18565 12.9891 7.71898 11.5133 7.71898 9.69831C7.71898 7.88333 9.18565 6.41665 11.0007 6.41665C12.8157 6.41665 14.2823 7.88333 14.2823 9.69831C14.2823 11.5133 12.8157 12.9891 11.0007 12.9891Z" stroke="#A4ABB6" stroke-width="1.5" stroke-linecap="round" stroke-linejoin="round"/>
<path d="M11.0004 13.6767C8.80958 13.6767 7.03125 11.8892 7.03125 9.69835C7.03125 7.50754 8.80958 5.72919 11.0004 5.72919C13.1912 5.72919 14.9696 7.50754 14.9696 9.69835C14.9696 11.8892 13.1912 13.6767 11.0004 13.6767ZM11.0004 7.10419C9.5704 7.10419 8.40625 8.26837 8.40625 9.69835C8.40625 11.1375 9.5704 12.3017 11.0004 12.3017C12.4304 12.3017 13.5946 11.1375 13.5946 9.69835C13.5946 8.26837 12.4304 7.10419 11.0004 7.10419Z" fill="#A4ABB6"/>
</svg>
