<svg width="22" height="22" viewBox="0 0 22 22" fill="none" xmlns="http://www.w3.org/2000/svg">
<path d="M14.2077 10.3125H7.79102C7.41518 10.3125 7.10352 10.0008 7.10352 9.625C7.10352 9.24917 7.41518 8.9375 7.79102 8.9375H14.2077C14.5835 8.9375 14.8952 9.24917 14.8952 9.625C14.8952 10.0008 14.5835 10.3125 14.2077 10.3125Z" fill="#EA5455"/>
<path d="M14.6673 20.4599C14.3557 20.4599 14.044 20.3684 13.7782 20.1942L9.87315 17.5908H6.41732C3.26398 17.5908 1.14648 15.4733 1.14648 12.3199V6.81997C1.14648 3.66663 3.26398 1.54913 6.41732 1.54913H15.584C18.7373 1.54913 20.8548 3.66663 20.8548 6.81997V12.3199C20.8548 15.2349 19.0398 17.27 16.2715 17.5542V18.8558C16.2715 19.4516 15.9507 19.9924 15.4282 20.2674C15.1898 20.3958 14.924 20.4599 14.6673 20.4599ZM6.41732 2.91496C4.05232 2.91496 2.52148 4.44579 2.52148 6.81079V12.3108C2.52148 14.6758 4.05232 16.2066 6.41732 16.2066H10.084C10.2215 16.2066 10.3498 16.2433 10.469 16.3258L14.5482 19.0392C14.649 19.1034 14.7406 19.0759 14.7865 19.0484C14.8323 19.0209 14.9057 18.9658 14.9057 18.8466V16.8941C14.9057 16.5183 15.2173 16.2066 15.5932 16.2066C17.9582 16.2066 19.489 14.6758 19.489 12.3108V6.81079C19.489 4.44579 17.9582 2.91496 15.5932 2.91496H6.41732Z" fill="#EA5455"/>
</svg>
