<svg width="22" height="22" viewBox="0 0 22 22" fill="none" xmlns="http://www.w3.org/2000/svg">
<path d="M20.1673 20.8542H1.83398C1.45815 20.8542 1.14648 20.5425 1.14648 20.1667C1.14648 19.7909 1.45815 19.4792 1.83398 19.4792H20.1673C20.5432 19.4792 20.8548 19.7909 20.8548 20.1667C20.8548 20.5425 20.5432 20.8542 20.1673 20.8542Z" fill="#A4ABB6"/>
<path d="M19.25 20.8541H2.75C2.37417 20.8541 2.0625 20.5425 2.0625 20.1666V5.49998C2.0625 2.73165 3.64833 1.14581 6.41667 1.14581H15.5833C18.3517 1.14581 19.9375 2.73165 19.9375 5.49998V20.1666C19.9375 20.5425 19.6258 20.8541 19.25 20.8541ZM3.4375 19.4791H18.5625V5.49998C18.5625 3.46498 17.6183 2.52081 15.5833 2.52081H6.41667C4.38167 2.52081 3.4375 3.46498 3.4375 5.49998V19.4791Z" fill="#A4ABB6"/>
<path d="M13.75 20.8542H8.25C7.87417 20.8542 7.5625 20.5425 7.5625 20.1667V14.6117C7.5625 13.7592 8.25917 13.0625 9.11167 13.0625H12.8975C13.75 13.0625 14.4467 13.7592 14.4467 14.6117V20.1667C14.4375 20.5425 14.1258 20.8542 13.75 20.8542ZM8.9375 19.4792H13.0625V14.6117C13.0625 14.52 12.9892 14.4375 12.8883 14.4375H9.10249C9.01082 14.4375 8.92834 14.5108 8.92834 14.6117V19.4792H8.9375Z" fill="#A4ABB6"/>
<path d="M11 10.7708C10.6242 10.7708 10.3125 10.4592 10.3125 10.0833V5.5C10.3125 5.12417 10.6242 4.8125 11 4.8125C11.3758 4.8125 11.6875 5.12417 11.6875 5.5V10.0833C11.6875 10.4592 11.3758 10.7708 11 10.7708Z" fill="#A4ABB6"/>
<path d="M13.2923 8.47919H8.70898C8.33315 8.47919 8.02148 8.16752 8.02148 7.79169C8.02148 7.41585 8.33315 7.10419 8.70898 7.10419H13.2923C13.6682 7.10419 13.9798 7.41585 13.9798 7.79169C13.9798 8.16752 13.6682 8.47919 13.2923 8.47919Z" fill="#A4ABB6"/>
</svg>
