<svg width="22" height="22" viewBox="0 0 22 22" fill="none" xmlns="http://www.w3.org/2000/svg">
<path d="M10.1475 16.656C9.99168 16.656 9.84501 16.6285 9.68918 16.5735C9.18501 16.381 8.85505 15.9135 8.85505 15.3726V12.3476H7.95672C7.44338 12.3476 6.99422 12.0543 6.78338 11.596C6.57255 11.1285 6.65505 10.606 6.99422 10.221L10.8992 5.78431C11.2567 5.38098 11.8067 5.24348 12.3108 5.43598C12.815 5.62848 13.145 6.09598 13.145 6.63681V9.6618H14.0525C14.5658 9.6618 15.015 9.95513 15.2258 10.4135C15.4367 10.881 15.3542 11.4035 15.015 11.7885L11.11 16.2251C10.8533 16.5001 10.505 16.656 10.1475 16.656ZM8.15838 10.9726H9.54251C9.91835 10.9726 10.23 11.2843 10.23 11.6601V15.1251L13.8417 11.0276H12.4575C12.0817 11.0276 11.77 10.716 11.77 10.3401V6.87515L8.15838 10.9726Z" fill="#A4ABB6"/>
<path d="M10.9733 20.8542C5.54664 20.8542 1.11914 16.4359 1.11914 11C1.11914 5.56421 5.54664 1.14587 10.9733 1.14587C16.4 1.14587 20.8275 5.56421 20.8275 11C20.8275 16.4359 16.4091 20.8542 10.9733 20.8542ZM10.9733 2.52087C6.29831 2.52087 2.49414 6.32504 2.49414 11C2.49414 15.675 6.29831 19.4792 10.9733 19.4792C15.6483 19.4792 19.4525 15.675 19.4525 11C19.4525 6.32504 15.6483 2.52087 10.9733 2.52087Z" fill="#A4ABB6"/>
</svg>
