<svg width="22" height="22" viewBox="0 0 22 22" fill="none" xmlns="http://www.w3.org/2000/svg">
<path d="M7.33398 5.27081C6.95815 5.27081 6.64648 4.95915 6.64648 4.58331V1.83331C6.64648 1.45748 6.95815 1.14581 7.33398 1.14581C7.70982 1.14581 8.02148 1.45748 8.02148 1.83331V4.58331C8.02148 4.95915 7.70982 5.27081 7.33398 5.27081Z" fill="#A4ABB6"/>
<path d="M14.666 5.27081C14.2902 5.27081 13.9785 4.95915 13.9785 4.58331V1.83331C13.9785 1.45748 14.2902 1.14581 14.666 1.14581C15.0418 1.14581 15.3535 1.45748 15.3535 1.83331V4.58331C15.3535 4.95915 15.0418 5.27081 14.666 5.27081Z" fill="#A4ABB6"/>
<path d="M7.79167 13.2917C7.6725 13.2917 7.55333 13.2642 7.44333 13.2184C7.32417 13.1726 7.2325 13.1084 7.14083 13.0259C6.97583 12.8517 6.875 12.6226 6.875 12.3751C6.875 12.2559 6.9025 12.1367 6.94833 12.0267C6.99417 11.9167 7.05833 11.8159 7.14083 11.7242C7.2325 11.6417 7.32417 11.5776 7.44333 11.5317C7.77333 11.3942 8.18583 11.4676 8.4425 11.7242C8.6075 11.8984 8.70833 12.1367 8.70833 12.3751C8.70833 12.4301 8.69917 12.4942 8.69 12.5584C8.68083 12.6134 8.6625 12.6684 8.635 12.7234C8.61667 12.7784 8.58917 12.8334 8.5525 12.8884C8.525 12.9342 8.47917 12.9801 8.4425 13.0259C8.26833 13.1909 8.03 13.2917 7.79167 13.2917Z" fill="#A4ABB6"/>
<path d="M11.0006 13.2916C10.8815 13.2916 10.7623 13.2641 10.6523 13.2183C10.5332 13.1724 10.4415 13.1083 10.3498 13.0258C10.1848 12.8516 10.084 12.6224 10.084 12.3749C10.084 12.2558 10.1115 12.1366 10.1573 12.0266C10.2032 11.9166 10.2673 11.8158 10.3498 11.7241C10.4415 11.6416 10.5332 11.5774 10.6523 11.5316C10.9823 11.3849 11.3948 11.4674 11.6515 11.7241C11.8165 11.8983 11.9173 12.1366 11.9173 12.3749C11.9173 12.4299 11.9081 12.4941 11.899 12.5583C11.8898 12.6133 11.8715 12.6683 11.844 12.7233C11.8256 12.7783 11.7981 12.8333 11.7615 12.8883C11.734 12.9341 11.6881 12.9799 11.6515 13.0258C11.4773 13.1908 11.239 13.2916 11.0006 13.2916Z" fill="#A4ABB6"/>
<path d="M14.2077 13.2916C14.0885 13.2916 13.9693 13.2641 13.8593 13.2183C13.7402 13.1724 13.6485 13.1083 13.5568 13.0258C13.5202 12.9799 13.4835 12.9341 13.4468 12.8883C13.4102 12.8333 13.3827 12.7783 13.3643 12.7233C13.3368 12.6683 13.3185 12.6133 13.3093 12.5583C13.3002 12.4941 13.291 12.4299 13.291 12.3749C13.291 12.1366 13.3918 11.8983 13.5568 11.7241C13.6485 11.6416 13.7402 11.5774 13.8593 11.5316C14.1985 11.3849 14.6018 11.4674 14.8585 11.7241C15.0235 11.8983 15.1243 12.1366 15.1243 12.3749C15.1243 12.4299 15.1152 12.4941 15.106 12.5583C15.0968 12.6133 15.0785 12.6683 15.051 12.7233C15.0327 12.7783 15.0052 12.8333 14.9685 12.8883C14.941 12.9341 14.8952 12.9799 14.8585 13.0258C14.6843 13.1908 14.446 13.2916 14.2077 13.2916Z" fill="#A4ABB6"/>
<path d="M7.79167 16.4999C7.6725 16.4999 7.55333 16.4725 7.44333 16.4266C7.33333 16.3808 7.2325 16.3166 7.14083 16.2341C6.97583 16.0599 6.875 15.8216 6.875 15.5832C6.875 15.4641 6.9025 15.3449 6.94833 15.2349C6.99417 15.1157 7.05833 15.015 7.14083 14.9325C7.48 14.5933 8.10333 14.5933 8.4425 14.9325C8.6075 15.1066 8.70833 15.3449 8.70833 15.5832C8.70833 15.8216 8.6075 16.0599 8.4425 16.2341C8.26833 16.3991 8.03 16.4999 7.79167 16.4999Z" fill="#A4ABB6"/>
<path d="M11.0006 16.4999C10.7623 16.4999 10.524 16.3991 10.3498 16.2341C10.1848 16.0599 10.084 15.8216 10.084 15.5832C10.084 15.4641 10.1115 15.3449 10.1573 15.2349C10.2032 15.1157 10.2673 15.015 10.3498 14.9325C10.689 14.5933 11.3123 14.5933 11.6515 14.9325C11.734 15.015 11.7981 15.1157 11.844 15.2349C11.8898 15.3449 11.9173 15.4641 11.9173 15.5832C11.9173 15.8216 11.8165 16.0599 11.6515 16.2341C11.4773 16.3991 11.239 16.4999 11.0006 16.4999Z" fill="#A4ABB6"/>
<path d="M14.2077 16.4999C13.9693 16.4999 13.731 16.3991 13.5568 16.2341C13.4743 16.1516 13.4102 16.0507 13.3643 15.9316C13.3185 15.8216 13.291 15.7024 13.291 15.5832C13.291 15.4641 13.3185 15.3449 13.3643 15.2349C13.4102 15.1157 13.4743 15.0149 13.5568 14.9324C13.7677 14.7216 14.0885 14.6207 14.3818 14.6849C14.446 14.6941 14.501 14.7124 14.556 14.7399C14.611 14.7582 14.666 14.7857 14.721 14.8224C14.7668 14.8499 14.8127 14.8957 14.8585 14.9324C15.0235 15.1066 15.1243 15.3449 15.1243 15.5832C15.1243 15.8216 15.0235 16.0599 14.8585 16.2341C14.6843 16.3991 14.446 16.4999 14.2077 16.4999Z" fill="#A4ABB6"/>
<path d="M18.7923 9.01984H3.20898C2.83315 9.01984 2.52148 8.70817 2.52148 8.33234C2.52148 7.9565 2.83315 7.64484 3.20898 7.64484H18.7923C19.1682 7.64484 19.4798 7.9565 19.4798 8.33234C19.4798 8.70817 19.1682 9.01984 18.7923 9.01984Z" fill="#A4ABB6"/>
<path d="M14.6667 20.8541H7.33333C3.9875 20.8541 2.0625 18.9291 2.0625 15.5833V7.79165C2.0625 4.44581 3.9875 2.52081 7.33333 2.52081H14.6667C18.0125 2.52081 19.9375 4.44581 19.9375 7.79165V15.5833C19.9375 18.9291 18.0125 20.8541 14.6667 20.8541ZM7.33333 3.89581C4.71167 3.89581 3.4375 5.16998 3.4375 7.79165V15.5833C3.4375 18.205 4.71167 19.4791 7.33333 19.4791H14.6667C17.2883 19.4791 18.5625 18.205 18.5625 15.5833V7.79165C18.5625 5.16998 17.2883 3.89581 14.6667 3.89581H7.33333Z" fill="#A4ABB6"/>
</svg>
