<svg width="22" height="22" viewBox="0 0 22 22" fill="none" xmlns="http://www.w3.org/2000/svg">
<path d="M10.9714 20.8541C5.54469 20.8541 1.11719 16.4358 1.11719 11C1.11719 5.56415 5.54469 1.14581 10.9714 1.14581C16.398 1.14581 20.8255 5.56415 20.8255 11C20.8255 16.4358 16.4072 20.8541 10.9714 20.8541ZM10.9714 2.52081C6.29635 2.52081 2.49219 6.32498 2.49219 11C2.49219 15.675 6.29635 19.4791 10.9714 19.4791C15.6464 19.4791 19.4505 15.675 19.4505 11C19.4505 6.32498 15.6464 2.52081 10.9714 2.52081Z" fill="#3C4E69"/>
<path d="M10.9986 15.565C8.47776 15.565 6.43359 13.5208 6.43359 11C6.43359 8.47916 8.47776 6.435 10.9986 6.435C13.5194 6.435 15.5636 8.47916 15.5636 11C15.5636 13.5208 13.5194 15.565 10.9986 15.565ZM10.9986 7.81C9.23857 7.81 7.80859 9.23998 7.80859 11C7.80859 12.76 9.23857 14.19 10.9986 14.19C12.7586 14.19 14.1886 12.76 14.1886 11C14.1886 9.23998 12.7586 7.81 10.9986 7.81Z" fill="#3C4E69"/>
</svg>
