<svg width="22" height="22" viewBox="0 0 22 22" fill="none" xmlns="http://www.w3.org/2000/svg">
<path d="M12.6501 10.0374C12.4759 10.0374 12.3017 9.97324 12.1642 9.83574C11.8984 9.56991 11.8984 9.12995 12.1642 8.86411L19.6809 1.34745C19.9467 1.08161 20.3867 1.08161 20.6526 1.34745C20.9184 1.61328 20.9184 2.05328 20.6526 2.31911L13.1359 9.83574C13.0076 9.96408 12.8334 10.0374 12.6501 10.0374Z" fill="#3C4E69"/>
<path d="M16.3455 10.7707H11.918C11.5421 10.7707 11.2305 10.4591 11.2305 10.0832V5.65576C11.2305 5.27993 11.5421 4.96826 11.918 4.96826C12.2938 4.96826 12.6055 5.27993 12.6055 5.65576V9.39574H16.3455C16.7213 9.39574 17.033 9.70741 17.033 10.0832C17.033 10.4591 16.7213 10.7707 16.3455 10.7707Z" fill="#3C4E69"/>
<path d="M13.7487 20.8541H8.2487C3.2712 20.8541 1.14453 18.7275 1.14453 13.75V8.24998C1.14453 3.27248 3.2712 1.14581 8.2487 1.14581H10.082C10.4579 1.14581 10.7695 1.45748 10.7695 1.83331C10.7695 2.20915 10.4579 2.52081 10.082 2.52081H8.2487C4.02286 2.52081 2.51953 4.02415 2.51953 8.24998V13.75C2.51953 17.9758 4.02286 19.4791 8.2487 19.4791H13.7487C17.9745 19.4791 19.4779 17.9758 19.4779 13.75V11.9166C19.4779 11.5408 19.7895 11.2291 20.1654 11.2291C20.5412 11.2291 20.8529 11.5408 20.8529 11.9166V13.75C20.8529 18.7275 18.7262 20.8541 13.7487 20.8541Z" fill="#3C4E69"/>
</svg>
