<svg width="22" height="22" viewBox="0 0 22 22" fill="none" xmlns="http://www.w3.org/2000/svg">
<path d="M14.6667 20.8541H7.33333C3.9875 20.8541 2.0625 18.9291 2.0625 15.5833V6.41665C2.0625 3.07081 3.9875 1.14581 7.33333 1.14581H14.6667C18.0125 1.14581 19.9375 3.07081 19.9375 6.41665V15.5833C19.9375 18.9291 18.0125 20.8541 14.6667 20.8541ZM7.33333 2.52081C4.71167 2.52081 3.4375 3.79498 3.4375 6.41665V15.5833C3.4375 18.205 4.71167 19.4791 7.33333 19.4791H14.6667C17.2883 19.4791 18.5625 18.205 18.5625 15.5833V6.41665C18.5625 3.79498 17.2883 2.52081 14.6667 2.52081H7.33333Z" fill="#3C4E69"/>
<path d="M16.9596 8.47917H15.1263C13.733 8.47917 12.6055 7.35167 12.6055 5.95833V4.125C12.6055 3.74917 12.9171 3.4375 13.293 3.4375C13.6688 3.4375 13.9805 3.74917 13.9805 4.125V5.95833C13.9805 6.59083 14.4938 7.10417 15.1263 7.10417H16.9596C17.3355 7.10417 17.6471 7.41583 17.6471 7.79167C17.6471 8.1675 17.3355 8.47917 16.9596 8.47917Z" fill="#3C4E69"/>
<path d="M9.41414 17.16C8.60744 17.1417 6.76494 16.1609 6.20578 14.41C5.81161 13.1909 6.26996 11.5776 7.68163 11.1193C8.28663 10.9268 8.90996 11.0093 9.40497 11.321C9.89997 11.0093 10.5325 10.9268 11.1466 11.1193C12.5583 11.5776 13.0166 13.1817 12.6408 14.41C12.0725 16.225 10.12 17.16 9.41414 17.16ZM7.51664 13.9885C7.90164 15.171 9.21247 15.7575 9.4508 15.785C9.6983 15.7575 10.9816 15.1251 11.33 13.9885C11.5133 13.3835 11.3208 12.6135 10.725 12.421C10.4866 12.3476 10.1475 12.3843 9.99164 12.6226C9.87247 12.8151 9.65247 12.9343 9.43247 12.9343C9.16663 12.9343 8.99246 12.8335 8.85496 12.641C8.67163 12.3843 8.34162 12.3476 8.10328 12.421C7.51662 12.6135 7.32414 13.3926 7.51664 13.9885Z" fill="#3C4E69"/>
</svg>
