<svg width="22" height="22" viewBox="0 0 22 22" fill="none" xmlns="http://www.w3.org/2000/svg">
<path d="M12.0843 17.1416C11.0118 17.1416 10.1043 16.4816 9.76509 15.4641L9.12345 13.5666C9.02261 13.2366 8.76595 12.9891 8.45428 12.8882L6.54761 12.2466C5.52095 11.8982 4.86095 10.9724 4.87928 9.89072C4.89761 8.80907 5.57595 7.90159 6.61178 7.58076L13.5143 5.43574C14.3851 5.16991 15.3293 5.39909 15.9709 6.04993C16.6126 6.70076 16.8418 7.63575 16.5759 8.50658L14.4309 15.4182C14.1101 16.4541 13.2026 17.1324 12.1118 17.1507C12.1026 17.1416 12.0934 17.1416 12.0843 17.1416ZM14.2293 6.69158C14.1193 6.69158 14.0184 6.70993 13.9084 6.73743L6.99678 8.89158C6.43761 9.06575 6.23595 9.52406 6.23595 9.90906C6.22678 10.2849 6.41928 10.7616 6.96928 10.9449L8.87595 11.5774C9.60926 11.8157 10.1868 12.3932 10.4251 13.1357L11.0576 15.0241C11.2409 15.5741 11.6718 15.7482 12.0934 15.7666C12.4693 15.7666 12.9368 15.5649 13.1109 15.0057L15.2559 8.09408C15.3751 7.70908 15.2743 7.30575 14.9901 7.02158C14.7793 6.80158 14.5134 6.69158 14.2293 6.69158Z" fill="#3C4E69"/>
<path d="M13.7487 20.8541H8.2487C3.2712 20.8541 1.14453 18.7275 1.14453 13.75V8.24998C1.14453 3.27248 3.2712 1.14581 8.2487 1.14581H13.7487C18.7262 1.14581 20.8529 3.27248 20.8529 8.24998V13.75C20.8529 18.7275 18.7262 20.8541 13.7487 20.8541ZM8.2487 2.52081C4.02286 2.52081 2.51953 4.02415 2.51953 8.24998V13.75C2.51953 17.9758 4.02286 19.4791 8.2487 19.4791H13.7487C17.9745 19.4791 19.4779 17.9758 19.4779 13.75V8.24998C19.4779 4.02415 17.9745 2.52081 13.7487 2.52081H8.2487Z" fill="#3C4E69"/>
</svg>
