<svg width="22" height="22" viewBox="0 0 22 22" fill="none" xmlns="http://www.w3.org/2000/svg">
<path d="M15.582 19.9375H6.41536C2.37286 19.9375 1.14453 18.7092 1.14453 14.6667V7.33333C1.14453 3.29083 2.37286 2.0625 6.41536 2.0625H15.582C19.6245 2.0625 20.8529 3.29083 20.8529 7.33333V14.6667C20.8529 18.7092 19.6245 19.9375 15.582 19.9375ZM6.41536 3.4375C3.1337 3.4375 2.51953 4.06083 2.51953 7.33333V14.6667C2.51953 17.9392 3.1337 18.5625 6.41536 18.5625H15.582C18.8637 18.5625 19.4779 17.9392 19.4779 14.6667V7.33333C19.4779 4.06083 18.8637 3.4375 15.582 3.4375H6.41536Z" fill="#3C4E69"/>
<path d="M17.4154 8.02081H12.832C12.4562 8.02081 12.1445 7.70915 12.1445 7.33331C12.1445 6.95748 12.4562 6.64581 12.832 6.64581H17.4154C17.7912 6.64581 18.1029 6.95748 18.1029 7.33331C18.1029 7.70915 17.7912 8.02081 17.4154 8.02081Z" fill="#3C4E69"/>
<path d="M17.4167 11.6875H13.75C13.3742 11.6875 13.0625 11.3758 13.0625 11C13.0625 10.6242 13.3742 10.3125 13.75 10.3125H17.4167C17.7925 10.3125 18.1042 10.6242 18.1042 11C18.1042 11.3758 17.7925 11.6875 17.4167 11.6875Z" fill="#3C4E69"/>
<path d="M17.4154 15.3542H15.582C15.2062 15.3542 14.8945 15.0425 14.8945 14.6667C14.8945 14.2909 15.2062 13.9792 15.582 13.9792H17.4154C17.7912 13.9792 18.1029 14.2909 18.1029 14.6667C18.1029 15.0425 17.7912 15.3542 17.4154 15.3542Z" fill="#3C4E69"/>
<path d="M7.79198 11.0366C6.49948 11.0366 5.44531 9.98241 5.44531 8.68993C5.44531 7.39743 6.49948 6.34326 7.79198 6.34326C9.08448 6.34326 10.1386 7.39743 10.1386 8.68993C10.1386 9.98241 9.08448 11.0366 7.79198 11.0366ZM7.79198 7.71826C7.26031 7.71826 6.82031 8.15826 6.82031 8.68993C6.82031 9.22158 7.26031 9.66158 7.79198 9.66158C8.32365 9.66158 8.76365 9.22158 8.76365 8.68993C8.76365 8.15826 8.32365 7.71826 7.79198 7.71826Z" fill="#3C4E69"/>
<path d="M10.9994 15.6565C10.6511 15.6565 10.3486 15.3907 10.3119 15.0332C10.2111 14.0432 9.41358 13.2457 8.41443 13.154C7.99276 13.1173 7.57109 13.1173 7.14943 13.154C6.15026 13.2457 5.35276 14.034 5.25193 15.0332C5.21526 15.409 4.87609 15.6932 4.50026 15.6473C4.12443 15.6107 3.84943 15.2715 3.88609 14.8957C4.05109 13.2457 5.36193 11.9348 7.02109 11.7882C7.52526 11.7423 8.03859 11.7423 8.54276 11.7882C10.1928 11.944 11.5127 13.2548 11.6777 14.8957C11.7144 15.2715 11.4394 15.6107 11.0636 15.6473C11.0452 15.6565 11.0178 15.6565 10.9994 15.6565Z" fill="#3C4E69"/>
</svg>
