<svg width="22" height="22" viewBox="0 0 22 22" fill="none" xmlns="http://www.w3.org/2000/svg">
<path d="M13.7213 20.8541H8.22136C3.24385 20.8541 1.11719 18.7275 1.11719 13.75V8.24998C1.11719 3.27248 3.24385 1.14581 8.22136 1.14581H13.7213C18.6988 1.14581 20.8255 3.27248 20.8255 8.24998V13.75C20.8255 18.7275 18.708 20.8541 13.7213 20.8541ZM8.22136 2.52081C3.99552 2.52081 2.49219 4.02415 2.49219 8.24998V13.75C2.49219 17.9758 3.99552 19.4791 8.22136 19.4791H13.7213C17.9472 19.4791 19.4505 17.9758 19.4505 13.75V8.24998C19.4505 4.02415 17.9472 2.52081 13.7213 2.52081H8.22136Z" fill="#3C4E69"/>
<path d="M10.4959 16.5549C10.2759 16.5549 9.74419 16.4724 9.43252 15.6749L8.38755 13.0349C8.24089 12.6591 7.71839 12.3108 7.32422 12.3108L1.82422 12.3291C1.44839 12.3291 1.13672 12.0266 1.13672 11.6416C1.13672 11.2658 1.43922 10.9541 1.82422 10.9541L7.32422 10.9358H7.33338C8.29588 10.9358 9.32252 11.6324 9.68002 12.5308L10.5142 14.6391L12.4025 9.85409C12.6867 9.13908 13.1909 9.03825 13.4017 9.01992C13.6125 9.01075 14.1259 9.05658 14.4834 9.73492L15.4367 11.5408C15.6017 11.8524 16.0967 12.1549 16.4542 12.1549H20.1759C20.5517 12.1549 20.8634 12.4666 20.8634 12.8424C20.8634 13.2183 20.5517 13.5299 20.1759 13.5299H16.4542C15.5834 13.5299 14.63 12.9524 14.2267 12.1824L13.5117 10.8258L11.5867 15.6749C11.2475 16.4633 10.7067 16.5549 10.4959 16.5549Z" fill="#3C4E69"/>
</svg>
