<svg width="22" height="22" viewBox="0 0 22 22" fill="none" xmlns="http://www.w3.org/2000/svg">
<path d="M7.33203 5.27057C6.9562 5.27057 6.64453 4.9589 6.64453 4.58307V1.83307C6.64453 1.45724 6.9562 1.14557 7.33203 1.14557C7.70787 1.14557 8.01953 1.45724 8.01953 1.83307V4.58307C8.01953 4.9589 7.70787 5.27057 7.33203 5.27057Z" fill="#3C4E69"/>
<path d="M14.668 5.27057C14.2921 5.27057 13.9805 4.9589 13.9805 4.58307V1.83307C13.9805 1.45724 14.2921 1.14557 14.668 1.14557C15.0438 1.14557 15.3555 1.45724 15.3555 1.83307V4.58307C15.3555 4.9589 15.0438 5.27057 14.668 5.27057Z" fill="#3C4E69"/>
<path d="M7.79167 13.292C7.6725 13.292 7.55333 13.2645 7.44333 13.2187C7.32417 13.1729 7.2325 13.1087 7.14083 13.0262C6.97583 12.852 6.875 12.6229 6.875 12.3754C6.875 12.2562 6.9025 12.137 6.94833 12.027C6.99417 11.917 7.05833 11.8162 7.14083 11.7245C7.2325 11.642 7.32417 11.5779 7.44333 11.532C7.77333 11.3945 8.18583 11.4679 8.4425 11.7245C8.6075 11.8987 8.70833 12.137 8.70833 12.3754C8.70833 12.4304 8.69917 12.4945 8.69 12.5587C8.68083 12.6137 8.6625 12.6687 8.635 12.7237C8.61667 12.7787 8.58917 12.8337 8.5525 12.8887C8.525 12.9345 8.47917 12.9804 8.4425 13.0262C8.26833 13.1912 8.03 13.292 7.79167 13.292Z" fill="#3C4E69"/>
<path d="M10.9987 13.2914C10.8795 13.2914 10.7604 13.2639 10.6504 13.218C10.5312 13.1722 10.4395 13.108 10.3479 13.0255C10.1829 12.8514 10.082 12.6222 10.082 12.3747C10.082 12.2555 10.1095 12.1364 10.1554 12.0264C10.2012 11.9164 10.2654 11.8155 10.3479 11.7239C10.4395 11.6414 10.5312 11.5772 10.6504 11.5314C10.9804 11.3847 11.3929 11.4672 11.6495 11.7239C11.8145 11.898 11.9154 12.1364 11.9154 12.3747C11.9154 12.4297 11.9062 12.4939 11.897 12.558C11.8879 12.613 11.8695 12.668 11.842 12.723C11.8237 12.778 11.7962 12.833 11.7595 12.888C11.732 12.9339 11.6862 12.9797 11.6495 13.0255C11.4754 13.1905 11.237 13.2914 10.9987 13.2914Z" fill="#3C4E69"/>
<path d="M14.2096 13.2914C14.0905 13.2914 13.9713 13.2639 13.8613 13.218C13.7421 13.1722 13.6505 13.108 13.5588 13.0255C13.5221 12.9797 13.4855 12.9339 13.4488 12.888C13.4121 12.833 13.3846 12.778 13.3663 12.723C13.3388 12.668 13.3205 12.613 13.3113 12.558C13.3021 12.4939 13.293 12.4297 13.293 12.3747C13.293 12.1364 13.3938 11.898 13.5588 11.7239C13.6505 11.6414 13.7421 11.5772 13.8613 11.5314C14.2005 11.3847 14.6038 11.4672 14.8605 11.7239C15.0255 11.898 15.1263 12.1364 15.1263 12.3747C15.1263 12.4297 15.1171 12.4939 15.108 12.558C15.0988 12.613 15.0805 12.668 15.053 12.723C15.0346 12.778 15.0071 12.833 14.9705 12.888C14.943 12.9339 14.8971 12.9797 14.8605 13.0255C14.6863 13.1905 14.448 13.2914 14.2096 13.2914Z" fill="#3C4E69"/>
<path d="M7.79167 16.4997C7.6725 16.4997 7.55333 16.4723 7.44333 16.4265C7.33333 16.3806 7.2325 16.3164 7.14083 16.2339C6.97583 16.0597 6.875 15.8214 6.875 15.583C6.875 15.4639 6.9025 15.3447 6.94833 15.2347C6.99417 15.1155 7.05833 15.0148 7.14083 14.9323C7.48 14.5931 8.10333 14.5931 8.4425 14.9323C8.6075 15.1065 8.70833 15.3447 8.70833 15.583C8.70833 15.8214 8.6075 16.0597 8.4425 16.2339C8.26833 16.3989 8.03 16.4997 7.79167 16.4997Z" fill="#3C4E69"/>
<path d="M10.9987 16.4997C10.7604 16.4997 10.522 16.3989 10.3479 16.2339C10.1829 16.0597 10.082 15.8214 10.082 15.583C10.082 15.4639 10.1095 15.3447 10.1554 15.2347C10.2012 15.1155 10.2654 15.0148 10.3479 14.9323C10.687 14.5931 11.3104 14.5931 11.6495 14.9323C11.732 15.0148 11.7962 15.1155 11.842 15.2347C11.8879 15.3447 11.9154 15.4639 11.9154 15.583C11.9154 15.8214 11.8145 16.0597 11.6495 16.2339C11.4754 16.3989 11.237 16.4997 10.9987 16.4997Z" fill="#3C4E69"/>
<path d="M14.2096 16.5001C13.9713 16.5001 13.733 16.3993 13.5588 16.2343C13.4763 16.1518 13.4121 16.0509 13.3663 15.9318C13.3205 15.8218 13.293 15.7026 13.293 15.5834C13.293 15.4643 13.3205 15.3451 13.3663 15.2351C13.4121 15.1159 13.4763 15.0151 13.5588 14.9326C13.7696 14.7218 14.0905 14.6209 14.3838 14.6851C14.448 14.6943 14.503 14.7126 14.558 14.7401C14.613 14.7584 14.668 14.7859 14.723 14.8226C14.7688 14.8501 14.8146 14.8959 14.8605 14.9326C15.0255 15.1068 15.1263 15.3451 15.1263 15.5834C15.1263 15.8218 15.0255 16.0601 14.8605 16.2343C14.6863 16.3993 14.448 16.5001 14.2096 16.5001Z" fill="#3C4E69"/>
<path d="M18.7904 9.01959H3.20703C2.8312 9.01959 2.51953 8.70793 2.51953 8.33209C2.51953 7.95626 2.8312 7.64459 3.20703 7.64459H18.7904C19.1662 7.64459 19.4779 7.95626 19.4779 8.33209C19.4779 8.70793 19.1662 9.01959 18.7904 9.01959Z" fill="#3C4E69"/>
<path d="M14.6667 20.8539H7.33333C3.9875 20.8539 2.0625 18.9289 2.0625 15.5831V7.7914C2.0625 4.44557 3.9875 2.52057 7.33333 2.52057H14.6667C18.0125 2.52057 19.9375 4.44557 19.9375 7.7914V15.5831C19.9375 18.9289 18.0125 20.8539 14.6667 20.8539ZM7.33333 3.89557C4.71167 3.89557 3.4375 5.16974 3.4375 7.7914V15.5831C3.4375 18.2047 4.71167 19.4789 7.33333 19.4789H14.6667C17.2883 19.4789 18.5625 18.2047 18.5625 15.5831V7.7914C18.5625 5.16974 17.2883 3.89557 14.6667 3.89557H7.33333Z" fill="#3C4E69"/>
</svg>
