<svg width="22" height="22" viewBox="0 0 22 22" fill="none" xmlns="http://www.w3.org/2000/svg">
<path d="M10.4487 20.8542H6.96536C2.9412 20.8542 1.14453 19.0575 1.14453 15.0334V11.55C1.14453 7.52585 2.9412 5.72919 6.96536 5.72919H9.71537C10.0912 5.72919 10.4029 6.04085 10.4029 6.41669C10.4029 6.79252 10.0912 7.10419 9.71537 7.10419H6.96536C3.6837 7.10419 2.51953 8.26835 2.51953 11.55V15.0334C2.51953 18.315 3.6837 19.4792 6.96536 19.4792H10.4487C13.7304 19.4792 14.8945 18.315 14.8945 15.0334V12.2834C14.8945 11.9075 15.2062 11.5959 15.582 11.5959C15.9579 11.5959 16.2695 11.9075 16.2695 12.2834V15.0334C16.2695 19.0575 14.4729 20.8542 10.4487 20.8542Z" fill="#3C4E69"/>
<path d="M15.5815 12.9708H12.6482C10.0723 12.9708 9.02734 11.9258 9.02734 9.34996V6.41662C9.02734 6.14162 9.19233 5.88495 9.449 5.78412C9.70567 5.67412 9.999 5.73828 10.2007 5.93078L16.0673 11.7975C16.2598 11.99 16.324 12.2925 16.214 12.5491C16.1132 12.8058 15.8565 12.9708 15.5815 12.9708ZM10.4023 8.07578V9.34996C10.4023 11.1741 10.824 11.5958 12.6482 11.5958H13.9223L10.4023 8.07578Z" fill="#3C4E69"/>
<path d="M14.2995 2.52081H10.6328C10.257 2.52081 9.94531 2.20915 9.94531 1.83331C9.94531 1.45748 10.257 1.14581 10.6328 1.14581H14.2995C14.6753 1.14581 14.987 1.45748 14.987 1.83331C14.987 2.20915 14.6753 2.52081 14.2995 2.52081Z" fill="#3C4E69"/>
<path d="M6.41797 5.27081C6.04214 5.27081 5.73047 4.95915 5.73047 4.58331C5.73047 2.68581 7.27047 1.14581 9.16797 1.14581H11.5696C11.9455 1.14581 12.2571 1.45748 12.2571 1.83331C12.2571 2.20915 11.9455 2.52081 11.5696 2.52081H9.16797C8.0313 2.52081 7.10547 3.44665 7.10547 4.58331C7.10547 4.95915 6.7938 5.27081 6.41797 5.27081Z" fill="#3C4E69"/>
<path d="M17.5898 16.2708C17.214 16.2708 16.9023 15.9591 16.9023 15.5833C16.9023 15.2075 17.214 14.8958 17.5898 14.8958C18.6348 14.8958 19.4782 14.0433 19.4782 13.0075V7.33331C19.4782 6.95748 19.7898 6.64581 20.1657 6.64581C20.5415 6.64581 20.8532 6.95748 20.8532 7.33331V13.0075C20.8532 14.8041 19.3865 16.2708 17.5898 16.2708Z" fill="#3C4E69"/>
<path d="M20.168 8.0208H17.418C14.9796 8.0208 13.9805 7.02164 13.9805 4.5833V1.8333C13.9805 1.5583 14.1455 1.30164 14.4021 1.2008C14.6588 1.0908 14.9521 1.15497 15.1538 1.34747L20.6538 6.84747C20.8463 7.03997 20.9105 7.34247 20.8005 7.59914C20.6996 7.8558 20.443 8.0208 20.168 8.0208ZM15.3555 3.49247V4.5833C15.3555 6.2608 15.7405 6.6458 17.418 6.6458H18.5088L15.3555 3.49247Z" fill="#3C4E69"/>
</svg>
