<svg width="918" height="227" viewBox="0 0 918 227" fill="none" xmlns="http://www.w3.org/2000/svg">
<g filter="url(#filter0_d_7_3113)">
<path d="M548.014 40.7464C557.567 39.8042 562.913 52.5394 555.571 59H500.529C493.449 46.9511 502.184 30.9157 514.956 34.0275C525.196 17.3359 544.163 26.2789 548.014 40.7464H548.014Z" fill="white"/>
</g>
<g filter="url(#filter1_d_7_3113)">
<path d="M117.635 141.431C125.779 140.627 130.335 151.49 124.077 157H77.1562C71.1204 146.723 78.5669 133.046 89.4544 135.7C98.1836 121.463 114.352 129.091 117.635 141.431H117.635Z" fill="white"/>
</g>
<g filter="url(#filter2_d_7_3113)">
<path d="M78.0379 122.021C81.4832 121.66 83.4111 126.53 80.7633 129H60.9123C58.3586 124.393 61.5091 118.262 66.1153 119.452C69.8085 113.07 76.6491 116.489 78.0378 122.021H78.0379Z" fill="white"/>
</g>
<g filter="url(#filter3_d_7_3113)">
<path d="M506.261 173.516C508.135 171.9 510.525 171.008 513 171C518.044 171 522.231 174.75 522.686 179.586C525.671 180.007 528 182.507 528 185.574C528 188.942 525.191 191.625 521.788 191.625H505.089C501.202 191.625 498 188.561 498 184.721C498 181.416 500.374 178.678 503.516 177.984C503.784 176.366 504.825 174.754 506.261 173.516Z" fill="white"/>
</g>
<g filter="url(#filter4_d_7_3113)">
<path d="M296 31.669C296 30.7209 296.337 29.8035 296.95 29.0806C297.564 28.3578 298.414 27.8763 299.349 27.7223C299.872 26.791 300.663 26.0381 301.618 25.5612C302.574 25.0843 303.651 24.9053 304.709 25.0474C305.768 25.1896 306.759 25.6463 307.555 26.3584C308.351 27.0705 308.915 28.0052 309.173 29.0414C310.004 29.169 310.755 29.6055 311.278 30.2637C311.8 30.9218 312.055 31.7529 311.99 32.5906C311.926 33.4283 311.548 34.2109 310.931 34.7816C310.314 35.3523 309.505 35.669 308.665 35.6684H299.999C298.939 35.6684 297.921 35.247 297.171 34.497C296.421 33.747 296 32.7297 296 31.669Z" fill="white"/>
</g>
<g filter="url(#filter5_d_7_3113)">
<path d="M313.019 142.27C316.199 139.528 320.255 138.013 324.455 138C333.014 138 340.119 144.364 340.892 152.57C345.957 153.285 349.909 157.527 349.909 162.732C349.909 168.447 345.143 173 339.368 173H311.03C304.435 173 299 167.801 299 161.285C299 155.675 303.028 151.03 308.361 149.852C308.816 147.106 310.582 144.37 313.019 142.27Z" fill="white"/>
</g>
<g filter="url(#filter6_d_7_3113)">
<path d="M396 71.8C396 75.7754 392.677 79 388.58 79H370.606C367.509 79 365 76.5631 365 73.5585C365 70.5569 367.509 68.12 370.606 68.12C370.833 68.12 371.053 68.1385 371.271 68.1615C371.213 67.7766 371.183 67.3878 371.183 66.9985C371.183 62.5815 374.873 59 379.429 59C383.16 59 386.309 61.4031 387.328 64.7031C387.742 64.6356 388.162 64.6016 388.582 64.6015C392.677 64.6015 396 67.8215 396 71.8Z" fill="white"/>
</g>
<g filter="url(#filter7_d_7_3113)">
<path d="M61 42.8C61 46.7754 57.6768 50 53.5802 50H35.6063C32.5094 50 30 47.5631 30 44.5585C30 41.5569 32.5094 39.12 35.6063 39.12C35.8327 39.12 36.0527 39.1385 36.2713 39.1615C36.2127 38.7766 36.1831 38.3878 36.183 37.9985C36.183 33.5815 39.8735 30 44.4289 30C48.1598 30 51.3094 32.4031 52.3277 35.7031C52.7423 35.6356 53.1616 35.6016 53.5817 35.6015C57.6768 35.6015 61 38.8215 61 42.8Z" fill="white"/>
</g>
<g filter="url(#filter8_d_7_3113)">
<path d="M868 157.8C868 161.775 864.677 165 860.58 165H842.606C839.509 165 837 162.563 837 159.558C837 156.557 839.509 154.12 842.606 154.12C842.833 154.12 843.053 154.138 843.271 154.162C843.213 153.777 843.183 153.388 843.183 152.998C843.183 148.582 846.873 145 851.429 145C855.16 145 858.309 147.403 859.328 150.703C859.742 150.636 860.162 150.602 860.582 150.602C864.677 150.602 868 153.822 868 157.8Z" fill="white"/>
</g>
<g filter="url(#filter9_d_7_3113)">
<path d="M647.68 123.891C648.173 122.577 648.45 121.141 648.45 119.643C648.45 113.136 643.277 107.857 636.9 107.857C634.53 107.857 632.316 108.594 630.487 109.846C627.155 103.953 620.935 100 613.8 100C603.164 100 594.55 108.79 594.55 119.643C594.55 119.974 594.562 120.306 594.574 120.637C587.837 123.056 583 129.612 583 137.321C583 147.081 590.76 155 600.325 155H644.6C653.106 155 660 147.965 660 139.286C660 131.686 654.706 125.339 647.68 123.891Z" fill="white"/>
</g>
<g filter="url(#filter10_d_7_3113)">
<path d="M884.8 37.0813C884.928 36.7469 885 36.3812 885 36C885 34.3437 883.656 33 882 33C881.384 33 880.809 33.1875 880.334 33.5062C879.469 32.0062 877.853 31 876 31C873.237 31 871 33.2375 871 36C871 36.0844 871.003 36.1688 871.006 36.2531C869.256 36.8688 868 38.5375 868 40.5C868 42.9844 870.016 45 872.5 45H884C886.209 45 888 43.2094 888 41C888 39.0656 886.625 37.45 884.8 37.0813Z" fill="white"/>
</g>
<g filter="url(#filter11_d_7_3113)">
<path d="M265.68 85.8906C266.173 84.577 266.45 83.1406 266.45 81.6429C266.45 75.1362 261.277 69.8571 254.9 69.8571C252.53 69.8571 250.316 70.5938 248.487 71.846C245.155 65.9531 238.935 62 231.8 62C221.164 62 212.55 70.7902 212.55 81.6429C212.55 81.9743 212.562 82.3058 212.574 82.6373C205.837 85.0558 201 91.6116 201 99.3214C201 109.081 208.76 117 218.325 117H262.6C271.106 117 278 109.965 278 101.286C278 93.6864 272.706 87.3393 265.68 85.8906Z" fill="white"/>
</g>
<g filter="url(#filter12_d_7_3113)">
<path d="M758.76 67.1625C759.01 66.4938 759.15 65.7625 759.15 65C759.15 61.6875 756.53 59 753.3 59C752.1 59 750.978 59.375 750.052 60.0125C748.364 57.0125 745.214 55 741.6 55C736.213 55 731.85 59.475 731.85 65C731.85 65.1687 731.856 65.3375 731.862 65.5063C728.45 66.7375 726 70.075 726 74C726 78.9688 729.93 83 734.775 83H757.2C761.508 83 765 79.4188 765 75C765 71.1313 762.319 67.9 758.76 67.1625Z" fill="white"/>
</g>
<defs>
<filter id="filter0_d_7_3113" x="468" y="0" width="121" height="94" filterUnits="userSpaceOnUse" color-interpolation-filters="sRGB">
<feFlood flood-opacity="0" result="BackgroundImageFix"/>
<feColorMatrix in="SourceAlpha" type="matrix" values="0 0 0 0 0 0 0 0 0 0 0 0 0 0 0 0 0 0 127 0" result="hardAlpha"/>
<feOffset dy="5"/>
<feGaussianBlur stdDeviation="15"/>
<feComposite in2="hardAlpha" operator="out"/>
<feColorMatrix type="matrix" values="0 0 0 0 0.458824 0 0 0 0 0.752941 0 0 0 0 0.917647 0 0 0 0.2 0"/>
<feBlend mode="normal" in2="BackgroundImageFix" result="effect1_dropShadow_7_3113"/>
<feBlend mode="normal" in="SourceGraphic" in2="effect1_dropShadow_7_3113" result="shape"/>
</filter>
<filter id="filter1_d_7_3113" x="45" y="103" width="112" height="89" filterUnits="userSpaceOnUse" color-interpolation-filters="sRGB">
<feFlood flood-opacity="0" result="BackgroundImageFix"/>
<feColorMatrix in="SourceAlpha" type="matrix" values="0 0 0 0 0 0 0 0 0 0 0 0 0 0 0 0 0 0 127 0" result="hardAlpha"/>
<feOffset dy="5"/>
<feGaussianBlur stdDeviation="15"/>
<feComposite in2="hardAlpha" operator="out"/>
<feColorMatrix type="matrix" values="0 0 0 0 0.458824 0 0 0 0 0.752941 0 0 0 0 0.917647 0 0 0 0.2 0"/>
<feBlend mode="normal" in2="BackgroundImageFix" result="effect1_dropShadow_7_3113"/>
<feBlend mode="normal" in="SourceGraphic" in2="effect1_dropShadow_7_3113" result="shape"/>
</filter>
<filter id="filter2_d_7_3113" x="30" y="91" width="82" height="73" filterUnits="userSpaceOnUse" color-interpolation-filters="sRGB">
<feFlood flood-opacity="0" result="BackgroundImageFix"/>
<feColorMatrix in="SourceAlpha" type="matrix" values="0 0 0 0 0 0 0 0 0 0 0 0 0 0 0 0 0 0 127 0" result="hardAlpha"/>
<feOffset dy="5"/>
<feGaussianBlur stdDeviation="15"/>
<feComposite in2="hardAlpha" operator="out"/>
<feColorMatrix type="matrix" values="0 0 0 0 0.458824 0 0 0 0 0.752941 0 0 0 0 0.917647 0 0 0 0.2 0"/>
<feBlend mode="normal" in2="BackgroundImageFix" result="effect1_dropShadow_7_3113"/>
<feBlend mode="normal" in="SourceGraphic" in2="effect1_dropShadow_7_3113" result="shape"/>
</filter>
<filter id="filter3_d_7_3113" x="468" y="146" width="90" height="80.625" filterUnits="userSpaceOnUse" color-interpolation-filters="sRGB">
<feFlood flood-opacity="0" result="BackgroundImageFix"/>
<feColorMatrix in="SourceAlpha" type="matrix" values="0 0 0 0 0 0 0 0 0 0 0 0 0 0 0 0 0 0 127 0" result="hardAlpha"/>
<feOffset dy="5"/>
<feGaussianBlur stdDeviation="15"/>
<feComposite in2="hardAlpha" operator="out"/>
<feColorMatrix type="matrix" values="0 0 0 0 0.458824 0 0 0 0 0.752941 0 0 0 0 0.917647 0 0 0 0.2 0"/>
<feBlend mode="normal" in2="BackgroundImageFix" result="effect1_dropShadow_7_3113"/>
<feBlend mode="normal" in="SourceGraphic" in2="effect1_dropShadow_7_3113" result="shape"/>
</filter>
<filter id="filter4_d_7_3113" x="266" y="0" width="76" height="70.6684" filterUnits="userSpaceOnUse" color-interpolation-filters="sRGB">
<feFlood flood-opacity="0" result="BackgroundImageFix"/>
<feColorMatrix in="SourceAlpha" type="matrix" values="0 0 0 0 0 0 0 0 0 0 0 0 0 0 0 0 0 0 127 0" result="hardAlpha"/>
<feOffset dy="5"/>
<feGaussianBlur stdDeviation="15"/>
<feComposite in2="hardAlpha" operator="out"/>
<feColorMatrix type="matrix" values="0 0 0 0 0.458824 0 0 0 0 0.752941 0 0 0 0 0.917647 0 0 0 0.2 0"/>
<feBlend mode="normal" in2="BackgroundImageFix" result="effect1_dropShadow_7_3113"/>
<feBlend mode="normal" in="SourceGraphic" in2="effect1_dropShadow_7_3113" result="shape"/>
</filter>
<filter id="filter5_d_7_3113" x="269" y="113" width="110.908" height="95" filterUnits="userSpaceOnUse" color-interpolation-filters="sRGB">
<feFlood flood-opacity="0" result="BackgroundImageFix"/>
<feColorMatrix in="SourceAlpha" type="matrix" values="0 0 0 0 0 0 0 0 0 0 0 0 0 0 0 0 0 0 127 0" result="hardAlpha"/>
<feOffset dy="5"/>
<feGaussianBlur stdDeviation="15"/>
<feComposite in2="hardAlpha" operator="out"/>
<feColorMatrix type="matrix" values="0 0 0 0 0.458824 0 0 0 0 0.752941 0 0 0 0 0.917647 0 0 0 0.2 0"/>
<feBlend mode="normal" in2="BackgroundImageFix" result="effect1_dropShadow_7_3113"/>
<feBlend mode="normal" in="SourceGraphic" in2="effect1_dropShadow_7_3113" result="shape"/>
</filter>
<filter id="filter6_d_7_3113" x="335" y="34" width="91" height="80" filterUnits="userSpaceOnUse" color-interpolation-filters="sRGB">
<feFlood flood-opacity="0" result="BackgroundImageFix"/>
<feColorMatrix in="SourceAlpha" type="matrix" values="0 0 0 0 0 0 0 0 0 0 0 0 0 0 0 0 0 0 127 0" result="hardAlpha"/>
<feOffset dy="5"/>
<feGaussianBlur stdDeviation="15"/>
<feComposite in2="hardAlpha" operator="out"/>
<feColorMatrix type="matrix" values="0 0 0 0 0.458824 0 0 0 0 0.752941 0 0 0 0 0.917647 0 0 0 0.2 0"/>
<feBlend mode="normal" in2="BackgroundImageFix" result="effect1_dropShadow_7_3113"/>
<feBlend mode="normal" in="SourceGraphic" in2="effect1_dropShadow_7_3113" result="shape"/>
</filter>
<filter id="filter7_d_7_3113" x="0" y="5" width="91" height="80" filterUnits="userSpaceOnUse" color-interpolation-filters="sRGB">
<feFlood flood-opacity="0" result="BackgroundImageFix"/>
<feColorMatrix in="SourceAlpha" type="matrix" values="0 0 0 0 0 0 0 0 0 0 0 0 0 0 0 0 0 0 127 0" result="hardAlpha"/>
<feOffset dy="5"/>
<feGaussianBlur stdDeviation="15"/>
<feComposite in2="hardAlpha" operator="out"/>
<feColorMatrix type="matrix" values="0 0 0 0 0.458824 0 0 0 0 0.752941 0 0 0 0 0.917647 0 0 0 0.2 0"/>
<feBlend mode="normal" in2="BackgroundImageFix" result="effect1_dropShadow_7_3113"/>
<feBlend mode="normal" in="SourceGraphic" in2="effect1_dropShadow_7_3113" result="shape"/>
</filter>
<filter id="filter8_d_7_3113" x="807" y="120" width="91" height="80" filterUnits="userSpaceOnUse" color-interpolation-filters="sRGB">
<feFlood flood-opacity="0" result="BackgroundImageFix"/>
<feColorMatrix in="SourceAlpha" type="matrix" values="0 0 0 0 0 0 0 0 0 0 0 0 0 0 0 0 0 0 127 0" result="hardAlpha"/>
<feOffset dy="5"/>
<feGaussianBlur stdDeviation="15"/>
<feComposite in2="hardAlpha" operator="out"/>
<feColorMatrix type="matrix" values="0 0 0 0 0.458824 0 0 0 0 0.752941 0 0 0 0 0.917647 0 0 0 0.2 0"/>
<feBlend mode="normal" in2="BackgroundImageFix" result="effect1_dropShadow_7_3113"/>
<feBlend mode="normal" in="SourceGraphic" in2="effect1_dropShadow_7_3113" result="shape"/>
</filter>
<filter id="filter9_d_7_3113" x="553" y="75" width="137" height="115" filterUnits="userSpaceOnUse" color-interpolation-filters="sRGB">
<feFlood flood-opacity="0" result="BackgroundImageFix"/>
<feColorMatrix in="SourceAlpha" type="matrix" values="0 0 0 0 0 0 0 0 0 0 0 0 0 0 0 0 0 0 127 0" result="hardAlpha"/>
<feOffset dy="5"/>
<feGaussianBlur stdDeviation="15"/>
<feComposite in2="hardAlpha" operator="out"/>
<feColorMatrix type="matrix" values="0 0 0 0 0.458824 0 0 0 0 0.752941 0 0 0 0 0.917647 0 0 0 0.2 0"/>
<feBlend mode="normal" in2="BackgroundImageFix" result="effect1_dropShadow_7_3113"/>
<feBlend mode="normal" in="SourceGraphic" in2="effect1_dropShadow_7_3113" result="shape"/>
</filter>
<filter id="filter10_d_7_3113" x="838" y="6" width="80" height="74" filterUnits="userSpaceOnUse" color-interpolation-filters="sRGB">
<feFlood flood-opacity="0" result="BackgroundImageFix"/>
<feColorMatrix in="SourceAlpha" type="matrix" values="0 0 0 0 0 0 0 0 0 0 0 0 0 0 0 0 0 0 127 0" result="hardAlpha"/>
<feOffset dy="5"/>
<feGaussianBlur stdDeviation="15"/>
<feComposite in2="hardAlpha" operator="out"/>
<feColorMatrix type="matrix" values="0 0 0 0 0.458824 0 0 0 0 0.752941 0 0 0 0 0.917647 0 0 0 0.2 0"/>
<feBlend mode="normal" in2="BackgroundImageFix" result="effect1_dropShadow_7_3113"/>
<feBlend mode="normal" in="SourceGraphic" in2="effect1_dropShadow_7_3113" result="shape"/>
</filter>
<filter id="filter11_d_7_3113" x="171" y="37" width="137" height="115" filterUnits="userSpaceOnUse" color-interpolation-filters="sRGB">
<feFlood flood-opacity="0" result="BackgroundImageFix"/>
<feColorMatrix in="SourceAlpha" type="matrix" values="0 0 0 0 0 0 0 0 0 0 0 0 0 0 0 0 0 0 127 0" result="hardAlpha"/>
<feOffset dy="5"/>
<feGaussianBlur stdDeviation="15"/>
<feComposite in2="hardAlpha" operator="out"/>
<feColorMatrix type="matrix" values="0 0 0 0 0.458824 0 0 0 0 0.752941 0 0 0 0 0.917647 0 0 0 0.2 0"/>
<feBlend mode="normal" in2="BackgroundImageFix" result="effect1_dropShadow_7_3113"/>
<feBlend mode="normal" in="SourceGraphic" in2="effect1_dropShadow_7_3113" result="shape"/>
</filter>
<filter id="filter12_d_7_3113" x="696" y="30" width="99" height="88" filterUnits="userSpaceOnUse" color-interpolation-filters="sRGB">
<feFlood flood-opacity="0" result="BackgroundImageFix"/>
<feColorMatrix in="SourceAlpha" type="matrix" values="0 0 0 0 0 0 0 0 0 0 0 0 0 0 0 0 0 0 127 0" result="hardAlpha"/>
<feOffset dy="5"/>
<feGaussianBlur stdDeviation="15"/>
<feComposite in2="hardAlpha" operator="out"/>
<feColorMatrix type="matrix" values="0 0 0 0 0.458824 0 0 0 0 0.752941 0 0 0 0 0.917647 0 0 0 0.2 0"/>
<feBlend mode="normal" in2="BackgroundImageFix" result="effect1_dropShadow_7_3113"/>
<feBlend mode="normal" in="SourceGraphic" in2="effect1_dropShadow_7_3113" result="shape"/>
</filter>
</defs>
</svg>
