<svg width="120" height="120" viewBox="0 0 120 120" fill="none" xmlns="http://www.w3.org/2000/svg">
<path d="M40 28.7487C37.95 28.7487 36.25 27.0487 36.25 24.9987V9.99872C36.25 7.94872 37.95 6.24872 40 6.24872C42.05 6.24872 43.75 7.94872 43.75 9.99872V24.9987C43.75 27.0487 42.05 28.7487 40 28.7487Z" fill="#33A5DF"/>
<path d="M80 28.7487C77.95 28.7487 76.25 27.0487 76.25 24.9987V9.99872C76.25 7.94872 77.95 6.24872 80 6.24872C82.05 6.24872 83.75 7.94872 83.75 9.99872V24.9987C83.75 27.0487 82.05 28.7487 80 28.7487Z" fill="#33A5DF"/>
<path d="M42.5 72.5019C41.85 72.5019 41.2 72.3519 40.6 72.1019C39.95 71.8519 39.45 71.5019 38.95 71.0519C38.05 70.1019 37.5 68.8519 37.5 67.5019C37.5 66.8519 37.65 66.2019 37.9 65.6019C38.15 65.0019 38.5 64.4519 38.95 63.9519C39.45 63.5019 39.95 63.1519 40.6 62.9019C42.4 62.1519 44.65 62.5519 46.05 63.9519C46.95 64.9019 47.5 66.2019 47.5 67.5019C47.5 67.8019 47.45 68.1519 47.4 68.5019C47.35 68.8019 47.25 69.1019 47.1 69.4019C47 69.7019 46.85 70.0019 46.65 70.3019C46.5 70.5519 46.25 70.8019 46.05 71.0519C45.1 71.9519 43.8 72.5019 42.5 72.5019Z" fill="#33A5DF"/>
<path d="M60 72.4985C59.35 72.4985 58.7 72.3485 58.1 72.0985C57.45 71.8485 56.95 71.4985 56.45 71.0485C55.55 70.0985 55 68.8485 55 67.4985C55 66.8485 55.15 66.1985 55.4 65.5985C55.65 64.9985 56 64.4485 56.45 63.9485C56.95 63.4985 57.45 63.1485 58.1 62.8985C59.9 62.0985 62.15 62.5485 63.55 63.9485C64.45 64.8985 65 66.1985 65 67.4985C65 67.7985 64.95 68.1485 64.9 68.4985C64.85 68.7985 64.75 69.0985 64.6 69.3985C64.5 69.6985 64.35 69.9985 64.15 70.2985C64 70.5485 63.75 70.7985 63.55 71.0485C62.6 71.9485 61.3 72.4985 60 72.4985Z" fill="#33A5DF"/>
<path d="M77.5 72.4985C76.85 72.4985 76.2 72.3485 75.6 72.0985C74.95 71.8485 74.45 71.4985 73.95 71.0485C73.75 70.7985 73.55 70.5485 73.35 70.2985C73.15 69.9985 73 69.6985 72.9 69.3985C72.75 69.0985 72.65 68.7985 72.6 68.4985C72.55 68.1485 72.5 67.7985 72.5 67.4985C72.5 66.1985 73.05 64.8985 73.95 63.9485C74.45 63.4985 74.95 63.1485 75.6 62.8985C77.45 62.0985 79.65 62.5485 81.05 63.9485C81.95 64.8985 82.5 66.1985 82.5 67.4985C82.5 67.7985 82.45 68.1485 82.4 68.4985C82.35 68.7985 82.25 69.0985 82.1 69.3985C82 69.6985 81.85 69.9985 81.65 70.2985C81.5 70.5485 81.25 70.7985 81.05 71.0485C80.1 71.9485 78.8 72.4985 77.5 72.4985Z" fill="#33A5DF"/>
<path d="M42.5 89.9981C41.85 89.9981 41.2 89.8486 40.6 89.5986C40 89.3486 39.45 88.9981 38.95 88.5481C38.05 87.5981 37.5 86.2981 37.5 84.9981C37.5 84.3481 37.65 83.6981 37.9 83.0981C38.15 82.4481 38.5 81.8987 38.95 81.4487C40.8 79.5987 44.2 79.5987 46.05 81.4487C46.95 82.3987 47.5 83.6982 47.5 84.9981C47.5 86.2981 46.95 87.5981 46.05 88.5481C45.1 89.4481 43.8 89.9981 42.5 89.9981Z" fill="#33A5DF"/>
<path d="M60 89.9981C58.7 89.9981 57.4 89.4481 56.45 88.5481C55.55 87.5981 55 86.2981 55 84.9981C55 84.3481 55.15 83.6981 55.4 83.0981C55.65 82.4481 56 81.8987 56.45 81.4487C58.3 79.5987 61.7 79.5987 63.55 81.4487C64 81.8987 64.35 82.4481 64.6 83.0981C64.85 83.6981 65 84.3481 65 84.9981C65 86.2981 64.45 87.5981 63.55 88.5481C62.6 89.4481 61.3 89.9981 60 89.9981Z" fill="#33A5DF"/>
<path d="M77.5 90.0004C76.2 90.0004 74.9 89.4504 73.95 88.5504C73.5 88.1004 73.15 87.5504 72.9 86.9004C72.65 86.3004 72.5 85.6504 72.5 85.0004C72.5 84.3504 72.65 83.7004 72.9 83.1004C73.15 82.4504 73.5 81.9004 73.95 81.4504C75.1 80.3004 76.85 79.7504 78.45 80.1004C78.8 80.1504 79.1 80.2504 79.4 80.4004C79.7 80.5004 80 80.6504 80.3 80.8504C80.55 81.0004 80.8 81.2504 81.05 81.4504C81.95 82.4004 82.5 83.7004 82.5 85.0004C82.5 86.3004 81.95 87.6004 81.05 88.5504C80.1 89.4504 78.8 90.0004 77.5 90.0004Z" fill="#33A5DF"/>
<path d="M102.5 49.1979H17.5C15.45 49.1979 13.75 47.4979 13.75 45.4479C13.75 43.3979 15.45 41.6979 17.5 41.6979H102.5C104.55 41.6979 106.25 43.3979 106.25 45.4479C106.25 47.4979 104.55 49.1979 102.5 49.1979Z" fill="#33A5DF"/>
<path d="M80 113.749H40C21.75 113.749 11.25 103.249 11.25 84.9987V42.4987C11.25 24.2487 21.75 13.7487 40 13.7487H80C98.25 13.7487 108.75 24.2487 108.75 42.4987V84.9987C108.75 103.249 98.25 113.749 80 113.749ZM40 21.2487C25.7 21.2487 18.75 28.1987 18.75 42.4987V84.9987C18.75 99.2987 25.7 106.249 40 106.249H80C94.3 106.249 101.25 99.2987 101.25 84.9987V42.4987C101.25 28.1987 94.3 21.2487 80 21.2487H40Z" fill="#33A5DF"/>
</svg>
