<svg width="24" height="24" viewBox="0 0 24 24" fill="none" xmlns="http://www.w3.org/2000/svg">
<circle cx="12" cy="12" r="12" fill="white"/>
<path d="M19.2001 19.2C19.2001 21.1882 15.9765 22.8 12.0001 22.8C8.02365 22.8 4.8001 21.1882 4.8001 19.2C4.8001 17.2118 8.02365 15.6 12.0001 15.6C15.9765 15.6 19.2001 17.2118 19.2001 19.2Z" fill="#3C4E69"/>
<path d="M15.6001 9.60001C15.6001 11.5882 13.9883 13.2 12.0001 13.2C10.0119 13.2 8.4001 11.5882 8.4001 9.60001C8.4001 7.61179 10.0119 6.00001 12.0001 6.00001C13.9883 6.00001 15.6001 7.61179 15.6001 9.60001Z" fill="#3C4E69"/>
<path d="M12.1344 13.7076C12.1121 13.7076 12.0786 13.7076 12.0563 13.7076C12.0228 13.7076 11.9781 13.7076 11.9446 13.7076C9.41066 13.6294 7.51299 11.6536 7.51299 9.2201C7.51299 6.74196 9.53345 4.7215 12.0116 4.7215C14.4898 4.7215 16.5102 6.74196 16.5102 9.2201C16.4991 11.6648 14.5902 13.6294 12.1679 13.7076C12.1456 13.7076 12.1456 13.7076 12.1344 13.7076ZM12.0005 6.38475C10.4377 6.38475 9.17624 7.65731 9.17624 9.20894C9.17624 10.7383 10.3707 11.9773 11.8888 12.0331C11.9223 12.022 12.034 12.022 12.1456 12.0331C13.6414 11.955 14.8135 10.7271 14.8246 9.20894C14.8246 7.65731 13.5633 6.38475 12.0005 6.38475Z" fill="#3C4E69"/>
<path d="M12.001 23.9998C8.99821 23.9998 6.12937 22.8836 3.90797 20.8519C3.70704 20.6733 3.61774 20.4054 3.64007 20.1487C3.78518 18.8203 4.61123 17.5812 5.98425 16.6659C9.31077 14.4557 14.7024 14.4557 18.0177 16.6659C19.3908 17.5924 20.2168 18.8203 20.3619 20.1487C20.3954 20.4166 20.2949 20.6733 20.094 20.8519C17.8726 22.8836 15.0038 23.9998 12.001 23.9998ZM5.39263 19.9254C7.24565 21.4771 9.57867 22.3254 12.001 22.3254C14.4233 22.3254 16.7563 21.4771 18.6094 19.9254C18.4084 19.2445 17.8726 18.5859 17.0801 18.0501C14.334 16.2194 9.67914 16.2194 6.91077 18.0501C6.11821 18.5859 5.59356 19.2445 5.39263 19.9254Z" fill="#3C4E69"/>
</svg>
