<svg width="26" height="26" viewBox="0 0 26 26" fill="none" xmlns="http://www.w3.org/2000/svg">
<path d="M13.0013 24.6458C6.57714 24.6458 1.35547 19.4242 1.35547 13C1.35547 6.57582 6.57714 1.35416 13.0013 1.35416C19.4255 1.35416 24.6471 6.57582 24.6471 13C24.6471 19.4242 19.4255 24.6458 13.0013 24.6458ZM13.0013 2.97916C7.4763 2.97916 2.98047 7.47499 2.98047 13C2.98047 18.525 7.4763 23.0208 13.0013 23.0208C18.5263 23.0208 23.0221 18.525 23.0221 13C23.0221 7.47499 18.5263 2.97916 13.0013 2.97916Z" fill="#7367F0"/>
<path d="M12.9993 19.7709C12.7718 19.7709 12.5552 19.7384 12.371 19.6734C10.0418 18.8826 6.34766 16.0443 6.34766 11.8193C6.34766 9.56596 8.16766 7.73514 10.4102 7.73514C11.3852 7.73514 12.2843 8.07096 13.0102 8.67763C13.736 8.07096 14.646 7.73514 15.5993 7.73514C17.8418 7.73514 19.6618 9.56596 19.6618 11.8193C19.6618 16.0334 15.9677 18.8718 13.6277 19.6734C13.4435 19.7384 13.216 19.7709 12.9993 19.7709ZM10.3993 9.37095C9.05599 9.37095 7.96182 10.476 7.96182 11.8301C7.96182 15.6109 11.6127 17.7126 12.891 18.1459C12.9343 18.1568 13.0427 18.1568 13.086 18.1459C14.3643 17.7126 18.0152 15.6109 18.0152 11.8301C18.0152 10.476 16.921 9.37095 15.5777 9.37095C14.8193 9.37095 14.0935 9.73928 13.6385 10.3568C13.3352 10.7684 12.6418 10.7684 12.3385 10.3568C11.8835 9.72845 11.1793 9.37095 10.3993 9.37095Z" fill="#7367F0"/>
</svg>
