<svg width="26" height="26" viewBox="0 0 26 26" fill="none" xmlns="http://www.w3.org/2000/svg">
<path d="M17.3346 24.6458H3.2513C2.2113 24.6458 1.35547 23.79 1.35547 22.75V8.66666C1.35547 3.87832 3.87964 1.35416 8.66797 1.35416H17.3346C22.123 1.35416 24.6471 3.87832 24.6471 8.66666V17.3333C24.6471 22.1217 22.123 24.6458 17.3346 24.6458ZM8.66797 2.97916C4.78964 2.97916 2.98047 4.78832 2.98047 8.66666V22.75C2.98047 22.9017 3.09964 23.0208 3.2513 23.0208H17.3346C21.213 23.0208 23.0221 21.2117 23.0221 17.3333V8.66666C23.0221 4.78832 21.213 2.97916 17.3346 2.97916H8.66797Z" fill="#29A87B"/>
<path d="M18.4154 11.1042H7.58203C7.13786 11.1042 6.76953 10.7358 6.76953 10.2917C6.76953 9.84749 7.13786 9.47916 7.58203 9.47916H18.4154C18.8595 9.47916 19.2279 9.84749 19.2279 10.2917C19.2279 10.7358 18.8595 11.1042 18.4154 11.1042Z" fill="#29A87B"/>
<path d="M15.1654 16.5208H7.58203C7.13786 16.5208 6.76953 16.1525 6.76953 15.7083C6.76953 15.2641 7.13786 14.8958 7.58203 14.8958H15.1654C15.6095 14.8958 15.9779 15.2641 15.9779 15.7083C15.9779 16.1525 15.6095 16.5208 15.1654 16.5208Z" fill="#29A87B"/>
</svg>
