<svg width="26" height="26" viewBox="0 0 26 26" fill="none" xmlns="http://www.w3.org/2000/svg">
<path d="M18.6752 24.6459H7.32185C4.28852 24.6459 2.36019 22.8367 2.18685 19.8142L1.62352 10.8767C1.53685 9.52252 2.00269 8.22252 2.93435 7.23669C3.85519 6.25085 5.15519 5.68752 6.49852 5.68752C6.84519 5.68752 7.18102 5.48169 7.34352 5.15669L8.12352 3.60752C8.76269 2.34002 10.366 1.35419 11.7635 1.35419H14.2444C15.6419 1.35419 17.2344 2.34002 17.8735 3.59669L18.6535 5.17835C18.816 5.48169 19.141 5.68752 19.4985 5.68752C20.8419 5.68752 22.1419 6.25085 23.0627 7.23669C23.9944 8.23335 24.4602 9.52252 24.3735 10.8767L23.8102 19.825C23.6152 22.8909 21.741 24.6459 18.6752 24.6459ZM11.7635 2.97919C10.9619 2.97919 9.94352 3.60752 9.57519 4.33335L8.79519 5.89335C8.34019 6.77085 7.46269 7.31252 6.49852 7.31252C5.58852 7.31252 4.74351 7.68085 4.11519 8.34169C3.49769 9.00252 3.18352 9.86919 3.24852 10.7684L3.81185 19.7167C3.94184 21.905 5.12269 23.0209 7.32185 23.0209H18.6752C20.8635 23.0209 22.0444 21.905 22.1852 19.7167L22.7485 10.7684C22.8027 9.86919 22.4994 9.00252 21.8819 8.34169C21.2535 7.68085 20.4085 7.31252 19.4985 7.31252C18.5344 7.31252 17.6569 6.77085 17.2019 5.91502L16.411 4.33335C16.0535 3.61835 15.0352 2.99002 14.2335 2.99002H11.7635V2.97919Z" fill="#FF8038"/>
<path d="M14.625 9.47919H11.375C10.9308 9.47919 10.5625 9.11085 10.5625 8.66669C10.5625 8.22252 10.9308 7.85419 11.375 7.85419H14.625C15.0692 7.85419 15.4375 8.22252 15.4375 8.66669C15.4375 9.11085 15.0692 9.47919 14.625 9.47919Z" fill="#FF8038"/>
<path d="M13.0013 20.3125C10.6071 20.3125 8.66797 18.3733 8.66797 15.9791C8.66797 13.585 10.6071 11.6458 13.0013 11.6458C15.3955 11.6458 17.3346 13.585 17.3346 15.9791C17.3346 18.3733 15.3955 20.3125 13.0013 20.3125ZM13.0013 13.2708C11.5063 13.2708 10.293 14.4841 10.293 15.9791C10.293 17.4741 11.5063 18.6875 13.0013 18.6875C14.4963 18.6875 15.7096 17.4741 15.7096 15.9791C15.7096 14.4841 14.4963 13.2708 13.0013 13.2708Z" fill="#FF8038"/>
</svg>
