<svg width="20" height="20" viewBox="0 0 20 20" fill="none" xmlns="http://www.w3.org/2000/svg">
<path d="M18.3346 18.9583H1.66797C1.3263 18.9583 1.04297 18.675 1.04297 18.3333C1.04297 17.9916 1.3263 17.7083 1.66797 17.7083H18.3346C18.6763 17.7083 18.9596 17.9916 18.9596 18.3333C18.9596 18.675 18.6763 18.9583 18.3346 18.9583Z" fill="#EA5455"/>
<path d="M17.5 18.9584H2.5C2.15833 18.9584 1.875 18.675 1.875 18.3334V5.00002C1.875 2.48335 3.31667 1.04169 5.83333 1.04169H14.1667C16.6833 1.04169 18.125 2.48335 18.125 5.00002V18.3334C18.125 18.675 17.8417 18.9584 17.5 18.9584ZM3.125 17.7084H16.875V5.00002C16.875 3.15002 16.0167 2.29169 14.1667 2.29169H5.83333C3.98333 2.29169 3.125 3.15002 3.125 5.00002V17.7084Z" fill="#EA5455"/>
<path d="M12.5 18.9583H7.5C7.15833 18.9583 6.875 18.675 6.875 18.3333V13.2833C6.875 12.5083 7.50833 11.875 8.28333 11.875H11.725C12.5 11.875 13.1333 12.5083 13.1333 13.2833V18.3333C13.125 18.675 12.8417 18.9583 12.5 18.9583ZM8.125 17.7083H11.875V13.2833C11.875 13.2 11.8083 13.125 11.7167 13.125H8.27499C8.19166 13.125 8.11668 13.1917 8.11668 13.2833V17.7083H8.125Z" fill="#EA5455"/>
<path d="M10 9.79167C9.65833 9.79167 9.375 9.50833 9.375 9.16667V5C9.375 4.65833 9.65833 4.375 10 4.375C10.3417 4.375 10.625 4.65833 10.625 5V9.16667C10.625 9.50833 10.3417 9.79167 10 9.79167Z" fill="#EA5455"/>
<path d="M12.0846 7.70831H7.91797C7.5763 7.70831 7.29297 7.42498 7.29297 7.08331C7.29297 6.74165 7.5763 6.45831 7.91797 6.45831H12.0846C12.4263 6.45831 12.7096 6.74165 12.7096 7.08331C12.7096 7.42498 12.4263 7.70831 12.0846 7.70831Z" fill="#EA5455"/>
</svg>
