<svg width="22" height="22" viewBox="0 0 22 22" fill="none" xmlns="http://www.w3.org/2000/svg">
<path d="M20.1654 20.8543H1.83203C1.4562 20.8543 1.14453 20.5426 1.14453 20.1668C1.14453 19.791 1.4562 19.4793 1.83203 19.4793H20.1654C20.5412 19.4793 20.8529 19.791 20.8529 20.1668C20.8529 20.5426 20.5412 20.8543 20.1654 20.8543Z" fill="#A4ABB6"/>
<path d="M19.25 20.854H2.75C2.37417 20.854 2.0625 20.5424 2.0625 20.1665V5.49986C2.0625 2.73152 3.64833 1.14569 6.41667 1.14569H15.5833C18.3517 1.14569 19.9375 2.73152 19.9375 5.49986V20.1665C19.9375 20.5424 19.6258 20.854 19.25 20.854ZM3.4375 19.479H18.5625V5.49986C18.5625 3.46486 17.6183 2.52069 15.5833 2.52069H6.41667C4.38167 2.52069 3.4375 3.46486 3.4375 5.49986V19.479Z" fill="#A4ABB6"/>
<path d="M13.75 20.8542H8.25C7.87417 20.8542 7.5625 20.5425 7.5625 20.1667V14.6117C7.5625 13.7592 8.25917 13.0625 9.11167 13.0625H12.8975C13.75 13.0625 14.4467 13.7592 14.4467 14.6117V20.1667C14.4375 20.5425 14.1258 20.8542 13.75 20.8542ZM8.9375 19.4792H13.0625V14.6117C13.0625 14.52 12.9892 14.4375 12.8883 14.4375H9.10249C9.01082 14.4375 8.92834 14.5108 8.92834 14.6117V19.4792H8.9375Z" fill="#A4ABB6"/>
<path d="M11 10.7708C10.6242 10.7708 10.3125 10.4592 10.3125 10.0833V5.5C10.3125 5.12417 10.6242 4.8125 11 4.8125C11.3758 4.8125 11.6875 5.12417 11.6875 5.5V10.0833C11.6875 10.4592 11.3758 10.7708 11 10.7708Z" fill="#A4ABB6"/>
<path d="M13.2904 8.47931H8.70703C8.3312 8.47931 8.01953 8.16764 8.01953 7.79181C8.01953 7.41598 8.3312 7.10431 8.70703 7.10431H13.2904C13.6662 7.10431 13.9779 7.41598 13.9779 7.79181C13.9779 8.16764 13.6662 8.47931 13.2904 8.47931Z" fill="#A4ABB6"/>
</svg>
