<svg width="17" height="18" viewBox="0 0 17 18" fill="none" xmlns="http://www.w3.org/2000/svg">
<path d="M16.177 14.1412L10.6173 4.87688V1.125H11.1798C11.4892 1.125 11.7423 0.871875 11.7423 0.5625C11.7423 0.253125 11.4892 0 11.1798 0H5.55478C5.24541 0 4.99228 0.253125 4.99228 0.5625C4.99228 0.871875 5.24541 1.125 5.55478 1.125H6.11728V4.87688L0.557533 14.1412C-0.715967 16.263 0.267283 18 2.74228 18H13.9923C16.4673 18 17.4505 16.2641 16.177 14.1412ZM3.60403 11.25L7.24228 5.18625V1.125H9.49228V5.18625L13.1305 11.25H3.60403Z" fill="#3C4E69"/>
</svg>
