<svg width="29" height="31" viewBox="0 0 29 31" fill="none" xmlns="http://www.w3.org/2000/svg">
<path d="M17.0199 27.5299C14.6899 27.5299 12.3599 27.1599 10.1499 26.4199C9.30987 26.1299 8.66987 25.5399 8.38987 24.7699C8.09987 23.9999 8.19987 23.1499 8.65987 22.3899L9.80987 20.4799C10.0499 20.0799 10.2699 19.2799 10.2699 18.8099V15.9199C10.2699 12.1999 13.2999 9.16992 17.0199 9.16992C20.7399 9.16992 23.7699 12.1999 23.7699 15.9199V18.8099C23.7699 19.2699 23.9899 20.0799 24.2299 20.4899L25.3699 22.3899C25.7999 23.1099 25.8799 23.9799 25.5899 24.7699C25.2999 25.5599 24.6699 26.1599 23.8799 26.4199C21.6799 27.1599 19.3499 27.5299 17.0199 27.5299ZM17.0199 10.6699C14.1299 10.6699 11.7699 13.0199 11.7699 15.9199V18.8099C11.7699 19.5399 11.4699 20.6199 11.0999 21.2499L9.94987 23.1599C9.72987 23.5299 9.66987 23.9199 9.79987 24.2499C9.91987 24.5899 10.2199 24.8499 10.6299 24.9899C14.8099 26.3899 19.2399 26.3899 23.4199 24.9899C23.7799 24.8699 24.0599 24.5999 24.1899 24.2399C24.3199 23.8799 24.2899 23.4899 24.0899 23.1599L22.9399 21.2499C22.5599 20.5999 22.2699 19.5299 22.2699 18.7999V15.9199C22.2699 13.0199 19.9199 10.6699 17.0199 10.6699Z" fill="white"/>
<path d="M18.8806 10.9402C18.8106 10.9402 18.7406 10.9302 18.6706 10.9102C18.3806 10.8302 18.1006 10.7702 17.8306 10.7302C16.9806 10.6202 16.1606 10.6802 15.3906 10.9102C15.1106 11.0002 14.8106 10.9102 14.6206 10.7002C14.4306 10.4902 14.3706 10.1902 14.4806 9.92018C14.8906 8.87018 15.8906 8.18018 17.0306 8.18018C18.1706 8.18018 19.1706 8.86018 19.5806 9.92018C19.6806 10.1902 19.6306 10.4902 19.4406 10.7002C19.2906 10.8602 19.0806 10.9402 18.8806 10.9402Z" fill="white"/>
<path d="M17.0195 29.8101C16.0295 29.8101 15.0695 29.4101 14.3695 28.7101C13.6695 28.0101 13.2695 27.0501 13.2695 26.0601H14.7695C14.7695 26.6501 15.0095 27.2301 15.4295 27.6501C15.8495 28.0701 16.4295 28.3101 17.0195 28.3101C18.2595 28.3101 19.2695 27.3001 19.2695 26.0601H20.7695C20.7695 28.1301 19.0895 29.8101 17.0195 29.8101Z" fill="white"/>
<circle cx="8.5" cy="8.5" r="8.5" fill="#E94D4D"/>
<path d="M8.31515 12.121C7.77248 12.121 7.25548 12.044 6.76415 11.89C6.27282 11.736 5.86948 11.527 5.55415 11.263L6.09315 9.976C6.74582 10.46 7.46448 10.702 8.24915 10.702C9.14382 10.702 9.59115 10.3683 9.59115 9.701C9.59115 9.085 9.17315 8.777 8.33715 8.777H7.03915V7.402H8.17215C8.53882 7.402 8.82848 7.31767 9.04115 7.149C9.25382 6.98033 9.36015 6.74567 9.36015 6.445C9.36015 5.84367 8.96782 5.543 8.18315 5.543C7.44982 5.543 6.79715 5.78867 6.22515 6.28L5.68615 5.026C6.00882 4.74 6.40482 4.52 6.87415 4.366C7.34348 4.20467 7.83115 4.124 8.33715 4.124C9.17315 4.124 9.82582 4.311 10.2951 4.685C10.7645 5.059 10.9991 5.57233 10.9991 6.225C10.9991 6.62833 10.8965 6.984 10.6911 7.292C10.4858 7.6 10.1998 7.82367 9.83315 7.963C10.2731 8.08767 10.6141 8.31867 10.8561 8.656C11.1055 8.986 11.2301 9.38567 11.2301 9.855C11.2301 10.559 10.9698 11.1127 10.4491 11.516C9.92848 11.9193 9.21715 12.121 8.31515 12.121Z" fill="white"/>
</svg>
