<svg width="22" height="22" viewBox="0 0 22 22" fill="none" xmlns="http://www.w3.org/2000/svg">
<g clip-path="url(#clip0_7_2365)">
<path d="M11 0C8.82441 0 6.69767 0.645139 4.88873 1.85383C3.07979 3.06253 1.66989 4.78049 0.83733 6.79048C0.00476615 8.80047 -0.213071 11.0122 0.211367 13.146C0.635804 15.2798 1.68345 17.2398 3.22183 18.7782C4.76021 20.3166 6.72022 21.3642 8.85401 21.7886C10.9878 22.2131 13.1995 21.9952 15.2095 21.1627C17.2195 20.3301 18.9375 18.9202 20.1462 17.1113C21.3549 15.3023 22 13.1756 22 11C21.9969 8.08359 20.8369 5.28753 18.7747 3.22531C16.7125 1.16309 13.9164 0.00315432 11 0V0ZM11 20.1667C9.18701 20.1667 7.41473 19.629 5.90728 18.6218C4.39983 17.6146 3.22491 16.1829 2.53111 14.5079C1.83731 12.8329 1.65578 10.9898 2.00947 9.21167C2.36317 7.43351 3.23621 5.80017 4.51819 4.51819C5.80017 3.23621 7.43352 2.36317 9.21168 2.00947C10.9898 1.65577 12.8329 1.8373 14.5079 2.5311C16.1829 3.22491 17.6146 4.39982 18.6218 5.90727C19.6291 7.41472 20.1667 9.187 20.1667 11C20.164 13.4303 19.1974 15.7604 17.4789 17.4789C15.7604 19.1974 13.4303 20.164 11 20.1667Z" fill="#FF8038"/>
<path d="M11.0012 5.5C10.7581 5.5 10.5249 5.59658 10.353 5.76849C10.1811 5.94039 10.0845 6.17355 10.0845 6.41667V10.3812L6.99446 12.3173C6.78781 12.4463 6.64091 12.6522 6.58607 12.8896C6.53124 13.1271 6.57295 13.3765 6.70205 13.5832C6.83114 13.7898 7.03704 13.9367 7.27444 13.9916C7.51185 14.0464 7.76131 14.0047 7.96796 13.8756L11.488 11.6756C11.621 11.5923 11.7303 11.4762 11.8056 11.3385C11.8809 11.2008 11.9195 11.046 11.9179 10.8891V6.41667C11.9179 6.17355 11.8213 5.94039 11.6494 5.76849C11.4775 5.59658 11.2443 5.5 11.0012 5.5Z" fill="#FF8038"/>
</g>
<defs>
<clipPath id="clip0_7_2365">
<rect width="22" height="22" fill="white"/>
</clipPath>
</defs>
</svg>
