<svg width="12" height="18" viewBox="0 0 12 18" fill="none" xmlns="http://www.w3.org/2000/svg">
<path d="M9.02603 16.1667C10.3179 14.9486 11.1348 13.2355 11.1348 11.3251C11.1348 8.96941 9.89856 6.8465 7.97519 5.6533L10.1288 1.92307L9.79034 1.72692L10.3231 0.804277L8.93042 0L8.39792 0.921721L8.04037 0.71604L2.74401 9.89144L3.20763 10.1592L2.55062 11.2965L3.71277 11.967L4.36978 10.831L4.83217 11.0985L7.059 7.24003C7.74614 7.67739 8.31183 8.28104 8.70371 8.9951C9.09559 9.70915 9.30099 10.5105 9.30089 11.3251C9.30089 13.9955 7.12818 16.1667 4.45771 16.1667H0.554688V18H11.5406V16.1667L9.02603 16.1664V16.1667Z" fill="#3C4E69"/>
</svg>
