<svg width="19" height="18" viewBox="0 0 19 18" fill="none" xmlns="http://www.w3.org/2000/svg">
<path d="M12.5718 8.11686H18.3783C18.7268 8.11686 19.0217 7.81026 18.9987 7.4479C18.8034 4.4296 17.2982 1.7856 15.0728 0.113194C14.7894 -0.0978475 14.3873 -0.00228134 14.2034 0.304327L11.124 5.41712C11.9896 5.98653 12.5718 6.97803 12.5718 8.11686ZM11.124 10.8126C10.6529 11.1192 10.0975 11.3064 9.5 11.3064C8.9025 11.3064 8.35096 11.1192 7.87602 10.8126L4.79659 15.9294C4.61274 16.236 4.70467 16.6501 5.01108 16.8214C6.3478 17.57 7.87602 18 9.5 18C11.124 18 12.6522 17.57 13.9889 16.8214C14.2953 16.6501 14.3873 16.232 14.2034 15.9294L11.124 10.8126ZM9.5 10.0282C10.515 10.0282 11.3385 9.17207 11.3385 8.11686C11.3385 7.06165 10.515 6.20554 9.5 6.20554C8.48501 6.20554 7.66153 7.06165 7.66153 8.11686C7.66153 9.17207 8.48501 10.0282 9.5 10.0282ZM0.621741 8.11686H6.42823C6.42823 6.97803 7.01041 5.98653 7.87602 5.4211L4.79659 0.308309C4.61274 0.00170067 4.21058 -0.0978474 3.92715 0.117177C1.70184 1.78958 0.196596 4.43358 0.00125872 7.45188C-0.0217221 7.81026 0.273198 8.11686 0.621741 8.11686V8.11686Z" fill="#3C4E69"/>
</svg>
