<svg width="26" height="26" viewBox="0 0 26 26" fill="none" xmlns="http://www.w3.org/2000/svg">
<path d="M8.66797 6.22919C8.2238 6.22919 7.85547 5.86085 7.85547 5.41669V2.16669C7.85547 1.72252 8.2238 1.35419 8.66797 1.35419C9.11214 1.35419 9.48047 1.72252 9.48047 2.16669V5.41669C9.48047 5.86085 9.11214 6.22919 8.66797 6.22919Z" fill="#32A5DF"/>
<path d="M12.9989 17.6429C12.4913 17.6429 12.0703 17.0816 12.0703 16.4048V11.4524C12.0703 10.7756 12.4913 10.2143 12.9989 10.2143C13.5065 10.2143 13.9275 10.7756 13.9275 11.4524V16.4048C13.9275 17.0816 13.5065 17.6429 12.9989 17.6429Z" fill="#32A5DF"/>
<path d="M16.7137 13.9286C16.7137 14.4362 16.1525 14.8572 15.4756 14.8572L10.5233 14.8572C9.84643 14.8572 9.28516 14.4362 9.28516 13.9286C9.28516 13.421 9.84643 13 10.5233 13L15.4756 13C16.1525 13 16.7137 13.421 16.7137 13.9286Z" fill="#32A5DF"/>
<path d="M17.332 6.22919C16.8879 6.22919 16.5195 5.86085 16.5195 5.41669V2.16669C16.5195 1.72252 16.8879 1.35419 17.332 1.35419C17.7762 1.35419 18.1445 1.72252 18.1445 2.16669V5.41669C18.1445 5.86085 17.7762 6.22919 17.332 6.22919Z" fill="#32A5DF"/>
<path d="M17.3333 24.6459H8.66667C4.7125 24.6459 2.4375 22.3709 2.4375 18.4167V9.20835C2.4375 5.25419 4.7125 2.97919 8.66667 2.97919H17.3333C21.2875 2.97919 23.5625 5.25419 23.5625 9.20835V18.4167C23.5625 22.3709 21.2875 24.6459 17.3333 24.6459ZM8.66667 4.60419C5.56833 4.60419 4.0625 6.11002 4.0625 9.20835V18.4167C4.0625 21.515 5.56833 23.0209 8.66667 23.0209H17.3333C20.4317 23.0209 21.9375 21.515 21.9375 18.4167V9.20835C21.9375 6.11002 20.4317 4.60419 17.3333 4.60419H8.66667Z" fill="#32A5DF"/>
</svg>
