<svg width="18" height="18" viewBox="0 0 18 18" fill="none" xmlns="http://www.w3.org/2000/svg">
<path d="M0 3.06818C0 2.25445 0.323254 1.47405 0.89865 0.89865C1.47405 0.323254 2.25445 0 3.06818 0H14.9318C15.7456 0 16.526 0.323254 17.1014 0.89865C17.6767 1.47405 18 2.25445 18 3.06818V9.81818H12.8864C12.0726 9.81818 11.2922 10.1414 10.7168 10.7168C10.1414 11.2922 9.81818 12.0726 9.81818 12.8864V18H3.06818C2.25445 18 1.47405 17.6767 0.89865 17.1014C0.323254 16.526 0 15.7456 0 14.9318V3.06818ZM11.0455 18H11.0945L18 11.0945V11.0455H12.8864C12.3981 11.0455 11.9299 11.2394 11.5846 11.5846C11.2394 11.9299 11.0455 12.3981 11.0455 12.8864V18Z" fill="#3C4E69"/>
</svg>
