<svg width="22" height="22" viewBox="0 0 22 22" fill="none" xmlns="http://www.w3.org/2000/svg">
<path d="M8.69172 18.9659C8.23339 18.9659 7.91256 18.8101 7.72006 18.6634C7.3534 18.3976 6.78506 17.7101 7.14255 16.1701L7.66504 13.9151C7.71087 13.7226 7.61005 13.3742 7.47255 13.2276L5.64839 11.4034C4.68589 10.4409 4.76838 9.60672 4.89671 9.19422C5.02505 8.78168 5.44671 8.0575 6.78505 7.82834L9.12255 7.44335C9.29675 7.41585 9.58092 7.20501 9.65425 7.04918L10.9467 4.46418C11.5701 3.21751 12.3951 3.03418 12.8351 3.03418C13.2751 3.03418 14.1001 3.21751 14.7234 4.46418L16.0159 7.04918C16.0984 7.20501 16.3733 7.41585 16.5475 7.44335L18.8851 7.82834C20.2234 8.04834 20.6451 8.78168 20.7734 9.19422C20.9017 9.60672 20.9842 10.4409 20.0217 11.4034L18.1976 13.2276C18.0601 13.3651 17.9592 13.7226 18.0051 13.9151L18.5276 16.1701C18.8851 17.7192 18.3167 18.3976 17.95 18.6634C17.5833 18.9292 16.7676 19.2684 15.3926 18.4526L13.2017 17.1509C13.0184 17.0409 12.6333 17.0409 12.45 17.1509L10.2592 18.4526C9.62675 18.8376 9.09505 18.9659 8.69172 18.9659ZM12.8351 4.40918C12.6884 4.40918 12.4226 4.58334 12.1751 5.07834L10.8826 7.66335C10.6076 8.22251 9.95675 8.69919 9.34258 8.80002L7.00506 9.18505C6.48256 9.27672 6.24422 9.46922 6.19839 9.61588C6.15255 9.76255 6.23504 10.0559 6.61087 10.4317L8.43506 12.2559C8.90255 12.7234 9.15005 13.5759 9.00339 14.2176L8.48088 16.4726C8.32505 17.1234 8.42587 17.4717 8.5267 17.5542C8.62754 17.6276 8.9942 17.6184 9.56258 17.2701L11.7625 15.9684C12.3767 15.6017 13.3026 15.6017 13.9076 15.9684L16.0984 17.2701C16.6759 17.6092 17.0426 17.6276 17.1434 17.5542C17.2443 17.4809 17.3451 17.1326 17.1892 16.4726L16.6667 14.2176C16.5201 13.5667 16.7583 12.7234 17.235 12.2559L19.0592 10.4317C19.4351 10.0559 19.5176 9.75338 19.4717 9.61588C19.4259 9.47838 19.1875 9.27672 18.665 9.18505L16.3276 8.80002C15.7134 8.69919 15.0626 8.22251 14.7876 7.66335L13.4951 5.07834C13.2476 4.58334 12.9817 4.40918 12.8351 4.40918Z" fill="#A4ABB6"/>
<path d="M7.33203 5.27087H1.83203C1.4562 5.27087 1.14453 4.95921 1.14453 4.58337C1.14453 4.20754 1.4562 3.89587 1.83203 3.89587H7.33203C7.70787 3.89587 8.01953 4.20754 8.01953 4.58337C8.01953 4.95921 7.70787 5.27087 7.33203 5.27087Z" fill="#A4ABB6"/>
<path d="M4.58203 18.1041H1.83203C1.4562 18.1041 1.14453 17.7925 1.14453 17.4166C1.14453 17.0408 1.4562 16.7291 1.83203 16.7291H4.58203C4.95786 16.7291 5.26953 17.0408 5.26953 17.4166C5.26953 17.7925 4.95786 18.1041 4.58203 18.1041Z" fill="#A4ABB6"/>
<path d="M2.7487 11.6875H1.83203C1.4562 11.6875 1.14453 11.3758 1.14453 11C1.14453 10.6242 1.4562 10.3125 1.83203 10.3125H2.7487C3.12453 10.3125 3.4362 10.6242 3.4362 11C3.4362 11.3758 3.12453 11.6875 2.7487 11.6875Z" fill="#A4ABB6"/>
</svg>
