<svg width="22" height="22" viewBox="0 0 22 22" fill="none" xmlns="http://www.w3.org/2000/svg">
<path d="M11.0004 17.7559C9.35953 17.7559 7.71865 17.1325 6.46281 15.8767C3.96031 13.3742 3.96031 9.30422 6.46281 6.80168C8.96531 4.29918 13.0354 4.29918 15.5379 6.80168C18.0404 9.30422 18.0404 13.3742 15.5379 15.8767C14.282 17.1325 12.6412 17.7559 11.0004 17.7559ZM11.0004 6.29752C9.70786 6.29752 8.41531 6.79251 7.43448 7.77335C5.47281 9.74422 5.47281 12.9342 7.43448 14.905C9.40536 16.8759 12.6045 16.8667 14.5662 14.905C16.5279 12.9342 16.5279 9.74422 14.5662 7.77335C13.5854 6.79251 12.2929 6.29752 11.0004 6.29752Z" fill="#A4ABB6"/>
<path d="M7.56001 20.5241C7.47751 20.5241 7.38585 20.5057 7.30335 20.4782C5.24085 19.6532 3.57251 18.1958 2.45417 16.2708C1.37251 14.3916 0.941672 12.2649 1.22584 10.1016C1.27167 9.72575 1.62001 9.45992 1.99584 9.50575C2.37167 9.55158 2.6375 9.89992 2.59166 10.2757C2.35333 12.1274 2.72002 13.9608 3.64586 15.5741C4.59919 17.2241 6.03834 18.4799 7.80751 19.1858C8.15584 19.3324 8.33002 19.7265 8.19251 20.084C8.09168 20.359 7.82585 20.5241 7.56001 20.5241Z" fill="#A4ABB6"/>
<path d="M5.36117 4.79404C5.1595 4.79404 4.95784 4.70239 4.82034 4.52823C4.582 4.22573 4.63701 3.7949 4.93951 3.56574C6.69034 2.1999 8.78033 1.47571 10.9987 1.47571C13.162 1.47571 15.2245 2.17239 16.957 3.49239C17.2595 3.72156 17.3145 4.15237 17.0853 4.45487C16.8562 4.75737 16.4253 4.81239 16.1228 4.58323C14.6378 3.44656 12.8687 2.85071 10.9987 2.85071C9.092 2.85071 7.28616 3.47407 5.78283 4.6474C5.65449 4.74824 5.50783 4.79404 5.36117 4.79404Z" fill="#A4ABB6"/>
<path d="M14.4399 20.5243C14.1649 20.5243 13.9083 20.3593 13.7983 20.0935C13.6608 19.7451 13.8258 19.3418 14.1833 19.1951C15.9524 18.4801 17.3916 17.2335 18.3449 15.5835C19.2799 13.9701 19.6466 12.1368 19.3991 10.2851C19.3533 9.90931 19.6191 9.56098 19.9949 9.51515C20.3616 9.46931 20.7191 9.73515 20.7649 10.111C21.0399 12.2651 20.6183 14.401 19.5366 16.2801C18.4274 18.2051 16.7499 19.6535 14.6874 20.4876C14.6141 20.506 14.5316 20.5243 14.4399 20.5243Z" fill="#A4ABB6"/>
</svg>
