<svg width="20" height="20" viewBox="0 0 20 20" fill="none" xmlns="http://www.w3.org/2000/svg">
<path d="M13.5649 18.4167H10.3982C9.93153 18.4167 8.91486 18.275 8.37319 17.7334L5.84817 15.7834L6.61484 14.7917L9.19819 16.7917C9.40653 16.9917 9.93153 17.1584 10.3982 17.1584H13.5649C14.3149 17.1584 15.1232 16.5584 15.2899 15.8834L17.3065 9.75837C17.4399 9.39171 17.4149 9.05837 17.2399 8.81671C17.0565 8.55837 16.7232 8.40837 16.3149 8.40837H12.9815C12.5482 8.40837 12.1482 8.22503 11.8732 7.90837C11.5899 7.58337 11.4649 7.15003 11.5315 6.70003L11.9482 4.02503C12.0482 3.55837 11.7315 3.03337 11.2815 2.88337C10.8732 2.73337 10.3482 2.95003 10.1649 3.2167L6.74818 8.30003L5.71484 7.60837L9.13153 2.52503C9.65653 1.7417 10.8065 1.3667 11.7065 1.70837C12.7482 2.05003 13.4149 3.20003 13.1815 4.2667L12.7732 6.8917C12.7649 6.95003 12.7649 7.03337 12.8232 7.10003C12.8649 7.1417 12.9232 7.1667 12.9899 7.1667H16.3232C17.1399 7.1667 17.8482 7.50837 18.2649 8.10003C18.6732 8.67504 18.7565 9.43337 18.4899 10.1667L16.4982 16.2334C16.1899 17.4417 14.9065 18.4167 13.5649 18.4167Z" fill="#29A87B"/>
<path d="M4.48438 17.5H3.65104C2.10937 17.5 1.35938 16.775 1.35938 15.2916V7.12496C1.35938 5.64163 2.10937 4.91663 3.65104 4.91663H4.48438C6.02604 4.91663 6.77604 5.64163 6.77604 7.12496V15.2916C6.77604 16.775 6.02604 17.5 4.48438 17.5ZM3.65104 6.16663C2.74271 6.16663 2.60938 6.38329 2.60938 7.12496V15.2916C2.60938 16.0333 2.74271 16.25 3.65104 16.25H4.48438C5.39271 16.25 5.52604 16.0333 5.52604 15.2916V7.12496C5.52604 6.38329 5.39271 6.16663 4.48438 6.16663H3.65104Z" fill="#29A87B"/>
</svg>
