<svg width="22" height="22" viewBox="0 0 22 22" fill="none" xmlns="http://www.w3.org/2000/svg">
<path d="M11.8054 19.122H6.2412C2.98703 19.122 1.83203 16.8395 1.83203 14.7128V7.28783C1.83203 4.11616 3.06953 2.87866 6.2412 2.87866H11.8054C14.977 2.87866 16.2145 4.11616 16.2145 7.28783V14.7128C16.2145 17.8845 14.977 19.122 11.8054 19.122ZM6.2412 4.27199C3.8487 4.27199 3.22536 4.89533 3.22536 7.28783V14.7128C3.22536 15.8403 3.61953 17.7286 6.2412 17.7286H11.8054C14.1979 17.7286 14.8212 17.1053 14.8212 14.7128V7.28783C14.8212 4.89533 14.1979 4.27199 11.8054 4.27199H6.2412Z" fill="#A4ABB6"/>
<path d="M19.0487 16.6007C18.6545 16.6007 18.1504 16.4724 17.5729 16.0691L15.1254 14.3549C14.942 14.2266 14.832 14.0157 14.832 13.7866V8.21323C14.832 7.98406 14.942 7.77324 15.1254 7.64489L17.5729 5.93073C18.6637 5.16989 19.4612 5.38989 19.837 5.58239C20.2129 5.78406 20.8545 6.30656 20.8545 7.63573V14.3549C20.8545 15.6841 20.2129 16.2157 19.837 16.4082C19.6629 16.5091 19.3879 16.6007 19.0487 16.6007ZM16.2162 13.4199L18.3704 14.9232C18.7829 15.2074 19.0762 15.2349 19.1954 15.1707C19.3237 15.1066 19.4612 14.8499 19.4612 14.3549V7.64489C19.4612 7.14073 19.3145 6.89323 19.1954 6.82906C19.0762 6.76489 18.7829 6.79239 18.3704 7.07656L16.2162 8.57989V13.4199Z" fill="#A4ABB6"/>
<path d="M10.543 10.7708C9.4063 10.7708 8.48047 9.84498 8.48047 8.70831C8.48047 7.57165 9.4063 6.64581 10.543 6.64581C11.6796 6.64581 12.6055 7.57165 12.6055 8.70831C12.6055 9.84498 11.6796 10.7708 10.543 10.7708ZM10.543 8.02081C10.1671 8.02081 9.85547 8.33248 9.85547 8.70831C9.85547 9.08415 10.1671 9.39581 10.543 9.39581C10.9188 9.39581 11.2305 9.08415 11.2305 8.70831C11.2305 8.33248 10.9188 8.02081 10.543 8.02081Z" fill="#A4ABB6"/>
</svg>
