<svg width="360" height="327" viewBox="0 0 360 327" fill="none" xmlns="http://www.w3.org/2000/svg">
<path d="M250.827 303.828H110.402L120.964 231.734C123.143 219.557 129.535 208.534 139.022 200.595C148.509 192.655 160.486 188.306 172.857 188.307H188.373C200.743 188.306 212.721 192.655 222.208 200.595C231.694 208.534 238.087 219.557 240.266 231.734L250.827 303.828Z" fill="white"/>
<path opacity="0.1" d="M236.832 300.54H124.402L132.859 242.798C134.603 233.048 139.72 224.222 147.316 217.865C154.911 211.507 164.5 208.023 174.405 208.023H186.829C196.734 208.023 206.323 211.507 213.918 217.865C221.514 224.222 226.631 233.048 228.375 242.798L236.832 300.54Z" fill="black"/>
<path d="M250.827 303.828H110.402L120.964 231.734C123.143 219.557 129.535 208.534 139.022 200.595C148.509 192.655 160.486 188.306 172.857 188.307H188.373C200.743 188.306 212.721 192.655 222.208 200.595C231.694 208.534 238.087 219.557 240.266 231.734L250.827 303.828Z" stroke="#263238" stroke-linecap="round" stroke-linejoin="round"/>
<path d="M106.81 252.689C106.81 252.689 116.551 249.895 132.458 259.581C149.678 270.124 150.582 252.056 156.272 243.674H211.146C211.146 243.674 218.224 263.791 223.067 262.114C227.91 260.438 250.503 254.999 257.088 269.08C263.672 283.162 244.673 293.593 244.673 293.593C244.673 293.593 227.351 307.563 223.253 307.376C219.155 307.19 169.609 306.501 169.609 306.501L111.876 270.124L105.543 259.581L106.81 252.689Z" fill="#858585" stroke="#263238" stroke-linecap="round" stroke-linejoin="round"/>
<path opacity="0.3" d="M244.671 293.593C244.671 293.593 263.67 283.162 257.085 269.08C257.001 268.894 256.899 268.727 256.806 268.559L234.175 292.606L197.946 284.922L200.517 283.358C200.517 283.358 219.348 268.456 214.366 265.411C210.445 263.055 196.289 275.348 179.86 275.525C163.431 275.702 150.84 262.682 148.744 265.16C148.167 265.839 148.577 267.469 149.471 269.49C149.549 269.655 149.572 269.841 149.537 270.019C149.502 270.198 149.411 270.361 149.277 270.485C149.143 270.609 148.973 270.686 148.792 270.707C148.611 270.727 148.428 270.689 148.269 270.599C138.546 265.16 126.272 259.581 126.272 259.581L121.289 263.669L133.657 281.15L154.547 286.45L152.852 288.228L176.461 297.067L180.577 306.631C195.422 306.846 220.4 307.218 223.26 307.349C227.357 307.563 244.671 293.593 244.671 293.593Z" fill="black"/>
<path d="M175.578 145.494V175.603H198.274V152.264L175.578 145.494Z" fill="white" stroke="#263238" stroke-linecap="round" stroke-linejoin="round"/>
<path d="M175.109 147.645C176.266 150.104 177.799 152.366 179.654 154.351C183.789 158.83 198.541 158.328 203.701 158.002C204.219 157.967 204.711 157.768 205.107 157.433C205.503 157.097 205.78 156.644 205.899 156.139C206.327 154.276 206.989 150.989 207.436 147.673L175.109 147.645Z" fill="#263238" stroke="#263238" stroke-linecap="round" stroke-linejoin="round"/>
<path d="M180.037 109.824C180.037 109.824 162.202 104.134 161.457 129.382C160.712 154.63 143.995 157.229 158.859 170.975C173.723 184.721 178.761 163.72 178.761 163.72C178.761 163.72 172.587 160.758 175.576 154.407C178.566 148.055 200.396 157.107 200.396 157.107C200.396 157.107 205.686 164.446 201.038 170.016C201.038 170.016 216.666 173.014 214.245 162.789C211.823 152.563 207.893 139.217 207.902 126.178C207.912 113.14 196.205 99.0488 180.037 109.824Z" fill="#263238" stroke="#263238" stroke-linecap="round" stroke-linejoin="round"/>
<path d="M145.699 171.962C145.699 171.962 155.301 209.438 152.74 240.349C152.642 241.463 152.895 242.58 153.465 243.542C154.035 244.504 154.892 245.264 155.916 245.713C160.349 247.641 169.262 249.96 184.191 247.706C184.191 247.706 213.155 252.223 214.496 244.726C217.718 226.603 212.754 195.552 224.675 173.201C224.675 173.201 211.264 164.018 187.422 163.766C173.1 163.614 158.899 166.403 145.699 171.962V171.962Z" fill="#33A5DF"/>
<path opacity="0.2" d="M160.882 247.353C160.882 247.353 156.746 245.341 158.423 241.504C160.099 237.667 165.743 225.923 165.743 225.923C165.743 225.923 171.657 227.786 175.932 226.482C178.608 225.65 181.185 224.525 183.615 223.129C183.615 223.129 189.892 226.668 200.798 223.129C200.798 223.129 203.816 239.893 211.108 247.818C218.4 255.744 218.661 246.04 218.661 246.04L207.904 220.335L202.94 212.698L188.346 217.541L168.854 212.698L158.982 218.286L150.991 232.684L147.266 239.893V246.226L156.29 250.882L160.882 247.353Z" fill="black"/>
<path opacity="0.2" d="M167.484 164.456C167.484 164.456 174.562 173.629 189.212 173.201C203.862 172.772 203.499 166.225 203.499 166.225L202.782 162.882H194.018L170.548 160.553L167.484 164.456Z" fill="black"/>
<path d="M198.973 242.193C199.336 241.97 199.699 241.746 200.044 241.504Z" fill="#33A5DF"/>
<path d="M198.973 242.193C199.336 241.97 199.699 241.746 200.044 241.504" stroke="#263238" stroke-width="0.75" stroke-linecap="round" stroke-linejoin="round"/>
<path d="M186.734 246.068C190.444 245.57 194.061 244.534 197.473 242.994Z" fill="#33A5DF"/>
<path d="M186.734 246.068C190.444 245.57 194.061 244.534 197.473 242.994" stroke="#263238" stroke-width="0.75" stroke-linecap="round" stroke-linejoin="round"/>
<path d="M145.699 171.962C145.699 171.962 155.301 209.438 152.74 240.349C152.642 241.463 152.895 242.58 153.465 243.542C154.035 244.504 154.892 245.264 155.916 245.713C160.349 247.641 169.262 249.96 184.191 247.706C184.191 247.706 213.155 252.223 214.496 244.726C217.718 226.603 212.754 195.552 224.675 173.201C224.675 173.201 211.264 164.018 187.422 163.766C173.1 163.614 158.899 166.403 145.699 171.962V171.962Z" stroke="#263238" stroke-linecap="round" stroke-linejoin="round"/>
<path d="M186.734 283.358L156.001 301.798C156.001 301.798 150.85 299.749 146.157 300.68C141.463 301.612 126.757 296.396 120.61 299.563C114.464 302.729 112.787 320.238 118.561 322.473C124.336 324.708 153.02 319.12 159.353 317.072C165.686 315.023 197.538 302.17 197.538 302.17L186.734 283.358Z" fill="white" stroke="#263238" stroke-linecap="round" stroke-linejoin="round"/>
<path d="M153.486 317.099C154.688 316.915 155.916 317.155 156.96 317.779C147.74 320.145 123.786 324.522 118.561 322.501C112.787 320.266 114.464 302.757 120.61 299.591C126.757 296.424 141.472 301.64 146.157 300.708C150.841 299.777 156.001 301.826 156.001 301.826C155.628 303.782 150.878 302.105 151.344 303.595C151.81 305.085 156.653 303.223 157.677 309.742C158.701 316.261 150.133 317.351 153.486 317.099Z" fill="#263238" stroke="#263238" stroke-linecap="round" stroke-linejoin="round"/>
<path d="M124.224 298.622C121.924 302.077 116.056 312.517 120.899 322.911C120.103 322.875 119.316 322.728 118.561 322.473C112.787 320.238 114.464 302.729 120.61 299.563C121.746 299.027 122.971 298.708 124.224 298.622V298.622Z" fill="white" stroke="#263238" stroke-linecap="round" stroke-linejoin="round"/>
<path d="M201.933 121.335L203.293 127.631C203.293 127.631 207.493 132.567 207.866 138.881C208.145 143.65 206.646 151.166 205.901 154.546C205.782 155.051 205.505 155.505 205.109 155.84C204.713 156.175 204.22 156.375 203.703 156.409C198.543 156.735 183.791 157.238 179.656 152.758C174.608 147.291 173.863 142.337 173.863 142.337C173.863 142.337 179.088 131.328 177.495 126.374C177.495 126.374 184.546 120.86 183.866 117.48C183.866 117.508 198.432 111.78 201.933 121.335Z" fill="white" stroke="#263238" stroke-linecap="round" stroke-linejoin="round"/>
<path d="M197.23 127.044C197.23 127.044 198.441 132.52 202.129 134.299C202.287 134.381 202.425 134.497 202.532 134.639C202.639 134.78 202.713 134.944 202.749 135.118C202.785 135.293 202.781 135.472 202.738 135.645C202.695 135.817 202.615 135.978 202.502 136.115L200.313 138.909" stroke="#263238" stroke-linecap="round" stroke-linejoin="round"/>
<path d="M191.504 144.432C193.739 145.265 196.183 145.35 198.47 144.674C202.195 143.529 201.488 141.536 201.488 141.536" stroke="#263238" stroke-linecap="round" stroke-linejoin="round"/>
<path d="M183.324 129.363C183.324 129.363 185.513 123.422 191.753 126.327" stroke="#263238" stroke-width="1.5" stroke-linecap="round" stroke-linejoin="round"/>
<path d="M198.273 124.418C198.273 124.418 199.922 121.27 202.138 122.276" stroke="#263238" stroke-width="1.5" stroke-linecap="round" stroke-linejoin="round"/>
<path d="M191.12 199.827V193.597C191.12 192.811 190.808 192.058 190.253 191.502C189.697 190.947 188.944 190.635 188.158 190.635H178.38C177.594 190.635 176.841 190.947 176.285 191.502C175.73 192.058 175.418 192.811 175.418 193.597V199.827H191.12Z" fill="#263238" stroke="#263238" stroke-linecap="round" stroke-linejoin="round"/>
<path d="M188.019 192.414H178.519C176.806 192.414 175.418 193.802 175.418 195.515V217.234C175.418 218.946 176.806 220.335 178.519 220.335H188.019C189.732 220.335 191.12 218.946 191.12 217.234V195.515C191.12 193.802 189.732 192.414 188.019 192.414Z" fill="#858585" stroke="#263238" stroke-linecap="round" stroke-linejoin="round"/>
<path d="M179.276 198.272C180.315 198.272 181.157 197.43 181.157 196.391C181.157 195.352 180.315 194.509 179.276 194.509C178.237 194.509 177.395 195.352 177.395 196.391C177.395 197.43 178.237 198.272 179.276 198.272Z" fill="#33A5DF" stroke="#263238" stroke-linecap="round" stroke-linejoin="round"/>
<path d="M179.274 196.977C179.598 196.977 179.861 196.715 179.861 196.391C179.861 196.067 179.598 195.804 179.274 195.804C178.95 195.804 178.688 196.067 178.688 196.391C178.688 196.715 178.95 196.977 179.274 196.977Z" fill="#263238"/>
<path d="M191.036 130.378C191.269 131.161 191.036 131.934 190.487 132.092C189.937 132.25 189.323 131.738 189.09 130.956C188.857 130.174 189.09 129.401 189.639 129.242C190.189 129.084 190.775 129.596 191.036 130.378Z" fill="#263238"/>
<path d="M202.521 127.51C202.753 128.292 202.521 129.065 201.971 129.224C201.422 129.382 200.807 128.87 200.574 128.087C200.341 127.305 200.574 126.532 201.124 126.374C201.673 126.216 202.288 126.728 202.521 127.51Z" fill="#263238"/>
<path d="M172.68 166.374L174.263 161.997V156.679C182.17 157.889 190.194 158.14 198.161 157.424C198.42 157.397 198.682 157.433 198.925 157.527C199.168 157.621 199.386 157.772 199.559 157.966C199.733 158.161 199.858 158.394 199.924 158.646C199.99 158.898 199.995 159.162 199.94 159.417C199.772 159.922 199.657 160.444 199.595 160.972C199.84 162.384 200.221 163.769 200.731 165.107C200.837 165.483 200.806 165.883 200.644 166.238C200.482 166.593 200.199 166.878 199.846 167.045C196.875 168.414 188.382 171.031 172.68 166.374Z" fill="#33A5DF" stroke="#263238" stroke-linecap="round" stroke-linejoin="round"/>
<path d="M193.542 133.629L189.081 134.849C188.648 134.996 188.177 134.983 187.753 134.812C187.33 134.641 186.981 134.324 186.771 133.918L185.384 130.611C185.251 130.257 185.242 129.868 185.359 129.507C185.476 129.147 185.711 128.837 186.026 128.628C186.301 128.419 186.619 128.275 186.958 128.209L192.396 127.277C192.631 127.216 192.876 127.204 193.116 127.24C193.356 127.276 193.587 127.36 193.793 127.486C194 127.613 194.18 127.781 194.32 127.978C194.461 128.176 194.561 128.4 194.613 128.637L195.023 131.701C195.037 132.144 194.897 132.578 194.627 132.929C194.357 133.281 193.973 133.528 193.542 133.629V133.629Z" stroke="#263238" stroke-linecap="round" stroke-linejoin="round"/>
<path d="M202.213 131.31L206.665 130.099C207.113 130.004 207.512 129.752 207.791 129.388C208.069 129.024 208.208 128.573 208.183 128.115L207.708 124.558C207.641 124.184 207.451 123.844 207.167 123.592C206.883 123.34 206.522 123.191 206.143 123.17C205.79 123.13 205.432 123.174 205.1 123.3L199.894 125.247C199.66 125.314 199.443 125.427 199.254 125.58C199.065 125.733 198.91 125.923 198.797 126.138C198.684 126.353 198.615 126.589 198.596 126.831C198.576 127.073 198.606 127.317 198.683 127.547L199.875 130.397C200.09 130.805 200.445 131.121 200.874 131.289C201.303 131.456 201.779 131.464 202.213 131.31Z" stroke="#263238" stroke-linecap="round" stroke-linejoin="round"/>
<path d="M194.949 128.441C194.901 128.02 195.005 127.595 195.242 127.243C195.48 126.891 195.836 126.636 196.245 126.523C196.654 126.411 197.091 126.449 197.475 126.63C197.859 126.81 198.165 127.123 198.339 127.51" stroke="#263238" stroke-linecap="round" stroke-linejoin="round"/>
<path d="M185.384 130.621L173.863 136.982" stroke="#263238" stroke-linecap="round" stroke-linejoin="round"/>
<path d="M157.992 212.493C160.479 208.47 170.751 201.83 174.998 207.399C176.392 207.713 177.804 207.937 179.226 208.069C181.592 208.069 187.021 206.533 187.916 208.815C188.381 210.016 186.109 210.482 183.725 211.124C181.807 211.602 179.832 211.812 177.857 211.748C176.217 211.766 174.578 211.641 172.958 211.376L178.109 213.359C178.109 213.359 183.138 212.167 184.814 211.99C186.677 211.795 192.134 211.124 192.265 213.359C192.321 214.402 190.914 214.225 189.219 214.728C187.301 215.287 185.056 215.716 185.056 215.716C185.056 215.716 180.344 217.578 178.109 217.392C176.836 217.3 175.582 217.031 174.383 216.591L171.897 215.716C173.676 217.105 175.853 217.888 178.109 217.951C182.141 218.202 183.445 216.153 186.612 215.846C189.778 215.539 191.157 216.153 191.203 217.243C191.268 218.696 188.288 218.761 185.932 219.255C183.576 219.748 182.579 221.061 180.586 221.182C180.586 221.182 176.861 223.166 173.825 223.297C170.788 223.427 163.636 221.862 163.021 222.673C162.667 223.129 159.771 230.049 155.478 237.62C152.171 243.46 146.937 250.361 138.611 250.361C138.611 250.361 133.023 247.381 132.474 233.783C132.334 230.384 133.107 227.264 133.238 224.47C133.638 216.088 134.169 210.714 134.169 210.714L153.168 210.621L151.119 221.238C153.667 218.535 155.967 215.608 157.992 212.493Z" fill="white" stroke="#263238" stroke-linecap="round" stroke-linejoin="round"/>
<path d="M180.588 221.173C180.588 221.173 176.993 222.412 172.02 220.307Z" fill="white"/>
<path d="M180.588 221.173C180.588 221.173 176.993 222.412 172.02 220.307" stroke="#263238" stroke-linecap="round" stroke-linejoin="round"/>
<path d="M175 207.399H170.008" stroke="#263238" stroke-linecap="round" stroke-linejoin="round"/>
<path d="M139.124 233.923C138.887 234.43 138.679 234.949 138.5 235.478" stroke="#263238" stroke-linecap="round" stroke-linejoin="round"/>
<path d="M148.745 223.744C146.445 226.789 142.766 228.074 140.168 232.042" stroke="#263238" stroke-linecap="round" stroke-linejoin="round"/>
<path d="M149.396 182.402C148.416 178.834 147.17 175.345 145.67 171.962C145.67 171.962 134.411 183.138 133.666 208.759C133.642 209.604 133.883 210.436 134.356 211.137C134.828 211.839 135.509 212.375 136.301 212.67C139.095 213.695 144.115 215.045 151.873 215.315C152.228 215.33 152.582 215.268 152.911 215.136C153.24 215.003 153.537 214.802 153.783 214.546C154.029 214.289 154.217 213.984 154.336 213.649C154.455 213.315 154.501 212.959 154.471 212.605C154.322 210.742 154.071 208.088 153.68 204.903" fill="#33A5DF"/>
<path d="M149.396 182.402C148.416 178.834 147.17 175.345 145.67 171.962C145.67 171.962 134.411 183.138 133.666 208.759C133.642 209.604 133.883 210.436 134.356 211.137C134.828 211.839 135.509 212.375 136.301 212.67C139.095 213.695 144.115 215.045 151.873 215.315C152.228 215.33 152.582 215.268 152.911 215.136C153.24 215.003 153.537 214.802 153.783 214.546C154.029 214.289 154.217 213.984 154.336 213.649C154.455 213.315 154.501 212.959 154.471 212.605C154.322 210.742 154.071 208.088 153.68 204.903" stroke="#263238" stroke-linecap="round" stroke-linejoin="round"/>
<path d="M175.082 155.701H153.782C151.854 160.628 151.976 164.605 158.839 170.956C173.741 184.703 178.742 163.701 178.742 163.701C178.742 163.701 173.433 161.14 175.082 155.701Z" fill="#263238" stroke="#263238" stroke-linecap="round" stroke-linejoin="round"/>
<path d="M212.729 156.633H199.188L200.398 157.117C200.398 157.117 205.688 164.456 201.041 170.025C201.041 170.025 216.668 173.024 214.247 162.798C213.781 160.851 213.26 158.775 212.729 156.633Z" fill="#263238" stroke="#263238" stroke-linecap="round" stroke-linejoin="round"/>
<path d="M209.282 209.522C206.115 206.412 198.599 201.578 191.521 204.437L188.047 205.108C188.047 205.108 179.498 202.817 178.604 205.108C178.138 206.309 180.411 206.775 182.795 207.418C185.179 208.06 187.172 208.777 188.662 208.777C190.306 208.795 191.948 208.67 193.57 208.405L188.42 210.398C188.42 210.398 183.382 209.951 181.714 209.774C179.852 209.578 174.385 208.908 174.264 211.143C174.199 212.186 175.605 212.009 177.3 212.503C179.219 213.071 181.463 213.499 181.463 213.499C181.463 213.499 186.185 214.617 188.42 214.43C189.694 214.339 190.948 214.066 192.145 213.62L193.878 213.499C193.878 213.499 192.453 214.738 188.42 214.989C184.387 215.241 183.074 213.937 179.908 213.62C176.741 213.303 175.363 213.937 175.316 215.017C175.251 216.479 178.231 216.544 180.597 217.038C182.962 217.532 183.95 218.09 185.933 218.221C185.933 218.221 189.659 220.205 192.704 220.326C195.75 220.447 202.138 218.901 202.762 219.711C203.386 220.521 211.144 251.497 224.928 253.36C224.928 253.36 233.496 249.634 234.055 236.037C234.614 222.44 233.124 214.43 233.124 214.43L215.615 212.847L216.173 220.484C216.173 220.484 212.923 213.117 209.282 209.522Z" fill="white" stroke="#263238" stroke-linecap="round" stroke-linejoin="round"/>
<path d="M219.18 225.83C219.965 226.967 220.831 228.047 221.769 229.061C224.609 232.125 227.683 235.711 228.288 240.554" stroke="#263238" stroke-width="0.75" stroke-linecap="round" stroke-linejoin="round"/>
<path d="M217.348 222.933C217.348 222.933 217.627 223.455 218.13 224.265" stroke="#263238" stroke-width="0.75" stroke-linecap="round" stroke-linejoin="round"/>
<path d="M185.934 218.221C185.934 218.221 188.793 219.46 193.757 217.345" stroke="#263238" stroke-linecap="round" stroke-linejoin="round"/>
<path d="M191.52 204.437H196.521" stroke="#263238" stroke-linecap="round" stroke-linejoin="round"/>
<path d="M256.09 267.097C252.858 261.509 242.679 254.99 227.275 264.117C209.338 274.696 179.843 284.727 179.098 287.456C179.098 287.456 189.528 295.409 191.764 305.588C191.764 305.588 197.165 308.317 207.503 304.35C217.841 300.382 269.268 289.868 256.09 267.097Z" fill="#858585" stroke="#263238" stroke-linecap="round" stroke-linejoin="round"/>
<path d="M163.647 286.366L194.381 304.806C194.381 304.806 199.531 302.757 204.216 303.688C208.9 304.62 223.624 299.404 229.771 302.571C235.918 305.737 237.594 323.246 231.82 325.481C226.046 327.717 197.361 322.129 191.028 320.08C184.695 318.031 152.844 305.179 152.844 305.179L163.647 286.366Z" fill="white" stroke="#263238" stroke-linecap="round" stroke-linejoin="round"/>
<path d="M196.894 320.042C195.69 319.861 194.461 320.097 193.411 320.713C202.631 323.088 226.594 327.465 231.818 325.444C237.593 323.209 235.916 305.7 229.77 302.533C223.623 299.367 208.908 304.582 204.214 303.651C199.52 302.72 194.379 304.769 194.379 304.769C194.752 306.724 199.502 305.048 199.036 306.538C198.57 308.028 193.727 306.166 192.703 312.685C191.678 319.204 200.247 320.322 196.894 320.042Z" fill="#263238" stroke="#263238" stroke-linecap="round" stroke-linejoin="round"/>
<path d="M226.148 301.593C228.449 305.048 234.325 315.479 229.473 325.882C230.272 325.846 231.062 325.699 231.82 325.444C237.594 323.209 235.918 305.7 229.771 302.534C228.634 301.994 227.405 301.674 226.148 301.593V301.593Z" fill="white" stroke="#263238" stroke-linecap="round" stroke-linejoin="round"/>
<path d="M98.016 258.137C101.592 252.764 108.447 249.057 123.842 258.137C141.779 268.726 170.529 287.697 171.274 290.426C171.274 290.426 160.852 298.37 158.617 308.559C158.617 308.559 153.216 309.053 142.878 305.076C132.54 301.099 82.3512 281.709 98.016 258.137Z" fill="#858585" stroke="#263238" stroke-linecap="round" stroke-linejoin="round"/>
<path opacity="0.3" d="M142.878 305.076C153.216 309.053 158.618 308.559 158.618 308.559C159.333 305.54 160.596 302.677 162.343 300.112C153.421 309.807 130.464 295.213 111.837 283.348C93.2108 271.483 97.9978 258.128 97.9978 258.128C82.3516 281.709 132.541 301.109 142.878 305.076Z" fill="black"/>
<path d="M215.821 196.959C216.967 191.085 218.786 185.364 221.241 179.906C222.27 177.607 223.417 175.362 224.678 173.182C229.497 176.559 232.85 181.644 234.056 187.403C235.686 195.72 234.317 209.476 235.071 215.641C235.155 216.297 234.998 216.961 234.63 217.511C234.262 218.06 233.708 218.458 233.069 218.631C230.275 219.376 225.153 220.195 217.628 219.171C216.776 219.054 215.99 218.646 215.404 218.017C214.819 217.387 214.469 216.574 214.415 215.716C214.299 213.417 214.299 211.113 214.415 208.814" fill="#33A5DF"/>
<path d="M215.821 196.959C216.967 191.085 218.786 185.364 221.241 179.906C222.27 177.607 223.417 175.362 224.678 173.182C229.497 176.559 232.85 181.644 234.056 187.403C235.686 195.72 234.317 209.476 235.071 215.641C235.155 216.297 234.998 216.961 234.63 217.511C234.262 218.06 233.708 218.458 233.069 218.631C230.275 219.376 225.153 220.195 217.628 219.171C216.776 219.054 215.99 218.646 215.404 218.017C214.819 217.387 214.469 216.574 214.415 215.716C214.299 213.417 214.299 211.113 214.415 208.814" stroke="#263238" stroke-linecap="round" stroke-linejoin="round"/>
<g filter="url(#filter0_d_7_6127)">
<rect x="250" y="54" width="80" height="80" rx="20" fill="white"/>
</g>
<path d="M281.668 80.9786C280.814 80.9786 280.105 80.2703 280.105 79.4161V73.1661C280.105 72.312 280.814 71.6036 281.668 71.6036C282.522 71.6036 283.23 72.312 283.23 73.1661V79.4161C283.23 80.2703 282.522 80.9786 281.668 80.9786Z" fill="#32A5DF"/>
<path d="M298.332 80.9786C297.478 80.9786 296.77 80.2703 296.77 79.4161V73.1661C296.77 72.312 297.478 71.6036 298.332 71.6036C299.186 71.6036 299.895 72.312 299.895 73.1661V79.4161C299.895 80.2703 299.186 80.9786 298.332 80.9786Z" fill="#32A5DF"/>
<path d="M282.708 99.2092C282.438 99.2092 282.167 99.1467 281.917 99.0425C281.646 98.9383 281.438 98.7925 281.229 98.605C280.854 98.2092 280.625 97.6883 280.625 97.1258C280.625 96.855 280.687 96.5842 280.792 96.3342C280.896 96.0842 281.042 95.855 281.229 95.6467C281.438 95.4592 281.646 95.3133 281.917 95.2092C282.667 94.8967 283.604 95.0633 284.188 95.6467C284.563 96.0425 284.792 96.5842 284.792 97.1258C284.792 97.2508 284.771 97.3967 284.75 97.5425C284.729 97.6675 284.688 97.7925 284.625 97.9175C284.583 98.0425 284.521 98.1675 284.438 98.2925C284.375 98.3967 284.271 98.5008 284.188 98.605C283.792 98.98 283.25 99.2092 282.708 99.2092Z" fill="#32A5DF"/>
<path d="M290.001 99.2077C289.73 99.2077 289.46 99.1452 289.21 99.041C288.939 98.9368 288.73 98.791 288.522 98.6035C288.147 98.2077 287.918 97.6868 287.918 97.1243C287.918 96.8535 287.98 96.5827 288.085 96.3327C288.189 96.0827 288.335 95.8535 288.522 95.6452C288.73 95.4577 288.939 95.3119 289.21 95.2077C289.96 94.8744 290.897 95.0619 291.48 95.6452C291.855 96.041 292.085 96.5827 292.085 97.1243C292.085 97.2493 292.064 97.3952 292.043 97.541C292.022 97.666 291.98 97.791 291.918 97.916C291.876 98.041 291.814 98.166 291.73 98.291C291.668 98.3952 291.564 98.4993 291.48 98.6035C291.085 98.9785 290.543 99.2077 290.001 99.2077Z" fill="#32A5DF"/>
<path d="M297.29 99.2077C297.02 99.2077 296.749 99.1452 296.499 99.041C296.228 98.9368 296.02 98.791 295.811 98.6035C295.728 98.4993 295.645 98.3952 295.561 98.291C295.478 98.166 295.415 98.041 295.374 97.916C295.311 97.791 295.27 97.666 295.249 97.541C295.228 97.3952 295.207 97.2493 295.207 97.1243C295.207 96.5827 295.436 96.041 295.811 95.6452C296.02 95.4577 296.228 95.3119 296.499 95.2077C297.27 94.8744 298.186 95.0619 298.77 95.6452C299.145 96.041 299.374 96.5827 299.374 97.1243C299.374 97.2493 299.353 97.3952 299.332 97.541C299.311 97.666 299.27 97.791 299.207 97.916C299.165 98.041 299.103 98.166 299.02 98.291C298.957 98.3952 298.853 98.4993 298.77 98.6035C298.374 98.9785 297.832 99.2077 297.29 99.2077Z" fill="#32A5DF"/>
<path d="M282.708 106.499C282.438 106.499 282.167 106.437 281.917 106.333C281.667 106.229 281.438 106.083 281.229 105.895C280.854 105.499 280.625 104.958 280.625 104.416C280.625 104.145 280.687 103.874 280.792 103.624C280.896 103.353 281.042 103.124 281.229 102.937C282 102.166 283.417 102.166 284.188 102.937C284.563 103.333 284.792 103.874 284.792 104.416C284.792 104.958 284.563 105.499 284.188 105.895C283.792 106.27 283.25 106.499 282.708 106.499Z" fill="#32A5DF"/>
<path d="M290.001 106.499C289.46 106.499 288.918 106.27 288.522 105.895C288.147 105.499 287.918 104.958 287.918 104.416C287.918 104.145 287.98 103.874 288.085 103.624C288.189 103.353 288.335 103.124 288.522 102.937C289.293 102.166 290.71 102.166 291.48 102.937C291.668 103.124 291.814 103.353 291.918 103.624C292.022 103.874 292.085 104.145 292.085 104.416C292.085 104.958 291.855 105.499 291.48 105.895C291.085 106.27 290.543 106.499 290.001 106.499Z" fill="#32A5DF"/>
<path d="M297.29 106.5C296.749 106.5 296.207 106.271 295.811 105.896C295.624 105.708 295.478 105.479 295.374 105.209C295.27 104.959 295.207 104.688 295.207 104.417C295.207 104.146 295.27 103.875 295.374 103.625C295.478 103.354 295.624 103.125 295.811 102.938C296.29 102.459 297.02 102.229 297.686 102.375C297.832 102.396 297.957 102.438 298.082 102.5C298.207 102.542 298.332 102.604 298.457 102.688C298.561 102.75 298.665 102.854 298.77 102.938C299.145 103.334 299.374 103.875 299.374 104.417C299.374 104.959 299.145 105.5 298.77 105.896C298.374 106.271 297.832 106.5 297.29 106.5Z" fill="#32A5DF"/>
<path d="M307.71 89.4991H272.293C271.439 89.4991 270.73 88.7908 270.73 87.9366C270.73 87.0825 271.439 86.3741 272.293 86.3741H307.71C308.564 86.3741 309.272 87.0825 309.272 87.9366C309.272 88.7908 308.564 89.4991 307.71 89.4991Z" fill="#32A5DF"/>
<path d="M298.333 116.395H281.667C274.062 116.395 269.688 112.02 269.688 104.416V86.7078C269.688 79.1036 274.062 74.7286 281.667 74.7286H298.333C305.937 74.7286 310.312 79.1036 310.312 86.7078V104.416C310.312 112.02 305.937 116.395 298.333 116.395ZM281.667 77.8536C275.708 77.8536 272.812 80.7495 272.812 86.7078V104.416C272.812 110.374 275.708 113.27 281.667 113.27H298.333C304.292 113.27 307.187 110.374 307.187 104.416V86.7078C307.187 80.7495 304.292 77.8536 298.333 77.8536H281.667Z" fill="#32A5DF"/>
<g filter="url(#filter1_d_7_6127)">
<rect x="137" y="24" width="40" height="40" rx="10" fill="white"/>
</g>
<path d="M157 54.75C151.07 54.75 146.25 49.93 146.25 44C146.25 38.07 151.07 33.25 157 33.25C162.93 33.25 167.75 38.07 167.75 44C167.75 49.93 162.93 54.75 157 54.75ZM157 34.75C151.9 34.75 147.75 38.9 147.75 44C147.75 49.1 151.9 53.25 157 53.25C162.1 53.25 166.25 49.1 166.25 44C166.25 38.9 162.1 34.75 157 34.75Z" fill="#7367F0"/>
<path d="M160.711 47.93C160.581 47.93 160.451 47.9 160.331 47.82L157.231 45.97C156.461 45.51 155.891 44.5 155.891 43.61V39.51C155.891 39.1 156.231 38.76 156.641 38.76C157.051 38.76 157.391 39.1 157.391 39.51V43.61C157.391 43.97 157.691 44.5 158.001 44.68L161.101 46.53C161.461 46.74 161.571 47.2 161.361 47.56C161.211 47.8 160.961 47.93 160.711 47.93Z" fill="#7367F0"/>
<g filter="url(#filter2_d_7_6127)">
<rect x="30" y="109" width="70" height="70" rx="20" fill="white"/>
</g>
<path d="M66.4654 158.767H56.3487C50.432 158.767 48.332 154.617 48.332 150.75V137.25C48.332 131.484 50.582 129.234 56.3487 129.234H66.4654C72.232 129.234 74.482 131.484 74.482 137.25V150.75C74.482 156.517 72.232 158.767 66.4654 158.767ZM56.3487 131.767C51.9987 131.767 50.8654 132.9 50.8654 137.25V150.75C50.8654 152.8 51.582 156.233 56.3487 156.233H66.4654C70.8154 156.233 71.9487 155.1 71.9487 150.75V137.25C71.9487 132.9 70.8154 131.767 66.4654 131.767H56.3487Z" fill="#FF8038"/>
<path d="M80.9987 154.37C80.282 154.37 79.3654 154.136 78.3154 153.403L73.8654 150.286C73.532 150.053 73.332 149.67 73.332 149.253V139.12C73.332 138.703 73.532 138.32 73.8654 138.086L78.3154 134.97C80.2987 133.586 81.7487 133.986 82.432 134.336C83.1154 134.703 84.282 135.653 84.282 138.07V150.286C84.282 152.703 83.1154 153.67 82.432 154.02C82.1154 154.203 81.6154 154.37 80.9987 154.37ZM75.8487 148.586L79.7654 151.32C80.5154 151.836 81.0487 151.886 81.2654 151.77C81.4987 151.653 81.7487 151.186 81.7487 150.286V138.086C81.7487 137.17 81.482 136.72 81.2654 136.603C81.0487 136.486 80.5154 136.536 79.7654 137.053L75.8487 139.786V148.586Z" fill="#FF8038"/>
<path d="M64.168 143.583C62.1013 143.583 60.418 141.9 60.418 139.833C60.418 137.767 62.1013 136.083 64.168 136.083C66.2346 136.083 67.918 137.767 67.918 139.833C67.918 141.9 66.2346 143.583 64.168 143.583ZM64.168 138.583C63.4846 138.583 62.918 139.15 62.918 139.833C62.918 140.517 63.4846 141.083 64.168 141.083C64.8513 141.083 65.418 140.517 65.418 139.833C65.418 139.15 64.8513 138.583 64.168 138.583Z" fill="#FF8038"/>
<defs>
<filter id="filter0_d_7_6127" x="220" y="30" width="140" height="140" filterUnits="userSpaceOnUse" color-interpolation-filters="sRGB">
<feFlood flood-opacity="0" result="BackgroundImageFix"/>
<feColorMatrix in="SourceAlpha" type="matrix" values="0 0 0 0 0 0 0 0 0 0 0 0 0 0 0 0 0 0 127 0" result="hardAlpha"/>
<feOffset dy="6"/>
<feGaussianBlur stdDeviation="15"/>
<feComposite in2="hardAlpha" operator="out"/>
<feColorMatrix type="matrix" values="0 0 0 0 0.2 0 0 0 0 0.647059 0 0 0 0 0.87451 0 0 0 0.22 0"/>
<feBlend mode="normal" in2="BackgroundImageFix" result="effect1_dropShadow_7_6127"/>
<feBlend mode="normal" in="SourceGraphic" in2="effect1_dropShadow_7_6127" result="shape"/>
</filter>
<filter id="filter1_d_7_6127" x="107" y="0" width="100" height="100" filterUnits="userSpaceOnUse" color-interpolation-filters="sRGB">
<feFlood flood-opacity="0" result="BackgroundImageFix"/>
<feColorMatrix in="SourceAlpha" type="matrix" values="0 0 0 0 0 0 0 0 0 0 0 0 0 0 0 0 0 0 127 0" result="hardAlpha"/>
<feOffset dy="6"/>
<feGaussianBlur stdDeviation="15"/>
<feComposite in2="hardAlpha" operator="out"/>
<feColorMatrix type="matrix" values="0 0 0 0 0.2 0 0 0 0 0.647059 0 0 0 0 0.87451 0 0 0 0.22 0"/>
<feBlend mode="normal" in2="BackgroundImageFix" result="effect1_dropShadow_7_6127"/>
<feBlend mode="normal" in="SourceGraphic" in2="effect1_dropShadow_7_6127" result="shape"/>
</filter>
<filter id="filter2_d_7_6127" x="0" y="85" width="130" height="130" filterUnits="userSpaceOnUse" color-interpolation-filters="sRGB">
<feFlood flood-opacity="0" result="BackgroundImageFix"/>
<feColorMatrix in="SourceAlpha" type="matrix" values="0 0 0 0 0 0 0 0 0 0 0 0 0 0 0 0 0 0 127 0" result="hardAlpha"/>
<feOffset dy="6"/>
<feGaussianBlur stdDeviation="15"/>
<feComposite in2="hardAlpha" operator="out"/>
<feColorMatrix type="matrix" values="0 0 0 0 0.2 0 0 0 0 0.647059 0 0 0 0 0.87451 0 0 0 0.22 0"/>
<feBlend mode="normal" in2="BackgroundImageFix" result="effect1_dropShadow_7_6127"/>
<feBlend mode="normal" in="SourceGraphic" in2="effect1_dropShadow_7_6127" result="shape"/>
</filter>
</defs>
</svg>
