<svg width="354" height="360" viewBox="0 0 354 360" fill="none" xmlns="http://www.w3.org/2000/svg">
<path d="M221.629 93.6035C221.629 93.6035 221.823 98.7133 220.657 101.734C219.491 104.756 220.094 111.196 220.473 112.323C220.851 113.45 219.336 117.248 219.336 117.248L222.93 122.164C222.93 122.164 227.088 115.917 229.167 112.517C231.246 109.117 234.306 106.086 233.325 104.192C232.343 102.298 229.361 98.519 229.167 97.5767C228.973 96.6344 227.224 95.6921 227.224 95.6921L224.203 102.492C224.203 102.492 223.639 97.5767 223.639 95.3132C223.639 93.0498 222.202 91.9035 221.629 93.6035Z" fill="white"/>
<path opacity="0.15" d="M221.629 93.6035C221.629 93.6035 221.823 98.7133 220.657 101.734C219.491 104.756 220.094 111.196 220.473 112.323C220.851 113.45 219.336 117.248 219.336 117.248L222.93 122.164C222.93 122.164 227.088 115.917 229.167 112.517C231.246 109.117 234.306 106.086 233.325 104.192C232.343 102.298 229.361 98.519 229.167 97.5767C228.973 96.6344 227.224 95.6921 227.224 95.6921L224.203 102.492C224.203 102.492 223.639 97.5767 223.639 95.3132C223.639 93.0498 222.202 91.9035 221.629 93.6035Z" fill="black" stroke="#263238" stroke-linecap="round" stroke-linejoin="round"/>
<path d="M221.629 93.6035C221.629 93.6035 221.823 98.7133 220.657 101.734C219.491 104.756 220.094 111.196 220.473 112.323C220.851 113.45 219.336 117.248 219.336 117.248L222.93 122.164C222.93 122.164 227.088 115.917 229.167 112.517C231.246 109.117 234.306 106.086 233.325 104.192C232.343 102.298 229.361 98.519 229.167 97.5767C228.973 96.6344 227.224 95.6921 227.224 95.6921L224.203 102.492C224.203 102.492 223.639 97.5767 223.639 95.3132C223.639 93.0498 222.202 91.9035 221.629 93.6035Z" stroke="#263238" stroke-linecap="round" stroke-linejoin="round"/>
<path d="M218.605 116.141L226.173 123.699C226.173 123.699 202.343 163.227 199.886 164.353C197.428 165.48 188.16 157.913 188.16 157.913L181.914 123.485C181.914 123.485 190.249 127.963 193.086 132.685C195.922 137.406 197.807 137.862 197.807 137.862L218.605 116.141Z" fill="white"/>
<path d="M196.371 148.538C195.623 148.538 194.865 145.265 194.865 143.506C194.865 141.748 190.843 145.022 190.843 145.022L186.326 138.989L184.859 139.698L188.162 157.903C188.162 157.903 197.43 165.461 199.887 164.324C202.345 163.188 223.6 127.925 225.961 124.029C220.152 128.954 197.031 148.538 196.371 148.538Z" fill="#33A5DF"/>
<path opacity="0.5" d="M196.371 148.538C195.623 148.538 194.865 145.265 194.865 143.506C194.865 141.748 190.843 145.022 190.843 145.022L186.326 138.989L184.859 139.698L188.162 157.903C188.162 157.903 197.43 165.461 199.887 164.324C202.345 163.188 223.6 127.925 225.961 124.029C220.152 128.954 197.031 148.538 196.371 148.538Z" fill="white"/>
<path d="M218.605 116.141L226.173 123.699C226.173 123.699 202.343 163.227 199.886 164.353C197.428 165.48 188.16 157.913 188.16 157.913L181.914 123.485C181.914 123.485 190.249 127.963 193.086 132.685C195.922 137.406 197.807 137.862 197.807 137.862L218.605 116.141Z" stroke="#263238" stroke-linecap="round" stroke-linejoin="round"/>
<path d="M194.29 150.267C194.776 145.896 197.806 137.853 197.806 137.853C197.806 137.853 193.804 143.467 192.59 146.382" stroke="#263238" stroke-linecap="round" stroke-linejoin="round"/>
<path d="M174.864 343.457C177.949 346.096 181.487 348.153 185.307 349.529C191.864 351.957 194.778 353.414 195.749 355.6C196.721 357.786 195.749 359 195.749 359H154.221C154.221 359 152.035 355.6 155.678 348.8C159.321 342 174.864 343.457 174.864 343.457Z" fill="white" stroke="#263238" stroke-linecap="round" stroke-linejoin="round"/>
<path d="M176.349 344.895C176.349 344.895 172.959 346.381 174.017 347.012C175.076 347.644 177.825 346.167 177.825 346.167C177.825 346.167 174.445 348.713 176.135 348.926C177.825 349.14 180.371 347.654 180.371 347.654C180.371 347.654 178.039 350.617 179.098 350.83C180.157 351.044 182.906 348.887 182.906 348.887" stroke="#263238" stroke-linecap="round" stroke-linejoin="round"/>
<path d="M153.84 355.94L195.748 355.6" stroke="#263238" stroke-linecap="round" stroke-linejoin="round"/>
<path d="M190.893 239.756C190.893 239.756 186.035 279.342 185.307 288.814C184.578 298.285 178.021 314.8 176.807 318.928C175.565 324.114 174.752 329.394 174.378 334.714C174.607 337.009 175.013 339.282 175.592 341.514C175.592 341.514 176.078 343.7 171.464 344.671C166.85 345.643 158.35 347.1 158.35 347.1C158.35 347.1 155.192 346.128 155.435 336.9C155.678 327.671 156.164 310.671 158.35 302.657C160.535 294.642 163.45 281.528 164.178 278.857C164.907 276.185 163.207 232.228 163.207 232.228L190.407 231.985L190.893 239.756Z" fill="#263238" stroke="#263238" stroke-linecap="round" stroke-linejoin="round"/>
<path d="M155.676 343.457C158.761 346.096 162.299 348.153 166.119 349.529C172.676 351.957 175.591 353.414 176.562 355.6C177.533 357.786 176.562 359 176.562 359H135.033C135.033 359 132.847 355.6 136.49 348.8C140.133 342 155.676 343.457 155.676 343.457Z" fill="white" stroke="#263238" stroke-linecap="round" stroke-linejoin="round"/>
<path d="M160.681 346.808C160.681 346.808 155.387 349.771 156.232 350.189C157.077 350.607 162.372 348.071 162.372 348.071C162.372 348.071 159.409 351.462 161.099 351.248C162.789 351.034 164.703 348.926 164.703 348.926C164.703 348.926 163.003 352.52 164.276 352.103C165.329 351.591 166.268 350.87 167.034 349.985" stroke="#263238" stroke-linecap="round" stroke-linejoin="round"/>
<path d="M134.508 354.959L176.561 355.6" stroke="#263238" stroke-linecap="round" stroke-linejoin="round"/>
<path d="M141.832 229.556C141.832 229.556 143.289 267.442 143.047 274.728C142.804 282.014 138.918 290.028 138.432 298.771C137.946 307.514 134.469 341.893 134.469 345.779C134.469 349.665 134.634 350.403 134.877 351.132C135.12 351.86 141.104 350.257 144.504 349.043C147.904 347.829 159.58 346.605 159.58 346.605C159.58 346.605 157.638 342.972 157.638 340.3C157.638 337.629 157.152 333.257 157.638 331.8C158.123 330.343 161.038 299.986 162.98 294.4C164.923 288.814 168.323 270.357 168.566 263.314C168.809 256.271 171.723 232.471 171.723 232.471C171.723 232.471 152.275 233.199 141.832 229.556Z" fill="#263238" stroke="#263238" stroke-linecap="round" stroke-linejoin="round"/>
<path d="M172.57 258.456C172.687 256.999 172.755 255.639 172.755 254.396" stroke="white" stroke-linecap="round" stroke-linejoin="round"/>
<path d="M159.582 344.127V336.725C159.582 333.014 162.875 314.489 165.751 298.023C167.888 285.822 170.705 273.164 172.016 263.401" stroke="white" stroke-linecap="round" stroke-linejoin="round"/>
<path d="M146.944 110.759C146.944 110.759 138.055 118.89 137.298 119.502C136.54 120.114 129.73 131.218 127.845 135.57C125.961 139.922 127.651 148.053 128.817 154.999C129.983 161.944 137.327 184.307 137.327 184.307L135.432 240.844C135.432 240.844 148.479 246.333 155.833 247.644C163.186 248.956 174.931 248.402 174.931 248.402L177.389 236.113L180.41 247.829C180.41 247.829 191.941 246.508 197.235 240.65L190.814 168.599L187.22 136.26C187.22 136.26 186.248 128.488 184.383 125.107C182.518 121.727 172.279 115.082 165.09 112.479C157.902 109.875 146.944 110.759 146.944 110.759Z" fill="white"/>
<path d="M154.414 159.856L135.568 149.811L136.365 142.554C136.365 142.554 129.798 141.525 131.304 137.25C132.81 132.976 138.871 124.884 140.105 122.154C141.339 119.425 148.139 114.383 148.139 114.383L150.849 110.614C148.508 110.614 146.963 110.769 146.963 110.769C146.963 110.769 138.075 118.9 137.317 119.512C136.559 120.124 129.75 131.228 127.865 135.58C125.98 139.932 127.671 148.063 128.836 155.008C130.002 161.954 137.346 184.317 137.346 184.317L135.452 240.854C135.452 240.854 138.551 242.156 142.582 243.642C142.028 222.989 141.038 183.753 141.407 183.199C141.912 182.451 150.703 170.386 153.21 167.656C155.716 164.927 142.164 168.404 142.913 167.909C143.661 167.414 154.414 159.856 154.414 159.856Z" fill="#33A5DF"/>
<path opacity="0.5" d="M154.414 159.856L135.568 149.811L136.365 142.554C136.365 142.554 129.798 141.525 131.304 137.25C132.81 132.976 138.871 124.884 140.105 122.154C141.339 119.425 148.139 114.383 148.139 114.383L150.849 110.614C148.508 110.614 146.963 110.769 146.963 110.769C146.963 110.769 138.075 118.9 137.317 119.512C136.559 120.124 129.75 131.228 127.865 135.58C125.98 139.932 127.671 148.063 128.836 155.008C130.002 161.954 137.346 184.317 137.346 184.317L135.452 240.854C135.452 240.854 138.551 242.156 142.582 243.642C142.028 222.989 141.038 183.753 141.407 183.199C141.912 182.451 150.703 170.386 153.21 167.656C155.716 164.927 142.164 168.404 142.913 167.909C143.661 167.414 154.414 159.856 154.414 159.856Z" fill="white"/>
<path d="M172.434 150.87C172.434 150.87 178.932 213.314 177.388 236.133L172.434 150.87Z" fill="white"/>
<path d="M172.434 150.87C172.434 150.87 178.932 213.314 177.388 236.133" stroke="#263238" stroke-linecap="round" stroke-linejoin="round"/>
<path d="M143.777 203.813L163.449 206.485V211.585L144.02 208.427L143.777 203.813Z" stroke="#263238" stroke-linecap="round" stroke-linejoin="round"/>
<path d="M193.077 207.213L187.006 209.399L186.277 204.542L191.135 202.842" stroke="#263238" stroke-linecap="round" stroke-linejoin="round"/>
<path d="M146.944 110.759C146.944 110.759 138.055 118.89 137.298 119.502C136.54 120.114 129.73 131.218 127.845 135.57C125.961 139.922 127.651 148.053 128.817 154.999C129.983 161.944 137.327 184.307 137.327 184.307L135.432 240.844C135.432 240.844 148.479 246.333 155.833 247.644C163.186 248.956 174.931 248.402 174.931 248.402L177.389 236.113L180.41 247.829C180.41 247.829 191.941 246.508 197.235 240.65L190.814 168.599L187.22 136.26C187.22 136.26 186.248 128.488 184.383 125.107C182.518 121.727 172.279 115.082 165.09 112.479C157.902 109.875 146.944 110.759 146.944 110.759Z" stroke="#263238" stroke-linecap="round" stroke-linejoin="round"/>
<path d="M145.809 112.255C145.809 112.255 162.634 132.49 165.47 137.785C168.307 143.079 172.475 149.51 172.475 149.51C172.475 149.51 172.659 131.538 170.201 123.223C167.744 114.907 165.101 113.411 165.101 113.411C163.701 111.975 161.965 110.912 160.05 110.316C158.135 109.721 156.101 109.613 154.134 110.001C146.945 111.138 145.809 112.255 145.809 112.255Z" fill="white" stroke="#263238" stroke-linecap="round" stroke-linejoin="round"/>
<path d="M172.027 135.657L167.928 127.215V119.842L162.255 114.014L161.691 123.466L165.849 128.197L167.792 141.903C170.153 145.945 172.503 149.568 172.503 149.568C172.503 149.568 172.542 142.787 172.027 135.657Z" fill="#263238" stroke="#263238" stroke-linecap="round" stroke-linejoin="round"/>
<path d="M164.713 118.327L170.201 123.242L165.471 111.896C165.471 111.896 163.392 117.19 164.713 118.327Z" fill="white" stroke="#263238" stroke-linecap="round" stroke-linejoin="round"/>
<path d="M152.801 68.9678C152.801 68.9678 145.243 72.3776 142.028 78.4296C138.812 84.4817 143.533 91.8549 145.049 93.7395C146.136 95.0434 147.339 96.2464 148.643 97.3338L150.159 99.0338L150.343 107.544L164.128 119.269L167.907 107.165C167.907 107.165 174.338 105.844 175.29 103.386C176.242 100.928 173.395 85.8028 172.638 82.7719C171.88 79.7411 169.617 73.893 169.617 73.893C169.617 73.893 170.365 71.0564 166.022 68.4044C161.68 65.7524 152.801 68.9678 152.801 68.9678Z" fill="white"/>
<g opacity="0.15">
<path opacity="0.15" d="M152.801 68.9678C152.801 68.9678 145.243 72.3776 142.028 78.4296C138.812 84.4817 143.533 91.8549 145.049 93.7395C146.136 95.0434 147.339 96.2464 148.643 97.3338L150.159 99.0338L150.343 107.544L164.128 119.269L167.907 107.165C167.907 107.165 174.338 105.844 175.29 103.386C176.242 100.928 173.395 85.8028 172.638 82.7719C171.88 79.7411 169.617 73.893 169.617 73.893C169.617 73.893 170.365 71.0564 166.022 68.4044C161.68 65.7524 152.801 68.9678 152.801 68.9678Z" fill="black"/>
<g opacity="0.15">
<path opacity="0.15" d="M157.94 100.307C157.182 96.5374 160.204 86.7065 156.969 80.2076C154.375 75.0104 146.866 75.3504 143.893 75.7487C143.189 76.5738 142.577 77.4727 142.067 78.4299C138.851 84.4819 143.573 91.8551 145.088 93.7397C146.175 95.0437 147.378 96.2467 148.682 97.334L150.198 99.034L150.382 107.544L154.19 110.779C154.19 109.691 154.19 108.836 154.19 108.34C154.19 106.679 161.729 106.582 163.74 105.834C165.75 105.086 158.688 104.076 157.94 100.307Z" fill="black"/>
<path opacity="0.5" d="M157.94 100.307C157.182 96.5374 160.204 86.7065 156.969 80.2076C154.375 75.0104 146.866 75.3504 143.893 75.7487C143.189 76.5738 142.577 77.4727 142.067 78.4299C138.851 84.4819 143.573 91.8551 145.088 93.7397C146.175 95.0437 147.378 96.2467 148.682 97.334L150.198 99.034L150.382 107.544L154.19 110.779C154.19 109.691 154.19 108.836 154.19 108.34C154.19 106.679 161.729 106.582 163.74 105.834C165.75 105.086 158.688 104.076 157.94 100.307Z" fill="black"/>
</g>
</g>
<g style="mix-blend-mode:multiply" opacity="0.22">
<path d="M157.94 100.307C157.182 96.5374 160.204 86.7065 156.969 80.2076C154.375 75.0104 146.866 75.3504 143.893 75.7487C143.189 76.5738 142.577 77.4727 142.067 78.4299C138.851 84.4819 143.573 91.8551 145.088 93.7397C146.175 95.0437 147.378 96.2467 148.682 97.334L150.198 99.034L150.382 107.544L154.19 110.779C154.19 109.691 154.19 108.836 154.19 108.34C154.19 106.679 161.729 106.582 163.74 105.834C165.75 105.086 158.688 104.076 157.94 100.307Z" fill="black"/>
</g>
<path d="M152.801 68.9678C152.801 68.9678 145.243 72.3776 142.028 78.4296C138.812 84.4817 143.533 91.8549 145.049 93.7395C146.136 95.0434 147.339 96.2464 148.643 97.3338L150.159 99.0338L150.343 107.544L164.128 119.269L167.907 107.165C167.907 107.165 174.338 105.844 175.29 103.386C176.242 100.928 173.395 85.8028 172.638 82.7719C171.88 79.7411 169.617 73.893 169.617 73.893C169.617 73.893 170.365 71.0564 166.022 68.4044C161.68 65.7524 152.801 68.9678 152.801 68.9678Z" stroke="#263238" stroke-linecap="round" stroke-linejoin="round"/>
<path d="M154.879 99.4127C154.879 99.4127 155.637 102.444 156.958 103.201C160.014 104.936 163.469 105.847 166.983 105.844" stroke="#263238" stroke-linecap="round" stroke-linejoin="round"/>
<path d="M172.656 82.7721L171.52 84.851C171.52 84.851 176.056 89.0184 175.872 90.1453C175.687 91.2722 172.093 92.6127 172.093 92.6127" fill="white"/>
<path opacity="0.15" d="M172.656 82.7721L171.52 84.851C171.52 84.851 176.056 89.0184 175.872 90.1453C175.687 91.2722 172.093 92.6127 172.093 92.6127" fill="black"/>
<path d="M172.656 82.7721L171.52 84.851C171.52 84.851 176.056 89.0184 175.872 90.1453C175.687 91.2722 172.093 92.6127 172.093 92.6127" stroke="#263238" stroke-linecap="round" stroke-linejoin="round"/>
<path d="M166.867 86.8909L167.168 87.6486L164.672 88.6395L167.295 88.5812" stroke="#263238" stroke-linecap="round" stroke-linejoin="round"/>
<path d="M167.236 84.1614C167.236 84.1614 164.05 83.2871 162.719 85.9585" stroke="#263238" stroke-linecap="round" stroke-linejoin="round"/>
<path d="M173.842 95.2646C172.391 95.6798 170.892 95.9019 169.383 95.9252" stroke="#263238" stroke-linecap="round" stroke-linejoin="round"/>
<path d="M158.301 75.0199C163.401 71.9987 169.648 73.8833 169.648 73.8833C169.648 73.8833 170.396 71.0564 166.053 68.4044C161.711 65.7524 152.813 68.9678 152.813 68.9678C152.813 68.9678 145.255 72.3776 142.039 78.4296C138.824 84.4817 143.545 91.8549 145.061 93.7395C146.148 95.0434 147.351 96.2464 148.655 97.3338L150.17 99.0338V99.7235C153.24 99.3544 153.745 98.8492 153.745 98.8492C153.32 98.8591 152.898 98.7775 152.508 98.6099C152.117 98.4422 151.767 98.1926 151.482 97.8778C150.161 96.7412 147.703 94.8469 148.266 92.2046C148.83 89.5623 151.103 89.5526 152.24 90.4949C153.376 91.4372 153.376 91.6314 154.697 91.068C156.018 90.5046 154.124 87.0948 154.124 87.0948L156.067 85.7737C157.961 84.4525 158.525 82.9371 157.038 81.6159C155.552 80.2948 153.182 78.0508 158.301 75.0199Z" fill="#263238" stroke="#263238" stroke-linecap="round" stroke-linejoin="round"/>
<path d="M148.461 105.659L145.809 112.275L160.934 126.836L164.907 119.084L148.461 105.659Z" fill="white" stroke="#263238" stroke-linecap="round" stroke-linejoin="round"/>
<path d="M188.16 59.1954C188.16 59.1954 197.991 76.5938 199.507 84.9093C201.022 93.2248 203.859 104.192 203.859 104.192L228.63 101.356C228.63 101.356 225.036 78.2938 222.802 70.5417C220.567 62.7897 219.965 61.08 219.965 61.08C219.965 61.08 192.298 58.2434 188.16 59.1954Z" fill="#263238" stroke="#263238" stroke-linecap="round" stroke-linejoin="round"/>
<path d="M191.57 117.248C191.57 117.248 192.542 110.448 192.542 109.866C192.542 109.283 192.299 99.6266 192.299 99.6266C192.299 99.6266 195.893 91.8551 196.466 91.4957C197.04 91.1363 203.082 88.0957 203.461 89.4168C203.84 90.738 202.14 91.3111 201.566 91.8746C200.993 92.438 198.545 93.5746 198.351 94.1477C198.157 94.7209 197.03 99.0632 197.03 99.0632C197.03 99.0632 201.945 95.2843 203.266 95.2843C204.588 95.2843 205.724 98.3055 205.724 98.3055C205.724 98.3055 207.434 100.763 207.434 102.084C207.434 103.405 207.813 104.921 206.861 105.873C205.909 106.825 205.54 107.573 204.218 107.573C202.897 107.573 201.188 109.088 201.188 110.215C201.188 111.342 201.188 115.131 200.051 116.267C198.296 117.744 196.467 119.132 194.572 120.425L191.57 117.248Z" fill="white"/>
<path opacity="0.15" d="M191.57 117.248C191.57 117.248 192.542 110.448 192.542 109.866C192.542 109.283 192.299 99.6266 192.299 99.6266C192.299 99.6266 195.893 91.8551 196.466 91.4957C197.04 91.1363 203.082 88.0957 203.461 89.4168C203.84 90.738 202.14 91.3111 201.566 91.8746C200.993 92.438 198.545 93.5746 198.351 94.1477C198.157 94.7209 197.03 99.0632 197.03 99.0632C197.03 99.0632 201.945 95.2843 203.266 95.2843C204.588 95.2843 205.724 98.3055 205.724 98.3055C205.724 98.3055 207.434 100.763 207.434 102.084C207.434 103.405 207.813 104.921 206.861 105.873C205.909 106.825 205.54 107.573 204.218 107.573C202.897 107.573 201.188 109.088 201.188 110.215C201.188 111.342 201.188 115.131 200.051 116.267C198.296 117.744 196.467 119.132 194.572 120.425L191.57 117.248Z" fill="black" stroke="#263238" stroke-linecap="round" stroke-linejoin="round"/>
<path d="M191.57 117.248C191.57 117.248 192.542 110.448 192.542 109.866C192.542 109.283 192.299 99.6266 192.299 99.6266C192.299 99.6266 195.893 91.8551 196.466 91.4957C197.04 91.1363 203.082 88.0957 203.461 89.4168C203.84 90.738 202.14 91.3111 201.566 91.8746C200.993 92.438 198.545 93.5746 198.351 94.1477C198.157 94.7209 197.03 99.0632 197.03 99.0632C197.03 99.0632 201.945 95.2843 203.266 95.2843C204.588 95.2843 205.724 98.3055 205.724 98.3055C205.724 98.3055 207.434 100.763 207.434 102.084C207.434 103.405 207.813 104.921 206.861 105.873C205.909 106.825 205.54 107.573 204.218 107.573C202.897 107.573 201.188 109.088 201.188 110.215C201.188 111.342 201.188 115.131 200.051 116.267C198.296 117.744 196.467 119.132 194.572 120.425L191.57 117.248Z" stroke="#263238" stroke-linecap="round" stroke-linejoin="round"/>
<path d="M207.454 102.114L201.023 105.145" stroke="#263238" stroke-linecap="round" stroke-linejoin="round"/>
<path d="M205.745 98.3346L199.703 101.929" stroke="#263238" stroke-linecap="round" stroke-linejoin="round"/>
<path d="M229.576 96.6345C229.576 96.6345 225.418 99.0922 225.418 100.229C225.418 101.365 226.389 101.55 227.681 100.986C228.973 100.423 231.47 99.6556 231.47 98.3345C231.47 97.0133 230.897 96.4402 229.576 96.6345Z" fill="white"/>
<path opacity="0.15" d="M229.576 96.6345C229.576 96.6345 225.418 99.0922 225.418 100.229C225.418 101.365 226.389 101.55 227.681 100.986C228.973 100.423 231.47 99.6556 231.47 98.3345C231.47 97.0133 230.897 96.4402 229.576 96.6345Z" fill="black" stroke="#263238" stroke-linecap="round" stroke-linejoin="round"/>
<path d="M229.576 96.6345C229.576 96.6345 225.418 99.0922 225.418 100.229C225.418 101.365 226.389 101.55 227.681 100.986C228.973 100.423 231.47 99.6556 231.47 98.3345C231.47 97.0133 230.897 96.4402 229.576 96.6345Z" stroke="#263238" stroke-linecap="round" stroke-linejoin="round"/>
<path d="M228.815 93.9824C228.815 93.9824 224.842 94.9538 224.657 96.4401C224.473 97.9264 229.573 96.819 230.709 96.4401C231.846 96.0613 231.846 93.419 228.815 93.9824Z" fill="white"/>
<path opacity="0.15" d="M228.815 93.9824C228.815 93.9824 224.842 94.9538 224.657 96.4401C224.473 97.9264 229.573 96.819 230.709 96.4401C231.846 96.0613 231.846 93.419 228.815 93.9824Z" fill="black" stroke="#263238" stroke-linecap="round" stroke-linejoin="round"/>
<path d="M228.815 93.9824C228.815 93.9824 224.842 94.9538 224.657 96.4401C224.473 97.9264 229.573 96.819 230.709 96.4401C231.846 96.0613 231.846 93.419 228.815 93.9824Z" stroke="#263238" stroke-linecap="round" stroke-linejoin="round"/>
<path d="M230.896 99.6265C230.896 99.6265 226.175 101.9 225.981 102.657C225.787 103.415 225.418 104.542 227.302 104.542C229.187 104.542 232.791 102.657 232.975 101.326C233.16 99.9956 232.412 99.6265 230.896 99.6265Z" fill="white"/>
<path opacity="0.15" d="M230.896 99.6265C230.896 99.6265 226.175 101.9 225.981 102.657C225.787 103.415 225.418 104.542 227.302 104.542C229.187 104.542 232.791 102.657 232.975 101.326C233.16 99.9956 232.412 99.6265 230.896 99.6265Z" fill="black" stroke="#263238" stroke-linecap="round" stroke-linejoin="round"/>
<path d="M230.896 99.6265C230.896 99.6265 226.175 101.9 225.981 102.657C225.787 103.415 225.418 104.542 227.302 104.542C229.187 104.542 232.791 102.657 232.975 101.326C233.16 99.9956 232.412 99.6265 230.896 99.6265Z" stroke="#263238" stroke-linecap="round" stroke-linejoin="round"/>
<path d="M232.381 102.308C232.381 102.308 228.009 104.309 227.834 104.979C227.66 105.649 227.31 106.65 229.058 106.65C230.807 106.65 234.129 104.979 234.304 103.813C234.479 102.648 233.78 102.308 232.381 102.308Z" fill="white"/>
<path opacity="0.15" d="M232.381 102.308C232.381 102.308 228.009 104.309 227.834 104.979C227.66 105.649 227.31 106.65 229.058 106.65C230.807 106.65 234.129 104.979 234.304 103.813C234.479 102.648 233.78 102.308 232.381 102.308Z" fill="black" stroke="#263238" stroke-linecap="round" stroke-linejoin="round"/>
<path d="M232.381 102.308C232.381 102.308 228.009 104.309 227.834 104.979C227.66 105.649 227.31 106.65 229.058 106.65C230.807 106.65 234.129 104.979 234.304 103.813C234.479 102.648 233.78 102.308 232.381 102.308Z" stroke="#263238" stroke-linecap="round" stroke-linejoin="round"/>
<path d="M195.391 61.6724C195.391 61.6724 203.279 75.4182 204.736 81.0039C206.193 86.5897 207.407 102.133 207.407 102.133L223.193 100.19C223.193 100.19 222.707 86.104 220.522 79.3039C218.336 72.5039 216.636 63.761 216.636 63.761L195.391 61.6724Z" fill="#7D7D7D"/>
<path d="M208.473 82.4028C208.473 82.4028 206.666 85.7639 207.696 87.1919C208.726 88.6199 211.184 89.2611 211.446 89.6497C211.708 90.0382 213.515 101.025 213.515 101.025L219.072 100.51C219.072 100.51 216.361 90.2908 217.002 88.3577C217.644 86.4245 219.208 84.6079 217.653 82.9273C216.099 81.2467 213.641 80.081 212.097 80.3336C210.757 80.7621 209.523 81.467 208.473 82.4028Z" fill="white"/>
<path d="M203.434 62.877C203.434 62.877 207.96 74.5342 207.572 76.5839C207.183 78.6336 206.144 82.0142 208.475 82.4125C210.807 82.8108 211.837 80.6057 212.614 80.732C213.391 80.8582 214.683 83.316 215.849 81.8977C217.014 80.4794 218.17 78.1479 216.237 75.8165C214.304 73.485 212.876 72.2027 211.837 69.745C211.043 67.712 210.352 65.6402 209.767 63.5375L203.434 62.877Z" fill="white"/>
<path d="M145.993 123.291C145.993 123.291 148.829 123.291 152.239 126.322C155.649 129.352 167.782 141.641 167.782 141.641L191.417 115.917L199.189 123.291L171.143 164.324C169.807 164.779 168.395 164.974 166.985 164.897C164.907 164.703 133.141 149.014 133.141 149.014" fill="white"/>
<path d="M163.216 158.583C158.942 158.583 144.623 150.54 140.106 147.023C138.58 145.786 137.312 144.261 136.375 142.535L133.141 149.014C133.141 149.014 164.907 164.703 166.985 164.897C168.395 164.974 169.807 164.779 171.143 164.324L191.407 134.598C184.102 141.767 166.577 158.583 163.216 158.583Z" fill="#33A5DF"/>
<path opacity="0.5" d="M163.216 158.583C158.942 158.583 144.623 150.54 140.106 147.023C138.58 145.786 137.312 144.261 136.375 142.535L133.141 149.014C133.141 149.014 164.907 164.703 166.985 164.897C168.395 164.974 169.807 164.779 171.143 164.324L191.407 134.598C184.102 141.767 166.577 158.583 163.216 158.583Z" fill="white"/>
<path d="M145.993 123.291C145.993 123.291 148.829 123.291 152.239 126.322C155.649 129.352 167.782 141.641 167.782 141.641L191.417 115.917L199.189 123.291L171.143 164.324C169.807 164.779 168.395 164.974 166.985 164.897C164.907 164.703 133.141 149.014 133.141 149.014" stroke="#263238" stroke-linecap="round" stroke-linejoin="round"/>
<path d="M145.992 155.63L135.598 155.436" stroke="#263238" stroke-linecap="round" stroke-linejoin="round"/>
<path d="M167.742 141.272C167.742 141.272 161.748 148.441 161.02 152.327" stroke="#263238" stroke-linecap="round" stroke-linejoin="round"/>
<path d="M165.877 142.01C165.877 142.01 160.777 146.625 159.562 149.053" stroke="#263238" stroke-linecap="round" stroke-linejoin="round"/>
<g filter="url(#filter0_d_7_5899)">
<rect x="244" y="132" width="80" height="80" rx="20" fill="white"/>
</g>
<path d="M274.628 178.771C274.232 178.771 273.836 178.625 273.523 178.312C272.919 177.708 272.919 176.708 273.523 176.104L280.19 169.437C280.523 169.104 280.961 168.937 281.44 168.979C281.898 169.021 282.315 169.271 282.586 169.666L284.857 173.083L292.253 165.687C292.857 165.083 293.857 165.083 294.461 165.687C295.065 166.292 295.065 167.292 294.461 167.896L285.711 176.646C285.378 176.979 284.94 177.146 284.461 177.104C284.003 177.062 283.586 176.812 283.315 176.416L281.044 173L275.732 178.312C275.419 178.625 275.023 178.771 274.628 178.771Z" fill="#32A5DF"/>
<path d="M293.374 172.521C292.52 172.521 291.811 171.812 291.811 170.958V168.354H289.207C288.353 168.354 287.645 167.646 287.645 166.792C287.645 165.937 288.353 165.229 289.207 165.229H293.374C294.228 165.229 294.936 165.937 294.936 166.792V170.958C294.936 171.812 294.228 172.521 293.374 172.521Z" fill="#32A5DF"/>
<path d="M290.251 194.396H277.751C266.439 194.396 261.605 189.562 261.605 178.25V165.75C261.605 154.437 266.439 149.604 277.751 149.604H290.251C301.564 149.604 306.397 154.437 306.397 165.75V178.25C306.397 189.562 301.564 194.396 290.251 194.396ZM277.751 152.729C268.147 152.729 264.73 156.146 264.73 165.75V178.25C264.73 187.854 268.147 191.271 277.751 191.271H290.251C299.855 191.271 303.272 187.854 303.272 178.25V165.75C303.272 156.146 299.855 152.729 290.251 152.729H277.751Z" fill="#32A5DF"/>
<g filter="url(#filter1_d_7_5899)">
<rect x="96" y="24" width="40" height="40" rx="10" fill="white"/>
</g>
<path d="M116 53.6501C115.69 53.6501 115.39 53.6101 115.14 53.5201C111.32 52.2101 105.25 47.5601 105.25 40.6901C105.25 37.1901 108.08 34.3501 111.56 34.3501C113.25 34.3501 114.83 35.0101 116 36.1901C117.17 35.0101 118.75 34.3501 120.44 34.3501C123.92 34.3501 126.75 37.2001 126.75 40.6901C126.75 47.5701 120.68 52.2101 116.86 53.5201C116.61 53.6101 116.31 53.6501 116 53.6501ZM111.56 35.8501C108.91 35.8501 106.75 38.0201 106.75 40.6901C106.75 47.5201 113.32 51.3201 115.63 52.1101C115.81 52.1701 116.2 52.1701 116.38 52.1101C118.68 51.3201 125.26 47.5301 125.26 40.6901C125.26 38.0201 123.1 35.8501 120.45 35.8501C118.93 35.8501 117.52 36.5601 116.61 37.7901C116.33 38.1701 115.69 38.1701 115.41 37.7901C114.48 36.5501 113.08 35.8501 111.56 35.8501Z" fill="#7367F0"/>
<g filter="url(#filter2_d_7_5899)">
<rect x="30" y="109" width="70" height="70" rx="20" fill="white"/>
</g>
<path d="M69.9479 161.917H59.9479C50.8979 161.917 47.0312 158.05 47.0312 149V139C47.0312 129.95 50.8979 126.083 59.9479 126.083H69.9479C78.9979 126.083 82.8645 129.95 82.8645 139V149C82.8645 158.05 79.0145 161.917 69.9479 161.917ZM59.9479 128.583C52.2646 128.583 49.5312 131.317 49.5312 139V149C49.5312 156.683 52.2646 159.417 59.9479 159.417H69.9479C77.6312 159.417 80.3645 156.683 80.3645 149V139C80.3645 131.317 77.6312 128.583 69.9479 128.583H59.9479Z" fill="#FF8038"/>
<path d="M64.083 154.1C63.683 154.1 62.7164 153.95 62.1497 152.5L60.2497 147.7C59.9831 147.016 59.0331 146.383 58.3164 146.383L48.3164 146.416C47.6331 146.416 47.0664 145.866 47.0664 145.166C47.0664 144.483 47.6164 143.916 48.3164 143.916L58.3164 143.883H58.3331C60.0831 143.883 61.9497 145.15 62.5997 146.783L64.1164 150.616L67.5497 141.916C68.0664 140.616 68.983 140.433 69.3664 140.4C69.7497 140.383 70.683 140.466 71.333 141.7L73.0664 144.983C73.3664 145.55 74.2664 146.1 74.9164 146.1H81.683C82.3664 146.1 82.933 146.666 82.933 147.35C82.933 148.033 82.3664 148.6 81.683 148.6H74.9164C73.333 148.6 71.5997 147.55 70.8664 146.15L69.5664 143.683L66.0664 152.5C65.4497 153.933 64.4664 154.1 64.083 154.1Z" fill="#FF8038"/>
<defs>
<filter id="filter0_d_7_5899" x="214" y="108" width="140" height="140" filterUnits="userSpaceOnUse" color-interpolation-filters="sRGB">
<feFlood flood-opacity="0" result="BackgroundImageFix"/>
<feColorMatrix in="SourceAlpha" type="matrix" values="0 0 0 0 0 0 0 0 0 0 0 0 0 0 0 0 0 0 127 0" result="hardAlpha"/>
<feOffset dy="6"/>
<feGaussianBlur stdDeviation="15"/>
<feComposite in2="hardAlpha" operator="out"/>
<feColorMatrix type="matrix" values="0 0 0 0 0.2 0 0 0 0 0.647059 0 0 0 0 0.87451 0 0 0 0.22 0"/>
<feBlend mode="normal" in2="BackgroundImageFix" result="effect1_dropShadow_7_5899"/>
<feBlend mode="normal" in="SourceGraphic" in2="effect1_dropShadow_7_5899" result="shape"/>
</filter>
<filter id="filter1_d_7_5899" x="66" y="0" width="100" height="100" filterUnits="userSpaceOnUse" color-interpolation-filters="sRGB">
<feFlood flood-opacity="0" result="BackgroundImageFix"/>
<feColorMatrix in="SourceAlpha" type="matrix" values="0 0 0 0 0 0 0 0 0 0 0 0 0 0 0 0 0 0 127 0" result="hardAlpha"/>
<feOffset dy="6"/>
<feGaussianBlur stdDeviation="15"/>
<feComposite in2="hardAlpha" operator="out"/>
<feColorMatrix type="matrix" values="0 0 0 0 0.2 0 0 0 0 0.647059 0 0 0 0 0.87451 0 0 0 0.22 0"/>
<feBlend mode="normal" in2="BackgroundImageFix" result="effect1_dropShadow_7_5899"/>
<feBlend mode="normal" in="SourceGraphic" in2="effect1_dropShadow_7_5899" result="shape"/>
</filter>
<filter id="filter2_d_7_5899" x="0" y="85" width="130" height="130" filterUnits="userSpaceOnUse" color-interpolation-filters="sRGB">
<feFlood flood-opacity="0" result="BackgroundImageFix"/>
<feColorMatrix in="SourceAlpha" type="matrix" values="0 0 0 0 0 0 0 0 0 0 0 0 0 0 0 0 0 0 127 0" result="hardAlpha"/>
<feOffset dy="6"/>
<feGaussianBlur stdDeviation="15"/>
<feComposite in2="hardAlpha" operator="out"/>
<feColorMatrix type="matrix" values="0 0 0 0 0.2 0 0 0 0 0.647059 0 0 0 0 0.87451 0 0 0 0.22 0"/>
<feBlend mode="normal" in2="BackgroundImageFix" result="effect1_dropShadow_7_5899"/>
<feBlend mode="normal" in="SourceGraphic" in2="effect1_dropShadow_7_5899" result="shape"/>
</filter>
</defs>
</svg>
