<svg width="160" height="160" viewBox="0 0 160 160" fill="none" xmlns="http://www.w3.org/2000/svg">
<circle cx="80" cy="80" r="79.5" stroke="#C0E6FA" stroke-opacity="0.25"/>
<circle cx="80" cy="80" r="64.5" stroke="#C0E6FA" stroke-opacity="0.5"/>
<circle cx="80" cy="80" r="50" fill="#C0E6FA"/>
<path d="M103.447 96.2078C103.447 102.439 93.4124 107.49 81.0342 107.49C68.656 107.49 58.6215 102.439 58.6215 96.2078C58.6215 89.9769 68.656 84.9257 81.0342 84.9257C93.4124 84.9257 103.447 89.9769 103.447 96.2078Z" fill="white"/>
<path d="M92.2406 66.1222C92.2406 72.3531 87.2233 77.4043 81.0342 77.4043C74.8451 77.4043 69.8278 72.3531 69.8278 66.1222C69.8278 59.8913 74.8451 54.8401 81.0342 54.8401C87.2233 54.8401 92.2406 59.8913 92.2406 66.1222Z" fill="white"/>
<path d="M81.4523 78.9949C81.3828 78.9949 81.2786 78.9949 81.2091 78.9949C81.1048 78.9949 80.9659 78.9949 80.8616 78.9949C72.9736 78.7501 67.0664 72.558 67.0664 64.9316C67.0664 57.1653 73.3558 50.8334 81.0701 50.8334C88.7843 50.8334 95.0737 57.1653 95.0737 64.9316C95.039 72.593 89.097 78.7501 81.5566 78.9949C81.4871 78.9949 81.4871 78.9949 81.4523 78.9949ZM81.0353 56.0459C76.1706 56.0459 72.2439 60.034 72.2439 64.8966C72.2439 69.6894 75.9621 73.5725 80.6879 73.7475C80.7921 73.7125 81.1396 73.7125 81.4871 73.7475C86.1434 73.5026 89.792 69.6544 89.8267 64.8966C89.8267 60.034 85.9001 56.0459 81.0353 56.0459Z" fill="white"/>
<path d="M81.037 111.25C71.6897 111.25 62.7593 107.752 55.8444 101.385C55.2189 100.825 54.9409 99.9855 55.0104 99.1808C55.4622 95.0178 58.0335 91.1347 62.3076 88.2661C72.6626 81.3394 89.4461 81.3394 99.7664 88.2661C104.04 91.1697 106.612 95.0178 107.064 99.1808C107.168 100.02 106.855 100.825 106.23 101.385C99.3147 107.752 90.3843 111.25 81.037 111.25ZM60.4659 98.4812C66.2342 103.344 73.4966 106.003 81.037 106.003C88.5774 106.003 95.8398 103.344 101.608 98.4812C100.983 96.3472 99.3147 94.2832 96.8475 92.604C88.2994 86.8667 73.8093 86.8667 65.1917 92.604C62.7246 94.2832 61.0914 96.3472 60.4659 98.4812Z" fill="white"/>
</svg>
