<svg width="20" height="20" viewBox="0 0 20 20" fill="none" xmlns="http://www.w3.org/2000/svg">
<path d="M14.166 17.2917H9.99935C9.65768 17.2917 9.37435 17.0084 9.37435 16.6667C9.37435 16.325 9.65768 16.0417 9.99935 16.0417H14.166C16.5493 16.0417 17.7077 14.8834 17.7077 12.5V7.50004C17.7077 5.11671 16.5493 3.95837 14.166 3.95837H5.83268C3.44935 3.95837 2.29102 5.11671 2.29102 7.50004V9.16671C2.29102 9.50837 2.00768 9.79171 1.66602 9.79171C1.32435 9.79171 1.04102 9.50837 1.04102 9.16671V7.50004C1.04102 4.45837 2.79102 2.70837 5.83268 2.70837H14.166C17.2077 2.70837 18.9577 4.45837 18.9577 7.50004V12.5C18.9577 15.5417 17.2077 17.2917 14.166 17.2917Z" fill="#3C4E69"/>
<path d="M9.99935 12.7083C8.50768 12.7083 7.29102 11.4916 7.29102 9.99996C7.29102 8.50829 8.50768 7.29163 9.99935 7.29163C11.491 7.29163 12.7077 8.50829 12.7077 9.99996C12.7077 11.4916 11.491 12.7083 9.99935 12.7083ZM9.99935 8.54163C9.19935 8.54163 8.54102 9.19996 8.54102 9.99996C8.54102 10.8 9.19935 11.4583 9.99935 11.4583C10.7993 11.4583 11.4577 10.8 11.4577 9.99996C11.4577 9.19996 10.7993 8.54163 9.99935 8.54163Z" fill="#3C4E69"/>
<path d="M15.416 12.7083C15.0743 12.7083 14.791 12.425 14.791 12.0833V7.91663C14.791 7.57496 15.0743 7.29163 15.416 7.29163C15.7577 7.29163 16.041 7.57496 16.041 7.91663V12.0833C16.041 12.425 15.7577 12.7083 15.416 12.7083Z" fill="#3C4E69"/>
<path d="M7.08268 15.575C6.74102 15.575 6.45768 15.2916 6.45768 14.95V13.8833C6.45768 13.7 6.30771 13.5416 6.11604 13.5416H1.66602C1.32435 13.5416 1.04102 13.2583 1.04102 12.9166C1.04102 12.575 1.32435 12.2916 1.66602 12.2916H6.11604C6.99104 12.2916 7.70768 13.0083 7.70768 13.8833V14.95C7.70768 15.2916 7.42435 15.575 7.08268 15.575Z" fill="#3C4E69"/>
<path d="M2.68255 14.5581C2.52422 14.5581 2.36591 14.4998 2.24091 14.3748L1.22422 13.3582C0.982552 13.1165 0.982552 12.7164 1.22422 12.4748L2.24091 11.4581C2.48258 11.2164 2.88258 11.2164 3.12424 11.4581C3.36591 11.6998 3.36591 12.0998 3.12424 12.3414L2.54924 12.9164L3.12424 13.4914C3.36591 13.7331 3.36591 14.1331 3.12424 14.3748C2.99924 14.4998 2.84089 14.5581 2.68255 14.5581Z" fill="#3C4E69"/>
<path d="M7.08268 17.9415H2.63266C1.75766 17.9415 1.04102 17.2249 1.04102 16.3499V15.2832C1.04102 14.9415 1.32435 14.6582 1.66602 14.6582C2.00768 14.6582 2.29102 14.9415 2.29102 15.2832V16.3499C2.29102 16.5332 2.44099 16.6915 2.63266 16.6915H7.08268C7.42435 16.6915 7.70768 16.9749 7.70768 17.3165C7.70768 17.6582 7.42435 17.9415 7.08268 17.9415Z" fill="#3C4E69"/>
<path d="M6.0663 18.9584C5.90797 18.9584 5.74961 18.9 5.62461 18.775C5.38294 18.5334 5.38294 18.1333 5.62461 17.8916L6.19961 17.3167L5.62461 16.7417C5.38294 16.5 5.38294 16.1 5.62461 15.8584C5.86628 15.6167 6.26628 15.6167 6.50794 15.8584L7.52463 16.875C7.7663 17.1167 7.7663 17.5167 7.52463 17.7584L6.50794 18.775C6.39128 18.9 6.22463 18.9584 6.0663 18.9584Z" fill="#3C4E69"/>
</svg>
